<?xml version="1.0" encoding="UTF-8"?>
<svg id="Layer_2" data-name="Layer 2" xmlns="http://www.w3.org/2000/svg" viewBox="0 0 280.6 361.45">
  <defs>
    <style>
      .cls-1 {
        fill: #4f7b43;
      }

      .cls-1, .cls-2, .cls-3 {
        stroke-width: 0px;
      }

      .cls-2 {
        fill: #2a4238;
      }

      .cls-3 {
        fill: #6ba464;
      }
    </style>
  </defs>
  <g id="Layer_1-2" data-name="Layer 1">
    <g>
      <path class="cls-2" d="m23.02,218.16c-4.67-1.37-9.34-2.7-13.55-5.26-4.98-3.04-8.13-7.33-9.27-13.07-.34-1.69-.55-3.32,2.08-2.85,2.09.38,2.86-.73,3.56-2.59,13.46-35.72,26.99-71.41,40.54-107.09.69-1.82,1.2-3.29-1.08-4.4-.76-.37-1.27-1.39-1.75-2.2-.77-1.28-1.12-2.68.42-3.62,1.35-.82,2.41-.13,3.15,1.13,1.18,2.02,2.76,1.55,4.35.66,2.25-1.26,4.02-3.11,5.72-4.99,10.8-11.91,23.94-15.18,39.26-10.9,9.78,2.73,19.16,6.69,29.01,9.17,7.48,1.88,7.47,1.92,7.47-5.72,0-1.17-.1-2.34.02-3.5.25-2.37-.19-4.05-2.63-5.37-2.53-1.37-3.15-4.08-2.63-6.95.95-5.23,4.08-9.24,7.34-13.16,5.37-6.45,5.42-6.43,10.94.02,2.84,3.32,5.35,6.86,6.78,11.04,1.54,4.51.7,7.25-3.23,9.83-1.05.69-1.42,1.35-1.4,2.53.05,3.6.08,7.21,0,10.81-.04,1.59.39,1.88,1.99,1.61,8.81-1.49,17.07-4.82,25.5-7.57,5.53-1.8,11.08-3.49,16.89-4.26,10.59-1.39,19.66,1.8,27.52,8.77,2.69,2.39,5.1,5.1,7.82,7.45,2.06,1.77,4.39,3.42,6.53-.15.55-.91,1.62-1.02,2.56-.54,1.13.58,1.31,1.63.95,2.73-.43,1.33-1.17,2.65-2.38,3.28-1.89.98-1.73,2.11-1.08,3.82,13.51,35.58,26.98,71.18,40.4,106.8.81,2.14,1.5,3.91,4.32,3.39,1.76-.33,1.46,1.06,1.41,2.07-.35,6.03-3.69,10.18-8.48,13.42-4.19,2.83-9.04,4.06-13.74,5.64-4.61.75-9.19,1.77-13.88,1.93-3.06.18-6.12.42-9.18.52-9.75.33-19.44-.55-29.09-1.87-4.55-1.08-9.06-2.27-13.28-4.35-2.8-1.39-5.18-3.37-7.61-5.28-1.66-2.45-3.4-4.86-3.9-7.86-.41-2.42-.76-4.87,3.1-4.27.68.11,1.24-.22,1.36-1.01,2.46-5.59,4.69-11.26,6.37-17.13,1.89-3.56,3.04-7.41,4.44-11.16,3.22-8.61,6.39-17.24,9.58-25.86,2.5-5.5,4.83-11.06,6.25-16.96,2.28-4.1,3.61-8.57,5.13-12.97,3.38-8.75,6.72-17.52,10.18-26.24.59-1.49.08-2.04-1.13-2.66-2.46-1.28-4.59-3.04-6.54-4.99-9.83-9.83-21.18-11.87-34.1-7.09-11.66,4.31-22.92,9.73-34.98,12.96-7.23-.02-14.45-.03-21.68-.05-2.79-.92-5.57-1.86-8.37-2.76-9.64-3.1-18.67-7.8-28.32-10.88-11.77-3.76-22.08-1.5-31,7.04-2.37,2.27-4.8,4.48-7.75,5.98-.87.44-1.38.93-.96,1.97,3.64,8.98,6.53,18.24,10.57,27.06,1.3,4.53,3.07,8.88,4.91,13.21,1.69,5.52,3.8,10.89,6.1,16.19,1.45,3.94,2.83,7.91,4.35,11.82,3.38,8.7,6.31,17.58,10.14,26.11,1.4,5.65,3.91,10.9,5.9,16.34.35,1.24,1.41,1.2,2.31,1.08,2.76-.35,2.9,1.24,2.55,3.25-.59,3.39-2.1,6.34-4.33,8.94-2.14,2.02-4.62,3.59-7.09,5.16-4.12,1.9-8.51,2.98-12.8,4.37-3.86.43-7.71.89-11.57,1.28-9.03.89-18.06.85-27.1.12-4.68-.28-9.31-.95-13.89-1.96Zm45.7-78.96l.05.04c-.66-3.63-2.17-6.95-3.72-10.26-1.43-4.56-3.14-9.02-5.12-13.38-2.69-8.86-6.45-17.31-9.78-26.63-.72,1.67-1.18,2.61-1.55,3.58-7.7,20.35-15.39,40.7-23.08,61.06-5.11,13.54-10.18,27.09-15.38,40.59-.85,2.21-.65,2.99,1.91,2.84,3.38-.2,6.77-.1,10.16-.14,4.46.02,8.93.04,13.39.06,12.96.29,25.92.29,38.88,0,4.64,0,9.28,0,13.92,0,.73-.03,1.6.77,2.15-.37-.05-.23-.1-.46-.14-.69-.31-1.79-1.04-3.42-1.91-5-3.08-9.06-6.54-17.97-10.14-26.84-.78-3.07-1.98-5.99-3.34-8.84-1.92-5.15-3.84-10.31-5.77-15.46-.18-.19-.36-.38-.53-.57Zm152.52-23.79c-2.34,4.11-3.61,8.65-5.1,13.1-1.87,3.64-3.22,7.48-4.42,11.37-1.9,5.06-3.8,10.13-5.7,15.19-1.37,2.67-2.4,5.46-3.14,8.37-3.7,8.72-6.9,17.63-10.12,26.54-.77,1.94-1.54,3.87-2.31,5.81-.19,1.71,1.15,1.21,1.93,1.21,22.21,0,44.43-.05,66.64-.08h12.77c-13.59-35.92-27.1-71.63-40.9-108.08-2.23,5.82-4.24,10.78-6.01,15.83-1.25,3.57-3.16,6.93-3.65,10.75Z"/>
      <path class="cls-3" d="m192.9,214.4c4.22,2.08,8.73,3.26,13.27,4.35-1.1,9.25-2.09,18.51-4.32,27.57-.41,1.66.19,2.15,1.78,2.51,8.59,1.92,16.98,4.51,24.97,8.26,1.1.51,1.86.75,2.6-.55,6.54-11.38,11.6-23.29,13.24-36.45,4.69-.16,9.27-1.18,13.88-1.93-6.17,39.85-26.88,69.66-62.2,89.03-17.41,9.55-36.2,13.95-56.2,13.44-49.8-1.27-84.98-25.07-107.11-69.05-5.27-10.48-8.07-21.82-9.8-33.41,4.58,1.01,9.21,1.68,13.89,1.96,1.94,12.92,6.57,24.85,13.14,36.09.89,1.52,1.75,1.39,3.09.77,7.69-3.58,15.73-6.19,24.01-7.95,2.46-.52,2.68-1.57,2.21-3.67-1.99-8.77-3.29-17.65-3.78-26.64,4.29-1.39,8.68-2.47,12.8-4.37.39,9.33,1.97,18.5,3.6,27.68.61,3.46,2.1,3.9,5.09,3.38,7.42-1.3,14.94-1.68,22.43-2.38,2.01-.19,2.91.26,2.77,2.48-.17,2.74-.15,5.51,0,8.26.1,1.93-.54,2.48-2.48,2.6-5.7.37-11.4.89-17.07,1.62-6.38.82-6.44.97-3.95,7.1,3.6,8.83,7.44,17.55,13.73,24.9-.34,6.49.06,12.89,2.41,19.03.22-3.08.31-6.14.19-9.2-.08-2.15.92-2.69,2.67-2,.92.36,2.18-.11,2.77,1.06,5.25,4.84,10.9,8.65,18.57,7.71,3.74-.46,7.6.79,11.27-.77,1.52.14,3.27,0,4.11,1.58,1.02,1.94,1.76,1,2.26-.16,1.08-2.49,1.99-5.06,2.97-7.6,1.53-.41,2.43-1.65,3.46-2.69,10.12-10.25,16.32-22.8,21.09-36.18.89-2.49-.85-2.36-2.27-2.5-6.95-.69-13.89-1.39-20.85-1.95-1.61-.13-2.25-.57-2.18-2.24.11-2.64.2-5.31-.02-7.94-.23-2.72.72-3.4,3.38-3.15,7.9.75,15.82,1.34,23.67,2.53,1.92.29,2.8-.12,3.21-2.22,1.87-9.57,3.52-19.15,3.69-28.93Zm-90.13,86.18c.24.03.48.05.71.08-.1-.19-.2-.37-.29-.56-8.2-11.51-15.11-23.69-19.13-37.33-.47-1.59-1.41-1.59-2.65-1.34-7.17,1.47-14.07,3.76-20.83,6.54-1.36.56-1.48,1.16-.51,2.29,11.74,13.64,25.73,24.08,42.71,30.33Zm75.16.13c17.3-6.34,31.71-16.59,43.5-30.55,1.07-1.27.52-1.78-.69-2.27-6.68-2.72-13.5-4.97-20.57-6.47-1.51-.32-2.34.02-2.82,1.58-4.27,13.69-10.92,26.15-19.42,37.7Z"/>
      <path class="cls-1" d="m136.64,344.32c-1.78,4.36-3.6,8.71-5.3,13.1-.5,1.29-.96,2.11-2.6,2.17-1.76.07-2.13-1.01-2.62-2.18-1.78-4.28-3.55-8.56-5.97-12.84,0,4.41-.2,8.82.07,13.21.18,2.9-.79,3.57-3.54,3.49-2.33-.07-2.81-.83-2.73-2.96.26-6.77.41-13.55.45-20.32.01-1.86.64-2.29,2.37-2.23,7.29.24,5.39-1.08,8.17,5.32,1.3,3,2.49,6.04,3.89,9.48,1.64-4.25,3.25-8.08,4.57-12.01.71-2.12,1.72-2.89,4.02-2.82,5.7.17,5.71.04,5.75,5.85.04,5.72-.08,11.44.15,17.15.11,2.72-1.39,2.42-3.15,2.49-1.89.07-2.88-.23-2.79-2.52.18-4.73.06-9.47.06-14.21-.27-.05-.53-.11-.8-.16Z"/>
      <path class="cls-1" d="m227.95,29.13c1.21-3.66,2.55-7.29,3.58-11,.57-2.04,1.52-2.05,3.17-1.42,1.5.58,2.97.64,2.03,3.11-2.13,5.62-3.81,11.4-5.87,17.04-.37,1.01.14,3.37-2.02,2.82-1.86-.47-4.29-.47-4.8-3.32-.75-4.15-1.75-8.26-2.62-12.39-.17-.82-.16-1.7-1.01-2.4-1.3,4.04-2.73,7.98-3.81,12.02-.61,2.25-1.8,1.52-3.05,1.04-1.25-.48-3.1-.36-2.24-2.79,2.22-6.26,4.24-12.59,6.4-18.87.23-.67.31-2.02,1.57-1.34,1.7.93,4.33.33,4.9,3.21.94,4.76,2.08,9.48,3.14,14.22.21.03.42.05.63.08Z"/>
      <path class="cls-1" d="m33.02,33.75c2.51.25,4.59.55,5.91,2.55,2.19,3.32,1.61,7.02-1.8,9.43-3.29,2.34-7.15,3.64-10.71,5.49-1.35.7-1.66-.26-2.07-1.11-2.89-6.12-5.7-12.27-8.68-18.34-.74-1.51-.28-2.03,1.02-2.58,2.91-1.25,5.76-2.66,8.7-3.84,2.53-1.02,5.21-1.63,7.38.68,2.07,2.2,2.04,4.76.25,7.73Zm-.75,4.35c-1.81-.05-6.41,2.26-6.03,3.06.67,1.42.69,3.51,2.57,3.96,1.64.39,5.74-3.11,5.76-4.67.02-1.51-.76-2.33-2.3-2.36Zm-3.24-6.75c-.01-1.05-.8-1.73-2.01-1.49-1.86.36-4.29.52-4.83,2.53-.28,1.04.63,3.12,2.13,3.85,1.06.51,4.61-3.11,4.7-4.88Z"/>
      <path class="cls-1" d="m156.78,361.42c-3.23.18-5.88-.47-8.41-1.64-1.28-.59-2.62-1.15-1.39-3,.85-1.27.85-3.46,3.48-2.04,1.92,1.04,4.12,1.66,6.42,1.46,1.38-.12,2.56-.59,2.77-2.09.19-1.42-.87-2.05-2.05-2.43-2.01-.64-4.06-1.17-6.05-1.88-3.38-1.19-5.08-3.45-5.07-6.53.01-3.14,1.89-6.09,4.93-7.13,4.18-1.42,8.33-1.1,12.34.8,1.39.66,1.95,1.45.97,2.91-.77,1.13-.9,2.95-3.13,1.79-1.67-.87-3.6-1.25-5.52-1.23-1.32.02-2.64.44-2.91,1.95-.27,1.47.97,2,2.06,2.41,1.68.64,3.39,1.17,5.09,1.75,4.68,1.59,6.3,3.97,5.74,8.46-.49,3.88-3.23,6.15-7.78,6.42-.63.04-1.27,0-1.49,0Z"/>
      <path class="cls-1" d="m45.79,24.99c0-6.3,2.62-9.53,8.39-11.17,5.17-1.47,8.64-.06,11.56,4.6,1.67,2.66,2.53,5.58,2.79,8.67.39,4.6-1.96,7.91-6.86,9.85-5.26,2.08-9.06,1.4-12.06-2.23-2.52-3.04-3.58-6.64-3.82-9.71Zm16.53,2.08c-.14-1.77-.85-4.5-2.68-6.81-1.21-1.53-2.74-2.22-4.74-1.6-2.15.67-3.12,2.27-3.02,4.3.14,2.75.83,5.46,2.4,7.76,1.1,1.61,2.66,2.81,4.85,1.99,2.07-.77,3.33-2.17,3.18-5.65Z"/>
      <path class="cls-1" d="m129.83,18.93c.03.53.06,1.06.1,1.59.29,3.61-.17,3.98-3.98,3.71-1.11-.08-1.51-.49-1.59-1.48-.06-.74-.17-1.47-.22-2.21-.42-6.01-.41-5.81-6.25-5.53-2.65.12-2.94,1.15-2.54,3.26.22,1.14.17,2.34.41,3.47.61,2.81-.5,3.79-3.29,3.7-1.64-.05-2.38-.21-2.49-2.14-.38-6.45-.98-12.88-1.58-19.32-.13-1.38-.04-2.49,1.64-2.12,1.41.31,3.81-1.85,4.14,1.48.04.42.11.84.16,1.26.61,5.59.6,5.47,6.3,5.07,2.25-.16,3.02-.78,2.41-3-.25-.9-.07-1.92-.27-2.84-.58-2.75.65-3.39,3.2-3.39,1.9,0,2.52.32,2.61,2.34.26,5.39.83,10.77,1.27,16.15-.01,0-.03,0-.04,0Z"/>
      <path class="cls-1" d="m180.43,335.79c2.25-.6,3.34.66,4.14,3.05,2.17,6.5,4.64,12.89,6.91,19.36.31.88,1.71,2.44-.03,2.78-1.63.31-3.76,1.03-5.24-.81-.13-.16-.2-.37-.29-.56-.65-1.52-.57-3.97-1.99-4.39-2.25-.65-4.81-.35-7.23-.23-2.1.1-1.54,2.22-2.11,3.42-.62,1.3-.61,2.73-2.75,2.78-4.32.1-4.31.25-2.8-3.92,2.18-6.05,4.35-12.1,6.51-18.16q1.19-3.33,4.88-3.31Zm-.42,6.04c-.94,2.77-1.63,4.81-2.31,6.85-.34,1.01-.07,1.49,1.1,1.68,3.42.57,4.03-.09,2.94-3.45-.47-1.45-.98-2.89-1.73-5.07Z"/>
      <path class="cls-1" d="m108.12,361.2c-1.8.44-2.73-.84-3.37-2.97-.35-1.16-.21-3.1-1.95-3.23-2.51-.19-5.17-.38-7.55.26-1.24.33-1.11,2.76-1.71,4.2-.54,1.31-5.1,2.47-6.04,1.5-.57-.59-.03-1.18.17-1.73,2.58-7.26,5.25-14.48,7.72-21.78.69-2.05,2.12-1.81,3.52-1.63,1.57.2,3.55-1.01,4.46,1.65,2.46,7.18,5.11,14.3,7.79,21.41,1.14,3.03-1.07,2.1-3.05,2.32Zm-8.56-18.95c-1.34,1.77-1.44,3.75-2.2,5.44-.92,2.04-.39,2.71,1.91,2.72,2.42,0,3.04-.58,2.01-2.87-.72-1.59-1.1-3.34-1.71-5.29Z"/>
      <path class="cls-1" d="m86.08,19.06c.24.81-.98.86-1.82,1.08-2.25.59-4.51,1.15-6.79,1.59-1.9.37-2.04,1.42-1.46,2.96.45,1.2.26,2.82,2.54,2.06,2.7-.9,5.56-1.29,8.3-2.08,1.91-.55,2.07.53,2.36,1.91.27,1.3.82,2.3-1.24,2.72-4.56.92-9.09,2.02-13.55,3.3-1.72.49-2-.24-2.3-1.48-1.54-6.37-3.07-12.75-4.67-19.1-.36-1.44,0-2.11,1.46-2.45,4.43-1.02,8.86-2.05,13.24-3.25,2.1-.57,1.93.99,2.3,2.06.43,1.24.41,2.17-1.33,2.48-2.6.46-5.12,1.31-7.71,1.82-1.73.34-2.21.96-1.68,2.75.46,1.54.65,2.54,2.66,1.81,1.97-.71,4.21-.75,6.13-1.55,3.09-1.28,2.91,1,3.58,3.38Z"/>
      <path class="cls-1" d="m202.22,31.84c-1.91-.07-4.39-.68-6.69-1.75-3.07-1.43-4.63-4.57-3.93-8.23.93-4.87,2.2-9.68,3.2-14.54.54-2.65,2.16-1.13,3.39-1.01,1.45.14,2.7.45,2.17,2.51-1,3.88-1.87,7.8-2.76,11.72-.79,3.49.11,5.41,2.76,6.03,2.6.61,4.2-.68,5.12-4.25.98-3.78,2.1-7.55,2.75-11.39.47-2.79,2.05-1.6,3.43-1.41,1.57.21,2.77.58,2.14,2.75-1.35,4.66-2.36,9.43-3.75,14.07-1.16,3.88-3.47,5.47-7.83,5.5Z"/>
      <path class="cls-1" d="m171.9,1.71c2.07,0,4.75.54,7.14,2.06,1.05.67,2.28,1.31,1.01,2.92-.89,1.13-1.34,2.71-3.31,1.39-1.5-1-3.24-1.53-5.05-1.71-1.13-.11-2.14.22-2.65,1.32-.63,1.34.47,1.99,1.33,2.47,1.84,1.02,3.81,1.8,5.68,2.77,3.31,1.71,4.34,3.98,3.56,7.56-.77,3.51-2.83,5.37-6.31,5.58-3.67.22-7.16-.43-10.32-2.41-1.1-.69-2.68-1.17-1.33-3.04.97-1.35,1.5-3.12,3.75-1.46,1.61,1.18,3.54,1.92,5.62,1.91,1.21,0,2.42-.21,2.7-1.65.24-1.24-.55-1.95-1.61-2.41-1.35-.59-2.7-1.19-4.06-1.77-4.5-1.94-6.04-4.4-5.14-8.2.85-3.54,3.94-5.55,8.98-5.33Z"/>
      <path class="cls-1" d="m150.38,24.43c-3.77.04-7.43-1.59-9.15-5.95-2.13-5.39-1.67-10.7,2.26-15.16,3.12-3.54,7.33-3.92,11.68-2.67,1.62.47,3.1,1.41,3.9,3.03.5,1.01,2.02,2.15.29,3.19-1.25.75-2.64,2.45-4.27.18-1.19-1.66-3.02-2.24-5.08-1.67-2.24.61-3.17,2.33-3.63,4.38-.35,1.55-.38,3.13-.12,4.72.78,4.77,4.71,6.33,8.6,3.44.75-.56,1.15-1.78,2.62-1.19,2.55,1.01,3.01,2.34,1.26,4.54-1.94,2.44-4.6,3.24-8.34,3.18Z"/>
      <path class="cls-1" d="m98.34,27.39c-1.32.35-1.51-.44-1.68-1.54-.62-4.18-1.32-8.35-2-12.52-.72-4.35-.75-4.46-5.06-3.51-2.11.47-2.98.23-3.27-2.19-.23-1.96.39-2.35,2.03-2.6,4.91-.74,9.82-1.5,14.69-2.45,2.09-.41,2.59.36,3.04,2.23.56,2.32-.79,2.45-2.3,2.68-.84.13-1.67.25-2.51.34-1.48.16-1.81.82-1.52,2.34.83,4.36,1.45,8.76,2.13,13.14.55,3.53.04,4.11-3.54,4.09Z"/>
      <path class="cls-1" d="m265.75,31.69c-.08,1.75-1.96,2.93-4.09,1.96q-3.99-1.82-5.89,2.22c-1.74,3.72-3.6,7.4-5.18,11.19-.97,2.34-2.2,1.15-3.46.6-1.31-.58-2.83-.84-1.67-3.07,2.23-4.3,4.11-8.78,6.25-13.13.73-1.49.88-2.47-1.01-2.98-.7-.19-1.31-.69-2-.92-1.86-.61-2.65-1.3-1.59-3.54,1.07-2.27,2.09-1.59,3.6-.85,4.46,2.15,8.97,4.2,13.44,6.33.67.32,1.76.35,1.6,2.18Z"/>
      <path class="cls-1" d="m138.08,12.09c0,3.27-.13,6.55.05,9.81.11,2.13-1.05,2.14-2.54,2.1-1.42-.04-2.95.51-2.96-1.97,0-6.64-.16-13.29-.37-19.93-.07-2.43,1.65-1.64,2.82-1.74,1.18-.1,2.63-.53,2.57,1.62-.09,3.37-.02,6.75-.02,10.12.15,0,.3,0,.44,0Z"/>
      <path class="cls-1" d="m38.83,19.52c1.59.06,1.68.87,1.96,1.53,2.5,6.16,4.95,12.33,7.53,18.46.9,2.15-.72,2.19-1.9,2.63-1.13.42-2.31,1.75-3.2-.52-2.4-6.19-4.99-12.32-7.46-18.49-.64-1.61,1.57-3.71,3.06-3.61Z"/>
      <path class="cls-1" d="m245.67,22.01c-.22.49-.41.87-.57,1.26-2.4,5.97-4.9,11.91-7.15,17.93-.78,2.09-1.79,1.75-3.26,1.07-1.4-.65-2.95-.79-1.89-3.19,2.64-5.98,5-12.08,7.42-18.16.41-1.04.86-1.8,2.02-1.13,1.16.68,2.94.51,3.43,2.21Z"/>
      <path class="cls-3" d="m129.38,83.84c7.23.02,14.45.03,21.68.05,5.61.98,11.28,1.71,16.83,2.99,18.6,4.28,35.07,12.9,49.74,25.04-1.52,4.4-2.85,8.87-5.13,12.97-9.33-8.07-19.4-14.98-30.85-19.74-1.11-.46-2.17-1.42-3.55-.83-.01-.14-.03-.28-.05-.42-.08.02-.17.04-.25.07.12.1.24.2.36.3.02,1.06.86,1.65,1.41,2.4,6.66,9.08,11.93,18.9,15.91,29.44.92,2.44.85,6.01,2.9,7.08,2.19,1.14,5.17-.96,7.86-1.34-3.19,8.62-6.36,17.25-9.58,25.86-1.4,3.75-2.55,7.6-4.44,11.16-.96-5.63-2.03-11.24-2.84-16.89-.4-2.81-1.7-3.23-4.26-2.8-7.82,1.31-15.72,2.05-23.64,2.49-1.99.11-2.64-.46-2.51-2.43.15-2.21.23-4.46-.01-6.66-.36-3.2.65-4.3,4.04-4.43,6.44-.25,12.84-1.22,19.27-1.74,2.28-.18,2.55-.95,1.83-3-3.38-9.64-7.75-18.78-13.68-27.1-2.81-3.95-5.77-7.84-9.83-10.68-1.21-6.72-3.62-12.93-7.7-18.45.07,1.3.34,2.54.81,3.69.75,1.84.12,2.71-1.73,3.16-11.39,2.73-22.77,5.48-34.14,8.28-2.44.6-3.25-.33-3.24-2.7.01-3.1.05-6.19.24-9.32-.7,1.22-1.21,2.48-1.5,3.78-1.51,6.77-1.68,13.6-.74,20.47-7.32,8.86-11.68,19.26-15.6,29.89-.73,1.98.82,1.75,1.89,1.89,6.92.95,13.85,1.73,20.83,1.97,1.84.06,2.67.56,2.55,2.56-.16,2.74-.16,5.51,0,8.25.12,2.1-.57,2.7-2.68,2.58-7.71-.45-15.39-1.2-23-2.44-2.68-.44-4.03-.15-4.46,2.92-.82,5.85-2.03,11.64-3.08,17.45-3.83-8.53-6.76-17.4-10.14-26.11-1.52-3.91-2.9-7.88-4.35-11.82,2.16.5,4.37.85,6.47,1.56,2.09.71,2.7-.11,3.28-1.98,3.9-12.67,9.98-24.25,17.84-34.91.5-.68,1.47-1.21,1.16-2.56-13.13,4.95-24.57,12.4-34.85,21.71-1.84-4.33-3.61-8.68-4.91-13.21,15.53-13.16,33.23-21.87,53.15-26.12,4.21-.9,8.56-.99,12.69-2.29Z"/>
      <path class="cls-3" d="m192.75,189.98c3.22-8.9,6.42-17.82,10.12-26.54,2.16,9.74,3.11,19.63,3.56,29.57.1,2.27.63,3.07,3.06,3.04,11.11-.14,22.23-.15,33.35,0,2.71.04,3.08-.93,2.87-3.29-1.36-15.21-5.96-29.35-13.33-42.7-1.44-2.61-2.67-3.06-5.37-1.85-6.74,3.02-13.6,5.81-21,6.86,1.9-5.06,3.8-10.13,5.7-15.19,3.17-.46,5.99-1.97,8.97-3,1.94-.67,1.53-1.54.46-2.7-1.71-1.86-3.35-3.78-5.02-5.68,1.49-4.45,2.76-8.98,5.1-13.09.71.63,1.46,1.22,2.13,1.89,22.04,21.99,34.35,48.34,35.65,79.61-22.21.03-44.43.08-66.64.08-.78,0-2.12.51-1.93-1.21,2.13.6,3.26.05,2.89-2.41-.17-1.14.08-2.34-.58-3.4Z"/>
      <path class="cls-3" d="m78.35,164.07c3.6,8.86,7.06,17.78,10.14,26.84.38,1.76-2.7,4.85,1.91,5,.05.23.1.46.14.68-.74,0-1.49-.13-2.14.37-4.64,0-9.28,0-13.92.01-.86-.58-1.84-.38-2.78-.38-11.11-.01-22.21-.01-33.32,0-.94,0-1.91-.2-2.78.37-4.46-.02-8.93-.04-13.39-.06.2-2.32.36-4.64.61-6.95,3.2-29.36,15.65-54.11,37.11-74.36,1.97,4.36,3.68,8.82,5.11,13.38-1.69,1.85-3.39,3.68-5.06,5.56-.54.61-1.32,1.45-.02,1.95,2.87,1.1,5.57,2.81,8.81,2.75,0,0-.05-.04-.05-.04.18.19.36.38.53.57,1.92,5.15,3.84,10.31,5.77,15.46-7.46-1.7-14.63-4.26-21.6-7.39-1.32-.59-2.32-1.16-3.38.63-8.15,13.82-12.86,28.73-14.43,44.67-.22,2.21.37,2.92,2.67,2.89,11.23-.11,22.47-.15,33.7.02,2.68.04,3.07-.96,3.14-3.28.29-9.65,1.39-19.22,3.23-28.71Z"/>
      <path class="cls-3" d="m94.94,195.91c4.96.03,9.93.2,14.89.01,2.47-.09,3.11.75,2.95,3.06-.19,2.63-.14,5.28-.01,7.92.09,1.85-.66,2.34-2.4,2.31-4.96-.09-9.93-.03-14.89-.02,2.23-2.6,3.74-5.55,4.33-8.94.35-2.02.21-3.61-2.55-3.25-.9.12-1.96.16-2.31-1.08Z"/>
      <path class="cls-3" d="m185.29,209.12c-2.54.02-5.08-.02-7.62.09-1.6.07-2.32-.43-2.27-2.14.1-2.96.09-5.93,0-8.89-.05-1.63.51-2.27,2.18-2.21,2.75.1,5.51.02,8.26.02-.12.78-.68,1.11-1.36,1.01-3.86-.61-3.51,1.84-3.1,4.27.51,3,2.25,5.42,3.9,7.86Z"/>
      <path class="cls-1" d="m35.6,196.97c.87-.57,1.84-.37,2.78-.37,11.11-.01,22.21-.01,33.32,0,.94,0,1.91-.2,2.78.38-12.96.29-25.92.29-38.88,0Z"/>
      <path class="cls-1" d="m88.4,196.96c.65-.49,1.41-.36,2.14-.37-.54,1.14-1.41.34-2.14.37Z"/>
      <path class="cls-2" d="m112.5,290c1.13-13.28,6.93-24.51,15.27-34.6,2.29-2.78,4.67-5.5,7.18-8.08,1.21-1.25,1.26-2.07.25-3.46-2.56-3.51-5.02-7.09-7.37-10.74-14.39-22.35-13.72-44.63.47-66.79,2.06-3.21,4.15-6.41,6.46-9.43,1.33-1.74,1.44-2.83-.22-4.49-2.91-2.92-5.61-6.07-8.2-9.29-6.82-8.45-11.66-17.87-13.74-28.61-.95-6.87-.77-13.69.74-20.47.29-1.3.81-2.55,1.5-3.78-.19,3.13-.23,6.23-.24,9.32-.01,2.37.8,3.3,3.24,2.7,11.37-2.8,22.75-5.55,34.14-8.28,1.85-.44,2.48-1.32,1.73-3.16-.47-1.15-.74-2.39-.81-3.69,4.08,5.52,6.49,11.74,7.7,18.45,2.27,13.85-1.45,26.42-8.3,38.28-1.69,2.93-3.49,5.8-5.38,8.62-.86,1.29-.8,2.13.3,3.25,2.75,2.79,5.43,5.65,8.04,8.57,8.83,9.88,13.83,21.42,14.87,34.66.77,9.76-3,18.23-7.54,26.44-3.41,6.16-8.14,11.34-12.96,16.42-3.74,3.95-3.71,3.88-.75,8.64,2.17,3.5,4.34,7.03,6.2,10.71,6.21,12.23,8.29,25.01,4.64,38.46-.98,2.54-1.88,5.11-2.97,7.6-.5,1.15-1.24,2.09-2.26.16-.83-1.59-2.58-1.44-4.11-1.58-3.37-1.54-7.04-2-10.59-2.78-6.41-1.4-12.64-3.72-19.26-4.17-.59-1.18-1.85-.71-2.77-1.06-1.76-.68-2.76-.15-2.67,2,.12,3.05.03,6.12-.19,9.2-2.35-6.14-2.75-12.54-2.41-19.03Zm43.4-188.25c-.01-.52,0-1.05-.05-1.57-.38-3.72-.57-3.86-4.31-2.93-2.34.58-4.65,1.24-6.98,1.86-8.98,2.25-18.21,3.58-26.79,7.39-2.1.93-1.25,2.53-1.4,3.6-.2,1.42,1.48.6,2.22.52,11.23-1.21,22.45-2.55,33.68-3.77,4.78-.52,4.79-.43,3.63-5.1Zm4.42,113.2c-10.21-.98-20.38-.33-30.48-1.19-2.91-.25-2.1,1.37-1.77,2.9,1.93,8.82,8.29,15.08,12.92,22.33.93,1.45,1.59.33,2.19-.3,2.85-2.99,5.67-5.99,8.48-9.02,3.91-4.22,7.05-8.91,8.66-14.72Zm-16.19-4.22c0,.24,0,.47,0,.71,3.49,0,6.98-.03,10.46,0q7.97.09,9.41-7.72c.04-.21.05-.42.1-.63.39-1.7-.26-2.22-1.99-2.06-12,1.07-24.01,2.07-36.01,3.11-.56.05-1.24-.18-1.51.71-.65,2.16,1.74,5.83,4,5.86,5.18.07,10.36.02,15.54.02Zm3.58-89.92c0,.07,0,.14,0,.21,1.8,0,3.6-.03,5.4.01,1.04.02,1.91-.09,2.1-1.36.42-2.83.86-5.65,1.27-8.47.2-1.39-.31-1.81-1.78-1.63-11.88,1.44-23.77,2.79-35.66,4.18-.66.08-1.54-.26-1.88.69-.59,1.64,1.71,4.91,3.57,5.01,8.99.47,17.99.91,26.98,1.36Zm-30.49,165.33c1.58.21,3.13.46,4.69.63,8.73.94,17.48,1.73,26.19,2.81,9.76,1.21,10.09.91,7.52-8.61-.42-1.57-.99-2.18-2.79-2.06-9.72.65-19.45,1.13-29.17,1.67q-5.08.28-6.44,5.57Zm9.12-85.17c2.65-.23,5.18-.44,7.71-.65,9.16-.78,18.31-1.62,27.47-2.29,2.04-.15,2.59-.81,2.02-2.71-.67-2.22-1.31-4.46-1.83-6.72-.42-1.82-1.44-2-3.03-1.54-10.94,3.16-21.88,6.33-32.87,9.34-2.06.56-2.01,1.77-1.93,3.31.11,1.99,1.57,1.17,2.46,1.28Zm30.24,95.38c.16-1.38.32-2.85-2.26-3.1-11.78-1.17-23.55-2.48-35.32-3.82-1.92-.22-2.84.24-3.2,2.3-.39,2.26.74,2.6,2.5,3.01,10.39,2.42,20.75,4.94,31.12,7.43q6.8,1.63,7.15-5.82Zm-31.67-102.75c11.42-3.24,22.47-6.37,33.52-9.5,1.09-.31,1.24-.84.7-1.83-1.36-2.51-2.66-5.05-3.92-7.6-.84-1.7-1.81-1.87-3.49-.94-6.94,3.82-13.86,7.73-21,11.15-3.7,1.77-5.41,4.36-5.82,8.73Zm-4.62-71.09c1.54,4.07,3.07,7.17,7.69,7.78,4.28.56,8.48,1.81,12.67,2.89,9.31,2.4,9.55,2.29,12.5-6.9.03-.1.06-.2.1-.3.53-1.3.24-1.94-1.31-1.96-2.33-.03-4.66-.22-6.98-.33-8.11-.39-16.22-.77-24.68-1.17Zm12,154.96c0-.17,0-.33,0-.5,6.44-.34,12.88-.77,19.33-.96,2.22-.06,2.54-.73,1.64-2.56-1.02-2.09-2.05-4.17-2.9-6.33-.72-1.83-1.79-2.25-3.66-1.77-6.23,1.59-12.44,3.35-18.77,4.45-3.87.67-5.45,3.08-6.89,6.08-.61,1.27-.3,1.64,1.11,1.6,3.38-.08,6.76-.03,10.15-.03Zm-2.77-95.31c7.26-3.89,13.85-7.44,20.46-10.95,1.19-.63,1.63-1.19.53-2.31-2.52-2.56-4.99-5.17-7.47-7.77-.66-.69-1.21-1.11-2-.05-4.63,6.28-8.96,12.72-11.52,21.08Zm18.06-44.19c-6.94-1.64-13.54-3.2-21.05-4.97,4.2,5.98,8.66,10.42,13.03,14.95,1,1.04,1.43,0,1.87-.65,1.99-2.97,3.94-5.97,6.16-9.32Zm-19.96,128.87c6.04-1.46,12.09-2.92,18.13-4.37,1.2-.29,1.63-.8.84-1.97-1.77-2.64-3.48-5.31-5.21-7.97-.52-.8-1.01-1.33-1.91-.36-4.25,4.54-8.67,8.93-11.85,14.68Z"/>
      <path class="cls-3" d="m155.9,101.75c-3.35-2.73-7.32-2.77-11.34-2.64,2.33-.62,4.64-1.28,6.98-1.86,3.74-.94,3.93-.8,4.31,2.93.05.52.03,1.05.05,1.57Z"/>
    </g>
  </g>
</svg>