<svg width="1440" height="868" viewBox="0 0 1440 868" fill="none" xmlns="http://www.w3.org/2000/svg">
<g clip-path="url(#clip0_5_74)" filter="url(#filter0_d_5_74)">
<path d="M-50.0245 49.9638C-50.0245 49.9638 74.298 -123.683 391.636 418.951C532.49 659.784 1271.8 745.173 1431.62 604.873V783.713H-5.06539L-50.0245 49.9638Z" fill="#421349"/>
<path d="M-33.0524 326.899C-33.0524 326.899 118.682 326.899 396.962 638.423C527.069 784.088 734.625 677.482 885.497 783.727H-5.06544L-33.0524 326.914V326.899Z" fill="#380041"/>
<path d="M-145 190.927C-92.321 185.46 307.542 115.115 575.591 196.898C843.641 278.68 968.29 196.898 1059.28 105.004C1206.38 -43.5599 1317.89 9.04342 1317.89 9.04342L-94.8687 8.20684L-145 190.927Z" fill="#683172"/>
<path d="M1459.91 366.939C1459.91 366.939 1289.86 584.06 1072.61 607.859C881.973 628.744 734.72 478.06 561.167 631.658C397.383 776.602 202.988 690.983 -5.06543 779.544V783.713C-5.06543 783.713 272.563 911.074 474.984 834.614C805.463 709.791 804.946 898.122 1072.61 817.695C1316.87 744.293 1446.16 816.945 1472 793.925C1497.84 770.89 1459.91 366.954 1459.91 366.954V366.939Z" fill="#683172"/>
<path d="M-97.0142 555.313C-77.8582 557.347 129.027 545.808 255.456 681.391C381.886 816.974 465.368 678.218 586.453 800.964C707.538 923.71 -33.0523 816.974 -33.0523 816.974L-97.0142 555.313Z" fill="#8F3B9D"/>
<path d="M1459.91 512.46C1459.91 512.46 1317.89 519.24 1116.75 283.729C975.339 118.159 537.279 228.486 532.49 41.2951L1459.91 50.5119V512.46Z" fill="#421349"/>
<path d="M1459.91 181.97C1459.91 181.97 1324.57 235.785 1202.61 145.059C1080.64 54.3342 899.615 145.204 896.742 32.6986L1459.91 50.5119V181.97Z" fill="#8F3B9D"/>
</g>
<defs>
<filter id="filter0_d_5_74" x="-149" y="0" width="1634" height="868" filterUnits="userSpaceOnUse" color-interpolation-filters="sRGB">
<feFlood flood-opacity="0" result="BackgroundImageFix"/>
<feColorMatrix in="SourceAlpha" type="matrix" values="0 0 0 0 0 0 0 0 0 0 0 0 0 0 0 0 0 0 127 0" result="hardAlpha"/>
<feOffset dy="4"/>
<feGaussianBlur stdDeviation="2"/>
<feComposite in2="hardAlpha" operator="out"/>
<feColorMatrix type="matrix" values="0 0 0 0 0 0 0 0 0 0 0 0 0 0 0 0 0 0 0.25 0"/>
<feBlend mode="normal" in2="BackgroundImageFix" result="effect1_dropShadow_5_74"/>
<feBlend mode="normal" in="SourceGraphic" in2="effect1_dropShadow_5_74" result="shape"/>
</filter>
<clipPath id="clip0_5_74">
<rect width="1626" height="860" fill="white" transform="translate(-145)"/>
</clipPath>
</defs>
</svg>
