<?xml version="1.0" encoding="UTF-8"?>
<svg id="Layer_2" data-name="Layer 2" xmlns="http://www.w3.org/2000/svg" xmlns:xlink="http://www.w3.org/1999/xlink" viewBox="0 0 762 512">
  <defs>
    <style>
      .cls-1 {
        fill: url(#Degradado_sin_nombre_3-36);
        filter: url(#outer-glow-36);
      }

      .cls-1, .cls-2, .cls-3, .cls-4, .cls-5, .cls-6, .cls-7, .cls-8, .cls-9, .cls-10, .cls-11, .cls-12, .cls-13, .cls-14, .cls-15, .cls-16, .cls-17, .cls-18, .cls-19, .cls-20, .cls-21, .cls-22, .cls-23, .cls-24, .cls-25, .cls-26, .cls-27, .cls-28, .cls-29, .cls-30, .cls-31, .cls-32, .cls-33, .cls-34, .cls-35, .cls-36, .cls-37, .cls-38, .cls-39, .cls-40, .cls-41, .cls-42, .cls-43, .cls-44, .cls-45, .cls-46, .cls-47, .cls-48, .cls-49, .cls-50, .cls-51, .cls-52, .cls-53, .cls-54, .cls-55, .cls-56, .cls-57, .cls-58, .cls-59, .cls-60, .cls-61, .cls-62, .cls-63, .cls-64, .cls-65, .cls-66, .cls-67, .cls-68 {
        stroke-width: 0px;
      }

      .cls-2 {
        fill: url(#Degradado_sin_nombre_3-9);
        filter: url(#outer-glow-9);
      }

      .cls-3 {
        fill: url(#Degradado_sin_nombre_3-12);
        filter: url(#outer-glow-12);
      }

      .cls-4 {
        fill: url(#Degradado_sin_nombre_3-47);
        filter: url(#outer-glow-47);
      }

      .cls-5 {
        fill: url(#Degradado_sin_nombre_3-7);
        filter: url(#outer-glow-7);
      }

      .cls-6 {
        fill: url(#Degradado_sin_nombre_3-59);
        filter: url(#outer-glow-59);
      }

      .cls-7 {
        fill: url(#Degradado_sin_nombre_3-66);
        filter: url(#outer-glow-66);
      }

      .cls-8 {
        fill: url(#Degradado_sin_nombre_3-30);
        filter: url(#outer-glow-30);
      }

      .cls-9 {
        fill: url(#Degradado_sin_nombre_3-51);
        filter: url(#outer-glow-51);
      }

      .cls-10 {
        fill: url(#Degradado_sin_nombre_3-32);
        filter: url(#outer-glow-32);
      }

      .cls-11 {
        fill: url(#Degradado_sin_nombre_3-6);
        filter: url(#outer-glow-6);
      }

      .cls-12 {
        fill: url(#Degradado_sin_nombre_3-48);
        filter: url(#outer-glow-48);
      }

      .cls-13 {
        fill: url(#Degradado_sin_nombre_3-16);
        filter: url(#outer-glow-16);
      }

      .cls-14 {
        fill: url(#Degradado_sin_nombre_3-35);
        filter: url(#outer-glow-35);
      }

      .cls-15 {
        fill: url(#Degradado_sin_nombre_3-10);
        filter: url(#outer-glow-10);
      }

      .cls-16 {
        fill: url(#Degradado_sin_nombre_3-68);
        filter: url(#outer-glow-68);
      }

      .cls-17 {
        fill: url(#Degradado_sin_nombre_3-15);
        filter: url(#outer-glow-15);
      }

      .cls-18 {
        fill: url(#Degradado_sin_nombre_3-52);
        filter: url(#outer-glow-52);
      }

      .cls-19 {
        fill: url(#Degradado_sin_nombre_3-13);
        filter: url(#outer-glow-13);
      }

      .cls-20 {
        fill: url(#Degradado_sin_nombre_3-56);
        filter: url(#outer-glow-56);
      }

      .cls-21 {
        fill: url(#Degradado_sin_nombre_3-49);
        filter: url(#outer-glow-49);
      }

      .cls-22 {
        fill: url(#Degradado_sin_nombre_3-64);
        filter: url(#outer-glow-64);
      }

      .cls-23 {
        fill: url(#Degradado_sin_nombre_3-20);
        filter: url(#outer-glow-20);
      }

      .cls-24 {
        fill: url(#Degradado_sin_nombre_3-37);
        filter: url(#outer-glow-37);
      }

      .cls-25 {
        fill: url(#Degradado_sin_nombre_3-17);
        filter: url(#outer-glow-17);
      }

      .cls-26 {
        fill: url(#Degradado_sin_nombre_3-5);
        filter: url(#outer-glow-5);
      }

      .cls-27 {
        fill: url(#Degradado_sin_nombre_3-24);
        filter: url(#outer-glow-24);
      }

      .cls-28 {
        fill: url(#Degradado_sin_nombre_3-22);
        filter: url(#outer-glow-22);
      }

      .cls-29 {
        fill: url(#Degradado_sin_nombre_3-39);
        filter: url(#outer-glow-39);
      }

      .cls-30 {
        fill: url(#Degradado_sin_nombre_3-55);
        filter: url(#outer-glow-55);
      }

      .cls-31 {
        fill: url(#Degradado_sin_nombre_3-14);
        filter: url(#outer-glow-14);
      }

      .cls-32 {
        fill: url(#Degradado_sin_nombre_3-57);
        filter: url(#outer-glow-57);
      }

      .cls-33 {
        fill: url(#Degradado_sin_nombre_3-33);
        filter: url(#outer-glow-33);
      }

      .cls-34 {
        fill: url(#Degradado_sin_nombre_3-3);
        filter: url(#outer-glow-3);
      }

      .cls-35 {
        fill: url(#Degradado_sin_nombre_3-2);
        filter: url(#outer-glow-2);
      }

      .cls-36 {
        fill: url(#Degradado_sin_nombre_3-25);
        filter: url(#outer-glow-25);
      }

      .cls-37 {
        fill: url(#Degradado_sin_nombre_3-44);
        filter: url(#outer-glow-44);
      }

      .cls-38 {
        fill: url(#Degradado_sin_nombre_3-45);
        filter: url(#outer-glow-45);
      }

      .cls-39 {
        fill: url(#Degradado_sin_nombre_3-58);
        filter: url(#outer-glow-58);
      }

      .cls-40 {
        fill: url(#Degradado_sin_nombre_3-53);
        filter: url(#outer-glow-53);
      }

      .cls-41 {
        fill: url(#Degradado_sin_nombre_3-46);
        filter: url(#outer-glow-46);
      }

      .cls-42 {
        fill: url(#Degradado_sin_nombre_3-21);
        filter: url(#outer-glow-21);
      }

      .cls-43 {
        fill: url(#Degradado_sin_nombre_3-41);
        filter: url(#outer-glow-41);
      }

      .cls-44 {
        fill: url(#Degradado_sin_nombre_3-62);
        filter: url(#outer-glow-62);
      }

      .cls-45 {
        fill: url(#Degradado_sin_nombre_3-18);
        filter: url(#outer-glow-18);
      }

      .cls-46 {
        fill: url(#Degradado_sin_nombre_3-50);
        filter: url(#outer-glow-50);
      }

      .cls-47 {
        fill: url(#Degradado_sin_nombre_3);
        filter: url(#outer-glow-1);
      }

      .cls-48 {
        fill: url(#Degradado_sin_nombre_3-63);
        filter: url(#outer-glow-63);
      }

      .cls-49 {
        fill: url(#Degradado_sin_nombre_3-11);
        filter: url(#outer-glow-11);
      }

      .cls-50 {
        fill: url(#Degradado_sin_nombre_3-43);
        filter: url(#outer-glow-43);
      }

      .cls-51 {
        fill: url(#Degradado_sin_nombre_3-60);
        filter: url(#outer-glow-60);
      }

      .cls-52 {
        fill: url(#Degradado_sin_nombre_3-34);
        filter: url(#outer-glow-34);
      }

      .cls-53 {
        fill: url(#Degradado_sin_nombre_3-42);
        filter: url(#outer-glow-42);
      }

      .cls-54 {
        fill: url(#Degradado_sin_nombre_3-61);
        filter: url(#outer-glow-61);
      }

      .cls-55 {
        fill: url(#Degradado_sin_nombre_3-8);
        filter: url(#outer-glow-8);
      }

      .cls-56 {
        fill: url(#Degradado_sin_nombre_3-54);
        filter: url(#outer-glow-54);
      }

      .cls-57 {
        fill: url(#Degradado_sin_nombre_3-40);
        filter: url(#outer-glow-40);
      }

      .cls-58 {
        fill: url(#Degradado_sin_nombre_3-4);
        filter: url(#outer-glow-4);
      }

      .cls-59 {
        fill: url(#Degradado_sin_nombre_3-29);
        filter: url(#outer-glow-29);
      }

      .cls-60 {
        fill: url(#Degradado_sin_nombre_3-23);
        filter: url(#outer-glow-23);
      }

      .cls-61 {
        fill: url(#Degradado_sin_nombre_3-19);
        filter: url(#outer-glow-19);
      }

      .cls-62 {
        fill: url(#Degradado_sin_nombre_3-26);
        filter: url(#outer-glow-26);
      }

      .cls-63 {
        fill: url(#Degradado_sin_nombre_3-65);
        filter: url(#outer-glow-65);
      }

      .cls-64 {
        fill: url(#Degradado_sin_nombre_3-38);
        filter: url(#outer-glow-38);
      }

      .cls-65 {
        fill: url(#Degradado_sin_nombre_3-28);
        filter: url(#outer-glow-28);
      }

      .cls-66 {
        fill: url(#Degradado_sin_nombre_3-67);
        filter: url(#outer-glow-67);
      }

      .cls-67 {
        fill: url(#Degradado_sin_nombre_3-31);
        filter: url(#outer-glow-31);
      }

      .cls-68 {
        fill: url(#Degradado_sin_nombre_3-27);
        filter: url(#outer-glow-27);
      }
    </style>
    <linearGradient id="Degradado_sin_nombre_3" data-name="Degradado sin nombre 3" x1="349.53" y1="-3.03" x2="389.86" y2="18" gradientUnits="userSpaceOnUse">
      <stop offset="0" stop-color="#141414"/>
      <stop offset=".13" stop-color="#262626"/>
      <stop offset=".26" stop-color="#3f3f3f"/>
      <stop offset=".42" stop-color="#262626"/>
      <stop offset=".57" stop-color="#141414"/>
      <stop offset=".69" stop-color="#262626"/>
      <stop offset=".76" stop-color="#333"/>
      <stop offset=".83" stop-color="#3a3a3a"/>
      <stop offset=".93" stop-color="#141414"/>
    </linearGradient>
    <filter id="outer-glow-1" filterUnits="userSpaceOnUse">
      <feOffset dx="0" dy="0"/>
      <feGaussianBlur result="blur" stdDeviation="2"/>
      <feFlood flood-color="#262626" flood-opacity=".5"/>
      <feComposite in2="blur" operator="in"/>
      <feComposite in="SourceGraphic"/>
    </filter>
    <linearGradient id="Degradado_sin_nombre_3-2" data-name="Degradado sin nombre 3" x1="7.24" y1="7.49" x2="23.12" y2="15.78" xlink:href="#Degradado_sin_nombre_3"/>
    <filter id="outer-glow-2" filterUnits="userSpaceOnUse">
      <feOffset dx="0" dy="0"/>
      <feGaussianBlur result="blur-2" stdDeviation="2"/>
      <feFlood flood-color="#262626" flood-opacity=".5"/>
      <feComposite in2="blur-2" operator="in"/>
      <feComposite in="SourceGraphic"/>
    </filter>
    <linearGradient id="Degradado_sin_nombre_3-3" data-name="Degradado sin nombre 3" x1="172.81" y1="2.01" x2="199.71" y2="16.04" xlink:href="#Degradado_sin_nombre_3"/>
    <filter id="outer-glow-3" filterUnits="userSpaceOnUse">
      <feOffset dx="0" dy="0"/>
      <feGaussianBlur result="blur-3" stdDeviation="2"/>
      <feFlood flood-color="#262626" flood-opacity=".5"/>
      <feComposite in2="blur-3" operator="in"/>
      <feComposite in="SourceGraphic"/>
    </filter>
    <linearGradient id="Degradado_sin_nombre_3-4" data-name="Degradado sin nombre 3" x1="721.23" y1="-.16" x2="754.34" y2="17.11" xlink:href="#Degradado_sin_nombre_3"/>
    <filter id="outer-glow-4" filterUnits="userSpaceOnUse">
      <feOffset dx="0" dy="0"/>
      <feGaussianBlur result="blur-4" stdDeviation="2"/>
      <feFlood flood-color="#262626" flood-opacity=".5"/>
      <feComposite in2="blur-4" operator="in"/>
      <feComposite in="SourceGraphic"/>
    </filter>
    <linearGradient id="Degradado_sin_nombre_3-5" data-name="Degradado sin nombre 3" x1="538.83" y1=".13" x2="569.91" y2="16.34" xlink:href="#Degradado_sin_nombre_3"/>
    <filter id="outer-glow-5" filterUnits="userSpaceOnUse">
      <feOffset dx="0" dy="0"/>
      <feGaussianBlur result="blur-5" stdDeviation="2"/>
      <feFlood flood-color="#262626" flood-opacity=".5"/>
      <feComposite in2="blur-5" operator="in"/>
      <feComposite in="SourceGraphic"/>
    </filter>
    <linearGradient id="Degradado_sin_nombre_3-6" data-name="Degradado sin nombre 3" x1="698.11" y1="8.29" x2="752.04" y2="36.41" xlink:href="#Degradado_sin_nombre_3"/>
    <filter id="outer-glow-6" filterUnits="userSpaceOnUse">
      <feOffset dx="0" dy="0"/>
      <feGaussianBlur result="blur-6" stdDeviation="2"/>
      <feFlood flood-color="#262626" flood-opacity=".5"/>
      <feComposite in2="blur-6" operator="in"/>
      <feComposite in="SourceGraphic"/>
    </filter>
    <linearGradient id="Degradado_sin_nombre_3-7" data-name="Degradado sin nombre 3" x1="160.28" y1="3.87" x2="202.51" y2="25.88" xlink:href="#Degradado_sin_nombre_3"/>
    <filter id="outer-glow-7" filterUnits="userSpaceOnUse">
      <feOffset dx="0" dy="0"/>
      <feGaussianBlur result="blur-7" stdDeviation="2"/>
      <feFlood flood-color="#262626" flood-opacity=".5"/>
      <feComposite in2="blur-7" operator="in"/>
      <feComposite in="SourceGraphic"/>
    </filter>
    <linearGradient id="Degradado_sin_nombre_3-8" data-name="Degradado sin nombre 3" x1="14.65" y1="15.54" x2="34.46" y2="25.87" xlink:href="#Degradado_sin_nombre_3"/>
    <filter id="outer-glow-8" filterUnits="userSpaceOnUse">
      <feOffset dx="0" dy="0"/>
      <feGaussianBlur result="blur-8" stdDeviation="2"/>
      <feFlood flood-color="#262626" flood-opacity=".5"/>
      <feComposite in2="blur-8" operator="in"/>
      <feComposite in="SourceGraphic"/>
    </filter>
    <linearGradient id="Degradado_sin_nombre_3-9" data-name="Degradado sin nombre 3" x1="332.34" y1="-4.58" x2="394.74" y2="27.95" xlink:href="#Degradado_sin_nombre_3"/>
    <filter id="outer-glow-9" filterUnits="userSpaceOnUse">
      <feOffset dx="0" dy="0"/>
      <feGaussianBlur result="blur-9" stdDeviation="2"/>
      <feFlood flood-color="#262626" flood-opacity=".5"/>
      <feComposite in2="blur-9" operator="in"/>
      <feComposite in="SourceGraphic"/>
    </filter>
    <linearGradient id="Degradado_sin_nombre_3-10" data-name="Degradado sin nombre 3" x1="312.04" y1="-4.46" x2="397.01" y2="39.84" xlink:href="#Degradado_sin_nombre_3"/>
    <filter id="outer-glow-10" filterUnits="userSpaceOnUse">
      <feOffset dx="0" dy="0"/>
      <feGaussianBlur result="blur-10" stdDeviation="2"/>
      <feFlood flood-color="#262626" flood-opacity=".5"/>
      <feComposite in2="blur-10" operator="in"/>
      <feComposite in="SourceGraphic"/>
    </filter>
    <linearGradient id="Degradado_sin_nombre_3-11" data-name="Degradado sin nombre 3" x1="18.35" y1="25.43" x2="39.93" y2="36.68" xlink:href="#Degradado_sin_nombre_3"/>
    <filter id="outer-glow-11" filterUnits="userSpaceOnUse">
      <feOffset dx="0" dy="0"/>
      <feGaussianBlur result="blur-11" stdDeviation="2"/>
      <feFlood flood-color="#262626" flood-opacity=".5"/>
      <feComposite in2="blur-11" operator="in"/>
      <feComposite in="SourceGraphic"/>
    </filter>
    <linearGradient id="Degradado_sin_nombre_3-12" data-name="Degradado sin nombre 3" x1="138.12" y1="5.8" x2="205.9" y2="41.14" xlink:href="#Degradado_sin_nombre_3"/>
    <filter id="outer-glow-12" filterUnits="userSpaceOnUse">
      <feOffset dx="0" dy="0"/>
      <feGaussianBlur result="blur-12" stdDeviation="2"/>
      <feFlood flood-color="#262626" flood-opacity=".5"/>
      <feComposite in2="blur-12" operator="in"/>
      <feComposite in="SourceGraphic"/>
    </filter>
    <linearGradient id="Degradado_sin_nombre_3-13" data-name="Degradado sin nombre 3" x1="670.52" y1="14.8" x2="750.41" y2="56.45" xlink:href="#Degradado_sin_nombre_3"/>
    <filter id="outer-glow-13" filterUnits="userSpaceOnUse">
      <feOffset dx="0" dy="0"/>
      <feGaussianBlur result="blur-13" stdDeviation="2"/>
      <feFlood flood-color="#262626" flood-opacity=".5"/>
      <feComposite in2="blur-13" operator="in"/>
      <feComposite in="SourceGraphic"/>
    </filter>
    <linearGradient id="Degradado_sin_nombre_3-14" data-name="Degradado sin nombre 3" x1="111.69" y1="3.39" x2="207.58" y2="53.39" xlink:href="#Degradado_sin_nombre_3"/>
    <filter id="outer-glow-14" filterUnits="userSpaceOnUse">
      <feOffset dx="0" dy="0"/>
      <feGaussianBlur result="blur-14" stdDeviation="2"/>
      <feFlood flood-color="#262626" flood-opacity=".5"/>
      <feComposite in2="blur-14" operator="in"/>
      <feComposite in="SourceGraphic"/>
    </filter>
    <linearGradient id="Degradado_sin_nombre_3-15" data-name="Degradado sin nombre 3" x1="296" y1="-5.05" x2="402.19" y2="50.32" xlink:href="#Degradado_sin_nombre_3"/>
    <filter id="outer-glow-15" filterUnits="userSpaceOnUse">
      <feOffset dx="0" dy="0"/>
      <feGaussianBlur result="blur-15" stdDeviation="2"/>
      <feFlood flood-color="#262626" flood-opacity=".5"/>
      <feComposite in2="blur-15" operator="in"/>
      <feComposite in="SourceGraphic"/>
    </filter>
    <linearGradient id="Degradado_sin_nombre_3-16" data-name="Degradado sin nombre 3" x1="650.59" y1="20.33" x2="748.06" y2="71.16" xlink:href="#Degradado_sin_nombre_3"/>
    <filter id="outer-glow-16" filterUnits="userSpaceOnUse">
      <feOffset dx="0" dy="0"/>
      <feGaussianBlur result="blur-16" stdDeviation="2"/>
      <feFlood flood-color="#262626" flood-opacity=".5"/>
      <feComposite in2="blur-16" operator="in"/>
      <feComposite in="SourceGraphic"/>
    </filter>
    <linearGradient id="Degradado_sin_nombre_3-17" data-name="Degradado sin nombre 3" x1="24.22" y1="35.4" x2="40.93" y2="44.11" xlink:href="#Degradado_sin_nombre_3"/>
    <filter id="outer-glow-17" filterUnits="userSpaceOnUse">
      <feOffset dx="0" dy="0"/>
      <feGaussianBlur result="blur-17" stdDeviation="2"/>
      <feFlood flood-color="#262626" flood-opacity=".5"/>
      <feComposite in2="blur-17" operator="in"/>
      <feComposite in="SourceGraphic"/>
    </filter>
    <linearGradient id="Degradado_sin_nombre_3-18" data-name="Degradado sin nombre 3" x1="618.23" y1="21.25" x2="745.2" y2="87.45" xlink:href="#Degradado_sin_nombre_3"/>
    <filter id="outer-glow-18" filterUnits="userSpaceOnUse">
      <feOffset dx="0" dy="0"/>
      <feGaussianBlur result="blur-18" stdDeviation="2"/>
      <feFlood flood-color="#262626" flood-opacity=".5"/>
      <feComposite in2="blur-18" operator="in"/>
      <feComposite in="SourceGraphic"/>
    </filter>
    <linearGradient id="Degradado_sin_nombre_3-19" data-name="Degradado sin nombre 3" x1="45.83" y1="12.97" x2="197.87" y2="92.24" xlink:href="#Degradado_sin_nombre_3"/>
    <filter id="outer-glow-19" filterUnits="userSpaceOnUse">
      <feOffset dx="0" dy="0"/>
      <feGaussianBlur result="blur-19" stdDeviation="2"/>
      <feFlood flood-color="#262626" flood-opacity=".5"/>
      <feComposite in2="blur-19" operator="in"/>
      <feComposite in="SourceGraphic"/>
    </filter>
    <linearGradient id="Degradado_sin_nombre_3-20" data-name="Degradado sin nombre 3" x1="288.91" y1="-36.94" x2="534.64" y2="91.19" xlink:href="#Degradado_sin_nombre_3"/>
    <filter id="outer-glow-20" filterUnits="userSpaceOnUse">
      <feOffset dx="0" dy="0"/>
      <feGaussianBlur result="blur-20" stdDeviation="2"/>
      <feFlood flood-color="#262626" flood-opacity=".5"/>
      <feComposite in2="blur-20" operator="in"/>
      <feComposite in="SourceGraphic"/>
    </filter>
    <linearGradient id="Degradado_sin_nombre_3-21" data-name="Degradado sin nombre 3" x1="571.41" y1="18.87" x2="571.58" y2="18.96" xlink:href="#Degradado_sin_nombre_3"/>
    <filter id="outer-glow-21" filterUnits="userSpaceOnUse">
      <feOffset dx="0" dy="0"/>
      <feGaussianBlur result="blur-21" stdDeviation="2"/>
      <feFlood flood-color="#262626" flood-opacity=".5"/>
      <feComposite in2="blur-21" operator="in"/>
      <feComposite in="SourceGraphic"/>
    </filter>
    <linearGradient id="Degradado_sin_nombre_3-22" data-name="Degradado sin nombre 3" x1="565.12" y1="31.72" x2="565.83" y2="32.09" xlink:href="#Degradado_sin_nombre_3"/>
    <filter id="outer-glow-22" filterUnits="userSpaceOnUse">
      <feOffset dx="0" dy="0"/>
      <feGaussianBlur result="blur-22" stdDeviation="2"/>
      <feFlood flood-color="#262626" flood-opacity=".5"/>
      <feComposite in2="blur-22" operator="in"/>
      <feComposite in="SourceGraphic"/>
    </filter>
    <linearGradient id="Degradado_sin_nombre_3-23" data-name="Degradado sin nombre 3" x1="97.47" y1="-57.16" x2="661.51" y2="236.94" xlink:href="#Degradado_sin_nombre_3"/>
    <filter id="outer-glow-23" filterUnits="userSpaceOnUse">
      <feOffset dx="0" dy="0"/>
      <feGaussianBlur result="blur-23" stdDeviation="2"/>
      <feFlood flood-color="#262626" flood-opacity=".5"/>
      <feComposite in2="blur-23" operator="in"/>
      <feComposite in="SourceGraphic"/>
    </filter>
    <linearGradient id="Degradado_sin_nombre_3-24" data-name="Degradado sin nombre 3" x1="98.88" y1="-46.61" x2="665.8" y2="249" xlink:href="#Degradado_sin_nombre_3"/>
    <filter id="outer-glow-24" filterUnits="userSpaceOnUse">
      <feOffset dx="0" dy="0"/>
      <feGaussianBlur result="blur-24" stdDeviation="2"/>
      <feFlood flood-color="#262626" flood-opacity=".5"/>
      <feComposite in2="blur-24" operator="in"/>
      <feComposite in="SourceGraphic"/>
    </filter>
    <linearGradient id="Degradado_sin_nombre_3-25" data-name="Degradado sin nombre 3" x1="657.6" y1="93.97" x2="747.27" y2="140.72" xlink:href="#Degradado_sin_nombre_3"/>
    <filter id="outer-glow-25" filterUnits="userSpaceOnUse">
      <feOffset dx="0" dy="0"/>
      <feGaussianBlur result="blur-25" stdDeviation="2"/>
      <feFlood flood-color="#262626" flood-opacity=".5"/>
      <feComposite in2="blur-25" operator="in"/>
      <feComposite in="SourceGraphic"/>
    </filter>
    <linearGradient id="Degradado_sin_nombre_3-26" data-name="Degradado sin nombre 3" x1="88.64" y1="-18.58" x2="555.91" y2="225.06" xlink:href="#Degradado_sin_nombre_3"/>
    <filter id="outer-glow-26" filterUnits="userSpaceOnUse">
      <feOffset dx="0" dy="0"/>
      <feGaussianBlur result="blur-26" stdDeviation="2"/>
      <feFlood flood-color="#262626" flood-opacity=".5"/>
      <feComposite in2="blur-26" operator="in"/>
      <feComposite in="SourceGraphic"/>
    </filter>
    <linearGradient id="Degradado_sin_nombre_3-27" data-name="Degradado sin nombre 3" x1="642.37" y1="84.33" x2="657.11" y2="92.01" xlink:href="#Degradado_sin_nombre_3"/>
    <filter id="outer-glow-27" filterUnits="userSpaceOnUse">
      <feOffset dx="0" dy="0"/>
      <feGaussianBlur result="blur-27" stdDeviation="2"/>
      <feFlood flood-color="#262626" flood-opacity=".5"/>
      <feComposite in2="blur-27" operator="in"/>
      <feComposite in="SourceGraphic"/>
    </filter>
    <linearGradient id="Degradado_sin_nombre_3-28" data-name="Degradado sin nombre 3" x1="91.62" y1="-5.13" x2="681.53" y2="302.45" xlink:href="#Degradado_sin_nombre_3"/>
    <filter id="outer-glow-28" filterUnits="userSpaceOnUse">
      <feOffset dx="0" dy="0"/>
      <feGaussianBlur result="blur-28" stdDeviation="2"/>
      <feFlood flood-color="#262626" flood-opacity=".5"/>
      <feComposite in2="blur-28" operator="in"/>
      <feComposite in="SourceGraphic"/>
    </filter>
    <linearGradient id="Degradado_sin_nombre_3-29" data-name="Degradado sin nombre 3" x1="6.05" y1="140.72" x2="6.21" y2="140.8" xlink:href="#Degradado_sin_nombre_3"/>
    <filter id="outer-glow-29" filterUnits="userSpaceOnUse">
      <feOffset dx="0" dy="0"/>
      <feGaussianBlur result="blur-29" stdDeviation="2"/>
      <feFlood flood-color="#262626" flood-opacity=".5"/>
      <feComposite in2="blur-29" operator="in"/>
      <feComposite in="SourceGraphic"/>
    </filter>
    <linearGradient id="Degradado_sin_nombre_3-30" data-name="Degradado sin nombre 3" x1="85.35" y1="-4.41" x2="691.36" y2="311.58" xlink:href="#Degradado_sin_nombre_3"/>
    <filter id="outer-glow-30" filterUnits="userSpaceOnUse">
      <feOffset dx="0" dy="0"/>
      <feGaussianBlur result="blur-30" stdDeviation="2"/>
      <feFlood flood-color="#262626" flood-opacity=".5"/>
      <feComposite in2="blur-30" operator="in"/>
      <feComposite in="SourceGraphic"/>
    </filter>
    <linearGradient id="Degradado_sin_nombre_3-31" data-name="Degradado sin nombre 3" x1="77.94" y1="26.38" x2="684.29" y2="342.54" xlink:href="#Degradado_sin_nombre_3"/>
    <filter id="outer-glow-31" filterUnits="userSpaceOnUse">
      <feOffset dx="0" dy="0"/>
      <feGaussianBlur result="blur-31" stdDeviation="2"/>
      <feFlood flood-color="#262626" flood-opacity=".5"/>
      <feComposite in2="blur-31" operator="in"/>
      <feComposite in="SourceGraphic"/>
    </filter>
    <linearGradient id="Degradado_sin_nombre_3-32" data-name="Degradado sin nombre 3" x1="75.33" y1="48.01" x2="680.57" y2="363.6" xlink:href="#Degradado_sin_nombre_3"/>
    <filter id="outer-glow-32" filterUnits="userSpaceOnUse">
      <feOffset dx="0" dy="0"/>
      <feGaussianBlur result="blur-32" stdDeviation="2"/>
      <feFlood flood-color="#262626" flood-opacity=".5"/>
      <feComposite in2="blur-32" operator="in"/>
      <feComposite in="SourceGraphic"/>
    </filter>
    <linearGradient id="Degradado_sin_nombre_3-33" data-name="Degradado sin nombre 3" x1="79.33" y1="74.26" x2="673.27" y2="383.95" xlink:href="#Degradado_sin_nombre_3"/>
    <filter id="outer-glow-33" filterUnits="userSpaceOnUse">
      <feOffset dx="0" dy="0"/>
      <feGaussianBlur result="blur-33" stdDeviation="2"/>
      <feFlood flood-color="#262626" flood-opacity=".5"/>
      <feComposite in2="blur-33" operator="in"/>
      <feComposite in="SourceGraphic"/>
    </filter>
    <linearGradient id="Degradado_sin_nombre_3-34" data-name="Degradado sin nombre 3" x1="82.16" y1="99.48" x2="666.53" y2="404.18" xlink:href="#Degradado_sin_nombre_3"/>
    <filter id="outer-glow-34" filterUnits="userSpaceOnUse">
      <feOffset dx="0" dy="0"/>
      <feGaussianBlur result="blur-34" stdDeviation="2"/>
      <feFlood flood-color="#262626" flood-opacity=".5"/>
      <feComposite in2="blur-34" operator="in"/>
      <feComposite in="SourceGraphic"/>
    </filter>
    <linearGradient id="Degradado_sin_nombre_3-35" data-name="Degradado sin nombre 3" x1="234.58" y1="161.69" x2="685.78" y2="396.96" xlink:href="#Degradado_sin_nombre_3"/>
    <filter id="outer-glow-35" filterUnits="userSpaceOnUse">
      <feOffset dx="0" dy="0"/>
      <feGaussianBlur result="blur-35" stdDeviation="2"/>
      <feFlood flood-color="#262626" flood-opacity=".5"/>
      <feComposite in2="blur-35" operator="in"/>
      <feComposite in="SourceGraphic"/>
    </filter>
    <linearGradient id="Degradado_sin_nombre_3-36" data-name="Degradado sin nombre 3" x1="241.36" y1="148.52" x2="686.7" y2="380.73" xlink:href="#Degradado_sin_nombre_3"/>
    <filter id="outer-glow-36" filterUnits="userSpaceOnUse">
      <feOffset dx="0" dy="0"/>
      <feGaussianBlur result="blur-36" stdDeviation="2"/>
      <feFlood flood-color="#262626" flood-opacity=".5"/>
      <feComposite in2="blur-36" operator="in"/>
      <feComposite in="SourceGraphic"/>
    </filter>
    <linearGradient id="Degradado_sin_nombre_3-37" data-name="Degradado sin nombre 3" x1="23.96" y1="238.54" x2="156.64" y2="307.72" xlink:href="#Degradado_sin_nombre_3"/>
    <filter id="outer-glow-37" filterUnits="userSpaceOnUse">
      <feOffset dx="0" dy="0"/>
      <feGaussianBlur result="blur-37" stdDeviation="2"/>
      <feFlood flood-color="#262626" flood-opacity=".5"/>
      <feComposite in2="blur-37" operator="in"/>
      <feComposite in="SourceGraphic"/>
    </filter>
    <linearGradient id="Degradado_sin_nombre_3-38" data-name="Degradado sin nombre 3" x1="21.59" y1="266.13" x2="151.96" y2="334.11" xlink:href="#Degradado_sin_nombre_3"/>
    <filter id="outer-glow-38" filterUnits="userSpaceOnUse">
      <feOffset dx="0" dy="0"/>
      <feGaussianBlur result="blur-38" stdDeviation="2"/>
      <feFlood flood-color="#262626" flood-opacity=".5"/>
      <feComposite in2="blur-38" operator="in"/>
      <feComposite in="SourceGraphic"/>
    </filter>
    <linearGradient id="Degradado_sin_nombre_3-39" data-name="Degradado sin nombre 3" x1="94.84" y1="158.84" x2="660.48" y2="453.77" xlink:href="#Degradado_sin_nombre_3"/>
    <filter id="outer-glow-39" filterUnits="userSpaceOnUse">
      <feOffset dx="0" dy="0"/>
      <feGaussianBlur result="blur-39" stdDeviation="2"/>
      <feFlood flood-color="#262626" flood-opacity=".5"/>
      <feComposite in2="blur-39" operator="in"/>
      <feComposite in="SourceGraphic"/>
    </filter>
    <linearGradient id="Degradado_sin_nombre_3-40" data-name="Degradado sin nombre 3" x1="92.61" y1="174.26" x2="662.43" y2="471.37" xlink:href="#Degradado_sin_nombre_3"/>
    <filter id="outer-glow-40" filterUnits="userSpaceOnUse">
      <feOffset dx="0" dy="0"/>
      <feGaussianBlur result="blur-40" stdDeviation="2"/>
      <feFlood flood-color="#262626" flood-opacity=".5"/>
      <feComposite in2="blur-40" operator="in"/>
      <feComposite in="SourceGraphic"/>
    </filter>
    <linearGradient id="Degradado_sin_nombre_3-41" data-name="Degradado sin nombre 3" x1="86.54" y1="192.49" x2="661.13" y2="492.09" xlink:href="#Degradado_sin_nombre_3"/>
    <filter id="outer-glow-41" filterUnits="userSpaceOnUse">
      <feOffset dx="0" dy="0"/>
      <feGaussianBlur result="blur-41" stdDeviation="2"/>
      <feFlood flood-color="#262626" flood-opacity=".5"/>
      <feComposite in2="blur-41" operator="in"/>
      <feComposite in="SourceGraphic"/>
    </filter>
    <linearGradient id="Degradado_sin_nombre_3-42" data-name="Degradado sin nombre 3" x1="78.12" y1="210.92" x2="660.59" y2="514.63" xlink:href="#Degradado_sin_nombre_3"/>
    <filter id="outer-glow-42" filterUnits="userSpaceOnUse">
      <feOffset dx="0" dy="0"/>
      <feGaussianBlur result="blur-42" stdDeviation="2"/>
      <feFlood flood-color="#262626" flood-opacity=".5"/>
      <feComposite in2="blur-42" operator="in"/>
      <feComposite in="SourceGraphic"/>
    </filter>
    <linearGradient id="Degradado_sin_nombre_3-43" data-name="Degradado sin nombre 3" x1="75.25" y1="229.59" x2="659.95" y2="534.46" xlink:href="#Degradado_sin_nombre_3"/>
    <filter id="outer-glow-43" filterUnits="userSpaceOnUse">
      <feOffset dx="0" dy="0"/>
      <feGaussianBlur result="blur-43" stdDeviation="2"/>
      <feFlood flood-color="#262626" flood-opacity=".5"/>
      <feComposite in2="blur-43" operator="in"/>
      <feComposite in="SourceGraphic"/>
    </filter>
    <linearGradient id="Degradado_sin_nombre_3-44" data-name="Degradado sin nombre 3" x1="74.34" y1="251.5" x2="661.56" y2="557.68" xlink:href="#Degradado_sin_nombre_3"/>
    <filter id="outer-glow-44" filterUnits="userSpaceOnUse">
      <feOffset dx="0" dy="0"/>
      <feGaussianBlur result="blur-44" stdDeviation="2"/>
      <feFlood flood-color="#262626" flood-opacity=".5"/>
      <feComposite in2="blur-44" operator="in"/>
      <feComposite in="SourceGraphic"/>
    </filter>
    <linearGradient id="Degradado_sin_nombre_3-45" data-name="Degradado sin nombre 3" x1="75.75" y1="275.49" x2="660.13" y2="580.2" xlink:href="#Degradado_sin_nombre_3"/>
    <filter id="outer-glow-45" filterUnits="userSpaceOnUse">
      <feOffset dx="0" dy="0"/>
      <feGaussianBlur result="blur-45" stdDeviation="2"/>
      <feFlood flood-color="#262626" flood-opacity=".5"/>
      <feComposite in2="blur-45" operator="in"/>
      <feComposite in="SourceGraphic"/>
    </filter>
    <linearGradient id="Degradado_sin_nombre_3-46" data-name="Degradado sin nombre 3" x1="-4.59" y1="433.67" x2="99.94" y2="488.17" xlink:href="#Degradado_sin_nombre_3"/>
    <filter id="outer-glow-46" filterUnits="userSpaceOnUse">
      <feOffset dx="0" dy="0"/>
      <feGaussianBlur result="blur-46" stdDeviation="2"/>
      <feFlood flood-color="#262626" flood-opacity=".5"/>
      <feComposite in2="blur-46" operator="in"/>
      <feComposite in="SourceGraphic"/>
    </filter>
    <linearGradient id="Degradado_sin_nombre_3-47" data-name="Degradado sin nombre 3" x1="167.6" y1="451.16" x2="279.31" y2="509.4" xlink:href="#Degradado_sin_nombre_3"/>
    <filter id="outer-glow-47" filterUnits="userSpaceOnUse">
      <feOffset dx="0" dy="0"/>
      <feGaussianBlur result="blur-47" stdDeviation="2"/>
      <feFlood flood-color="#262626" flood-opacity=".5"/>
      <feComposite in2="blur-47" operator="in"/>
      <feComposite in="SourceGraphic"/>
    </filter>
    <linearGradient id="Degradado_sin_nombre_3-48" data-name="Degradado sin nombre 3" x1="384.07" y1="392.11" x2="692.76" y2="553.07" xlink:href="#Degradado_sin_nombre_3"/>
    <filter id="outer-glow-48" filterUnits="userSpaceOnUse">
      <feOffset dx="0" dy="0"/>
      <feGaussianBlur result="blur-48" stdDeviation="2"/>
      <feFlood flood-color="#262626" flood-opacity=".5"/>
      <feComposite in2="blur-48" operator="in"/>
      <feComposite in="SourceGraphic"/>
    </filter>
    <linearGradient id="Degradado_sin_nombre_3-49" data-name="Degradado sin nombre 3" x1="533.59" y1="467.58" x2="631.19" y2="518.47" xlink:href="#Degradado_sin_nombre_3"/>
    <filter id="outer-glow-49" filterUnits="userSpaceOnUse">
      <feOffset dx="0" dy="0"/>
      <feGaussianBlur result="blur-49" stdDeviation="2"/>
      <feFlood flood-color="#262626" flood-opacity=".5"/>
      <feComposite in2="blur-49" operator="in"/>
      <feComposite in="SourceGraphic"/>
    </filter>
    <linearGradient id="Degradado_sin_nombre_3-50" data-name="Degradado sin nombre 3" x1="360.98" y1="461.98" x2="453.19" y2="510.06" xlink:href="#Degradado_sin_nombre_3"/>
    <filter id="outer-glow-50" filterUnits="userSpaceOnUse">
      <feOffset dx="0" dy="0"/>
      <feGaussianBlur result="blur-50" stdDeviation="2"/>
      <feFlood flood-color="#262626" flood-opacity=".5"/>
      <feComposite in2="blur-50" operator="in"/>
      <feComposite in="SourceGraphic"/>
    </filter>
    <linearGradient id="Degradado_sin_nombre_3-51" data-name="Degradado sin nombre 3" x1="716.51" y1="475.81" x2="741.15" y2="488.66" xlink:href="#Degradado_sin_nombre_3"/>
    <filter id="outer-glow-51" filterUnits="userSpaceOnUse">
      <feOffset dx="0" dy="0"/>
      <feGaussianBlur result="blur-51" stdDeviation="2"/>
      <feFlood flood-color="#262626" flood-opacity=".5"/>
      <feComposite in2="blur-51" operator="in"/>
      <feComposite in="SourceGraphic"/>
    </filter>
    <linearGradient id="Degradado_sin_nombre_3-52" data-name="Degradado sin nombre 3" x1="-1.45" y1="449.27" x2="76.25" y2="489.78" xlink:href="#Degradado_sin_nombre_3"/>
    <filter id="outer-glow-52" filterUnits="userSpaceOnUse">
      <feOffset dx="0" dy="0"/>
      <feGaussianBlur result="blur-52" stdDeviation="2"/>
      <feFlood flood-color="#262626" flood-opacity=".5"/>
      <feComposite in2="blur-52" operator="in"/>
      <feComposite in="SourceGraphic"/>
    </filter>
    <linearGradient id="Degradado_sin_nombre_3-53" data-name="Degradado sin nombre 3" x1="178.87" y1="464.51" x2="264.66" y2="509.24" xlink:href="#Degradado_sin_nombre_3"/>
    <filter id="outer-glow-53" filterUnits="userSpaceOnUse">
      <feOffset dx="0" dy="0"/>
      <feGaussianBlur result="blur-53" stdDeviation="2"/>
      <feFlood flood-color="#262626" flood-opacity=".5"/>
      <feComposite in2="blur-53" operator="in"/>
      <feComposite in="SourceGraphic"/>
    </filter>
    <linearGradient id="Degradado_sin_nombre_3-54" data-name="Degradado sin nombre 3" x1="1.47" y1="459.57" x2="65.04" y2="492.72" xlink:href="#Degradado_sin_nombre_3"/>
    <filter id="outer-glow-54" filterUnits="userSpaceOnUse">
      <feOffset dx="0" dy="0"/>
      <feGaussianBlur result="blur-54" stdDeviation="2"/>
      <feFlood flood-color="#262626" flood-opacity=".5"/>
      <feComposite in2="blur-54" operator="in"/>
      <feComposite in="SourceGraphic"/>
    </filter>
    <linearGradient id="Degradado_sin_nombre_3-55" data-name="Degradado sin nombre 3" x1="183.26" y1="473.48" x2="254.51" y2="510.63" xlink:href="#Degradado_sin_nombre_3"/>
    <filter id="outer-glow-55" filterUnits="userSpaceOnUse">
      <feOffset dx="0" dy="0"/>
      <feGaussianBlur result="blur-55" stdDeviation="2"/>
      <feFlood flood-color="#262626" flood-opacity=".5"/>
      <feComposite in2="blur-55" operator="in"/>
      <feComposite in="SourceGraphic"/>
    </filter>
    <linearGradient id="Degradado_sin_nombre_3-56" data-name="Degradado sin nombre 3" x1="543.91" y1="475.64" x2="617.01" y2="513.76" xlink:href="#Degradado_sin_nombre_3"/>
    <filter id="outer-glow-56" filterUnits="userSpaceOnUse">
      <feOffset dx="0" dy="0"/>
      <feGaussianBlur result="blur-56" stdDeviation="2"/>
      <feFlood flood-color="#262626" flood-opacity=".5"/>
      <feComposite in2="blur-56" operator="in"/>
      <feComposite in="SourceGraphic"/>
    </filter>
    <linearGradient id="Degradado_sin_nombre_3-57" data-name="Degradado sin nombre 3" x1="365.35" y1="471.51" x2="439.89" y2="510.37" xlink:href="#Degradado_sin_nombre_3"/>
    <filter id="outer-glow-57" filterUnits="userSpaceOnUse">
      <feOffset dx="0" dy="0"/>
      <feGaussianBlur result="blur-57" stdDeviation="2"/>
      <feFlood flood-color="#262626" flood-opacity=".5"/>
      <feComposite in2="blur-57" operator="in"/>
      <feComposite in="SourceGraphic"/>
    </filter>
    <linearGradient id="Degradado_sin_nombre_3-58" data-name="Degradado sin nombre 3" x1="731.87" y1="485.14" x2="747.16" y2="493.12" xlink:href="#Degradado_sin_nombre_3"/>
    <filter id="outer-glow-58" filterUnits="userSpaceOnUse">
      <feOffset dx="0" dy="0"/>
      <feGaussianBlur result="blur-58" stdDeviation="2"/>
      <feFlood flood-color="#262626" flood-opacity=".5"/>
      <feComposite in2="blur-58" operator="in"/>
      <feComposite in="SourceGraphic"/>
    </filter>
    <linearGradient id="Degradado_sin_nombre_3-59" data-name="Degradado sin nombre 3" x1="739.94" y1="492.84" x2="750.25" y2="498.21" xlink:href="#Degradado_sin_nombre_3"/>
    <filter id="outer-glow-59" filterUnits="userSpaceOnUse">
      <feOffset dx="0" dy="0"/>
      <feGaussianBlur result="blur-59" stdDeviation="2"/>
      <feFlood flood-color="#262626" flood-opacity=".5"/>
      <feComposite in2="blur-59" operator="in"/>
      <feComposite in="SourceGraphic"/>
    </filter>
    <linearGradient id="Degradado_sin_nombre_3-60" data-name="Degradado sin nombre 3" x1="8.16" y1="477.16" x2="53.6" y2="500.86" xlink:href="#Degradado_sin_nombre_3"/>
    <filter id="outer-glow-60" filterUnits="userSpaceOnUse">
      <feOffset dx="0" dy="0"/>
      <feGaussianBlur result="blur-60" stdDeviation="2"/>
      <feFlood flood-color="#262626" flood-opacity=".5"/>
      <feComposite in2="blur-60" operator="in"/>
      <feComposite in="SourceGraphic"/>
    </filter>
    <linearGradient id="Degradado_sin_nombre_3-61" data-name="Degradado sin nombre 3" x1="186.76" y1="485.1" x2="239.71" y2="512.72" xlink:href="#Degradado_sin_nombre_3"/>
    <filter id="outer-glow-61" filterUnits="userSpaceOnUse">
      <feOffset dx="0" dy="0"/>
      <feGaussianBlur result="blur-61" stdDeviation="2"/>
      <feFlood flood-color="#262626" flood-opacity=".5"/>
      <feComposite in2="blur-61" operator="in"/>
      <feComposite in="SourceGraphic"/>
    </filter>
    <linearGradient id="Degradado_sin_nombre_3-62" data-name="Degradado sin nombre 3" x1="554.55" y1="486.28" x2="606.39" y2="513.31" xlink:href="#Degradado_sin_nombre_3"/>
    <filter id="outer-glow-62" filterUnits="userSpaceOnUse">
      <feOffset dx="0" dy="0"/>
      <feGaussianBlur result="blur-62" stdDeviation="2"/>
      <feFlood flood-color="#262626" flood-opacity=".5"/>
      <feComposite in2="blur-62" operator="in"/>
      <feComposite in="SourceGraphic"/>
    </filter>
    <linearGradient id="Degradado_sin_nombre_3-63" data-name="Degradado sin nombre 3" x1="371.04" y1="483.98" x2="424.74" y2="511.98" xlink:href="#Degradado_sin_nombre_3"/>
    <filter id="outer-glow-63" filterUnits="userSpaceOnUse">
      <feOffset dx="0" dy="0"/>
      <feGaussianBlur result="blur-63" stdDeviation="2"/>
      <feFlood flood-color="#262626" flood-opacity=".5"/>
      <feComposite in2="blur-63" operator="in"/>
      <feComposite in="SourceGraphic"/>
    </filter>
    <linearGradient id="Degradado_sin_nombre_3-64" data-name="Degradado sin nombre 3" x1="193.94" y1="494.84" x2="227.34" y2="512.25" xlink:href="#Degradado_sin_nombre_3"/>
    <filter id="outer-glow-64" filterUnits="userSpaceOnUse">
      <feOffset dx="0" dy="0"/>
      <feGaussianBlur result="blur-64" stdDeviation="2"/>
      <feFlood flood-color="#262626" flood-opacity=".5"/>
      <feComposite in2="blur-64" operator="in"/>
      <feComposite in="SourceGraphic"/>
    </filter>
    <linearGradient id="Degradado_sin_nombre_3-65" data-name="Degradado sin nombre 3" x1="9.46" y1="495.33" x2="40.5" y2="511.51" xlink:href="#Degradado_sin_nombre_3"/>
    <filter id="outer-glow-65" filterUnits="userSpaceOnUse">
      <feOffset dx="0" dy="0"/>
      <feGaussianBlur result="blur-65" stdDeviation="2"/>
      <feFlood flood-color="#262626" flood-opacity=".5"/>
      <feComposite in2="blur-65" operator="in"/>
      <feComposite in="SourceGraphic"/>
    </filter>
    <linearGradient id="Degradado_sin_nombre_3-66" data-name="Degradado sin nombre 3" x1="747.29" y1="500.08" x2="756.37" y2="504.81" xlink:href="#Degradado_sin_nombre_3"/>
    <filter id="outer-glow-66" filterUnits="userSpaceOnUse">
      <feOffset dx="0" dy="0"/>
      <feGaussianBlur result="blur-66" stdDeviation="2"/>
      <feFlood flood-color="#262626" flood-opacity=".5"/>
      <feComposite in2="blur-66" operator="in"/>
      <feComposite in="SourceGraphic"/>
    </filter>
    <linearGradient id="Degradado_sin_nombre_3-67" data-name="Degradado sin nombre 3" x1="562.84" y1="494.86" x2="597.07" y2="512.72" xlink:href="#Degradado_sin_nombre_3"/>
    <filter id="outer-glow-67" filterUnits="userSpaceOnUse">
      <feOffset dx="0" dy="0"/>
      <feGaussianBlur result="blur-67" stdDeviation="2"/>
      <feFlood flood-color="#262626" flood-opacity=".5"/>
      <feComposite in2="blur-67" operator="in"/>
      <feComposite in="SourceGraphic"/>
    </filter>
    <linearGradient id="Degradado_sin_nombre_3-68" data-name="Degradado sin nombre 3" x1="377.09" y1="494.45" x2="412.42" y2="512.88" xlink:href="#Degradado_sin_nombre_3"/>
    <filter id="outer-glow-68" filterUnits="userSpaceOnUse">
      <feOffset dx="0" dy="0"/>
      <feGaussianBlur result="blur-68" stdDeviation="2"/>
      <feFlood flood-color="#262626" flood-opacity=".5"/>
      <feComposite in2="blur-68" operator="in"/>
      <feComposite in="SourceGraphic"/>
    </filter>
  </defs>
  <g id="background">
    <g>
      <path class="cls-47" d="m344.32,6h14.69c3.25,1.96,6.52,3.37,9.79,4,5.95,1.15,11.83-.55,17.49-4h10.94c-9.09,9.83-19.34,16.86-29.94,14.84-7.75-1.47-15.56-7.25-22.97-14.84Z"/>
      <path class="cls-35" d="m6,19.51c8.07-3.64,15.57-8.24,22.65-13.51h-15.33c-2.39,1.25-4.83,2.42-7.33,3.49v10.02Z"/>
      <path class="cls-34" d="m177.38,17c11.81,9.64,21.33.85,28.31-11h-7.4c-5.65,4.84-12.27,6.16-19.78,0h-8.1c1.74,4.6,3.98,8.56,6.98,11Z"/>
      <path class="cls-58" d="m738.12,19.56c6.77,1.44,12.65-.42,17.88-3.89V6h-.34c-4.77,2.75-10.07,4.1-16.06,2.84-2.62-.55-5.09-1.55-7.45-2.84h-14.54c5.85,6.21,12.52,11.86,20.5,13.56Z"/>
      <path class="cls-26" d="m556.1,20.48c8.35-.03,14.86-6.09,20.06-14.48h-6.88c-3.17,2.31-6.71,3.68-10.67,3.71-4.04.03-7.69-1.35-11.01-3.71h-12.21c5.51,8.39,12.26,14.51,20.71,14.48Z"/>
      <path class="cls-11" d="m704.13,12.52c7.94,9.19,17.6,21.88,29.92,25,8.85,2.24,15.88-.73,21.95-5.86v-4.47c-5.62,4.4-12.06,6.99-19.76,5.39-12.09-2.52-21.31-14.17-29.11-23.06-1-1.13-1.99-2.32-2.98-3.52h-5.51c1.81,2.19,3.63,4.37,5.49,6.52Z"/>
      <path class="cls-5" d="m175.83,31.33c-6.18-4.76-9.74-15.43-12.32-25.33h-4.86c3.16,10.33,7.33,19.92,14.11,27.45,19.71,21.9,33.17-10.17,39.93-27.45h-1.75c-6.78,16.69-18.29,38.29-35.11,25.33Z"/>
      <path class="cls-55" d="m45.37,6h-3.97C30.74,16.24,19.24,25.32,6,31.66v4.93c14.99-7.43,27.64-18.41,39.37-30.6Z"/>
      <path class="cls-2" d="m369.42,40.62c14.85-.15,28.45-18.7,38.49-34.62h-2.58c-10.79,15.65-24.69,31.12-39.81,28.28-11.9-2.24-23.98-14.66-34.52-28.28h-4.96c12.92,17.47,28.6,34.77,43.37,34.62Z"/>
      <path class="cls-15" d="m367.74,54.34c-18.82.05-38.94-27.61-53.17-48.34h-9.04c.17.22.33.44.5.65,12.14,15.74,36.63,58.64,59.56,58.07,21.45-.54,34.67-31.72,44.34-47.21,2.16-3.46,4.51-7.4,7.07-11.51h-4.05c-8.98,14.49-25.4,48.29-45.22,48.34Z"/>
      <path class="cls-49" d="m56.52,6h-3.9C38.91,22.55,24.58,38.62,6,48.61v9.71C26.84,46.08,41.43,25.41,56.52,6Z"/>
      <path class="cls-3" d="m170.65,63.63c24.16,18.19,34.93-18.37,41.49-37.39,1.65-4.79,3.47-12.1,5.69-20.23h-2.06c-1.4,4.99-2.74,9.51-4.11,13.17-6.78,18.13-19.21,51.25-41.06,29.65-11.16-11.03-16.89-26.83-22.15-42.83h-11.28c8.93,21.11,16.4,44.77,33.47,57.63Z"/>
      <path class="cls-19" d="m732.1,50.54c-12.39-3.01-22.32-15.87-30.36-25-5.6-6.35-10.93-12.93-16.21-19.54h-11.4c7.68,9.34,15.35,18.69,23.35,27.78,8.31,9.45,24.11,30.19,38.55,29.81,7.75-.21,14.77-7.02,19.98-13.62v-7.79c-6.31,6.6-13.73,10.84-23.9,8.37Z"/>
      <path class="cls-31" d="m163.83,83.52c26.23,22.46,37.01-10.72,44.38-31.51,3.16-8.91,6.61-28.55,12.44-46.01h-.61c-4.18,13.58-7,27.44-9.43,34.93-6.68,20.57-16.32,55.71-42.06,38.53-23.87-15.93-33.33-49.91-49.7-73.46h-9.7c1.33,1.6,2.62,3.23,3.88,4.84,17.6,22.63,28.77,53.8,50.82,72.68Z"/>
      <path class="cls-17" d="m362.73,85.23c20.13.95,32.17-31.45,39.88-44.42,6.9-11.62,14.61-25.83,25.62-34.81h-5.06c-7.49,8.88-13.47,19.56-18.49,28.03-8.69,14.69-20.31,44.72-40.81,44.6-23.35-.14-47.32-42.27-59.84-58.47-2.84-3.68-6.27-8.7-10.15-14.16h-4.95c5.05,6.9,9.32,13.3,12.41,17.34,12.78,16.66,37.7,60.77,61.39,61.89Z"/>
      <path class="cls-13" d="m754.95,62.91c.36-.6.7-1.22,1.05-1.83v-2.9c-4.74,7.59-12.41,17.97-21.87,18.43-14.37.7-30.89-20.53-39.22-29.81-11.97-13.32-23.25-27.2-34.89-40.8h-3.15c12.53,14.71,23.8,31.4,34.63,43.54,19.99,22.42,43.37,47.28,63.46,13.36Z"/>
      <path class="cls-25" d="m54.27,14.71c2.29-2.81,4.57-5.82,6.99-8.71h-1.44c-.86,1.11-1.68,2.16-2.44,3.13C41.12,29.84,27.88,55.41,6,69.96v4.66c20.76-14.73,31.87-39.74,48.27-59.91Z"/>
      <path class="cls-45" d="m756,69.14v-2.87c-1.36,3.34-2.82,6.58-4.44,9.66-18.32,34.82-43.36,7.8-62.61-13.36-14.53-15.98-29.84-39.72-47.74-56.57h-16.59c8.26,6.31,15.53,15.15,21.89,22.04,16.04,17.38,30.68,36.24,47.43,52.96,18.02,17.98,38.89,36.29,54.51,6.94,2.89-5.43,5.16-11.35,7.15-17.52-.1.48-.2.95-.3,1.43.13-.56.26-1.13.39-1.69.11-.34.21-.67.32-1.01Z"/>
      <path class="cls-61" d="m39.1,42.51c16.56-23.67,29.08-24.99,51.39-6.74,26.86,21.96,42.22,59.13,71.94,77.87,28.88,18.21,38.18-18.37,44.59-40.56,3.82-13.23,8.98-49.79,21.73-67.08h-4.83c-9.14,19.9-13.35,49.25-17.23,60.65-7.6,22.39-17.27,53.9-45.2,32.5-24.01-18.4-38.16-49.19-58.12-71.49C80.33,1.92,63.99,5.14,45.06,30.73c-13.57,18.34-22.15,40.85-39.06,55.04v8.78c14.27-14.01,21.11-34.89,33.1-52.03Z"/>
      <g>
        <path class="cls-23" d="m263.48,6h12.84c9.69,11.2,17.98,24.23,23.03,30.8,12.82,16.68,37.99,61.15,61.72,62.22,19.52.88,29.35-29.19,36.51-41.99,9.74-17.4,20.9-38.17,42.64-40.97,22.54-2.9,30.94,20.42,38.96,37.61,6.66,14.28,16.15,45.66,36.39,43.81,21.97-2.01,35.85-35.74,45.73-56.43-.15.28-.3.55-.45.83-8.73,19.02-20.45,40.39-37.52,41.88-20.59,1.79-30.53-32.03-37.12-46.42-4.58-9.99-9.49-22.91-17.28-31.34h8.42c4.53,7.51,7.96,16.09,11.08,22.73,6.09,12.95,16.7,49.11,36.23,50.35,14.76.94,26.58-17.82,35.15-35.35-7.1,12.29-15.96,22.29-26.77,21.58-19.86-1.31-31.14-40.35-37.12-53.31-.84-1.83-1.73-3.86-2.65-6h11.96c6.28,14.6,18.06,50.76,37.85,47.99,7.29-1.02,13.57-6.97,18.96-14.95,1.79-3.85,3.42-7.54,4.87-10.84-4.74,6.57-10.22,11.3-16.54,12.17-14.62,2.03-25.08-17.76-32.1-34.37h4.83c6.49,14.28,15.27,27.86,27.91,27.85,7.61,0,13.78-5.04,18.87-12.28.34-.73.67-1.43.98-2.06,1.39-2.83,3.04-6.53,4.93-10.65.43-.99.85-1.9,1.24-2.72.02-.05.04-.09.07-.14h.81c-.67,1.74-1.38,3.55-2.12,5.39.87-1.76,1.7-3.56,2.49-5.39h.29c-1.69,4.09-3.54,8.2-5.55,12.08-.39.91-.79,1.83-1.2,2.74,2.68-5.02,5.57-10.14,8.76-14.82h5.26c-12.06,11.01-20.53,30.81-27.68,43.52-8.92,15.86-24.66,56.73-46.26,59.85-20.43,2.95-30.29-27.11-36.99-40.98-7.89-16.33-16.35-40.8-38.59-38.65-21.56,2.08-33.85,22.95-42.68,40.19-7.11,13.88-15.21,41.78-34.98,39.25-26.14-3.33-47.9-44.77-62.89-63.98-6.26-8.02-18.73-27.52-32.27-39.21Z"/>
        <path class="cls-42" d="m570.52,20.64c.31-.46.62-.94.92-1.41.3-.72.59-1.42.88-2.12-.49.96-.97,1.91-1.44,2.82-.12.23-.24.47-.36.71Z"/>
        <path class="cls-28" d="m562.96,37.64c.78-1.58,1.54-3.06,2.27-4.4.08-.14.16-.29.23-.43,1.19-2.51,2.31-5.02,3.37-7.46-.58.91-1.18,1.79-1.79,2.64-1.47,3.27-3.03,6.86-4.71,10.6.21-.31.41-.63.62-.94Z"/>
      </g>
      <path class="cls-60" d="m160.73,128.08c-30.98-18.64-48.85-55.21-77.2-77.01-22.19-17.07-35.12-17.97-50.8,6.3-10.11,15.65-15.46,34.15-26.74,47.54v4.24c10.33-13.14,15.27-30.8,24.84-45.97,14.82-23.49,29.31-24.33,50.63-6.22,26.95,22.89,47.95,58.43,78.67,76.78,29.55,17.65,38.12-18.22,44.47-41.16,4.67-16.85,11.2-72.12,33.25-77.05,20.48-4.58,45.4,35.91,55.13,48.36,15,19.18,37,61.01,63.16,64.21,19.41,2.37,25.44-23.74,31.84-37.53,8.28-17.81,20.47-36.55,42.09-38.44,22.18-1.94,30.4,20.44,38.52,36.92,6.72,13.63,16.42,42.02,36.42,39.18,21.74-3.09,38.4-44.21,47.72-60.1,12.11-20.63,27.97-60.3,56.42-50.17,13.17,4.69,24.33,18.61,33.58,28.47,16.3,17.38,31.24,36.24,48.24,52.96,17.56,17.27,39.66,36.98,54.15,6.94,4.96-10.29,7.57-22.35,10.14-34.47-2.38,10.29-5.01,20.35-9.33,29.12-14.71,29.88-36.51,10.48-54.16-6.94-16.95-16.72-31.81-35.58-48.06-52.96-9.22-9.87-20.35-23.78-33.51-28.47-28.47-10.15-44.18,29.46-56.2,50.13-9.25,15.92-25.69,56.94-47.44,60.05-20.12,2.88-29.81-25.8-36.54-39.51-8.06-16.42-16.31-39.25-38.48-37.26-21.57,1.94-33.69,21.16-42.1,38.79-6.59,13.8-13.13,40.28-32.59,37.86-26.16-3.26-48.09-44.97-63.1-64.17-9.72-12.44-34.63-52.9-55.1-48.32-22,4.93-28.65,60.01-33.36,76.84-6.39,22.85-15.12,58.81-44.6,41.08Z"/>
      <path class="cls-27" d="m25.89,85.95c14.24-24.1,29.11-24.36,50.35-6.43,27.21,22.96,48.69,58.16,79.55,76.68,28.97,17.38,38.1-18.27,45.29-40.72,5.46-17.06,13.84-70.86,35.6-76.23,21.14-5.21,44.91,35.4,54.3,48.35,14.2,19.59,34.12,61.12,60.49,64.27,19.52,2.33,27.03-23.95,34.24-37.78,8.9-17.08,21.54-36.79,42.84-38.69,21.67-1.93,29.76,21.07,37.74,36.98,6.97,13.89,17.91,42.79,38.47,39.23,21.92-3.79,38.1-43.58,47.76-59.9,12.15-20.53,28.13-60.14,56.49-50,13.11,4.69,24.07,18.55,33.16,28.46,15.94,17.37,30.46,36.24,47.13,52.94,17.47,17.5,39.5,36.85,54.13,6.94,6.4-13.09,9-29.05,12.57-44.35v-12.46c-3.58,15.82-5.91,32.49-12.43,46.09-14.43,30.12-36.78,10.3-54.27-6.94-16.95-16.71-31.82-35.57-48.06-52.95-9.23-9.88-20.37-23.78-33.55-28.47-28.41-10.11-44.37,29.59-56.55,50.16-9.41,15.91-26.15,56.88-47.87,60.09-20.12,2.97-30.16-25.34-36.93-39.05-8.05-16.29-16.14-38.68-38.12-36.78-21.52,1.86-33.87,20.66-42.21,38.32-6.53,13.83-12.6,39.69-32,37.43-26.31-3.06-47.76-44.9-62.55-64.23-9.65-12.61-34.4-53.27-55.13-48.36-21.88,5.18-28.81,60.07-33.66,76.99-6.51,22.7-15,58.66-44.29,41.11-30.91-18.52-52.49-53.66-79.76-76.61-21.22-17.86-35.96-17.59-50.52,6.19-8.79,14.36-13.26,30.7-22.1,43.45v8.04c7.66-12.58,11.81-28.12,19.89-41.79Z"/>
      <path class="cls-36" d="m746.37,147.15c4.27-8.61,7.05-18.46,9.63-28.53v-10.23c-2.93,12.19-5.88,24.33-11.17,34.69-15.05,29.52-36.35,11.06-53.76-6.92-12.5-12.91-23.68-27.13-35.23-40.94,10.67,13.4,20.39,27.8,29.81,38.6,18.44,21.16,43.42,48.24,60.72,13.33Z"/>
      <path class="cls-62" d="m20.73,102.26c15.18-29.38,32.92-25.06,56.38-3.35,23.72,21.95,42.89,51.48,69.84,69.73,28.37,19.21,39.51-8.39,49.51-32.03,7.34-17.34,19.13-68.96,40.57-77.91,24.21-10.11,46.22,34.27,55.78,49.8,10.74,17.44,30.32,61.79,54.45,62.83,19.26.83,30.57-27.45,38.71-40.02,10.8-16.67,23.23-36.43,44.71-38.98,21.78-2.59,29.87,18.54,38.44,35.07,8.2,15.82,19.22,42.41,40.75,40.81,25.57-1.9,41.84-45.33,52.93-63.87,12.27-20.53,27.87-55.69,55.61-42.71,9.16,4.29,17.56,11.31,25.4,19.59-8.44-9.69-18.47-22.03-30.52-26.41-28.12-10.24-44.17,29.35-56.19,49.65-9.73,16.43-25.6,55.49-47.54,59.5-21.37,3.9-33.49-25.17-41.05-39.66-8.14-15.61-16.53-39.38-38.05-37.38-21.29,1.98-34.86,22.9-44.7,39.43-8.18,13.74-18.18,41.11-37.98,38.53-26.14-3.41-43.62-44.48-56.71-64.32-8.95-13.57-30.51-53.51-52.2-48.4-22.08,5.2-32.94,57.38-39.53,74.69-8.44,22.18-19.1,56.99-47.65,39.78-30.77-18.54-52.08-53.82-79.17-76.81-21.39-18.16-36.21-17.59-49.84,7.1-6.95,12.6-10.64,26.82-16.68,39.03v2.87c5.21-11.62,8.65-24.78,14.73-36.56Z"/>
      <path class="cls-68" d="m655.85,95.22c-3.88-4.87-7.88-9.61-12.04-14,.6.69,1.2,1.37,1.78,2.03,3.48,3.92,6.88,7.93,10.26,11.97Z"/>
      <path class="cls-65" d="m57.59,123.72c25.43,22.85,44.68,56.76,74.16,74.81,27.16,16.64,42.83-6.86,58.59-28.13,14.88-20.08,32.99-59.52,58.3-68.93,26.08-9.7,37.65,25.11,44.55,44,6.23,17.04,15.28,67.11,40.77,67.99,20.82.71,42.22-31.37,53.57-43.79,13.74-15.04,36.7-45.81,60.38-43.79,19.72,1.68,30.07,27.77,38.97,41.68,10.57,16.53,27.77,44.6,51.61,40.23,23.26-4.26,40.35-46.18,50.08-62.69,9.55-16.2,27.79-55.07,51.87-43.1,27.72,13.78,44.44,55.48,62.56,79.11,16.98,22.14,36.07,37.25,53.01,9.73v-7.61c-17.03,30.81-37.02,14.92-54.59-7.49-18.59-23.7-35.86-65.35-63.96-79.13-24.26-11.9-42.44,26.94-52.08,43.3-9.71,16.47-26.94,58.74-50.22,62.95-23.47,4.24-40.03-23.69-50.24-39.98-8.76-13.97-18.76-39.64-38.38-41.42-23.63-2.14-45.79,28.16-59.18,43.33-10.92,12.37-31.04,43.91-51.52,43.33-25.54-.73-36.22-50.87-43.03-67.95-7.36-18.44-20.05-53.91-45.72-43.91-24.83,9.67-41.85,49.71-55.94,69.86-15.12,21.62-30.02,45.3-57.26,28.68-29.54-18.03-48.87-51.91-74.37-74.74-14.43-12.92-25.46-16.9-34.41-11.56,1.06-.4,2.18-.7,3.39-.87,9.79-1.36,22.75,10.41,29.1,16.11Z"/>
      <path class="cls-59" d="m6,141.21c.09-.3.18-.6.27-.9-.09.23-.18.47-.27.7v.2Z"/>
      <path class="cls-8" d="m6.27,140.31c.43-1.09.89-2.17,1.38-3.21-.59,1.7-1.14,3.44-1.65,5.2v.84c.62-2.28,1.28-4.53,1.99-6.74.27-.54.56-1.07.86-1.59-.93,2.92-1.86,5.83-2.84,8.69v1.22c.94-3.33,1.88-6.66,2.87-9.96,2.6-4.53,6.14-8.1,11.23-9.24,9.41-2.1,21.87,8.94,28.07,14.21,27.33,23.25,47.44,63.85,79.93,80.54,25.48,13.08,47.96-17.91,62.59-34.57,16.95-19.3,38.66-56.44,65.52-62.63,27.09-6.25,33.89,30.05,38.4,48.55,3.84,15.72,6.03,58.13,26.9,64.75,22.63,7.19,53.65-32.14,66.37-44.64,15.07-14.8,39.72-45.35,62.99-44.59,20.74.67,30.67,24.64,40.73,40.04,12.13,18.56,29.33,43.74,54.41,42.07,25.15-1.67,38.94-37.07,50.4-56.4,9.74-16.43,30.31-62.17,56.19-45.42,25.59,16.55,38.97,56.83,56.87,79.8,16.09,20.65,31.15,30.98,46.53,12.44v-12.11c-16.58,21.9-34.01,8.29-49.81-13.41-17.08-23.45-32.54-65.3-59.47-79.05-23.9-12.21-41.8,26.92-51.43,42.68-10.14,16.59-26.33,57.71-49.76,62.12-24.68,4.65-43.3-23.69-54.67-40.78-9.14-13.74-20.26-40.81-40.14-42.24-23.71-1.71-48.41,30.09-62.86,44.79-12.3,12.51-36.56,45.73-58.14,44.79-25.54-1.12-30.89-51.14-35.79-68.06-5.76-19.86-15.05-53.29-42.03-44.18-26.36,8.9-46.83,47-63.51,66.89-17.13,20.42-34.44,43.63-61.46,26.96-29.36-18.11-48.41-52.07-73.7-74.97-6.21-5.62-19.3-17.62-28.98-16.14-5.81.89-9.74,4.77-12.6,9.72,3.97-9.12,8.37-15.17,13.44-18.21-4.69,1.78-7.99,5.71-10.5,10.34,4.03-10.02,9.11-22.9,21.61-23.61,10.34-.59,23.43,11.81,30.18,17.99,25.18,23.03,45.01,58.31,75.51,74.4,27.61,14.56,41.2-14.61,53.98-36.73,10.33-17.89,27.61-64.71,50.66-68.6,26.27-4.43,39.55,33.17,48.52,52.23,8.11,17.23,21.01,59.01,44.38,59.65,20.85.57,36.16-26.98,47.31-41.18,12.26-15.6,28.42-38.2,49.71-41.55,21.72-3.41,31.32,19.67,40.32,35.05,9.24,15.79,23.12,44.7,45.74,44.54,24.46-.17,41.52-41.4,51.61-58.68,8.88-15.21,28.13-58.88,53.13-50.13,27.79,9.73,50.06,55.96,67.95,78.02,17.74,21.88,40.65,43.17,57.65,9.39,1.13-2.24,2.16-4.56,3.15-6.92v-19.31c-1.91,5.9-4.03,11.58-6.63,16.8-17.34,34.95-42.18,7.98-59.88-13.3-18.3-22.01-37.68-59.29-64.25-72.14-27.24-13.17-43.02,22.15-55.04,42.25-11.25,18.81-27.09,61.22-52.83,63.25-22.45,1.78-34.88-24.98-43.88-41.44-8.97-16.4-17.59-38.28-39.48-35.57-21.77,2.7-35.69,23.69-47.65,40.01-9.14,12.48-23.74,42.37-43.57,41.1-23.87-1.53-40.08-45.31-49.49-62.9-8.76-16.37-27.53-59.46-52.52-49.96-22.43,8.53-37.24,57.91-46.26,75.68-11.72,23.08-24.67,49.82-52.63,30.75-26.82-18.3-45.8-47.88-69.38-69.88-23.74-22.16-41.28-25.84-55.49,4.43-1.34,2.84-2.52,5.77-3.61,8.74-1.3,2.78-2.37,5.7-3.31,8.51-1.59,3.42-2.79,7.12-3.83,10.61Z"/>
      <path class="cls-67" d="m44.35,156.34c27.23,23.25,47.17,63.98,79.61,80.64,25.1,12.9,48.81-18.18,63.96-34.05,18.19-19.03,41.3-55.06,68.48-61.47,28.18-6.65,33.69,29.29,37.18,48.49,2.91,16,2.27,58.02,23.74,64.79,23.08,7.28,56.46-32.59,69.95-45.13,15-13.93,41.16-45.77,63.57-45.12,20.2.58,30.26,25.58,40.01,40.33,12.64,19.14,30.81,44.22,56.61,42.34,25.33-1.84,38.88-36.59,50.47-56.13,9.73-16.41,30.34-62.03,56.21-45.2,25.19,16.39,37.58,56.94,54.83,79.76,16.17,21.4,31.26,31.03,47.03,11.47v-4.56c-15.52,18.56-30.43,8.77-46.4-12.26-17.36-22.86-29.96-63.32-55.19-79.77-25.81-16.82-46.43,28.87-56.13,45.22-11.55,19.48-25.16,54.38-50.44,56.16-25.64,1.81-43.6-23.32-56.16-42.31-9.91-14.99-19.99-39.68-40.42-40.29-22.76-.68-48.59,30.83-63.71,45.05-13.28,12.49-46.26,52.38-69.2,45.07-21.18-6.75-21.21-48.95-24.3-64.79-3.72-19.02-9.39-54.96-37.25-48.53-27.19,6.28-50.06,42.54-68.02,61.65-15.11,16.08-38.64,47.05-63.88,34.07-32.44-16.68-52.42-57.37-79.67-80.63-19.23-16.41-31-15.55-39.24-1.16v3.58c8.19-12.88,19.84-13.06,38.35,2.76Z"/>
      <path class="cls-10" d="m18.66,165.68c9.47-2.11,21.66,8.85,27.75,14.32,25.95,23.31,43.67,65.16,75.27,81.68,25.26,13.2,47.66-17.89,61.93-34.4,16.52-19.13,37.63-55.89,64.08-62.09,26.69-6.26,34.41,30.05,39.46,48.32,4.4,15.87,7.91,57.81,28.74,64.48,23.09,7.39,54.21-32.82,66.92-45.71,14.62-14.82,38.2-45.96,61.1-45.75,21.19.2,31.45,24.97,41.3,40.52,12.06,19.05,29.08,44.34,54.65,42.47,24.88-1.82,40.17-35.71,52.7-54.52,10.34-15.51,33.23-60.53,57.95-43.78,23.83,16.15,33.67,55.19,50.42,77,7.1,9.25,13.9,19.98,26.05,22.39,14.23,2.82,22.08-8.42,29.02-19.64v-4.83c-6.01,9.31-13.41,17.36-25.33,14.86-11.92-2.49-18.71-13.72-25.65-22.82-17.12-22.45-28.19-62.24-52.77-78.68-25.27-16.9-46.81,28.67-56.78,44.66-11.94,19.14-26.25,53.66-51.22,55.59-25.65,1.98-43.28-23.31-55.6-42.36-9.86-15.24-19.99-39.99-40.77-40.41-22.83-.47-47.79,30.9-62.79,45.33-13.13,12.64-45.8,52.8-68.86,45.3-20.91-6.8-22.14-48.87-25.67-64.68-4.18-18.71-10.44-54.77-37.81-48.46-26.99,6.22-49.34,42.57-66.88,61.69-14.96,16.31-38.2,47.19-63.6,34.18-32.18-16.48-51.15-57.83-77.9-81.05-18.52-16.08-30.03-15.52-38.36-2.63v10.39c2.87-5.54,6.81-10.06,12.66-11.36Z"/>
      <path class="cls-33" d="m52.93,198.44c23.96,23.62,38.85,66.3,68.94,83.18,24.62,13.81,44.47-18.57,56.97-34.94,14.46-18.93,31.96-56.61,57.11-63.09,25.58-6.59,37.1,30.53,43.99,47.9,6.42,16.16,14.76,57.86,36.15,63.98,23.28,6.66,50.3-33.22,62.12-46.81,13.05-15,34.38-47.05,56.63-46.82,21.86.23,32.05,24.47,41.94,40.79,11.65,19.22,27.42,44.2,52.95,42.81,25.06-1.36,42.49-33.6,56.54-51.77,11.2-14.48,37.29-57.86,61-41.64,22.16,15.16,29.71,52.71,45.45,72.98,19.12,24.63,38.25,29.5,57.53.97,2.01-2.97,3.91-6.08,5.75-9.26v-1.45c-1.22,2.08-2.46,4.11-3.76,6.09-7.61,11.6-15.8,23.14-30.71,20.36-12.32-2.3-19.04-12.2-26.3-21.57-16.07-20.76-24.31-58.77-46.99-74.27-24.01-16.4-49.07,27.51-60.01,42.32-13.56,18.37-30.32,51.14-55.29,52.66-25.53,1.56-41.68-23.54-53.45-42.7-9.95-16.2-20.06-40.35-41.78-40.7-22.4-.37-44.6,31.59-58.09,46.47-12.07,13.32-40.5,53.43-63.67,46.45-21.17-6.37-27.98-48.01-33.77-64.14-6.34-17.65-16.61-54.49-42.5-48.04-25.44,6.33-44.48,43.71-59.36,62.77-12.93,16.56-33.87,48.32-58.63,34.77-30.58-16.74-46.37-59.18-70.97-82.7-21.97-21-34.39-13.55-44.73,7.88v9.1c11.21-23.9,24-34.2,46.93-11.6Z"/>
      <path class="cls-52" d="m11.08,240.12c13.83-26.28,30.03-44.37,53.01-17.79,20.87,24.13,31.43,67.87,59.14,85.5,23.23,14.79,39.5-20.08,48.69-35.78,10.83-18.5,23.33-57.61,46.15-64.66,24.22-7.48,42.17,31.31,51.38,47.19,9.44,16.27,24.95,58.24,47.64,63.18,23.58,5.13,44.2-33.82,54.58-48.6,10.83-15.41,27.98-48.09,49.41-48.52,22.42-.45,33.04,24.5,42.54,41.21,11.13,19.57,25.16,43.92,50.68,43.4,25.66-.53,46.22-30.2,62.67-47.38,13.1-13.68,42.62-52.82,65.9-38.3,19.51,12.17,24.73,49.64,38.18,66.74,19.2,24.42,40.02,25.27,59.85-.23,5.45-7.01,10.32-14.73,15.11-22.58v-3.34c-3.42,5.86-6.96,11.57-10.83,16.87-19.62,26.89-39.61,24.21-58.8-.33-14.85-18.99-20.69-55.35-41.5-69.61-23.01-15.76-51.8,26.2-63.64,39.83-15.34,17.66-34.48,48.49-59.84,49.41-25.52.92-40.34-23.72-51.71-43.13-9.69-16.55-20.1-41.14-42.28-41.02-21.81.12-40.88,32.49-52.74,47.73-11.09,14.25-34.59,53.61-58.05,47.77-22.06-5.49-34.29-47.29-42.35-63.54-8.22-16.59-23.13-54.56-47.97-47.52-23.87,6.77-38.71,45.2-51.2,63.93-10.72,16.09-28.67,49.7-52.53,35.39-28.8-17.27-41.36-60.54-63.65-84.43-23.73-25.44-38.81-9.59-51.56,17.98-.46.99-.91,2-1.36,3.02v17.88c1.65-3.53,3.33-6.98,5.08-10.3Z"/>
      <path class="cls-14" d="m175.05,269.41c.45-1.15.9-2.32,1.37-3.5,3.79-7.57,8.65-13.64,15.18-16.34,21.21-8.76,50.57,33.27,61.53,46.24,13.29,15.73,40.06,58.54,64.32,62.04,23.82,3.43,36.19-35.04,43.77-51.08,7.68-16.26,18.37-49.52,39.37-50.92,23.53-1.57,35.09,24.22,44.05,41.81,10.11,19.85,21.46,43.7,46.79,44.17,26.42.49,51.53-25.92,71.29-41.2,14.33-11.08,51.31-47.14,72.77-33.47,15.63,9.95,15.83,43.81,26.9,57.68,19.26,24.12,43.85,19.55,63.98-1.81,10.65-11.3,19.8-24.53,29.63-36.89v-7.31c-8.72,11.65-17,23.85-26.6,34.39-20.07,22.04-43.73,25.67-62.92,1.58-11.97-15.03-12.69-48.13-29.26-59.35-21.21-14.37-58.05,23.28-71.6,34.35-19.23,15.72-43.41,42.65-69.8,42.27-25.42-.37-37.36-24.19-47.74-44.06-9.02-17.26-20.35-43.06-43.53-41.7-20.84,1.23-32.83,34.56-41.05,50.51-8.18,15.88-21.96,54.26-45.71,50.67-24.03-3.63-48.72-46.31-61.25-62.24-10.67-13.58-38.04-55.15-59.88-46.39-6.58,2.64-11.65,8.57-15.72,15.99,1.26-2.92,2.59-5.81,4-8.63-1.73,3.23-3.32,6.64-4.81,10.13-2.58,4.98-4.75,10.56-6.66,16.23.81-2.08,1.69-4.1,2.63-6.02-.35.95-.7,1.9-1.05,2.85Z"/>
      <path class="cls-1" d="m204.67,225.82c22.94-8.1,46.57,31.95,56.84,46.67,11.26,16.12,32.72,58.54,56.21,62.58,23.69,4.08,39.9-34.39,48.97-49.93,9.16-15.69,23.12-48.85,44.06-49.78,22.83-1.02,33.87,24.53,43.05,41.52,10.7,19.79,23.45,43.75,48.93,43.83,26.16.08,48.99-27.8,67.21-44.12,13.48-12.07,47.47-50.19,69.54-35.8,17.69,11.53,20.19,46.32,32.68,62.09,19.18,24.2,41.63,22.17,61.65-1.1,8.03-9.34,15.02-19.96,22.18-30.38v-2.61c-6.48,9.78-12.88,19.64-20.19,28.38-19.98,23.88-41.94,25.13-61.12.87-12.75-16.13-16.03-51.68-34.23-63.38-22.42-14.41-55.14,23.97-68.54,36.49-17.74,16.58-39.94,44.94-65.97,45.02-25.5.08-38.61-23.98-49.44-43.71-9.27-16.9-20.18-42.29-42.88-41.43-21.05.79-35.91,33.83-45.53,49.44-9.46,15.34-26.85,53.91-50.51,49.56-23.44-4.31-42.82-46.56-53.84-62.75-10.2-14.98-31.9-54.8-55.35-46.81-10.01,3.41-17.45,13.8-23.45,25.77,5.14-9.6,11.47-17.49,19.73-20.4Z"/>
      <path class="cls-24" d="m170.44,282.23c1.45-3.96,2.97-8.32,4.6-12.82-1.07,2.74-2.1,5.38-3.1,7.87.49-1.57,1-3.13,1.52-4.69-.9,2.31-1.74,4.69-2.51,7.11-.95,2.28-1.88,4.39-2.8,6.26-7.43,15.09-21.66,51.65-44.24,36.24-26.45-18.05-34.64-62.38-53.84-86.76-22.01-27.95-39.84-7.17-54.72,17.57-3.23,5.37-6.29,11.06-9.36,16.84v7.23c3.59-6.43,7.15-12.79,10.92-18.77,15.22-24.14,33.75-45.96,55.36-17.49,18.58,24.47,25.83,69.04,51.82,87.24,22.38,15.68,35.81-21.59,42.59-36.41.83-1.83,1.67-3.89,2.52-6.11-.97,3.44-1.85,6.88-2.67,10.23,1.23-4.18,2.51-8.79,3.91-13.53Z"/>
      <path class="cls-64" d="m124.11,342.13c-25.06-18.46-30.25-63.65-47.52-88.26-20.75-29.58-40.88-5.53-56.7,17.34-4.77,6.9-9.3,14.3-13.9,21.72v11.33c5.04-7.66,9.98-15.29,15.17-22.4,16.11-22.06,37.24-47.51,57.47-17.28,16.5,24.65,20.29,70.36,44.88,88.89,22.21,16.74,32.89-22.96,37.61-36.99,1.81-5.37,3.45-12.77,5.4-20.71-1.06,3.58-2.08,6.85-3.14,9.6-5.46,14.26-17.16,53.07-39.29,36.77Z"/>
      <path class="cls-29" d="m19.63,300.21c16.21-21.67,37.67-47.78,57.73-17.32,16.22,24.63,19.39,70.83,43.89,89.29,22.4,16.88,32.71-23.07,37.15-37.11,5.65-17.89,9.1-58.76,29.34-67.02,20.6-8.41,50.87,33.66,61.91,46.16,13.75,15.57,41.61,58.19,65.85,61.84,23.96,3.61,35.65-35.14,42.86-51.25,7.45-16.65,17.34-49.7,38.71-51.16,23.88-1.63,35.76,23.91,44.82,41.88,9.87,19.6,20.7,43.76,45.78,44.16,26.18.41,51.82-25.73,71.74-40.58,14.18-10.57,52.37-46.68,73.12-32.83,15.04,10.05,14.18,42.56,25.22,56.2,19.52,24.13,44.85,19.29,65.07-1.85,11.89-12.43,22.02-26.97,33.2-40.13v-4.15c-10.85,13-20.79,27.17-32.35,39.21-20.25,21.08-45.71,26.15-65.19,1.85-10.98-13.71-9.82-46.5-24.89-56.58-20.72-13.85-59.19,22.43-73.32,32.92-20.01,14.84-45.78,41.06-72.02,40.66-25.18-.39-35.95-24.47-45.75-44.18-9.02-18.14-20.83-43.55-44.86-41.89-21.51,1.49-31.19,34.35-38.61,51.13-7.1,16.07-18.69,54.87-42.64,51.25-24.21-3.66-52.44-46.43-66.27-61.93-11.14-12.49-41.56-54.52-62.16-46.22-20.39,8.22-23.4,49.19-28.86,67.12-4.35,14.26-14.54,54.19-37.23,37.13-24.47-18.39-27.13-64.71-43.22-89.29-20.02-30.6-41.61-4.17-57.86,17.32-5.03,6.65-9.86,13.78-14.77,20.98v3.92c4.51-6.7,8.98-13.32,13.63-19.53Z"/>
      <path class="cls-57" d="m16.9,314.79c19.72-25.8,35.21-30.88,54.3-1.39,15.92,24.61,22.52,60.94,45.04,80.69,21.33,18.7,33.89-14.42,40.77-30.09,6.76-15.4,17.89-66.04,39.2-69.88,23.26-4.19,45.24,31.91,57.46,47.15,14.15,17.64,34.15,53.29,58.84,57.84,23.42,4.32,36.86-35.24,44.77-51,7.77-15.48,19.12-49.47,39.21-52.4,22.87-3.33,36.02,24.81,44.64,40.83,9.36,17.41,20.22,44.68,43.79,46.37,26.62,1.91,55.37-29.05,74.07-43.51,14.67-11.34,42.94-39,62.85-29.84,15.84,7.29,17.7,34.62,27,48.14,19.31,28.05,51,21.89,72.64.97,12.36-11.96,23.01-25,34.52-36.61v-10.37c-11.42,12.47-21.75,26.47-33.76,38.91-21.13,21.91-52.05,28.07-70.62-1.32-8.88-14.06-9.81-42.89-25.68-50.72-19.82-9.79-49.63,18.89-64.51,30.12-19.44,14.67-49.18,46.04-76.48,44.22-24.04-1.61-34.87-28.64-44.39-46.48-8.67-16.24-22.13-44.56-45.33-40.92-19.97,3.13-30.4,36.63-37.81,52.15-7.63,15.99-19.94,54.89-43.43,50.73-25.37-4.49-46.89-40.71-61.97-58.47-12.73-15-36.6-52.21-60.01-47.66-21.04,4.09-29.75,55.38-35.6,70.65-5.86,15.31-17.5,49.75-38.64,30.48-21.7-19.77-26.73-56.17-41.56-80.7-18.34-30.35-34.24-23.54-54.3,1.38-5.67,7.04-10.83,14.83-15.92,22.8v3.97c3.47-5.6,7.05-11.02,10.9-16.06Z"/>
      <path class="cls-43" d="m29.66,309.77c13.8-3.17,22.64,10.92,29.58,19.91,19.18,24.85,28.62,59.32,52.02,80.78,24.21,22.2,40.35-12.15,50.57-31.35,9.81-18.44,20.32-54.16,41.73-62.92,23.1-9.45,46.23,33.01,56.28,47.15,11.68,16.43,28.55,51.91,51.09,55.24,22.39,3.3,38.98-38.08,46.93-52.66,9.21-16.89,21.13-49.14,42.46-52.09,21.63-2.98,33.79,21.93,42.21,37.97,9.59,18.27,21.66,49.3,47.26,47.93,23.01-1.24,44.2-25.31,60.83-38.86,13.93-11.35,43.24-41.52,64.31-31.64,15.57,7.3,18.45,31.01,29.49,43.44,21.96,24.74,55.3,16.43,77.65-2.16,12.18-10.13,22.9-20.56,33.91-29.95v-5.44c-11.09,9.96-21.73,21.07-33.89,31.72-21.94,19.23-54.52,27.65-76.02,2-10.79-12.88-13.02-37.37-28.55-45.11-20.96-10.43-51.65,20.65-65.61,31.83-17.13,13.71-38.91,38.03-62.37,39.33-25.93,1.44-38.06-29.46-47.79-48-8.49-16.17-20.84-41.12-42.64-38.05-21.19,2.99-32.58,35.04-41.51,51.91-7.79,14.72-23.55,55.58-45.96,52.47-23.01-3.2-40.98-39.11-53.28-55.68-10.19-13.74-35.26-57.36-58.14-47.52-20.96,9.01-30.33,45.01-39.41,63.42-9.31,18.87-24.8,54.23-48.63,31.69-22.75-21.52-31.23-55.93-49.67-80.79-6.77-9.13-15.07-22.97-28.91-19.91-10.17,2.25-19.5,16.98-24.79,24.65-.96,1.4-1.9,2.84-2.83,4.29v.52c5.11-7.78,13.88-21.86,23.66-24.1Z"/>
      <path class="cls-53" d="m642.95,384.55c-12.81-10.94-18.68-36.97-35.22-42.79-20.64-7.26-46.88,20.34-60.13,31.84-15.75,13.66-34.18,34.87-55.92,37.11-24.62,2.54-35.67-25.44-45.21-43.38-8.21-15.45-21.36-46.5-44.27-41.26-21.21,4.85-33.47,35.09-43.59,52.39-8.77,15.01-25.94,54.56-48.15,53.39-21.07-1.11-40.18-43.87-49.29-58.44-9.94-15.91-26.75-51.07-50.22-42.36-21.79,8.09-34.87,43.74-46.44,61.79-12.85,20.06-28.58,50.21-54.1,31.23-24.92-18.54-37.95-53.18-56.29-77.78-17.93-24.05-33.29-28.02-48.12-10.83v3.85c11.53-8.18,24.28-3.2,39.81,15.55,20.33,24.56,37.93,67.04,66.68,83.55,25,14.35,45.23-21.31,57.14-38.16,12.8-18.1,27.73-50.18,50.33-56.82,22.77-6.7,37.2,28.6,45.77,43.78,8.32,14.73,22.96,53.22,43.95,54.65,22.44,1.52,40.06-37.89,49.54-53.07,9.91-15.89,23.95-49.52,44.86-53.44,22.48-4.22,35.24,24.62,43.27,40.11,8.68,16.73,20.13,46.02,43.24,45.65,21.33-.34,43.17-26.85,57.52-39.78,13.09-11.8,35.26-35.27,55.83-27.81,16.73,6.07,23.07,30.03,37.34,40.17,22.96,16.32,53.25,9.2,75.9-3.18,14.07-7.68,26.05-18.44,38.82-28.04v-7.66c-12.1,9.4-24.46,19.53-40.08,28.69-22.08,12.94-51.48,19.41-72.97,1.07Z"/>
      <path class="cls-50" d="m33.36,371.21c24.65,25.7,43.48,64.55,74.03,83.93,25.64,16.27,47.11-13.57,62.33-31.33,14.34-16.73,37.82-57.25,62.95-60.69,21.54-2.95,32.13,31.06,38.62,45.84,6.51,14.85,15.96,49.57,36.21,52.09,20.79,2.6,43.61-41.38,52.33-54.49,10.95-16.44,29.12-54.73,52.47-54.49,20.93.22,32.13,30.45,39.9,45.39,8.56,16.45,19.57,42.32,41.99,40.08,18.48-1.85,34.31-23.26,46.55-35.18,13.24-12.89,31.03-33.97,51.98-29.74,17.59,3.56,26.74,23.83,40.64,33.9,25.4,18.4,59.49,11.83,85.46-1.21,13.25-6.66,24.99-15.76,37.18-24.14v-5.56c-12.24,8.58-23.98,17.96-37.31,24.81-25.49,13.1-59.36,19.83-84.19,1.09-13.55-10.23-22.07-30.85-39.48-34.54-21-4.45-39.67,17.35-53.04,30.07-12.65,12.04-29.01,33.68-47.85,35.58-22.69,2.28-33.8-23.43-42.46-40.13-7.83-15.08-19.13-45.41-40.3-45.45-23.31-.05-40.84,37.8-51.62,54.33-8.62,13.22-30.65,56.73-51.47,54.33-20.52-2.36-31.1-37.57-38.1-52.47-6.88-14.64-18.71-49.37-40.27-46.17-24.82,3.68-47.14,44.33-60.89,61.13-14.55,17.77-35.43,48.02-60.81,31.61-29.96-19.37-47.95-58.27-71.89-83.94-11.88-12.73-21.74-18.34-30.3-17.29v5.29c7.83.59,16.8,6.34,27.36,17.36Z"/>
      <path class="cls-37" d="m720.44,418.13c-27.17,13.88-60.27,20.21-87.64,3.02-14.87-9.34-25.61-29.68-43.09-34.33-20.53-5.46-36.19,12.74-49.19,25.88-12.45,12.59-28.76,36-48.41,36.74-21.53.82-31.52-25.32-40.09-41.31-7.96-14.88-18.53-43-38.96-42.92-23.47.1-41.79,37.42-53.45,54.08-9.86,14.08-34.1,60.66-57.65,54.11-18.32-5.09-25.37-41.56-30.96-56.24-6.38-16.76-14.11-44.22-36.82-38.6-26.56,6.57-49.45,44.11-67.11,62.61-17.41,18.23-38.23,42.96-64.03,25.18-31.21-21.52-50.35-58.31-77.76-84.03-7.23-6.79-13.6-11.32-19.28-13.66v12.69c4.71,2.59,9.86,6.48,15.53,11.68,28.13,25.78,48.35,62.38,80.14,84.02,25.84,17.59,46.93-7.09,64.87-24.99,18.42-18.39,42.44-55.59,69.34-62.13,22.77-5.54,29.71,21.41,35.49,38.33,5.01,14.67,10.69,50.62,28.93,55.83,23.48,6.72,48.53-40.28,58.52-54.23,11.77-16.44,30.8-54.28,54.14-54.22,20.03.05,30.76,28.31,38.69,42.87,8.56,15.72,18.63,41.97,39.79,41.25,19.37-.66,34.99-23.8,47-36.33,12.9-13.45,27.92-31.11,48.49-25.12,18.06,5.26,29.77,26.14,45.26,35.94,28.44,17.99,60.17,12.18,88.42-2.98,12.54-6.72,23.77-15.5,35.4-23.65v-12.33c-11.67,7.92-22.98,16.41-35.56,22.84Z"/>
      <path class="cls-38" d="m720.53,447.16c-28.67,16.39-58.96,21.85-87.78,2.89-16.16-10.63-28.47-32.69-47.45-38.56-20.97-6.48-35.71,11-48.76,24.9-11.91,12.68-27.3,36.03-46.8,36.61-21.1.62-31.18-25.73-39.77-41.4-7.91-14.42-18.77-42.95-38.66-43-23.21-.06-42.47,37.95-54.24,54.27-10.07,13.96-35.25,60.93-58.74,54.26-18.37-5.22-23.67-41.09-28.54-55.84-5.61-16.97-12.45-43.92-35.27-38.34-26.94,6.58-51.24,43.79-69.81,62.14-18,17.79-39.07,42.57-64.88,25-31.78-21.64-51.99-58.24-80.11-84.02-4.94-4.53-9.49-8.08-13.69-10.63v5.19c4.25,2.56,8.85,6.16,13.87,10.8,27.82,25.75,47.56,62.45,79.11,84.02,25.83,17.66,46.92-7.21,64.84-25.07,18.47-18.41,42.64-55.76,69.57-62.35,22.85-5.59,29.75,21.48,35.41,38.46,4.92,14.77,10.35,50.82,28.75,56.02,23.48,6.64,48.66-40.31,58.73-54.27,11.78-16.32,31.03-54.32,54.24-54.28,19.96.03,30.79,28.78,38.67,43.26,8.56,15.72,18.59,42.28,39.77,41.67,19.66-.57,35.14-24.38,47.06-37.19,13.11-14.11,27.84-31.83,49.06-25.3,19.36,5.95,31.67,28.6,47.99,39.59,28.57,19.23,58.54,13.72,87.03-2.8,12.8-7.43,24.1-17.05,35.92-25.91v-5.24c-11.67,8.62-22.85,17.94-35.47,25.15Z"/>
      <path class="cls-41" d="m23.61,426.35c-4.65-4.72-10.82-11.36-17.61-15.47v10.57c6.72,2.72,14.03,8.68,22.11,17.64,16.78,18.6,32.24,46.92,51.72,66.91h13.7c-27.59-20.41-46.31-55.67-69.91-79.65Z"/>
      <path class="cls-4" d="m233.54,418.86c-25.84,3.25-52.46,43.75-68.37,60.31-7.82,8.15-17.15,19.19-27.54,26.83h10.42c7.14-7.27,13.49-15.09,18.67-20.71,16.53-17.94,36.64-49.63,61.39-55.74,23.45-5.79,30.75,26.34,36.76,42.96,2.84,7.84,6.15,21.78,11.64,33.49h7.66c-8.73-11.94-12.73-31.24-16.21-41.58-5.11-15.19-12.51-48.32-34.42-45.57Z"/>
      <path class="cls-12" d="m756,448.11v-8.91c-13.09,10.19-25.24,21.68-39.48,30.27-28.2,17-57.36,21.87-84.45.27-16.03-12.78-28.12-37.42-48.88-42.66-21.99-5.55-37.63,15.72-50.53,30.25-11.01,12.4-25.44,35.27-43.79,36.95-21.7,1.99-32.45-25.51-40.69-41.29-7.55-14.44-18.73-45.86-38.85-46.7-23.02-.96-43.62,39.12-54.94,54.96-6.11,8.56-19.29,31.32-33.52,44.75h8.3c9.93-12.16,18.34-26.66,23.66-34.03,11.64-16.12,28.75-50.82,50.7-54.5,21.22-3.56,33.14,27.87,40.43,42.17,6.89,13.51,16.37,39.49,32.83,46.36h16.72c16.66-6.51,31.86-30.07,41.25-41.03,12.68-14.8,29.9-37.34,52.23-28.57,21.27,8.36,31.99,36.45,49.54,50.12,24.39,18.99,51.56,12.75,75.84-2.63,15.95-10.1,28.91-24.07,43.63-35.78Z"/>
      <path class="cls-21" d="m586.16,445.78c-22.78-8.45-42.37,20.77-54.27,35.33-5.54,6.78-12.05,16.47-19.54,24.89h4.66c5.46-6.89,10.37-14,14.84-19.55,11.71-14.54,31.98-45.53,54.84-36.57,20.72,8.13,31.81,39.53,46.32,56.12h7.37c-1.79-1.37-3.56-2.87-5.32-4.55-15.88-15.17-27.33-47.67-48.91-55.67Z"/>
      <path class="cls-46" d="m402.09,431.18c-22.29,4.02-38.95,36.75-51.15,53.81-3.21,4.49-8.13,12.49-14.06,21.01h2.88c4.29-6.41,7.87-12.11,10.41-15.65,12.18-17.03,28.88-49.85,51.15-53.81,21.56-3.83,33.77,31.37,40.89,45.81,3.05,6.19,6.57,15.14,11.03,23.65h4.61c-6.23-9.79-10.78-21.61-14.87-29.79-7.21-14.41-19.41-48.9-40.88-45.02Z"/>
      <path class="cls-9" d="m751.36,461.69c-15.16,13.03-27.99,28.9-44.55,40.26-2.11,1.45-4.22,2.79-6.34,4.05h8.53c14.31-11.36,25.9-25.86,39.45-38.08,2.54-2.29,5.05-4.43,7.54-6.44v-3.65c-1.54,1.24-3.08,2.51-4.64,3.85Z"/>
      <path class="cls-18" d="m6,433.14v5.13c9.17.34,18.92,7.68,29.67,21.34,10.91,13.86,20.2,30.87,30.83,46.39h3.44c-12.72-16.86-23.4-36.25-36.04-51.75-10.08-12.36-19.3-19.7-27.9-21.11Z"/>
      <path class="cls-40" d="m221.97,440.69c-25.07,7.35-45.22,42.43-61.77,60.77-1.32,1.46-2.66,2.98-4.02,4.55h3.23c16.25-18.54,36.01-53.42,60.77-60.81,24.33-7.26,32.85,24.44,39.43,42.03,1.7,4.53,3.68,11.38,6.18,18.79h2.92c-3.28-9.19-5.71-18.11-7.74-23.64-6.48-17.63-14.72-48.8-39.01-41.67Z"/>
      <path class="cls-56" d="m40.64,479.77c6.09,8,11.16,17,16.01,26.23h3.22c-7.86-14.24-15.34-28.55-24.4-38.93-7.41-8.49-16.13-21.24-29.48-17.69v12.77c1.74-1.08,3.52-1.88,5.34-2.28,13.85-3.06,22.39,10.8,29.31,19.89Z"/>
      <path class="cls-30" d="m213.38,465.39c21.71-6.83,32.27,22.09,39.14,40.61h6.38c-.1-.26-.2-.53-.29-.78-5.96-15.51-16.07-54.62-39.39-50.45-19.07,3.41-38.77,30.54-53.78,51.23h4.74c12.14-17.13,26.35-35.3,43.22-40.61Z"/>
      <path class="cls-20" d="m586.04,458.87c-21.82-7.32-40.14,22.83-51.39,36.91-2.14,2.68-4.65,6.23-7.48,10.22h7.57c12.36-17.1,33.56-48.94,55.27-36.39,12.57,7.27,20.26,21.74,27.21,36.39h5.86c-9.78-18.42-20.44-41.56-37.04-47.13Z"/>
      <path class="cls-32" d="m441.24,499.26c-6.63-14.18-19.62-53.11-41.11-50.63-21.4,2.47-40.58,39.16-51.85,54.74-.57.79-1.18,1.67-1.83,2.63h5.73c11.7-17.93,27.46-43.78,46.86-45.83,20.33-2.15,31.01,30.17,37.86,45.12.11.23.21.47.32.72h7c-1.04-2.43-2.03-4.71-2.98-6.74Z"/>
      <path class="cls-39" d="m720.81,506h6.18c9.06-10.63,18.28-20.7,29.01-29.02v-5.88c-12.55,10.13-23.52,22.33-35.19,34.9Z"/>
      <path class="cls-6" d="m732.95,506h2.59c6.19-6.83,12.87-13.07,20.46-18.28v-3.32c-8.61,6.14-16.09,13.55-23.05,21.6Z"/>
      <path class="cls-51" d="m45.63,494.89c-14.32-21.38-26.39-24.62-39.63-14.67v6.41c13.83-11.1,26.23-8.73,40.73,13.62,1.2,1.85,2.34,3.78,3.45,5.75h1.99c-2.04-3.88-4.2-7.61-6.54-11.11Z"/>
      <path class="cls-54" d="m211.3,480.32c14.52-1.46,23.5,11.64,29.94,25.68h3.44c-6.49-15.62-15.68-32.01-31.88-30.42-12.44,1.23-25.8,15.01-37.6,30.42h2.54c10.72-13.4,22.47-24.56,33.55-25.68Z"/>
      <path class="cls-44" d="m588.99,483.28c8.23,3.51,14.72,12.26,20.19,22.72h2.44c-6.05-12.34-13.28-23.18-22.79-27.15-17.72-7.4-33.43,10.97-45.21,27.15h3.55c11.37-14.97,25.83-29.53,41.81-22.72Z"/>
      <path class="cls-48" d="m397.1,477.57c13.45-.36,22.48,14.06,29,28.43h3.24c-6.69-15.84-16.27-34.21-31.46-33.79-14.19.39-28.07,17.75-38.99,33.79h2.96c10.27-14.33,22.65-28.1,35.26-28.43Z"/>
      <path class="cls-22" d="m206.21,491.91c-6.48,1.51-13.14,8.05-18.5,14.09h7.49c2.93-1.73,5.95-3.01,9.05-3.72,6.19-1.43,11.5.24,16.11,3.72h11.16c-6.3-9.64-14.47-16.61-25.31-14.09Z"/>
      <path class="cls-63" d="m6,501.23v4.77h8.29c6.16-3.15,12.51-3.74,18.91,0h11.03c-13.13-18.48-26.22-15.28-38.23-4.77Z"/>
      <path class="cls-7" d="m756,497.02c-4.24,2.68-8.19,5.69-11.91,8.98h11.91v-8.98Z"/>
      <path class="cls-66" d="m592.01,496.06c-11.58-8.88-24.26-1.55-35.4,9.94h11.22c7.68-4.54,15.64-5.6,23.21,0h10.48c-2.82-3.82-5.95-7.21-9.51-9.94Z"/>
      <path class="cls-16" d="m395.7,491.54c-8.64-.18-17.21,6.01-25.07,14.46h11.09c4.07-2.43,8.24-3.85,12.42-3.77,4.2.08,7.95,1.47,11.31,3.77h11.53c-5.52-8.21-12.4-14.27-21.28-14.46Z"/>
    </g>
  </g>
</svg>