<svg width="1440" height="890" viewBox="0 0 1440 890" fill="none" xmlns="http://www.w3.org/2000/svg">
<rect width="1440" height="800" fill="#8F3B9D"/>
<g clip-path="url(#clip0_25_814)" filter="url(#filter0_d_25_814)">
<path d="M-50.0245 71.9638C-50.0245 71.9638 74.298 -101.683 391.636 440.951C532.49 681.784 1271.8 767.173 1431.62 626.873V805.713H-5.06539L-50.0245 71.9638Z" fill="#421349"/>
<path d="M-33.0524 348.899C-33.0524 348.899 118.682 348.899 396.962 660.423C527.069 806.088 734.625 699.482 885.497 805.727H-5.06544L-33.0524 348.914V348.899Z" fill="#380041"/>
<path d="M-145 212.927C-92.321 207.46 307.542 137.115 575.591 218.898C843.641 300.68 968.29 218.898 1059.28 127.004C1206.38 -21.5599 1317.89 31.0434 1317.89 31.0434L-94.8687 30.2068L-145 212.927Z" fill="#683172"/>
<path d="M1459.91 382.939C1459.91 382.939 1289.86 600.06 1072.61 623.859C881.973 644.744 734.72 494.06 561.167 647.658C397.383 792.602 202.988 706.983 -5.06543 795.544V799.713C-5.06543 799.713 272.563 927.074 474.984 850.614C805.463 725.791 804.946 914.122 1072.61 833.695C1316.87 760.293 1446.16 832.945 1472 809.925C1497.84 786.89 1459.91 382.954 1459.91 382.954V382.939Z" fill="#683172"/>
<path d="M-97.0142 577.313C-77.8582 579.347 129.027 567.808 255.456 703.391C381.886 838.974 465.368 700.218 586.453 822.964C707.538 945.71 -33.0523 838.974 -33.0523 838.974L-97.0142 577.313Z" fill="#8F3B9D"/>
<path d="M1459.91 534.46C1459.91 534.46 1317.89 541.24 1116.75 305.729C975.339 140.159 537.279 250.486 532.49 63.2951L1459.91 72.5119V534.46Z" fill="#421349"/>
<path d="M1459.91 203.97C1459.91 203.97 1324.57 257.785 1202.61 167.059C1080.64 76.3342 899.615 167.204 896.742 54.6986L1459.91 72.5119V203.97Z" fill="#8F3B9D"/>
</g>
<defs>
<filter id="filter0_d_25_814" x="-149" y="22" width="1634" height="868" filterUnits="userSpaceOnUse" color-interpolation-filters="sRGB">
<feFlood flood-opacity="0" result="BackgroundImageFix"/>
<feColorMatrix in="SourceAlpha" type="matrix" values="0 0 0 0 0 0 0 0 0 0 0 0 0 0 0 0 0 0 127 0" result="hardAlpha"/>
<feOffset dy="4"/>
<feGaussianBlur stdDeviation="2"/>
<feComposite in2="hardAlpha" operator="out"/>
<feColorMatrix type="matrix" values="0 0 0 0 0 0 0 0 0 0 0 0 0 0 0 0 0 0 0.25 0"/>
<feBlend mode="normal" in2="BackgroundImageFix" result="effect1_dropShadow_25_814"/>
<feBlend mode="normal" in="SourceGraphic" in2="effect1_dropShadow_25_814" result="shape"/>
</filter>
<clipPath id="clip0_25_814">
<rect width="1626" height="860" fill="white" transform="translate(-145 22)"/>
</clipPath>
</defs>
</svg>
