<?xml version="1.0"?>
<svg width="762" height="512" xmlns="http://www.w3.org/2000/svg" xmlnsSvg="http://www.w3.org/2000/svg" data-name="Layer 2">
 <defs>
  <style>.cls-1 {
        fill: url(#Degradado_sin_nombre_3-36);
        filter: url(#outer-glow-36);
      }

      .cls-1, .cls-2, .cls-3, .cls-4, .cls-5, .cls-6, .cls-7, .cls-8, .cls-9, .cls-10, .cls-11, .cls-12, .cls-13, .cls-14, .cls-15, .cls-16, .cls-17, .cls-18, .cls-19, .cls-20, .cls-21, .cls-22, .cls-23, .cls-24, .cls-25, .cls-26, .cls-27, .cls-28, .cls-29, .cls-30, .cls-31, .cls-32, .cls-33, .cls-34, .cls-35, .cls-36, .cls-37, .cls-38, .cls-39, .cls-40, .cls-41, .cls-42, .cls-43, .cls-44, .cls-45, .cls-46, .cls-47, .cls-48, .cls-49, .cls-50, .cls-51, .cls-52, .cls-53, .cls-54, .cls-55, .cls-56, .cls-57, .cls-58, .cls-59, .cls-60, .cls-61, .cls-62, .cls-63, .cls-64, .cls-65, .cls-66, .cls-67, .cls-68 {
        stroke-width: 0px;
      }

      .cls-2 {
        fill: url(#Degradado_sin_nombre_3-9);
        filter: url(#outer-glow-9);
      }

      .cls-3 {
        fill: url(#Degradado_sin_nombre_3-12);
        filter: url(#outer-glow-12);
      }

      .cls-4 {
        fill: url(#Degradado_sin_nombre_3-47);
        filter: url(#outer-glow-47);
      }

      .cls-5 {
        fill: url(#Degradado_sin_nombre_3-7);
        filter: url(#outer-glow-7);
      }

      .cls-6 {
        fill: url(#Degradado_sin_nombre_3-59);
        filter: url(#outer-glow-59);
      }

      .cls-7 {
        fill: url(#Degradado_sin_nombre_3-66);
        filter: url(#outer-glow-66);
      }

      .cls-8 {
        fill: url(#Degradado_sin_nombre_3-30);
        filter: url(#outer-glow-30);
      }

      .cls-9 {
        fill: url(#Degradado_sin_nombre_3-51);
        filter: url(#outer-glow-51);
      }

      .cls-10 {
        fill: url(#Degradado_sin_nombre_3-32);
        filter: url(#outer-glow-32);
      }

      .cls-11 {
        fill: url(#Degradado_sin_nombre_3-6);
        filter: url(#outer-glow-6);
      }

      .cls-12 {
        fill: url(#Degradado_sin_nombre_3-48);
        filter: url(#outer-glow-48);
      }

      .cls-13 {
        fill: url(#Degradado_sin_nombre_3-16);
        filter: url(#outer-glow-16);
      }

      .cls-14 {
        fill: url(#Degradado_sin_nombre_3-35);
        filter: url(#outer-glow-35);
      }

      .cls-15 {
        fill: url(#Degradado_sin_nombre_3-10);
        filter: url(#outer-glow-10);
      }

      .cls-16 {
        fill: url(#Degradado_sin_nombre_3-68);
        filter: url(#outer-glow-68);
      }

      .cls-17 {
        fill: url(#Degradado_sin_nombre_3-15);
        filter: url(#outer-glow-15);
      }

      .cls-18 {
        fill: url(#Degradado_sin_nombre_3-52);
        filter: url(#outer-glow-52);
      }

      .cls-19 {
        fill: url(#Degradado_sin_nombre_3-13);
        filter: url(#outer-glow-13);
      }

      .cls-20 {
        fill: url(#Degradado_sin_nombre_3-56);
        filter: url(#outer-glow-56);
      }

      .cls-21 {
        fill: url(#Degradado_sin_nombre_3-49);
        filter: url(#outer-glow-49);
      }

      .cls-22 {
        fill: url(#Degradado_sin_nombre_3-64);
        filter: url(#outer-glow-64);
      }

      .cls-23 {
        fill: url(#Degradado_sin_nombre_3-20);
        filter: url(#outer-glow-20);
      }

      .cls-24 {
        fill: url(#Degradado_sin_nombre_3-37);
        filter: url(#outer-glow-37);
      }

      .cls-25 {
        fill: url(#Degradado_sin_nombre_3-17);
        filter: url(#outer-glow-17);
      }

      .cls-26 {
        fill: url(#Degradado_sin_nombre_3-5);
        filter: url(#outer-glow-5);
      }

      .cls-27 {
        fill: url(#Degradado_sin_nombre_3-24);
        filter: url(#outer-glow-24);
      }

      .cls-28 {
        fill: url(#Degradado_sin_nombre_3-22);
        filter: url(#outer-glow-22);
      }

      .cls-29 {
        fill: url(#Degradado_sin_nombre_3-39);
        filter: url(#outer-glow-39);
      }

      .cls-30 {
        fill: url(#Degradado_sin_nombre_3-55);
        filter: url(#outer-glow-55);
      }

      .cls-31 {
        fill: url(#Degradado_sin_nombre_3-14);
        filter: url(#outer-glow-14);
      }

      .cls-32 {
        fill: url(#Degradado_sin_nombre_3-57);
        filter: url(#outer-glow-57);
      }

      .cls-33 {
        fill: url(#Degradado_sin_nombre_3-33);
        filter: url(#outer-glow-33);
      }

      .cls-34 {
        fill: url(#Degradado_sin_nombre_3-3);
        filter: url(#outer-glow-3);
      }

      .cls-35 {
        fill: url(#Degradado_sin_nombre_3-2);
        filter: url(#outer-glow-2);
      }

      .cls-36 {
        fill: url(#Degradado_sin_nombre_3-25);
        filter: url(#outer-glow-25);
      }

      .cls-37 {
        fill: url(#Degradado_sin_nombre_3-44);
        filter: url(#outer-glow-44);
      }

      .cls-38 {
        fill: url(#Degradado_sin_nombre_3-45);
        filter: url(#outer-glow-45);
      }

      .cls-39 {
        fill: url(#Degradado_sin_nombre_3-58);
        filter: url(#outer-glow-58);
      }

      .cls-40 {
        fill: url(#Degradado_sin_nombre_3-53);
        filter: url(#outer-glow-53);
      }

      .cls-41 {
        fill: url(#Degradado_sin_nombre_3-46);
        filter: url(#outer-glow-46);
      }

      .cls-42 {
        fill: url(#Degradado_sin_nombre_3-21);
        filter: url(#outer-glow-21);
      }

      .cls-43 {
        fill: url(#Degradado_sin_nombre_3-41);
        filter: url(#outer-glow-41);
      }

      .cls-44 {
        fill: url(#Degradado_sin_nombre_3-62);
        filter: url(#outer-glow-62);
      }

      .cls-45 {
        fill: url(#Degradado_sin_nombre_3-18);
        filter: url(#outer-glow-18);
      }

      .cls-46 {
        fill: url(#Degradado_sin_nombre_3-50);
        filter: url(#outer-glow-50);
      }

      .cls-47 {
        fill: url(#Degradado_sin_nombre_3);
        filter: url(#outer-glow-1);
      }

      .cls-48 {
        fill: url(#Degradado_sin_nombre_3-63);
        filter: url(#outer-glow-63);
      }

      .cls-49 {
        fill: url(#Degradado_sin_nombre_3-11);
        filter: url(#outer-glow-11);
      }

      .cls-50 {
        fill: url(#Degradado_sin_nombre_3-43);
        filter: url(#outer-glow-43);
      }

      .cls-51 {
        fill: url(#Degradado_sin_nombre_3-60);
        filter: url(#outer-glow-60);
      }

      .cls-52 {
        fill: url(#Degradado_sin_nombre_3-34);
        filter: url(#outer-glow-34);
      }

      .cls-53 {
        fill: url(#Degradado_sin_nombre_3-42);
        filter: url(#outer-glow-42);
      }

      .cls-54 {
        fill: url(#Degradado_sin_nombre_3-61);
        filter: url(#outer-glow-61);
      }

      .cls-55 {
        fill: url(#Degradado_sin_nombre_3-8);
        filter: url(#outer-glow-8);
      }

      .cls-56 {
        fill: url(#Degradado_sin_nombre_3-54);
        filter: url(#outer-glow-54);
      }

      .cls-57 {
        fill: url(#Degradado_sin_nombre_3-40);
        filter: url(#outer-glow-40);
      }

      .cls-58 {
        fill: url(#Degradado_sin_nombre_3-4);
        filter: url(#outer-glow-4);
      }

      .cls-59 {
        fill: url(#Degradado_sin_nombre_3-29);
        filter: url(#outer-glow-29);
      }

      .cls-60 {
        fill: url(#Degradado_sin_nombre_3-23);
        filter: url(#outer-glow-23);
      }

      .cls-61 {
        fill: url(#Degradado_sin_nombre_3-19);
        filter: url(#outer-glow-19);
      }

      .cls-62 {
        fill: url(#Degradado_sin_nombre_3-26);
        filter: url(#outer-glow-26);
      }

      .cls-63 {
        fill: url(#Degradado_sin_nombre_3-65);
        filter: url(#outer-glow-65);
      }

      .cls-64 {
        fill: url(#Degradado_sin_nombre_3-38);
        filter: url(#outer-glow-38);
      }

      .cls-65 {
        fill: url(#Degradado_sin_nombre_3-28);
        filter: url(#outer-glow-28);
      }

      .cls-66 {
        fill: url(#Degradado_sin_nombre_3-67);
        filter: url(#outer-glow-67);
      }

      .cls-67 {
        fill: url(#Degradado_sin_nombre_3-31);
        filter: url(#outer-glow-31);
      }

      .cls-68 {
        fill: url(#Degradado_sin_nombre_3-27);
        filter: url(#outer-glow-27);
      }</style>
 </defs>
 <g class="layer">
  <title>Layer 1</title>
  <g id="background">
   <g id="svg_1">
    <path class="cls-47" d="m344.73,0l14.93,0c3.3,2.01 6.62,3.45 9.95,4.1c6.05,1.18 12.02,-0.56 17.77,-4.1l11.12,0c-9.24,10.07 -19.65,17.26 -30.42,15.2c-7.87,-1.51 -15.81,-7.42 -23.34,-15.2z" id="svg_2"/>
    <path class="cls-35" d="m1,13.83c8.2,-3.73 15.82,-8.44 23.01,-13.83l-15.58,0c-2.43,1.28 -4.91,2.48 -7.45,3.57l0,10.26l0.01,0z" id="svg_3"/>
    <path class="cls-34" d="m175.12,11.26c12,9.87 21.67,0.87 28.76,-11.26l-7.52,0c-5.74,4.96 -12.47,6.31 -20.1,0l-8.23,0c1.77,4.71 4.04,8.77 7.09,11.26l-0.01,0z" id="svg_4"/>
    <path class="cls-58" d="m744.83,13.89c6.88,1.47 12.85,-0.43 18.17,-3.98l0,-9.9l-0.35,0c-4.85,2.82 -10.23,4.2 -16.32,2.91c-2.66,-0.56 -5.17,-1.59 -7.57,-2.91l-14.77,0c5.94,6.36 12.72,12.14 20.83,13.89l0.01,0z" id="svg_5"/>
    <path class="cls-26" d="m559.9,14.83c8.48,-0.03 15.1,-6.24 20.38,-14.83l-6.99,0c-3.22,2.37 -6.82,3.77 -10.84,3.8c-4.1,0.03 -7.81,-1.38 -11.19,-3.8l-12.41,0c5.6,8.59 12.46,14.86 21.04,14.83z" id="svg_6"/>
    <path class="cls-11" d="m710.3,6.68c8.07,9.41 17.88,22.41 30.4,25.6c8.99,2.29 16.13,-0.75 22.3,-6l0,-4.58c-5.71,4.51 -12.25,7.16 -20.08,5.52c-12.28,-2.58 -21.65,-14.51 -29.58,-23.61c-1.02,-1.16 -2.02,-2.38 -3.03,-3.6l-5.6,0c1.84,2.24 3.69,4.47 5.58,6.68z" id="svg_7"/>
    <path class="cls-5" d="m173.55,25.94c-6.28,-4.87 -9.9,-15.8 -12.52,-25.94l-4.94,0c3.21,10.58 7.45,20.4 14.34,28.11c20.03,22.43 33.7,-10.41 40.57,-28.11l-1.78,0c-6.89,17.09 -18.58,39.21 -35.67,25.94z" id="svg_8"/>
    <path class="cls-55" d="m41,0l-4.03,0c-10.83,10.49 -22.51,19.78 -35.97,26.28l0,5.05c15.23,-7.61 28.08,-18.85 40,-31.33l0,0.01z" id="svg_9"/>
    <path class="cls-2" d="m370.23,35.45c15.09,-0.15 28.91,-19.15 39.11,-35.45l-2.62,0c-10.96,16.03 -25.09,31.87 -40.45,28.96c-12.09,-2.29 -24.36,-15.01 -35.07,-28.96l-5.04,0c13.13,17.89 29.06,35.6 44.06,35.45l0.01,0z" id="svg_10"/>
    <path class="cls-15" d="m368.53,49.5c-19.12,0.05 -39.56,-28.27 -54.02,-49.5l-9.18,0c0.17,0.23 0.34,0.45 0.51,0.67c12.33,16.12 37.22,60.05 60.51,59.46c21.79,-0.55 35.22,-32.48 45.05,-48.34c2.19,-3.54 4.58,-7.58 7.18,-11.79l-4.11,0c-9.12,14.84 -25.81,49.45 -45.94,49.5l0.01,0z" id="svg_11"/>
    <path class="cls-49" d="m52.33,0l-3.96,0c-13.93,16.95 -28.49,33.4 -47.37,43.63l0,9.94c21.17,-12.53 36,-33.7 51.33,-53.58z" id="svg_12"/>
    <path class="cls-3" d="m168.28,59.01c24.55,18.63 35.49,-18.81 42.15,-38.29c1.68,-4.9 3.53,-12.39 5.78,-20.72l-2.09,0c-1.42,5.11 -2.78,9.74 -4.18,13.49c-6.89,18.57 -19.52,52.48 -41.72,30.36c-11.34,-11.29 -17.16,-27.47 -22.5,-43.86l-11.46,0c9.07,21.62 16.66,45.84 34.01,59.01l0.01,0z" id="svg_13"/>
    <path class="cls-19" d="m738.72,45.61c-12.59,-3.08 -22.68,-16.25 -30.85,-25.6c-5.69,-6.5 -11.1,-13.24 -16.47,-20.01l-11.58,0c7.8,9.56 15.6,19.14 23.72,28.45c8.44,9.68 24.5,30.91 39.17,30.53c7.87,-0.22 15.01,-7.19 20.3,-13.95l0,-7.98c-6.41,6.76 -13.95,11.1 -24.28,8.57l-0.01,-0.01z" id="svg_14"/>
    <path class="cls-31" d="m161.36,79.38c26.65,23 37.6,-10.98 45.09,-32.27c3.21,-9.12 6.72,-29.24 12.64,-47.11l-0.62,0c-4.25,13.91 -7.11,28.1 -9.58,35.77c-6.79,21.06 -16.58,57.05 -42.73,39.45c-24.25,-16.31 -33.86,-51.11 -50.5,-75.22l-9.86,0c1.35,1.64 2.66,3.31 3.94,4.96c17.88,23.17 29.23,55.09 51.63,74.42l-0.02,0z" id="svg_15"/>
    <path class="cls-17" d="m363.44,81.13c20.45,0.97 32.68,-32.2 40.52,-45.49c7.01,-11.9 14.84,-26.45 26.03,-35.65l-5.14,0c-7.61,9.09 -13.69,20.03 -18.79,28.7c-8.83,15.04 -20.63,45.79 -41.46,45.67c-23.72,-0.14 -48.08,-43.28 -60.8,-59.87c-2.89,-3.77 -6.37,-8.91 -10.31,-14.5l-5.03,0c5.13,7.07 9.47,13.62 12.61,17.76c12.98,17.06 38.3,62.23 62.37,63.38z" id="svg_16"/>
    <path class="cls-13" d="m761.93,58.28c0.37,-0.61 0.71,-1.25 1.07,-1.87l0,-2.97c-4.82,7.77 -12.61,18.4 -22.22,18.87c-14.6,0.72 -31.38,-21.02 -39.85,-30.53c-12.16,-13.64 -23.62,-27.85 -35.45,-41.78l-3.2,0c12.73,15.06 24.18,32.15 35.18,44.58c20.31,22.96 44.06,48.41 64.48,13.68l-0.01,0.01z" id="svg_17"/>
    <path class="cls-25" d="m50.04,8.92c2.33,-2.88 4.64,-5.96 7.1,-8.92l-1.46,0c-0.87,1.14 -1.71,2.21 -2.48,3.21c-16.52,21.21 -29.97,47.39 -52.2,62.29l0,4.77c21.09,-15.08 32.38,-40.69 49.04,-61.35z" id="svg_18"/>
    <path class="cls-45" d="m763,64.66l0,-2.94c-1.38,3.42 -2.87,6.74 -4.51,9.89c-18.61,35.66 -44.05,7.99 -63.61,-13.68c-14.76,-16.36 -30.32,-40.67 -48.5,-57.93l-16.86,0c8.39,6.46 15.78,15.51 22.24,22.57c16.3,17.8 31.17,37.11 48.19,54.23c18.31,18.41 39.51,37.16 55.38,7.11c2.94,-5.56 5.24,-11.62 7.26,-17.94c-0.1,0.49 -0.2,0.97 -0.3,1.46c0.13,-0.57 0.26,-1.16 0.4,-1.73c0.11,-0.35 0.21,-0.69 0.33,-1.03l-0.01,-0.01z" id="svg_19"/>
    <path class="cls-61" d="m34.63,37.39c16.82,-24.24 29.55,-25.59 52.21,-6.9c27.29,22.49 42.9,60.55 73.09,79.74c29.34,18.65 38.79,-18.81 45.3,-41.53c3.88,-13.55 9.12,-50.98 22.08,-68.69l-4.91,0c-9.29,20.38 -13.56,50.43 -17.51,62.11c-7.72,22.93 -17.55,55.19 -45.92,33.28c-24.39,-18.84 -38.77,-50.37 -59.05,-73.21c-23.41,-26.36 -40.01,-23.06 -59.24,3.14c-13.79,18.78 -22.5,41.83 -39.68,56.36l0,8.99c14.5,-14.35 21.45,-35.73 33.63,-53.28l0,-0.01z" id="svg_20"/>
    <g id="svg_21">
     <path class="cls-23" d="m262.6,0l13.05,0c9.85,11.47 18.27,24.81 23.4,31.54c13.03,17.08 38.6,62.62 62.71,63.71c19.83,0.9 29.82,-29.89 37.09,-43c9.9,-17.82 21.23,-39.09 43.32,-41.95c22.9,-2.97 31.43,20.91 39.58,38.51c6.77,14.62 16.41,46.76 36.97,44.86c22.32,-2.06 36.42,-36.6 46.46,-57.78c-0.15,0.29 -0.3,0.56 -0.46,0.85c-8.87,19.48 -20.78,41.36 -38.12,42.89c-20.92,1.83 -31.02,-32.8 -37.71,-47.53c-4.65,-10.23 -9.64,-23.46 -17.56,-32.09l8.55,0c4.6,7.69 8.09,16.48 11.26,23.28c6.19,13.26 16.97,50.29 36.81,51.56c15,0.96 27.01,-18.25 35.71,-36.2c-7.21,12.58 -16.22,22.82 -27.2,22.1c-20.18,-1.34 -31.64,-41.32 -37.71,-54.59c-0.85,-1.87 -1.76,-3.95 -2.69,-6.14l12.15,0c6.38,14.95 18.35,51.98 38.46,49.14c7.41,-1.04 13.79,-7.14 19.26,-15.31c1.82,-3.94 3.47,-7.72 4.95,-11.1c-4.82,6.73 -10.38,11.57 -16.8,12.46c-14.85,2.08 -25.48,-18.19 -32.61,-35.19l4.91,0c6.59,14.62 15.51,28.53 28.36,28.52c7.73,0 14,-5.16 19.17,-12.57c0.35,-0.75 0.68,-1.46 1,-2.11c1.41,-2.9 3.09,-6.69 5.01,-10.91c0.44,-1.01 0.86,-1.95 1.26,-2.79c0.02,-0.05 0.04,-0.09 0.07,-0.14l0.82,0c-0.68,1.78 -1.4,3.64 -2.15,5.52c0.88,-1.8 1.73,-3.65 2.53,-5.52l0.29,0c-1.72,4.19 -3.6,8.4 -5.64,12.37c-0.4,0.93 -0.8,1.87 -1.22,2.81c2.72,-5.14 5.66,-10.38 8.9,-15.18l5.34,0c-12.25,11.27 -20.86,31.55 -28.12,44.56c-9.06,16.24 -25.05,58.09 -47,61.29c-20.76,3.02 -30.77,-27.76 -37.58,-41.96c-8.02,-16.72 -16.61,-41.78 -39.21,-39.58c-21.9,2.13 -34.39,23.5 -43.36,41.15c-7.22,14.21 -15.45,42.78 -35.54,40.19c-26.56,-3.41 -48.67,-45.84 -63.9,-65.52c-6.36,-8.21 -19.03,-28.18 -32.79,-40.15l-0.02,0.01z" id="svg_22"/>
     <path class="cls-42" d="m574.55,14.99c0.31,-0.47 0.63,-0.96 0.93,-1.44c0.3,-0.74 0.6,-1.45 0.89,-2.17c-0.5,0.98 -0.99,1.96 -1.46,2.89c-0.12,0.24 -0.24,0.48 -0.37,0.73z" id="svg_23"/>
     <path class="cls-28" d="m566.87,32.4c0.79,-1.62 1.56,-3.13 2.31,-4.51c0.08,-0.14 0.16,-0.3 0.23,-0.44c1.21,-2.57 2.35,-5.14 3.42,-7.64c-0.59,0.93 -1.2,1.83 -1.82,2.7c-1.49,3.35 -3.08,7.02 -4.79,10.85c0.21,-0.32 0.42,-0.65 0.63,-0.96l0.01,-0.01z" id="svg_24"/>
    </g>
    <path class="cls-60" d="m158.21,125.01c-31.48,-19.09 -49.63,-56.53 -78.44,-78.86c-22.55,-17.48 -35.68,-18.4 -51.61,6.45c-10.27,16.03 -15.71,34.97 -27.17,48.68l0,4.34c10.5,-13.46 15.51,-31.54 25.24,-47.07c15.06,-24.05 29.78,-24.91 51.44,-6.37c27.38,23.44 48.72,59.83 79.93,78.62c30.02,18.07 38.73,-18.66 45.18,-42.15c4.74,-17.25 11.38,-73.85 33.78,-78.9c20.81,-4.69 46.13,36.77 56.01,49.52c15.24,19.64 37.59,62.47 64.17,65.75c19.72,2.43 25.85,-24.31 32.35,-38.43c8.41,-18.24 20.8,-37.43 42.76,-39.36c22.53,-1.99 30.89,20.93 39.14,37.81c6.83,13.96 16.68,43.03 37,40.12c22.09,-3.16 39.01,-45.27 48.48,-61.54c12.3,-21.13 28.42,-61.75 57.32,-51.37c13.38,4.8 24.72,19.06 34.12,29.15c16.56,17.8 31.74,37.11 49.01,54.23c17.84,17.68 40.29,37.87 55.02,7.11c5.04,-10.54 7.69,-22.89 10.3,-35.3c-2.42,10.54 -5.09,20.84 -9.48,29.82c-14.95,30.6 -37.09,10.73 -55.03,-7.11c-17.22,-17.12 -32.32,-36.43 -48.83,-54.23c-9.37,-10.11 -20.68,-24.35 -34.05,-29.15c-28.93,-10.39 -44.89,30.17 -57.1,51.33c-9.4,16.3 -26.1,58.31 -48.2,61.49c-20.44,2.95 -30.29,-26.42 -37.12,-40.46c-8.19,-16.81 -16.57,-40.19 -39.1,-38.15c-21.92,1.99 -34.23,21.67 -42.77,39.72c-6.7,14.13 -13.34,41.25 -33.11,38.77c-26.58,-3.34 -48.86,-46.05 -64.11,-65.71c-9.88,-12.74 -35.18,-54.17 -55.98,-49.48c-22.35,5.05 -29.11,61.45 -33.89,78.68c-6.49,23.4 -15.36,60.22 -45.31,42.07l0.04,-0.02z" id="svg_25"/>
    <path class="cls-27" d="m21.21,81.87c14.47,-24.68 29.58,-24.94 51.16,-6.58c27.65,23.51 49.47,59.56 80.82,78.52c29.43,17.8 38.71,-18.71 46.01,-41.7c5.55,-17.47 14.06,-72.56 36.17,-78.06c21.48,-5.34 45.63,36.25 55.17,49.51c14.43,20.06 34.67,62.59 61.46,65.81c19.83,2.39 27.46,-24.52 34.79,-38.69c9.04,-17.49 21.88,-37.67 43.53,-39.62c22.02,-1.98 30.24,21.58 38.34,37.87c7.08,14.22 18.2,43.82 39.09,40.17c22.27,-3.88 38.71,-44.63 48.52,-61.34c12.34,-21.02 28.58,-61.58 57.39,-51.2c13.32,4.8 24.46,19 33.69,29.14c16.2,17.79 30.95,37.11 47.88,54.21c17.75,17.92 40.13,37.73 55,7.11c6.5,-13.4 9.14,-29.75 12.77,-45.41l0,-12.76c-3.64,16.2 -6,33.27 -12.63,47.2c-14.66,30.84 -37.37,10.55 -55.14,-7.11c-17.22,-17.11 -32.33,-36.42 -48.83,-54.22c-9.38,-10.12 -20.7,-24.35 -34.09,-29.15c-28.86,-10.35 -45.08,30.3 -57.45,51.36c-9.56,16.29 -26.57,58.25 -48.64,61.53c-20.44,3.04 -30.64,-25.95 -37.52,-39.99c-8.18,-16.68 -16.4,-39.61 -38.73,-37.66c-21.86,1.9 -34.41,21.16 -42.89,39.24c-6.63,14.16 -12.8,40.64 -32.51,38.33c-26.73,-3.13 -48.52,-45.98 -63.55,-65.77c-9.8,-12.91 -34.95,-54.55 -56.01,-49.52c-22.23,5.3 -29.27,61.51 -34.2,78.84c-6.61,23.24 -15.24,60.07 -45,42.1c-31.4,-18.96 -53.33,-54.95 -81.04,-78.45c-21.56,-18.29 -36.54,-18.01 -51.33,6.34c-8.93,14.7 -13.47,31.44 -22.45,44.49l0,8.23c7.78,-12.88 12,-28.79 20.21,-42.79l0,0.02z" id="svg_26"/>
    <path class="cls-36" d="m753.22,144.54c4.34,-8.82 7.16,-18.9 9.78,-29.21l0,-10.48c-2.98,12.48 -5.97,24.91 -11.35,35.52c-15.29,30.23 -36.93,11.33 -54.62,-7.09c-12.7,-13.22 -24.06,-27.78 -35.79,-41.92c10.84,13.72 20.72,28.47 30.29,39.53c18.74,21.67 44.11,49.4 61.69,13.65z" id="svg_27"/>
    <path class="cls-62" d="m15.97,98.57c15.42,-30.09 33.45,-25.66 57.28,-3.43c24.1,22.48 43.58,52.72 70.96,71.4c28.82,19.67 40.14,-8.59 50.3,-32.8c7.46,-17.76 19.44,-70.61 41.22,-79.78c24.6,-10.35 46.96,35.09 56.67,51c10.91,17.86 30.81,63.27 55.32,64.34c19.57,0.85 31.06,-28.11 39.33,-40.98c10.97,-17.07 23.6,-37.3 45.43,-39.92c22.13,-2.65 30.35,18.98 39.05,35.91c8.33,16.2 19.53,43.43 41.4,41.79c25.98,-1.95 42.51,-46.42 53.78,-65.4c12.47,-21.02 28.32,-57.03 56.5,-43.73c9.31,4.39 17.84,11.58 25.81,20.06c-8.58,-9.92 -18.77,-22.56 -31.01,-27.04c-28.57,-10.49 -44.88,30.05 -57.09,50.84c-9.89,16.82 -26.01,56.82 -48.3,60.93c-21.71,3.99 -34.03,-25.77 -41.71,-40.61c-8.27,-15.98 -16.79,-40.33 -38.66,-38.28c-21.63,2.03 -35.42,23.45 -45.42,40.38c-8.31,14.07 -18.47,42.1 -38.59,39.45c-26.56,-3.49 -44.32,-45.55 -57.62,-65.86c-9.09,-13.9 -31,-54.79 -53.04,-49.56c-22.43,5.32 -33.47,58.76 -40.16,76.48c-8.58,22.71 -19.41,58.36 -48.41,40.73c-31.26,-18.98 -52.91,-55.11 -80.44,-78.65c-21.73,-18.6 -36.79,-18.01 -50.64,7.27c-7.06,12.9 -10.81,27.46 -16.95,39.97l0,2.94c5.29,-11.9 8.79,-25.37 14.97,-37.44z" id="svg_28"/>
    <path class="cls-68" d="m661.25,91.36c-3.94,-4.99 -8.01,-9.84 -12.23,-14.34c0.61,0.71 1.22,1.4 1.81,2.08c3.54,4.01 6.99,8.12 10.42,12.26z" id="svg_29"/>
    <path class="cls-65" d="m53.42,120.55c25.84,23.4 45.39,58.12 75.35,76.61c27.59,17.04 43.52,-7.02 59.53,-28.81c15.12,-20.56 33.52,-60.95 59.23,-70.58c26.5,-9.93 38.25,25.71 45.26,45.06c6.33,17.45 15.52,68.72 41.42,69.62c21.15,0.73 42.9,-32.12 54.43,-44.84c13.96,-15.4 37.29,-46.91 61.35,-44.84c20.04,1.72 30.55,28.44 39.59,42.68c10.74,16.93 28.21,45.67 52.44,41.2c23.63,-4.36 41,-47.29 50.88,-64.19c9.7,-16.59 28.23,-56.39 52.7,-44.13c28.16,14.11 45.15,56.81 63.56,81.01c17.25,22.67 36.65,38.14 53.86,9.96l0,-7.79c-17.3,31.55 -37.61,15.28 -55.46,-7.67c-18.89,-24.27 -36.43,-66.92 -64.98,-81.03c-24.65,-12.19 -43.12,27.59 -52.91,44.34c-9.87,16.87 -27.37,60.15 -51.02,64.46c-23.85,4.34 -40.67,-24.26 -51.04,-40.94c-8.9,-14.31 -19.06,-40.59 -38.99,-42.41c-24.01,-2.19 -46.52,28.84 -60.13,44.37c-11.09,12.67 -31.54,44.96 -52.34,44.37c-25.95,-0.75 -36.8,-52.09 -43.72,-69.58c-7.48,-18.88 -20.37,-55.2 -46.45,-44.96c-25.23,9.9 -42.52,50.9 -56.83,71.54c-15.36,22.14 -30.5,46.39 -58.18,29.37c-30.01,-18.46 -49.65,-53.16 -75.56,-76.53c-14.66,-13.23 -25.87,-17.31 -34.96,-11.84c1.08,-0.41 2.21,-0.72 3.44,-0.89c9.95,-1.39 23.11,10.66 29.57,16.5l-0.01,-0.02z" id="svg_30"/>
    <path class="cls-59" d="m1,138.46c0.09,-0.31 0.18,-0.61 0.27,-0.92c-0.09,0.24 -0.18,0.48 -0.27,0.72l0,0.2z" id="svg_31"/>
    <path class="cls-8" d="m1.27,137.53c0.44,-1.12 0.9,-2.22 1.4,-3.29c-0.6,1.74 -1.16,3.52 -1.68,5.32l0,0.86c0.63,-2.33 1.3,-4.64 2.02,-6.9c0.27,-0.55 0.57,-1.1 0.87,-1.63c-0.94,2.99 -1.89,5.97 -2.89,8.9l0,1.25c0.96,-3.41 1.91,-6.82 2.92,-10.2c2.64,-4.64 6.24,-8.29 11.41,-9.46c9.56,-2.15 22.22,9.15 28.52,14.55c27.77,23.81 48.2,65.38 81.21,82.47c25.89,13.39 48.73,-18.34 63.59,-35.4c17.22,-19.76 39.28,-57.79 66.57,-64.13c27.52,-6.4 34.43,30.77 39.01,49.72c3.9,16.1 6.13,59.53 27.33,66.3c22.99,7.36 54.51,-32.91 67.43,-45.71c15.31,-15.16 40.36,-46.44 64,-45.66c21.07,0.69 31.16,25.23 41.38,41c12.32,19.01 29.8,44.79 55.28,43.08c25.55,-1.71 39.56,-37.96 51.21,-57.75c9.9,-16.82 30.79,-63.66 57.09,-46.51c26,16.95 39.59,58.19 57.78,81.72c16.35,21.15 31.65,31.72 47.27,12.74l0,-12.4c-16.85,22.43 -34.55,8.49 -50.61,-13.73c-17.35,-24.01 -33.06,-66.87 -60.42,-80.95c-24.28,-12.5 -42.47,27.57 -52.25,43.7c-10.3,16.99 -26.75,59.09 -50.56,63.61c-25.07,4.76 -43.99,-24.26 -55.54,-41.76c-9.29,-14.07 -20.58,-41.79 -40.78,-43.25c-24.09,-1.75 -49.18,30.81 -63.87,45.86c-12.5,12.81 -37.14,46.83 -59.07,45.86c-25.95,-1.15 -31.38,-52.37 -36.36,-69.69c-5.85,-20.34 -15.29,-54.57 -42.7,-45.24c-26.78,9.11 -47.58,48.13 -64.53,68.5c-17.4,20.91 -34.99,44.68 -62.44,27.61c-29.83,-18.54 -49.18,-53.32 -74.88,-76.77c-6.31,-5.75 -19.61,-18.04 -29.44,-16.53c-5.9,0.91 -9.9,4.88 -12.8,9.95c4.03,-9.34 8.5,-15.53 13.66,-18.65c-4.77,1.82 -8.12,5.85 -10.67,10.59c4.09,-10.26 9.26,-23.45 21.96,-24.18c10.51,-0.6 23.8,12.09 30.66,18.42c25.58,23.58 45.73,59.71 76.72,76.19c28.05,14.91 41.86,-14.96 54.84,-37.61c10.5,-18.32 28.05,-66.26 51.47,-70.25c26.69,-4.54 40.18,33.97 49.3,53.48c8.24,17.64 21.35,60.43 45.09,61.08c21.18,0.58 36.74,-27.63 48.07,-42.17c12.46,-15.97 28.87,-39.12 50.51,-42.55c22.07,-3.49 31.82,20.14 40.97,35.89c9.39,16.17 23.49,45.77 46.47,45.61c24.85,-0.17 42.18,-42.39 52.44,-60.09c9.02,-15.58 28.58,-60.29 53.98,-51.33c28.23,9.96 50.86,57.3 69.04,79.89c18.02,22.41 41.3,44.21 58.57,9.62c1.15,-2.29 2.19,-4.67 3.2,-7.09l0,-19.77c-1.94,6.04 -4.09,11.86 -6.74,17.2c-17.62,35.79 -42.85,8.17 -60.84,-13.62c-18.59,-22.54 -38.28,-60.71 -65.28,-73.87c-27.68,-13.49 -43.71,22.68 -55.92,43.26c-11.43,19.26 -27.52,62.69 -53.68,64.77c-22.81,1.82 -35.44,-25.58 -44.58,-42.43c-9.11,-16.79 -17.87,-39.2 -40.11,-36.42c-22.12,2.76 -36.26,24.26 -48.41,40.97c-9.29,12.78 -24.12,43.39 -44.27,42.09c-24.25,-1.57 -40.72,-46.4 -50.28,-64.41c-8.9,-16.76 -27.97,-60.89 -53.36,-51.16c-22.79,8.73 -37.84,59.3 -47,77.5c-11.91,23.63 -25.06,51.02 -53.47,31.49c-27.25,-18.74 -46.53,-49.03 -70.49,-71.56c-24.12,-22.69 -41.94,-26.46 -56.38,4.54c-1.36,2.91 -2.56,5.91 -3.67,8.95c-1.32,2.85 -2.41,5.84 -3.36,8.71c-1.62,3.5 -2.83,7.29 -3.89,10.86l-0.01,0z" id="svg_32"/>
    <path class="cls-67" d="m39.96,153.95c27.67,23.81 47.92,65.52 80.88,82.58c25.5,13.21 49.59,-18.62 64.98,-34.87c18.48,-19.49 41.96,-56.38 69.58,-62.95c28.63,-6.81 34.23,29.99 37.77,49.65c2.96,16.38 2.31,59.41 24.12,66.34c23.45,7.45 57.36,-33.37 71.07,-46.21c15.24,-14.26 41.82,-46.87 64.59,-46.2c20.52,0.59 30.74,26.19 40.65,41.3c12.84,19.6 31.3,45.28 57.52,43.36c25.74,-1.88 39.5,-37.47 51.28,-57.48c9.89,-16.8 30.83,-63.52 57.11,-46.28c25.59,16.78 38.18,58.31 55.71,81.67c16.43,21.91 31.76,31.77 47.78,11.75l0,-4.67c-15.77,19.01 -30.92,8.98 -47.14,-12.55c-17.64,-23.41 -30.44,-64.84 -56.07,-81.68c-26.22,-17.22 -47.17,29.56 -57.03,46.31c-11.73,19.95 -25.56,55.69 -51.25,57.51c-26.05,1.85 -44.3,-23.88 -57.06,-43.33c-10.07,-15.35 -20.31,-40.63 -41.07,-41.26c-23.12,-0.7 -49.37,31.57 -64.73,46.13c-13.49,12.79 -47,53.64 -70.31,46.15c-21.52,-6.91 -21.55,-50.12 -24.69,-66.34c-3.78,-19.48 -9.54,-56.28 -37.85,-49.69c-27.63,6.43 -50.86,43.56 -69.11,63.13c-15.35,16.47 -39.26,48.18 -64.9,34.89c-32.96,-17.08 -53.26,-58.75 -80.94,-82.57c-19.54,-16.8 -31.5,-15.92 -39.87,-1.19l0,3.67c8.32,-13.19 20.16,-13.37 38.96,2.83l0.01,0.02z" id="svg_33"/>
    <path class="cls-10" d="m13.86,163.51c9.62,-2.16 22.01,9.06 28.19,14.66c26.37,23.87 44.37,66.72 76.47,83.64c25.66,13.52 48.42,-18.32 62.92,-35.23c16.78,-19.59 38.23,-57.23 65.11,-63.58c27.12,-6.41 34.96,30.77 40.09,49.48c4.47,16.25 8.04,59.2 29.2,66.03c23.46,7.57 55.08,-33.61 67.99,-46.81c14.85,-15.18 38.81,-47.06 62.08,-46.85c21.53,0.2 31.95,25.57 41.96,41.49c12.25,19.51 29.55,45.4 55.52,43.49c25.28,-1.86 40.81,-36.57 53.54,-55.83c10.51,-15.88 33.76,-61.98 58.88,-44.83c24.21,16.54 34.21,56.51 51.23,78.85c7.21,9.47 14.12,20.46 26.47,22.93c14.46,2.89 22.43,-8.62 29.48,-20.11l0,-4.95c-6.11,9.53 -13.62,17.78 -25.74,15.22c-12.11,-2.55 -19.01,-14.05 -26.06,-23.37c-17.39,-22.99 -28.64,-63.73 -53.61,-80.57c-25.67,-17.31 -47.56,29.36 -57.69,45.73c-12.13,19.6 -26.67,54.95 -52.04,56.92c-26.06,2.03 -43.97,-23.87 -56.49,-43.38c-10.02,-15.61 -20.31,-40.95 -41.42,-41.38c-23.2,-0.48 -48.55,31.64 -63.79,46.42c-13.34,12.94 -46.53,54.07 -69.96,46.39c-21.24,-6.96 -22.49,-50.04 -26.08,-66.23c-4.25,-19.16 -10.61,-56.08 -38.41,-49.62c-27.42,6.37 -50.13,43.59 -67.95,63.17c-15.2,16.7 -38.81,48.32 -64.62,35c-32.69,-16.88 -51.97,-59.22 -79.15,-83c-18.82,-16.47 -30.51,-15.89 -38.97,-2.69l0,10.64c2.92,-5.67 6.92,-10.3 12.86,-11.63l-0.01,-0.01z" id="svg_34"/>
    <path class="cls-33" d="m48.68,197.06c24.34,24.19 39.47,67.89 70.04,85.18c25.01,14.14 45.18,-19.02 57.88,-35.78c14.69,-19.38 32.47,-57.97 58.02,-64.6c25.99,-6.75 37.69,31.26 44.69,49.05c6.52,16.55 15,59.25 36.73,65.52c23.65,6.82 51.1,-34.02 63.11,-47.93c13.26,-15.36 34.93,-48.18 57.54,-47.94c22.21,0.24 32.56,25.06 42.61,41.77c11.84,19.68 27.86,45.26 53.8,43.84c25.46,-1.39 43.17,-34.41 57.44,-53.01c11.38,-14.83 37.89,-59.25 61.98,-42.64c22.51,15.52 30.19,53.97 46.18,74.73c19.43,25.22 38.86,30.21 58.45,0.99c2.04,-3.04 3.97,-6.23 5.84,-9.48l0,-1.48c-1.24,2.13 -2.5,4.21 -3.82,6.24c-7.73,11.88 -16.05,23.7 -31.2,20.85c-12.52,-2.36 -19.34,-12.49 -26.72,-22.09c-16.33,-21.26 -24.7,-60.18 -47.74,-76.05c-24.39,-16.79 -49.86,28.17 -60.97,43.34c-13.78,18.81 -30.81,52.37 -56.17,53.92c-25.94,1.6 -42.35,-24.1 -54.31,-43.72c-10.11,-16.59 -20.38,-41.32 -42.45,-41.68c-22.76,-0.38 -45.31,32.35 -59.02,47.59c-12.26,13.64 -41.15,54.71 -64.69,47.56c-21.51,-6.52 -28.43,-49.16 -34.31,-65.68c-6.44,-18.07 -16.88,-55.8 -43.18,-49.19c-25.85,6.48 -45.19,44.76 -60.31,64.28c-13.14,16.96 -34.41,49.48 -59.57,35.6c-31.07,-17.14 -47.11,-60.6 -72.11,-84.68c-22.32,-21.5 -34.94,-13.88 -45.45,8.07l0,9.32c11.39,-24.47 24.38,-35.02 47.68,-11.88l0.01,0.02z" id="svg_35"/>
    <path class="cls-52" d="m6.16,239.74c14.05,-26.91 30.51,-45.43 53.86,-18.22c21.2,24.71 31.93,69.5 60.09,87.55c23.6,15.14 40.13,-20.56 49.47,-36.64c11,-18.94 23.7,-58.99 46.89,-66.21c24.61,-7.66 42.84,32.06 52.2,48.32c9.59,16.66 25.35,59.64 48.4,64.7c23.96,5.25 44.91,-34.63 55.45,-49.77c11,-15.78 28.43,-49.24 50.2,-49.68c22.78,-0.46 33.57,25.09 43.22,42.2c11.31,20.04 25.56,44.97 51.49,44.44c26.07,-0.54 46.96,-30.92 63.67,-48.52c13.31,-14.01 43.3,-54.09 66.95,-39.22c19.82,12.46 25.13,50.83 38.79,68.34c19.51,25.01 40.66,25.88 60.81,-0.24c5.54,-7.18 10.49,-15.08 15.35,-23.12l0,-3.42c-3.47,6 -7.07,11.85 -11,17.27c-19.93,27.54 -40.24,24.79 -59.74,-0.34c-15.09,-19.45 -21.02,-56.68 -42.16,-71.28c-23.38,-16.14 -52.63,26.83 -64.66,40.79c-15.59,18.08 -35.03,49.65 -60.8,50.6c-25.93,0.94 -40.99,-24.29 -52.54,-44.17c-9.85,-16.95 -20.42,-42.13 -42.96,-42c-22.16,0.12 -41.53,33.27 -53.58,48.88c-11.27,14.59 -35.14,54.9 -58.98,48.92c-22.41,-5.62 -34.84,-48.42 -43.03,-65.06c-8.35,-16.99 -23.5,-55.87 -48.74,-48.66c-24.25,6.93 -39.33,46.28 -52.02,65.46c-10.89,16.48 -29.13,50.89 -53.37,36.24c-29.26,-17.68 -42.02,-61.99 -64.67,-86.46c-24.11,-26.05 -39.43,-9.82 -52.38,18.41c-0.47,1.01 -0.92,2.05 -1.38,3.09l0,18.31c1.68,-3.61 3.38,-7.15 5.16,-10.55l0,0.03z" id="svg_36"/>
    <path class="cls-14" d="m172.75,269.73c0.46,-1.18 0.91,-2.38 1.39,-3.58c3.85,-7.75 8.79,-13.97 15.42,-16.73c21.55,-8.97 51.38,34.07 62.51,47.35c13.5,16.11 40.7,59.94 65.35,63.53c24.2,3.51 36.77,-35.88 44.47,-52.31c7.8,-16.65 18.66,-50.71 40,-52.14c23.91,-1.61 35.65,24.8 44.75,42.81c10.27,20.33 21.8,44.75 47.54,45.23c26.84,0.5 52.35,-26.54 72.43,-42.19c14.56,-11.35 52.13,-48.27 73.93,-34.27c15.88,10.19 16.08,44.86 27.33,59.06c19.57,24.7 44.55,20.02 65,-1.85c10.82,-11.57 20.12,-25.12 30.1,-37.78l0,-7.49c-8.86,11.93 -17.27,24.42 -27.03,35.22c-20.39,22.57 -44.43,26.29 -63.93,1.62c-12.16,-15.39 -12.89,-49.29 -29.73,-60.77c-21.55,-14.71 -58.98,23.84 -72.75,35.17c-19.54,16.1 -44.1,43.67 -70.92,43.28c-25.83,-0.38 -37.96,-24.77 -48.5,-45.12c-9.16,-17.67 -20.68,-44.09 -44.23,-42.7c-21.17,1.26 -33.36,35.39 -41.71,51.72c-8.31,16.26 -22.31,55.56 -46.44,51.89c-24.41,-3.72 -49.5,-47.42 -62.23,-63.73c-10.84,-13.91 -38.65,-56.47 -60.84,-47.5c-6.69,2.7 -11.84,8.78 -15.97,16.37c1.28,-2.99 2.63,-5.95 4.06,-8.84c-1.76,3.31 -3.37,6.8 -4.89,10.37c-2.62,5.1 -4.83,10.81 -6.77,16.62c0.82,-2.13 1.72,-4.2 2.67,-6.16c-0.36,0.97 -0.71,1.95 -1.07,2.92z" id="svg_37"/>
    <path class="cls-1" d="m202.85,225.1c23.31,-8.29 47.32,32.72 57.75,47.79c11.44,16.51 33.24,59.94 57.11,64.08c24.07,4.18 40.54,-35.22 49.75,-51.13c9.31,-16.07 23.49,-50.02 44.76,-50.97c23.2,-1.04 34.41,25.12 43.74,42.52c10.87,20.26 23.83,44.8 49.71,44.88c26.58,0.08 49.77,-28.47 68.29,-45.18c13.7,-12.36 48.23,-51.39 70.65,-36.66c17.97,11.81 20.51,47.43 33.2,63.58c19.49,24.78 42.3,22.7 62.64,-1.13c8.16,-9.56 15.26,-20.44 22.53,-31.11l0,-2.67c-6.58,10.01 -13.09,20.11 -20.51,29.06c-20.3,24.45 -42.61,25.73 -62.1,0.89c-12.95,-16.52 -16.29,-52.92 -34.78,-64.9c-22.78,-14.76 -56.02,24.55 -69.64,37.37c-18.02,16.98 -40.58,46.02 -67.03,46.1c-25.91,0.08 -39.23,-24.56 -50.23,-44.76c-9.42,-17.31 -20.5,-43.3 -43.57,-42.42c-21.39,0.81 -36.48,34.64 -46.26,50.63c-9.61,15.71 -27.28,55.2 -51.32,50.75c-23.82,-4.41 -43.51,-47.68 -54.7,-64.26c-10.36,-15.34 -32.41,-56.12 -56.24,-47.93c-10.17,3.49 -17.73,14.13 -23.83,26.39c5.22,-9.83 11.65,-17.91 20.05,-20.89l0,-0.02z" id="svg_38"/>
    <path class="cls-24" d="m168.07,282.86c1.47,-4.06 3.02,-8.52 4.67,-13.13c-1.09,2.81 -2.13,5.51 -3.15,8.06c0.5,-1.61 1.02,-3.21 1.54,-4.8c-0.91,2.37 -1.77,4.8 -2.55,7.28c-0.97,2.33 -1.91,4.5 -2.84,6.41c-7.55,15.45 -22.01,52.89 -44.95,37.11c-26.87,-18.48 -35.19,-63.88 -54.7,-88.84c-22.36,-28.62 -40.48,-7.34 -55.6,17.99c-3.28,5.5 -6.39,11.33 -9.51,17.24l0,7.4c3.65,-6.58 7.26,-13.1 11.09,-19.22c15.46,-24.72 34.29,-47.06 56.25,-17.91c18.88,25.06 26.24,70.7 52.65,89.33c22.74,16.06 36.38,-22.11 43.27,-37.28c0.84,-1.87 1.7,-3.98 2.56,-6.26c-0.99,3.52 -1.88,7.05 -2.71,10.48c1.25,-4.28 2.55,-9 3.97,-13.85l0,-0.01z" id="svg_39"/>
    <path class="cls-64" d="m121,344.2c-25.46,-18.9 -30.73,-65.18 -48.28,-90.38c-21.08,-30.29 -41.53,-5.66 -57.61,17.76c-4.85,7.07 -9.45,14.64 -14.12,22.24l0,11.6c5.12,-7.84 10.14,-15.66 15.41,-22.94c16.37,-22.59 37.84,-48.65 58.39,-17.69c16.76,25.24 20.61,72.05 45.6,91.02c22.57,17.14 33.42,-23.51 38.21,-37.88c1.84,-5.5 3.51,-13.08 5.49,-21.21c-1.08,3.67 -2.11,7.01 -3.19,9.83c-5.55,14.6 -17.43,54.34 -39.92,37.65l0.02,-0.01z" id="svg_40"/>
    <path class="cls-29" d="m14.85,301.27c16.47,-22.19 38.27,-48.93 58.65,-17.74c16.48,25.22 19.7,72.53 44.59,91.43c22.76,17.29 33.23,-23.62 37.74,-38c5.74,-18.32 9.25,-60.17 29.81,-68.63c20.93,-8.61 51.68,34.47 62.9,47.27c13.97,15.94 42.28,59.59 66.9,63.32c24.34,3.7 36.22,-35.98 43.55,-52.48c7.57,-17.05 17.62,-50.89 39.33,-52.39c24.26,-1.67 36.33,24.48 45.54,42.89c10.03,20.07 21.03,44.81 46.51,45.22c26.6,0.42 52.65,-26.35 72.89,-41.55c14.41,-10.82 53.21,-47.8 74.29,-33.62c15.28,10.29 14.41,43.58 25.62,57.55c19.83,24.71 45.57,19.75 66.11,-1.89c12.08,-12.73 22.37,-27.62 33.73,-41.09l0,-4.25c-11.02,13.31 -21.12,27.82 -32.87,40.15c-20.57,21.59 -46.44,26.78 -66.23,1.89c-11.16,-14.04 -9.98,-47.62 -25.29,-57.94c-21.05,-14.18 -60.14,22.97 -74.49,33.71c-20.33,15.2 -46.51,42.05 -73.17,41.64c-25.58,-0.4 -36.53,-25.06 -46.48,-45.24c-9.16,-18.58 -21.16,-44.6 -45.58,-42.9c-21.85,1.53 -31.69,35.17 -39.23,52.36c-7.21,16.46 -18.99,56.19 -43.32,52.48c-24.6,-3.75 -53.28,-47.54 -67.33,-63.42c-11.32,-12.79 -42.22,-55.83 -63.15,-47.33c-20.72,8.42 -23.77,50.37 -29.32,68.73c-4.42,14.6 -14.77,55.49 -37.83,38.02c-24.86,-18.83 -27.56,-66.26 -43.91,-91.43c-20.34,-31.33 -42.28,-4.27 -58.79,17.74c-5.11,6.81 -10.02,14.11 -15.01,21.48l0,4.01c4.58,-6.86 9.12,-13.64 13.85,-20l-0.02,0z" id="svg_41"/>
    <path class="cls-57" d="m12.07,316.2c20.04,-26.42 35.77,-31.62 55.17,-1.42c16.17,25.2 22.88,62.4 45.76,82.63c21.67,19.15 34.43,-14.77 41.42,-30.81c6.87,-15.77 18.18,-67.62 39.83,-71.56c23.63,-4.29 45.96,32.68 58.38,48.28c14.38,18.06 34.7,54.57 59.78,59.23c23.79,4.42 37.45,-36.09 45.49,-52.22c7.89,-15.85 19.43,-50.66 39.84,-53.66c23.24,-3.41 36.6,25.41 45.35,41.81c9.51,17.83 20.54,45.75 44.49,47.48c27.05,1.96 56.26,-29.75 75.26,-44.55c14.9,-11.61 43.63,-39.94 63.86,-30.56c16.09,7.46 17.98,35.45 27.43,49.3c19.62,28.72 51.82,22.42 73.8,0.99c12.56,-12.25 23.38,-25.6 35.07,-37.49l0,-10.62c-11.6,12.77 -22.1,27.11 -34.3,39.84c-21.47,22.44 -52.88,28.74 -71.75,-1.35c-9.02,-14.4 -9.97,-43.92 -26.09,-51.94c-20.14,-10.02 -50.42,19.34 -65.54,30.84c-19.75,15.02 -49.97,47.14 -77.7,45.28c-24.42,-1.65 -35.43,-29.33 -45.1,-47.6c-8.81,-16.63 -22.48,-45.63 -46.06,-41.9c-20.29,3.21 -30.89,37.51 -38.41,53.4c-7.75,16.37 -20.26,56.21 -44.12,51.95c-25.78,-4.6 -47.64,-41.69 -62.96,-59.87c-12.93,-15.36 -37.19,-53.46 -60.97,-48.8c-21.38,4.19 -30.23,56.71 -36.17,72.35c-5.95,15.68 -17.78,50.94 -39.26,31.21c-22.05,-20.24 -27.16,-57.52 -42.22,-82.64c-18.63,-31.08 -34.79,-24.1 -55.17,1.41c-5.76,7.21 -11,15.19 -16.17,23.35l0,4.07c3.53,-5.73 7.16,-11.28 11.07,-16.45l0.01,0.02z" id="svg_42"/>
    <path class="cls-43" d="m25.04,311.06c14.02,-3.25 23,11.18 30.05,20.39c19.49,25.45 29.08,60.74 52.85,82.72c24.6,22.73 41,-12.44 51.38,-32.1c9.97,-18.88 20.65,-55.46 42.4,-64.43c23.47,-9.68 46.97,33.8 57.18,48.28c11.87,16.82 29.01,53.16 51.91,56.57c22.75,3.38 39.6,-38.99 47.68,-53.92c9.36,-17.3 21.47,-50.32 43.14,-53.34c21.98,-3.05 34.33,22.46 42.89,38.88c9.74,18.71 22.01,50.48 48.02,49.08c23.38,-1.27 44.91,-25.92 61.8,-39.79c14.15,-11.62 43.93,-42.52 65.34,-32.4c15.82,7.48 18.75,31.75 29.96,44.48c22.31,25.33 56.18,16.82 78.89,-2.21c12.37,-10.37 23.27,-21.05 34.45,-30.67l0,-5.57c-11.27,10.2 -22.08,21.58 -34.43,32.48c-22.29,19.69 -55.39,28.31 -77.24,2.05c-10.96,-13.19 -13.23,-38.27 -29.01,-46.19c-21.3,-10.68 -52.48,21.15 -66.66,32.59c-17.4,14.04 -39.53,38.94 -63.37,40.27c-26.34,1.47 -38.67,-30.17 -48.55,-49.15c-8.63,-16.56 -21.17,-42.11 -43.32,-38.96c-21.53,3.06 -33.1,35.88 -42.17,53.16c-7.91,15.07 -23.93,56.91 -46.7,53.73c-23.38,-3.28 -41.64,-40.05 -54.13,-57.02c-10.35,-14.07 -35.82,-58.74 -59.07,-48.66c-21.3,9.23 -30.82,46.09 -40.04,64.94c-9.46,19.32 -25.2,55.53 -49.41,32.45c-23.11,-22.04 -31.73,-57.27 -50.46,-82.73c-6.88,-9.35 -15.31,-23.52 -29.37,-20.39c-10.33,2.3 -19.81,17.39 -25.19,25.24c-0.98,1.43 -1.93,2.91 -2.88,4.39l0,0.53c5.19,-7.97 14.1,-22.38 24.04,-24.68l0.02,-0.02z" id="svg_43"/>
    <path class="cls-53" d="m648.14,387.63c-13.01,-11.2 -18.98,-37.86 -35.78,-43.82c-20.97,-7.43 -47.63,20.83 -61.09,32.6c-16,13.99 -34.73,35.71 -56.81,38c-25.01,2.6 -36.24,-26.05 -45.93,-44.42c-8.34,-15.82 -21.7,-47.62 -44.98,-42.25c-21.55,4.97 -34.01,35.93 -44.29,53.65c-8.91,15.37 -26.36,55.87 -48.92,54.67c-21.41,-1.14 -40.82,-44.92 -50.08,-59.84c-10.1,-16.29 -27.18,-52.3 -51.02,-43.38c-22.14,8.28 -35.43,44.79 -47.18,63.27c-13.06,20.54 -29.04,51.41 -54.97,31.98c-25.32,-18.98 -38.56,-54.46 -57.19,-79.65c-18.22,-24.63 -33.82,-28.69 -48.89,-11.09l0,3.94c11.71,-8.38 24.67,-3.28 40.45,15.92c20.66,25.15 38.54,68.65 67.75,85.56c25.4,14.69 45.95,-21.82 58.05,-39.08c13,-18.53 28.17,-51.38 51.14,-58.18c23.13,-6.86 37.8,29.29 46.5,44.83c8.45,15.08 23.33,54.5 44.65,55.96c22.8,1.56 40.7,-38.8 50.33,-54.34c10.07,-16.27 24.33,-50.71 45.58,-54.72c22.84,-4.32 35.8,25.21 43.96,41.07c8.82,17.13 20.45,47.12 43.93,46.75c21.67,-0.35 43.86,-27.49 58.44,-40.73c13.3,-12.08 35.82,-36.12 56.72,-28.48c17,6.22 23.44,30.75 37.94,41.13c23.33,16.71 54.1,9.42 77.11,-3.26c14.3,-7.86 26.47,-18.88 39.44,-28.71l0,-7.84c-12.29,9.63 -24.85,20 -40.72,29.38c-22.43,13.25 -52.3,19.88 -74.14,1.1l0,-0.02z" id="svg_44"/>
    <path class="cls-50" d="m28.8,373.97c25.04,26.32 44.18,66.1 75.21,85.94c26.05,16.66 47.86,-13.9 63.33,-32.08c14.57,-17.13 38.43,-58.62 63.96,-62.15c21.88,-3.02 32.64,31.81 39.24,46.94c6.61,15.21 16.22,50.76 36.79,53.34c21.12,2.66 44.31,-42.37 53.17,-55.8c11.13,-16.83 29.59,-56.04 53.31,-55.8c21.26,0.23 32.64,31.18 40.54,46.48c8.7,16.84 19.88,43.34 42.66,41.04c18.78,-1.89 34.86,-23.82 47.29,-36.02c13.45,-13.2 31.53,-34.79 52.81,-30.45c17.87,3.65 27.17,24.4 41.29,34.71c25.81,18.84 60.44,12.11 86.83,-1.24c13.46,-6.82 25.39,-16.14 37.77,-24.72l0,-5.69c-12.44,8.79 -24.36,18.39 -37.91,25.41c-25.9,13.41 -60.31,20.31 -85.54,1.12c-13.77,-10.48 -22.42,-31.59 -40.11,-35.37c-21.34,-4.56 -40.3,17.77 -53.89,30.79c-12.85,12.33 -29.47,34.49 -48.62,36.43c-23.05,2.33 -34.34,-23.99 -43.14,-41.09c-7.96,-15.44 -19.44,-46.5 -40.94,-46.54c-23.68,-0.05 -41.49,38.71 -52.45,55.63c-8.76,13.54 -31.14,58.09 -52.29,55.63c-20.85,-2.42 -31.6,-38.47 -38.71,-53.73c-6.99,-14.99 -19.01,-50.55 -40.91,-47.28c-25.22,3.77 -47.89,45.39 -61.86,62.6c-14.78,18.2 -36,49.17 -61.78,32.37c-30.44,-19.83 -48.72,-59.67 -73.04,-85.95c-12.07,-13.04 -22.09,-18.78 -30.78,-17.7l0,5.42c7.96,0.6 17.07,6.49 27.8,17.78l-0.02,-0.01z" id="svg_45"/>
    <path class="cls-37" d="m726.87,422.02c-27.6,14.21 -61.23,20.7 -89.04,3.09c-15.11,-9.56 -26.02,-30.39 -43.78,-35.15c-20.86,-5.59 -36.77,13.05 -49.98,26.5c-12.65,12.89 -29.22,36.86 -49.18,37.62c-21.87,0.84 -32.02,-25.93 -40.73,-42.3c-8.09,-15.24 -18.83,-44.03 -39.58,-43.95c-23.85,0.1 -42.46,38.32 -54.31,55.38c-10.02,14.42 -34.65,62.12 -58.57,55.41c-18.61,-5.21 -25.78,-42.56 -31.46,-57.59c-6.48,-17.16 -14.34,-45.28 -37.41,-39.53c-26.98,6.73 -50.24,45.17 -68.18,64.11c-17.69,18.67 -38.84,43.99 -65.05,25.78c-31.71,-22.04 -51.16,-59.71 -79,-86.05c-7.35,-6.95 -13.82,-11.59 -19.59,-13.99l0,12.99c4.79,2.65 10.02,6.64 15.78,11.96c28.58,26.4 49.12,63.88 81.42,86.04c26.25,18.01 47.68,-7.26 65.91,-25.59c18.71,-18.83 43.12,-56.92 70.45,-63.62c23.13,-5.67 30.19,21.92 36.06,39.25c5.09,15.02 10.86,51.83 29.39,57.17c23.86,6.88 49.31,-41.25 59.46,-55.53c11.96,-16.83 31.29,-55.58 55.01,-55.52c20.35,0.05 31.25,28.99 39.31,43.9c8.7,16.1 18.93,42.98 40.43,42.24c19.68,-0.68 35.55,-24.37 47.75,-37.2c13.11,-13.77 28.37,-31.86 49.27,-25.72c18.35,5.39 30.25,26.77 45.98,36.8c28.9,18.42 61.13,12.47 89.83,-3.05c12.74,-6.88 24.15,-15.87 35.97,-24.22l0,-12.63c-11.86,8.11 -23.35,16.8 -36.13,23.39l-0.01,0z" id="svg_46"/>
    <path class="cls-38" d="m726.96,451.75c-29.13,16.78 -59.9,22.37 -89.18,2.96c-16.42,-10.89 -28.93,-33.47 -48.21,-39.49c-21.31,-6.64 -36.28,11.26 -49.54,25.5c-12.1,12.98 -27.74,36.89 -47.55,37.49c-21.44,0.63 -31.68,-26.35 -40.41,-42.39c-8.04,-14.77 -19.07,-43.98 -39.28,-44.03c-23.58,-0.06 -43.15,38.86 -55.11,55.57c-10.23,14.3 -35.81,62.39 -59.68,55.56c-18.66,-5.35 -24.05,-42.08 -29,-57.18c-5.7,-17.38 -12.65,-44.97 -35.83,-39.26c-27.37,6.74 -52.06,44.84 -70.93,63.63c-18.29,18.22 -39.7,43.59 -65.92,25.6c-32.29,-22.16 -52.82,-59.64 -81.39,-86.04c-5.02,-4.64 -9.64,-8.27 -13.91,-10.89l0,5.31c4.32,2.62 8.99,6.31 14.09,11.06c28.27,26.37 48.32,63.95 80.38,86.04c26.24,18.08 47.67,-7.38 65.88,-25.67c18.77,-18.85 43.32,-57.1 70.68,-63.85c23.22,-5.72 30.23,22 35.98,39.38c5,15.12 10.52,52.04 29.21,57.36c23.86,6.8 49.44,-41.28 59.67,-55.57c11.97,-16.71 31.53,-55.62 55.11,-55.58c20.28,0.03 31.28,29.47 39.29,44.3c8.7,16.1 18.89,43.29 40.41,42.67c19.97,-0.58 35.7,-24.97 47.81,-38.08c13.32,-14.45 28.29,-32.59 49.84,-25.91c19.67,6.09 32.18,29.29 48.76,40.54c29.03,19.69 59.48,14.05 88.42,-2.87c13,-7.61 24.49,-17.46 36.49,-26.53l0,-5.37c-11.86,8.83 -23.22,18.37 -36.04,25.75l-0.05,-0.03z" id="svg_47"/>
    <path class="cls-41" d="m18.89,430.44c-4.72,-4.83 -10.99,-11.63 -17.89,-15.84l0,10.82c6.83,2.79 14.25,8.89 22.46,18.06c17.05,19.05 32.76,48.05 52.55,68.52l13.92,0c-28.03,-20.9 -47.05,-57.01 -71.03,-81.56l-0.01,0z" id="svg_48"/>
    <path class="cls-4" d="m232.18,422.77c-26.25,3.33 -53.3,44.8 -69.46,61.76c-7.95,8.35 -17.42,19.65 -27.98,27.47l10.59,0c7.25,-7.44 13.71,-15.45 18.97,-21.21c16.79,-18.37 37.23,-50.82 62.37,-57.08c23.83,-5.93 31.24,26.97 37.35,43.99c2.89,8.03 6.25,22.3 11.83,34.29l7.78,0c-8.87,-12.23 -12.93,-31.99 -16.47,-42.58c-5.19,-15.55 -12.71,-49.48 -34.97,-46.66l0,0.01z" id="svg_49"/>
    <path class="cls-12" d="m763,452.72l0,-9.12c-13.3,10.43 -25.64,22.2 -40.11,31c-28.65,17.41 -58.28,22.39 -85.8,0.28c-16.29,-13.09 -28.57,-38.32 -49.66,-43.68c-22.34,-5.68 -38.23,16.1 -51.34,30.98c-11.19,12.7 -25.85,36.12 -44.49,37.84c-22.05,2.04 -32.97,-26.12 -41.34,-42.28c-7.67,-14.79 -19.03,-46.96 -39.47,-47.82c-23.39,-0.98 -44.32,40.06 -55.82,56.28c-6.21,8.77 -19.6,32.07 -34.06,45.82l8.43,0c10.09,-12.45 18.63,-27.3 24.04,-34.85c11.83,-16.51 29.21,-52.04 51.51,-55.81c21.56,-3.65 33.67,28.54 41.08,43.18c7,13.83 16.63,40.44 33.36,47.47l16.99,0c16.93,-6.67 32.37,-30.79 41.91,-42.01c12.88,-15.16 30.38,-38.24 53.07,-29.26c21.61,8.56 32.5,37.32 50.33,51.32c24.78,19.45 52.38,13.06 77.05,-2.69c16.21,-10.34 29.37,-24.65 44.33,-36.64z" id="svg_50"/>
    <path class="cls-21" d="m590.44,450.33c-23.14,-8.65 -43.05,21.27 -55.14,36.18c-5.63,6.94 -12.24,16.87 -19.85,25.49l4.73,0c5.55,-7.06 10.54,-14.34 15.08,-20.02c11.9,-14.89 32.49,-46.62 55.72,-37.45c21.05,8.33 32.32,40.48 47.06,57.47l7.49,0c-1.82,-1.4 -3.62,-2.94 -5.41,-4.66c-16.13,-15.53 -27.77,-48.81 -49.69,-57.01l0.01,0z" id="svg_51"/>
    <path class="cls-46" d="m403.43,435.38c-22.65,4.12 -39.57,37.63 -51.97,55.1c-3.26,4.6 -8.26,12.79 -14.28,21.51l2.93,0c4.36,-6.56 8,-12.4 10.58,-16.03c12.37,-17.44 29.34,-51.05 51.97,-55.1c21.9,-3.92 34.31,32.12 41.54,46.91c3.1,6.34 6.68,15.5 11.21,24.22l4.68,0c-6.33,-10.02 -10.95,-22.13 -15.11,-30.5c-7.33,-14.76 -19.72,-50.07 -41.53,-46.1l-0.01,-0.01z" id="svg_52"/>
    <path class="cls-9" d="m758.29,466.63c-15.4,13.34 -28.44,29.59 -45.26,41.23c-2.14,1.48 -4.29,2.86 -6.44,4.15l8.67,0c14.54,-11.63 26.31,-26.48 40.08,-38.99c2.58,-2.34 5.13,-4.54 7.66,-6.59l0,-3.74c-1.56,1.27 -3.13,2.57 -4.71,3.94l0.01,0.01z" id="svg_53"/>
    <path class="cls-18" d="m1,437.39l0,5.25c9.32,0.35 19.22,7.86 30.14,21.85c11.08,14.19 20.52,31.61 31.32,47.5l3.5,0c-12.92,-17.26 -23.77,-37.12 -36.62,-52.99c-10.24,-12.66 -19.61,-20.17 -28.35,-21.62z" id="svg_54"/>
    <path class="cls-40" d="m220.43,445.12c-25.47,7.53 -45.94,43.45 -62.76,62.23c-1.34,1.5 -2.7,3.05 -4.08,4.66l3.28,0c16.51,-18.98 36.59,-54.7 61.74,-62.27c24.72,-7.43 33.38,25.03 40.06,43.04c1.73,4.64 3.74,11.65 6.28,19.24l2.97,0c-3.33,-9.41 -5.8,-18.54 -7.86,-24.21c-6.58,-18.05 -14.96,-49.97 -39.63,-42.67l0.01,-0.02z" id="svg_55"/>
    <path class="cls-56" d="m36.19,485.14c6.19,8.19 11.34,17.41 16.27,26.86l3.27,0c-7.99,-14.58 -15.59,-29.24 -24.79,-39.86c-7.53,-8.69 -16.39,-21.75 -29.95,-18.11l0,13.08c1.77,-1.11 3.58,-1.93 5.43,-2.33c14.07,-3.13 22.75,11.06 29.78,20.37l0,0.01z" id="svg_56"/>
    <path class="cls-30" d="m211.7,470.41c22.06,-6.99 32.79,22.62 39.77,41.58l6.48,0c-0.1,-0.27 -0.2,-0.54 -0.29,-0.8c-6.06,-15.88 -16.33,-55.93 -40.02,-51.66c-19.38,3.49 -39.39,31.27 -54.64,52.46l4.82,0c12.33,-17.54 26.77,-36.15 43.91,-41.58l-0.02,0z" id="svg_57"/>
    <path class="cls-20" d="m590.32,463.74c-22.17,-7.5 -40.78,23.38 -52.21,37.8c-2.17,2.74 -4.72,6.38 -7.6,10.47l7.69,0c12.56,-17.51 34.1,-50.11 56.15,-37.26c12.77,7.44 20.58,22.26 27.65,37.26l5.95,0c-9.94,-18.86 -20.77,-42.56 -37.63,-48.26z" id="svg_58"/>
    <path class="cls-32" d="m443.2,505.1c-6.74,-14.52 -19.93,-54.38 -41.77,-51.85c-21.74,2.53 -41.23,40.1 -52.68,56.05c-0.58,0.81 -1.2,1.71 -1.86,2.69l5.82,0c11.89,-18.36 27.9,-44.83 47.61,-46.93c20.66,-2.2 31.51,30.89 38.47,46.2c0.11,0.24 0.21,0.48 0.33,0.74l7.11,0c-1.06,-2.49 -2.06,-4.82 -3.03,-6.9l0,-0.01z" id="svg_59"/>
    <path class="cls-39" d="m727.25,512l6.28,0c9.2,-10.89 18.57,-21.2 29.47,-29.72l0,-6.02c-12.75,10.37 -23.9,22.87 -35.75,35.74z" id="svg_60"/>
    <path class="cls-6" d="m739.58,512l2.63,0c6.29,-6.99 13.08,-13.38 20.79,-18.72l0,-3.4c-8.75,6.29 -16.35,13.88 -23.42,22.12z" id="svg_61"/>
    <path class="cls-51" d="m41.26,500.62c-14.55,-21.89 -26.81,-25.21 -40.26,-15.02l0,6.56c14.05,-11.37 26.65,-8.94 41.38,13.95c1.22,1.89 2.38,3.87 3.51,5.89l2.02,0c-2.07,-3.97 -4.27,-7.79 -6.64,-11.38z" id="svg_62"/>
    <path class="cls-54" d="m209.58,485.7c14.75,-1.5 23.88,11.92 30.42,26.3l3.5,0c-6.59,-15.99 -15.93,-32.78 -32.39,-31.15c-12.64,1.26 -26.21,15.37 -38.2,31.15l2.58,0c10.89,-13.72 22.83,-25.15 34.09,-26.3l0.01,0z" id="svg_63"/>
    <path class="cls-44" d="m593.32,488.73c8.36,3.59 14.96,12.55 20.51,23.27l2.48,0c-6.15,-12.64 -13.49,-23.74 -23.15,-27.8c-18,-7.58 -33.96,11.23 -45.93,27.8l3.61,0c11.55,-15.33 26.24,-30.24 42.48,-23.27l0.01,0z" id="svg_64"/>
    <path class="cls-48" d="m398.36,482.89c13.67,-0.37 22.84,14.4 29.46,29.11l3.29,0c-6.8,-16.22 -16.53,-35.03 -31.96,-34.6c-14.42,0.4 -28.52,18.18 -39.61,34.6l3.01,0c10.43,-14.67 23.01,-28.77 35.82,-29.11l-0.01,0z" id="svg_65"/>
    <path class="cls-22" d="m204.41,497.57c-6.58,1.55 -13.35,8.24 -18.8,14.43l7.61,0c2.98,-1.77 6.05,-3.08 9.19,-3.81c6.29,-1.46 11.68,0.25 16.37,3.81l11.34,0c-6.4,-9.87 -14.7,-17.01 -25.71,-14.43z" id="svg_66"/>
    <path class="cls-63" d="m1,507.12l0,4.88l8.42,0c6.26,-3.23 12.71,-3.83 19.21,0l11.21,0c-13.34,-18.92 -26.64,-15.65 -38.84,-4.88z" id="svg_67"/>
    <path class="cls-7" d="m763,502.8c-4.31,2.74 -8.32,5.83 -12.1,9.2l12.1,0l0,-9.2z" id="svg_68"/>
    <path class="cls-66" d="m596.39,501.82c-11.77,-9.09 -24.65,-1.59 -35.97,10.18l11.4,0c7.8,-4.65 15.89,-5.73 23.58,0l10.65,0c-2.87,-3.91 -6.05,-7.38 -9.66,-10.18z" id="svg_69"/>
    <path class="cls-16" d="m396.93,497.19c-8.78,-0.18 -17.49,6.15 -25.47,14.81l11.27,0c4.14,-2.49 8.37,-3.94 12.62,-3.86c4.27,0.08 8.08,1.51 11.49,3.86l11.71,0c-5.61,-8.41 -12.6,-14.61 -21.62,-14.81z" id="svg_70"/>
   </g>
  </g>
 </g>
</svg>