<svg width="2800" height="2931" viewBox="0 0 2800 2931" fill="none" xmlns="http://www.w3.org/2000/svg">
<ellipse cx="1400" cy="1465.5" rx="1400" ry="1465.5" fill="#F7F5F5"/>
<path d="M568.069 643.156L474.91 557.368L440.963 595.762L424.294 580.412L510.144 483.316L526.813 498.666L492.866 537.06L586.025 622.848L568.069 643.156Z" fill="black"/>
<path d="M632.601 572.408L534.838 459.566L554.491 441.831L594.29 487.769C593.213 481.136 593.951 474.766 596.504 468.66C598.965 462.446 602.869 456.928 608.214 452.104C626.348 435.741 644.706 438.284 663.288 459.732L704.612 507.43L684.959 525.164L644.467 478.427C639.197 472.344 634.207 468.956 629.498 468.263C624.893 467.475 620.232 469.209 615.515 473.465C609.75 478.667 606.756 484.696 606.532 491.552C606.321 498.207 608.851 504.575 614.12 510.657L652.255 554.674L632.601 572.408Z" fill="black"/>
<path d="M769.77 460.677C760.289 467.564 750.869 471.701 741.512 473.089C732.154 474.477 723.289 473.239 714.916 469.376C706.658 465.43 699.379 458.941 693.08 449.908C686.942 441.106 683.343 432.119 682.281 422.946C681.333 413.69 682.708 404.928 686.407 396.659C690.139 388.191 696.061 381.012 704.171 375.121C716.052 366.493 728.084 363.511 740.268 366.176C752.566 368.758 763.318 376.651 772.525 389.853L777.007 396.28L717.034 439.837C729.212 453.847 743.069 455.209 758.605 443.926C763.289 440.524 767.488 436.428 771.202 431.636C774.836 426.729 777.505 421.302 779.208 415.354L795.381 425.59C793.725 431.852 790.556 438.167 785.874 444.532C781.193 450.898 775.825 456.28 769.77 460.677ZM715.324 389.264C709.042 393.827 705.331 399.488 704.193 406.247C703.055 413.005 704.428 420.033 708.312 427.33L750.464 396.716C745.081 389.983 739.384 386.009 733.373 384.792C727.395 383.376 721.379 384.867 715.324 389.264Z" fill="black"/>
<path d="M877.319 387.8L813.4 252.872L871.515 224.199C886.202 216.952 899.226 214.934 910.587 218.143C921.888 221.225 930.561 229.146 936.605 241.905C941.38 251.985 942.744 261.622 940.696 270.818C938.587 279.887 933.202 287.974 924.541 295.081C931.966 293.937 939.61 296.225 947.476 301.947L989.56 332.421L962.782 345.633L919.212 314.003C914.939 310.917 910.857 309.389 906.966 309.42C903.202 309.388 898.914 310.559 894.103 312.933L876.061 321.834L901.629 375.806L877.319 387.8ZM867.448 303.653L897.075 289.035C914.8 280.289 920.218 268.644 913.327 254.098C906.497 239.68 894.219 236.844 876.494 245.59L846.867 260.208L867.448 303.653Z" fill="black"/>
<path d="M1053.18 312.105C1043.06 315.667 1033.57 316.688 1024.71 315.167C1015.85 313.646 1008.07 309.8 1001.37 303.629C994.616 297.325 989.478 288.956 985.952 278.524C982.426 268.091 981.439 258.336 982.991 249.259C984.543 240.182 988.347 232.258 994.404 225.486C1000.46 218.715 1008.55 213.548 1018.67 209.985C1028.79 206.423 1038.28 205.402 1047.14 206.923C1056 208.444 1063.78 212.29 1070.49 218.461C1077.19 224.632 1082.31 232.933 1085.83 243.366C1089.36 253.799 1090.37 263.62 1088.86 272.831C1087.31 281.908 1083.51 289.832 1077.45 296.604C1071.39 303.375 1063.3 308.542 1053.18 312.105ZM1046.74 293.045C1054.2 290.42 1059.29 285.636 1062.01 278.692C1064.68 271.614 1064.23 262.792 1060.66 252.226C1057.05 241.526 1052.09 234.364 1045.8 230.742C1039.47 226.985 1032.57 226.42 1025.11 229.045C1017.65 231.67 1012.57 236.455 1009.85 243.398C1007.08 250.209 1007.51 258.964 1011.12 269.664C1014.69 280.23 1019.67 287.458 1026.05 291.348C1032.39 295.105 1039.28 295.67 1046.74 293.045Z" fill="black"/>
<path d="M1172.71 276.976C1146.15 283.641 1129.69 273.797 1123.34 247.443L1112.78 203.59L1093.47 208.434L1088.81 189.08L1108.12 184.236L1100.88 154.177L1126.55 147.735L1133.79 177.794L1164.19 170.167L1168.86 189.521L1138.45 197.148L1148.67 239.561C1150.26 246.149 1152.89 250.729 1156.56 253.302C1160.22 255.875 1165.28 256.354 1171.71 254.739C1173.63 254.258 1175.57 253.554 1177.52 252.627C1179.44 251.563 1181.43 250.481 1183.49 249.382L1191.96 267.345C1189.82 269.336 1186.94 271.224 1183.3 273.01C1179.8 274.761 1176.27 276.083 1172.71 276.976Z" fill="black"/>
<path d="M1242.17 263.228C1234.78 264.391 1227.94 264.037 1221.67 262.167C1215.5 260.134 1210.38 256.939 1206.3 252.579C1202.35 248.198 1199.91 242.936 1198.99 236.793C1197.85 229.255 1198.9 223.015 1202.15 218.073C1205.39 212.991 1211.25 208.782 1219.74 205.446C1228.23 202.109 1239.87 199.278 1254.65 196.953L1261.97 195.801L1261.31 191.403C1260.25 184.423 1257.96 179.639 1254.43 177.05C1250.9 174.462 1245.5 173.738 1238.25 174.879C1232.53 175.778 1226.81 177.607 1221.09 180.365C1215.35 182.984 1209.68 186.591 1204.09 191.186L1193.87 174.571C1197.12 171.488 1201.04 168.655 1205.65 166.072C1210.38 163.328 1215.39 161.04 1220.68 159.207C1226.09 157.212 1231.23 155.831 1236.12 155.063C1251.04 152.716 1262.65 154.462 1270.96 160.301C1279.25 166.001 1284.49 176.11 1286.68 190.628L1296.04 252.611L1271.56 256.461L1269.1 240.128C1267.59 246.225 1264.51 251.354 1259.85 255.516C1255.18 259.539 1249.28 262.109 1242.17 263.228ZM1244.89 244.364C1251.73 243.289 1257.02 240.027 1260.76 234.579C1264.65 229.108 1266.04 222.744 1264.95 215.484L1264.25 210.878L1257.14 211.996C1244.03 214.059 1235.05 216.543 1230.21 219.449C1225.48 222.193 1223.52 226.217 1224.32 231.522C1225.01 236.129 1227.19 239.646 1230.84 242.073C1234.49 244.5 1239.17 245.264 1244.89 244.364Z" fill="black"/>
<path d="M1324.65 250.204L1318.12 146.851L1343.9 145.155L1345.05 163.331C1349.34 150.739 1359.76 143.262 1376.31 140.9L1384.3 139.737L1387.4 162.03L1372.28 164.51C1355.06 167.342 1346.96 176.789 1347.97 192.852L1351.48 248.438L1324.65 250.204Z" fill="black"/>
<path d="M1443.81 248.237C1436.33 248.052 1429.65 246.476 1423.79 243.507C1418.08 240.4 1413.58 236.335 1410.31 231.311C1407.18 226.291 1405.69 220.676 1405.84 214.466C1406.02 206.844 1408.14 200.894 1412.19 196.616C1416.25 192.197 1422.75 189.109 1431.69 187.352C1440.63 185.595 1452.58 184.901 1467.54 185.27L1474.95 185.452L1475.05 181.006C1475.22 173.949 1473.79 168.829 1470.76 165.648C1467.73 162.466 1462.54 160.785 1455.2 160.604C1449.41 160.461 1443.46 161.232 1437.35 162.918C1431.24 164.462 1425.04 166.992 1418.74 170.509L1411.55 152.325C1415.28 149.875 1419.63 147.793 1424.62 146.08C1429.74 144.23 1435.07 142.878 1440.6 142.026C1446.27 141.036 1451.58 140.602 1456.52 140.723C1471.62 141.096 1482.76 144.901 1489.93 152.139C1497.11 159.236 1500.52 170.124 1500.17 184.803L1498.69 247.471L1473.92 246.86L1474.31 230.347C1471.77 236.074 1467.85 240.568 1462.55 243.826C1457.25 246.944 1451 248.414 1443.81 248.237ZM1449.74 230.165C1456.66 230.335 1462.43 228.077 1467.06 223.389C1471.83 218.705 1474.3 212.693 1474.48 205.354L1474.59 200.696L1467.39 200.518C1454.12 200.191 1444.85 201.022 1439.58 203.01C1434.45 204.861 1431.83 208.468 1431.7 213.832C1431.59 218.49 1433.12 222.341 1436.3 225.385C1439.47 228.429 1443.95 230.022 1449.74 230.165Z" fill="black"/>
<path d="M1574.41 258.089C1563.62 256.763 1554.48 253.435 1547.01 248.107C1539.55 242.638 1534.13 235.571 1530.75 226.904C1527.36 218.238 1526.32 208.437 1527.61 197.5C1528.9 186.564 1532.18 177.437 1537.45 170.119C1542.74 162.661 1549.62 157.32 1558.11 154.096C1566.61 150.731 1576.25 149.712 1587.04 151.039C1593.63 151.848 1600.02 153.701 1606.22 156.597C1612.42 159.492 1617.39 163.091 1621.15 167.394L1611.21 184.735C1607.95 181.062 1604.11 178.101 1599.68 175.85C1595.39 173.616 1591.15 172.24 1586.95 171.724C1577.84 170.604 1570.42 172.608 1564.7 177.736C1559.13 182.742 1555.73 190.503 1554.49 201.018C1553.26 211.394 1554.75 219.898 1558.94 226.53C1563.29 233.039 1570.02 236.853 1579.13 237.973C1583.19 238.473 1587.63 238.165 1592.46 237.051C1597.28 235.937 1601.71 233.922 1605.75 231.005L1611.34 250.469C1606.71 253.597 1600.97 255.878 1594.12 257.312C1587.42 258.623 1580.85 258.882 1574.41 258.089Z" fill="black"/>
<path d="M1674.16 276.101C1647.35 270.519 1636.6 254.437 1641.91 227.855L1650.75 183.622L1631.26 179.565L1635.16 160.044L1654.65 164.101L1660.71 133.782L1686.63 139.177L1680.57 169.496L1711.26 175.885L1707.35 195.405L1676.67 189.017L1668.12 231.797C1666.79 238.442 1667.24 243.728 1669.48 247.655C1671.72 251.582 1676.09 254.222 1682.58 255.574C1684.52 255.977 1686.57 256.187 1688.72 256.203C1690.91 256.081 1693.16 255.973 1695.48 255.88L1695.6 275.805C1692.84 276.672 1689.44 277.118 1685.4 277.143C1681.5 277.196 1677.76 276.849 1674.16 276.101Z" fill="black"/>
<path d="M1813.64 317.971C1803.4 314.322 1795.2 309.076 1789.03 302.234C1782.92 295.258 1779.12 287.162 1777.65 277.945C1776.18 268.728 1777.22 258.91 1780.79 248.49C1784.35 238.071 1789.48 229.856 1796.16 223.844C1802.89 217.699 1810.73 213.974 1819.68 212.668C1828.68 211.228 1838.3 212.333 1848.54 215.982C1854.79 218.21 1860.63 221.415 1866.06 225.599C1871.49 229.783 1875.59 234.389 1878.34 239.417L1865 254.219C1862.59 249.915 1859.47 246.179 1855.63 243.012C1851.92 239.893 1848.07 237.622 1844.08 236.2C1835.44 233.12 1827.78 233.465 1821.12 237.236C1814.64 240.92 1809.68 247.772 1806.26 257.79C1802.87 267.675 1802.53 276.319 1805.22 283.722C1808.08 291.038 1813.84 296.237 1822.49 299.317C1826.34 300.692 1830.74 301.359 1835.68 301.32C1840.61 301.281 1845.36 300.275 1849.91 298.301L1851.26 318.564C1846.08 320.616 1840 321.596 1833.02 321.506C1826.22 321.33 1819.76 320.152 1813.64 317.971Z" fill="black"/>
<path d="M1896.88 352.706C1885.66 347.711 1878.65 340.956 1875.84 332.443C1873.21 323.857 1874.45 313.593 1879.56 301.649L1923.51 198.831L1947.69 209.598L1904.24 311.247C1899.25 322.931 1901.65 330.955 1911.45 335.319C1912.87 335.951 1914.32 336.518 1915.79 337.019C1917.27 337.521 1918.73 337.865 1920.19 338.049L1911.56 357.155C1906.42 356.257 1901.53 354.774 1896.88 352.706Z" fill="black"/>
<path d="M1961.08 385.336C1938.84 373.039 1934.4 354.296 1947.78 329.107L1977.27 273.552L2000.44 286.361L1970.75 342.29C1967.3 348.774 1966.05 354.292 1966.99 358.845C1967.93 363.397 1971.24 367.244 1976.93 370.387C1983.1 373.802 1989.3 374.483 1995.5 372.429C2001.77 370.251 2006.79 365.608 2010.57 358.5L2037.87 307.06L2061.04 319.869L2012.48 411.338L1989.87 398.836L1997.12 385.181C1985.57 392.184 1973.56 392.236 1961.08 385.336Z" fill="black"/>
<path d="M2084.91 463.696C2078.69 459.29 2074.05 453.932 2071.01 447.621C2068.07 441.392 2067.02 435.027 2067.86 428.527L2058.45 442.362L2037.37 427.43L2121.32 303.967L2142.92 319.266L2108.63 369.702C2114.1 367.177 2120.07 366.304 2126.54 367.081C2133.2 367.822 2139.53 370.315 2145.52 374.558C2153.01 379.862 2158.29 386.281 2161.36 393.817C2164.43 401.353 2165.26 409.55 2163.84 418.408C2162.51 427.149 2158.71 436.131 2152.43 445.355C2146.24 454.461 2139.29 461.298 2131.57 465.867C2123.94 470.318 2116.07 472.355 2107.96 471.976C2099.97 471.678 2092.29 468.919 2084.91 463.696ZM2090.18 442.776C2096.63 447.345 2103.4 448.682 2110.49 446.786C2117.67 444.774 2124.39 439.156 2130.66 429.933C2137.01 420.593 2139.77 412.259 2138.95 404.931C2138.21 397.487 2134.61 391.48 2128.16 386.911C2121.71 382.341 2114.94 381.005 2107.84 382.9C2100.83 384.679 2094.15 390.239 2087.8 399.579C2081.53 408.802 2078.72 417.194 2079.38 424.755C2080.13 432.199 2083.72 438.206 2090.18 442.776Z" fill="black"/>
<path d="M2219.68 578.931C2212.05 571.382 2206.94 563.24 2204.34 554.506C2201.73 545.771 2201.65 536.948 2204.08 528.035C2206.61 519.021 2211.67 510.523 2219.26 502.541C2226.85 494.559 2234.97 489.191 2243.62 486.437C2252.28 483.683 2260.92 483.501 2269.55 485.891C2278.19 488.281 2286.32 493.25 2293.94 500.799C2301.57 508.348 2306.68 516.49 2309.29 525.224C2311.89 533.959 2311.98 542.782 2309.54 551.694C2307.11 560.606 2302.1 569.053 2294.51 577.035C2286.92 585.017 2278.75 590.437 2270 593.293C2261.35 596.047 2252.7 596.229 2244.07 593.839C2235.44 591.449 2227.31 586.479 2219.68 578.931ZM2233.54 564.348C2239.16 569.91 2245.62 572.333 2252.92 571.617C2260.32 570.799 2267.86 566.347 2275.55 558.263C2283.33 550.076 2287.41 542.299 2287.79 534.931C2288.27 527.46 2285.7 520.944 2280.08 515.382C2274.46 509.819 2268 507.396 2260.7 508.113C2253.5 508.726 2246 513.127 2238.22 521.313C2230.54 529.398 2226.41 537.226 2225.83 544.799C2225.35 552.269 2227.92 558.786 2233.54 564.348Z" fill="black"/>
<path d="M2279.27 639.726L2342.09 584.486L2329.24 569.276L2344.19 556.13L2357.04 571.34L2357.2 571.2C2368.22 561.504 2379 557.098 2389.54 557.982C2400.17 558.974 2411.09 565.346 2422.31 577.099L2429.48 584.608L2415.94 598.769L2409.18 591.745C2403.29 585.646 2397.83 582.459 2392.8 582.187C2387.87 581.821 2382.75 583.968 2377.45 588.63L2374.11 591.567L2392.28 613.088L2377.34 626.234L2359.16 604.713L2296.35 659.953L2279.27 639.726Z" fill="black"/>
<path d="M2115.02 1245.12C2115.02 1578.14 1823.26 2846.15 1420.39 2846.15C1017.52 2846.15 658 1578.14 658 1245.12C658 912.096 1026.11 2005.32 1420.39 2005.32C1783.61 2005.32 2115.02 912.096 2115.02 1245.12Z" fill="#2D6BB3"/>
<path d="M1290.78 2101.17C1291.31 2101.06 1291.87 2101.07 1292.4 2101.24C1294.03 2101.76 1332.48 2114.1 1365.05 2139.57C1366.41 2140.63 1369.18 2144.76 1368.11 2146.12C1367.04 2147.47 1362.53 2145.54 1361.17 2144.48C1333.34 2122.72 1300.09 2110.49 1292.22 2107.77C1282.71 2116.82 1225.72 2173.5 1230.35 2228.47C1230.47 2230.89 1229.54 2234.49 1231.78 2236.69C1236.63 2259.06 1258.34 2271.96 1280.84 2267.08C1282.53 2266.71 1284.2 2267.79 1284.56 2269.47C1284.93 2271.15 1283.86 2272.82 1282.17 2273.18C1256.28 2278.79 1230.7 2262.42 1225.12 2236.69C1224.57 2234.16 1224.22 2231.54 1224.1 2228.9C1218.82 2166.27 1286.46 2104.5 1289.34 2101.9C1289.76 2101.53 1290.26 2101.29 1290.78 2101.17Z" fill="#050607" stroke="black" stroke-width="8.47104"/>
<path d="M1364.99 2141.98C1365.98 2141.77 1367.03 2142.02 1367.81 2142.76C1381.23 2155.41 1390.6 2169.03 1395.67 2183.22C1396.6 2185.57 1397.38 2188.1 1397.93 2190.63C1403.51 2216.37 1387 2241.87 1361.13 2247.48C1359.43 2247.84 1357.76 2246.77 1357.4 2245.09C1357.03 2243.41 1358.11 2241.74 1359.8 2241.37C1382.29 2236.5 1396.65 2214.33 1391.8 2191.96C1391.32 2189.75 1390.65 2187.56 1389.79 2185.42C1385.02 2172.06 1376.19 2159.26 1363.5 2147.29C1362.24 2146.1 1362.19 2144.13 1363.38 2142.88C1363.84 2142.41 1364.4 2142.11 1364.99 2141.98Z" fill="#050607" stroke="black" stroke-width="8.47104"/>
<path d="M1356.26 2258.36C1363.12 2256.87 1367.47 2250.1 1365.99 2243.25C1364.5 2236.39 1357.74 2232.03 1350.88 2233.52C1344.02 2235.01 1339.66 2241.77 1341.15 2248.63C1342.64 2255.49 1349.4 2259.84 1356.26 2258.36Z" fill="#03CCAC"/>
<path d="M1288.49 2283.77C1295.35 2282.28 1299.71 2275.52 1298.22 2268.66C1296.73 2261.8 1289.97 2257.45 1283.11 2258.93C1276.25 2260.42 1271.9 2267.19 1273.38 2274.04C1274.87 2280.9 1281.64 2285.26 1288.49 2283.77Z" fill="#03CCAC"/>
<path d="M1520.77 2259.62C1483.68 2259.96 1453.21 2290.3 1453.46 2327.39C1453.71 2364.47 1484.6 2394.26 1521.69 2393.92C1558.77 2393.58 1589.25 2363.23 1589 2326.15C1588.74 2289.06 1557.85 2259.28 1520.77 2259.62Z" fill="#03CCAC"/>
<path d="M1520.99 2354.36C1505.76 2354.5 1493.29 2342.24 1493.19 2327.06C1493.08 2311.86 1505.38 2299.39 1520.61 2299.25C1535.84 2299.11 1548.31 2311.36 1548.41 2326.55C1548.52 2341.74 1536.22 2354.22 1520.99 2354.36ZM1520.7 2311.46C1512.22 2311.54 1505.36 2318.49 1505.42 2326.95C1505.48 2335.39 1512.43 2342.21 1520.91 2342.14C1529.38 2342.06 1536.24 2335.11 1536.18 2326.67C1536.12 2318.2 1529.17 2311.38 1520.7 2311.46Z" fill="#050607"/>
<path d="M1296.78 2100.48C1301.37 2075.24 1329.27 2026.69 1343.33 1991.85" stroke="black" stroke-width="16.9421"/>
<path d="M1568 1951C1639.36 2085.32 1640.5 2158 1568.72 2276.89" stroke="black" stroke-width="16.9964" stroke-miterlimit="3.8637" stroke-linejoin="bevel"/>
<path d="M1584.52 1966.18L1584.95 1967.04L1585.38 1967.91" stroke="black" stroke-width="0.864653"/>
<path d="M1603 1761C1603 1866.49 1517.49 1952 1412 1952C1306.51 1952 1221 1866.49 1221 1761C1221 1655.51 1306.51 1570 1412 1570C1517.49 1570 1603 1655.51 1603 1761Z" fill="#2D6BB3"/>
<path d="M1221 338H1603V1538H1221V338Z" fill="#ED4141"/>
<rect x="1987" y="747" width="382" height="1200" transform="rotate(90 1987 747)" fill="#ED4141"/>
<path d="M942.241 1004.42C942.22 1004.42 942.22 1004.42 942.2 1004.42C939.071 1004.42 936.251 1001.74 935.098 997.69L907.516 899.659L894.199 936.282C892.902 939.847 890.267 942.1 887.386 942.1H794.637C790.417 942.1 787 938.292 787 932.417C787 926.57 790.417 920.908 794.637 920.908H882.672L901.568 868.884C902.926 865.148 905.787 862.866 908.772 863.066C911.777 863.237 914.432 865.889 915.544 869.797L942.302 964.889L977.706 841.674C978.859 837.624 981.679 835 984.807 835C984.828 835 984.849 835 984.869 835C988.018 835.029 990.838 837.738 991.97 841.817L1015.26 932.417H1047.87H1076.4C1080.62 932.417 1088.63 930.777 1088.63 936.652C1088.63 942.499 1085.21 945.152 1080.99 945.152H1009.18C1005.99 945.152 1003.15 942.442 1002.02 938.335L984.643 874.845L949.342 997.747C948.189 1001.77 945.369 1004.42 942.241 1004.42Z" fill="#03CCAC"/>
<path d="M1082.62 888.359C1112.96 888.359 1128.12 903.357 1128.12 933.352C1128.12 937.617 1127.82 942.188 1127.21 947.062H1052.36C1052.36 968.865 1065.09 979.766 1090.55 979.766C1102.67 979.766 1113.43 978.411 1122.84 975.703V990.938C1113.43 993.646 1101.99 995 1088.51 995C1051.88 995 1033.57 976.82 1033.57 940.461C1033.57 905.727 1049.92 888.359 1082.62 888.359ZM1052.36 931.422H1110.05C1109.64 912.734 1100.5 903.391 1082.62 903.391C1063.67 903.391 1053.58 912.734 1052.36 931.422ZM1225.01 910.094C1217.43 906.438 1208.76 904.609 1199.01 904.609C1177.55 904.609 1166.82 916.018 1166.82 938.836C1166.82 965.852 1177.55 979.359 1199.01 979.359C1208.76 979.359 1217.43 978.039 1225.01 975.398V910.094ZM1243.8 988.602C1230.87 992.867 1214.93 995 1195.97 995C1164.21 995 1148.33 976.516 1148.33 939.547C1148.33 905.422 1165.19 888.359 1198.91 888.359C1208.12 888.359 1216.82 890.052 1225.01 893.438V849.766H1243.8V988.602ZM1295.09 888.359V995H1276.3V888.359H1295.09ZM1295.09 849.766V867.539H1276.3V849.766H1295.09ZM1399.3 849.766V995H1380.51V849.766H1399.3ZM1501.47 849.766L1436.06 918.32L1502.89 995H1476.79L1417.58 925.125V913.75L1477.7 849.766H1501.47ZM1515.58 962.805C1515.58 940.935 1530.01 930 1558.85 930C1568.13 930 1577.4 930.677 1586.68 932.031V921.977C1586.68 909.721 1577.1 903.594 1557.94 903.594C1546.97 903.594 1535.73 905.286 1524.22 908.672V893.438C1535.73 890.052 1546.97 888.359 1557.94 888.359C1589.62 888.359 1605.47 899.396 1605.47 921.469V995H1594.91L1588.41 984.438C1577.78 991.479 1566.2 995 1553.67 995C1528.28 995 1515.58 984.268 1515.58 962.805ZM1558.85 945.234C1542.53 945.234 1534.37 950.99 1534.37 962.5C1534.37 974.01 1540.81 979.766 1553.67 979.766C1566.67 979.766 1577.67 976.312 1586.68 969.406V947.266C1577.4 945.911 1568.13 945.234 1558.85 945.234ZM1636.04 995V888.359H1648.73L1652.08 901.969C1661.43 892.896 1672.67 888.359 1685.8 888.359V904C1673.07 904 1662.75 908.503 1654.83 917.508V995H1636.04ZM1776.3 910.094C1768.71 906.438 1760.05 904.609 1750.3 904.609C1728.83 904.609 1718.1 916.018 1718.1 938.836C1718.1 965.852 1728.83 979.359 1750.3 979.359C1760.05 979.359 1768.71 978.039 1776.3 975.398V910.094ZM1795.08 988.602C1782.15 992.867 1766.21 995 1747.25 995C1715.49 995 1699.62 976.516 1699.62 939.547C1699.62 905.422 1716.48 888.359 1750.19 888.359C1759.4 888.359 1768.1 890.052 1776.3 893.438V849.766H1795.08V988.602ZM1846.37 888.359V995H1827.58V888.359H1846.37ZM1846.37 849.766V867.539H1827.58V849.766H1846.37ZM1873.9 962.805C1873.9 940.935 1888.32 930 1917.16 930C1926.44 930 1935.72 930.677 1944.99 932.031V921.977C1944.99 909.721 1935.41 903.594 1916.25 903.594C1905.28 903.594 1894.04 905.286 1882.53 908.672V893.438C1894.04 890.052 1905.28 888.359 1916.25 888.359C1947.94 888.359 1963.78 899.396 1963.78 921.469V995H1953.22L1946.72 984.438C1936.09 991.479 1924.51 995 1911.98 995C1886.59 995 1873.9 984.268 1873.9 962.805ZM1917.16 945.234C1900.85 945.234 1892.69 950.99 1892.69 962.5C1892.69 974.01 1899.12 979.766 1911.98 979.766C1924.98 979.766 1935.99 976.312 1944.99 969.406V947.266C1935.72 945.911 1926.44 945.234 1917.16 945.234Z" fill="#03CCAC"/>
<path d="M1836.58 2130.96C1827.95 2091.9 1773.88 2091.24 1760.55 2127.76C1747.21 2091.24 1693.14 2091.9 1684.52 2130.96C1676.69 2166.41 1760.55 2222.33 1760.55 2222.33C1760.55 2222.33 1844.4 2166.41 1836.58 2130.96Z" fill="#ED4141"/>
<path d="M1575.94 2281.29C1575.83 2281.44 1575.77 2281.62 1575.63 2281.76C1575.52 2281.87 1575.45 2282.01 1575.35 2282.12C1575.13 2282.35 1574.99 2282.65 1574.8 2282.89C1574.7 2283 1574.64 2283.13 1574.55 2283.25C1574.47 2283.35 1574.45 2283.53 1574.36 2283.61C1574.11 2283.81 1574.02 2284.18 1573.81 2284.4" stroke="black" stroke-width="0.1" stroke-linecap="round"/>
<path d="M1561.42 2272.61C1561.55 2272.71 1561.63 2272.82 1561.75 2272.91C1561.85 2272.99 1561.96 2273.03 1562.05 2273.11C1562.08 2273.15 1562.13 2273.18 1562.16 2273.21C1562.21 2273.24 1562.19 2273.31 1562.22 2273.35C1562.3 2273.42 1562.41 2273.43 1562.46 2273.52" stroke="black" stroke-width="0.1" stroke-linecap="round"/>
<path d="M1562.4 2273.4C1562.5 2273.44 1562.66 2273.53 1562.76 2273.6C1562.84 2273.67 1562.9 2273.77 1562.99 2273.83C1563.08 2273.88 1563.11 2273.97 1563.2 2274.03C1563.26 2274.06 1563.37 2274.12 1563.42 2274.17C1563.63 2274.39 1563.91 2274.6 1564.17 2274.77C1564.31 2274.85 1564.43 2274.98 1564.54 2275.09C1564.66 2275.21 1564.81 2275.31 1564.93 2275.42C1565.04 2275.53 1565.19 2275.62 1565.29 2275.72C1565.38 2275.79 1565.6 2276.01 1565.71 2276.01C1566.01 2276.01 1566.18 2276.51 1566.4 2276.63C1566.51 2276.69 1566.62 2276.91 1566.71 2277C1566.8 2277.11 1566.98 2277.19 1567.05 2277.31C1567.07 2277.35 1567.17 2277.36 1567.21 2277.42C1567.25 2277.48 1567.33 2277.53 1567.38 2277.58C1567.49 2277.69 1567.6 2277.81 1567.72 2277.91C1567.86 2278.02 1567.98 2278.16 1568.11 2278.28C1568.2 2278.36 1568.32 2278.44 1568.4 2278.54C1568.48 2278.64 1568.65 2278.7 1568.71 2278.82C1568.79 2278.95 1568.93 2279.16 1569.06 2279.24C1569.2 2279.32 1569.34 2279.43 1569.45 2279.54C1569.57 2279.66 1569.71 2279.74 1569.84 2279.85C1569.96 2279.96 1570.04 2280.1 1570.18 2280.2C1570.23 2280.25 1570.26 2280.33 1570.31 2280.38C1570.37 2280.44 1570.44 2280.52 1570.48 2280.59C1570.56 2280.74 1570.73 2280.89 1570.86 2280.97C1570.99 2281.04 1571.1 2281.19 1571.21 2281.29C1571.43 2281.49 1571.68 2281.74 1571.83 2282.01C1571.92 2282.15 1572.06 2282.26 1572.14 2282.4C1572.17 2282.45 1572.25 2282.51 1572.29 2282.55C1572.34 2282.6 1572.37 2282.67 1572.43 2282.72C1572.55 2282.84 1572.69 2282.94 1572.81 2283.06C1572.83 2283.08 1572.89 2283.24 1572.89 2283.27C1572.9 2283.34 1573.01 2283.41 1573.02 2283.49C1573.03 2283.56 1573.16 2283.63 1573.21 2283.69C1573.26 2283.76 1573.32 2283.85 1573.38 2283.91C1573.54 2284.07 1573.66 2284.26 1573.84 2284.4" stroke="black" stroke-width="0.1" stroke-linecap="round"/>
<path d="M1561.42 2272.64L1561.52 2272.52" stroke="black" stroke-width="0.1" stroke-linecap="round"/>
<path d="M1561.48 2272.61C1561.53 2272.64 1561.68 2272.74 1561.67 2272.74C1561.62 2272.73 1561.57 2272.66 1561.55 2272.61C1561.51 2272.52 1561.63 2272.55 1561.67 2272.57C1561.73 2272.6 1561.73 2272.65 1561.77 2272.71" stroke="black" stroke-width="0.1" stroke-linecap="round"/>
<path d="M1573.87 2282.7C1573.93 2282.58 1573.96 2282.46 1573.99 2282.32" stroke="black" stroke-width="2" stroke-linecap="round"/>
<path d="M1574.84 2281.19C1574.78 2281.16 1574.72 2281.13 1574.65 2281.1" stroke="black" stroke-width="2" stroke-linecap="round"/>
<path d="M1573.11 2280.85C1572.99 2280.51 1572.78 2280.22 1572.56 2279.95C1572.51 2279.89 1572.5 2279.8 1572.42 2279.78" stroke="black" stroke-width="2" stroke-linecap="round"/>
<path d="M1573.96 2280.22C1574.2 2280.27 1574.08 2280.27 1573.93 2280.25" stroke="black" stroke-width="2" stroke-linecap="round"/>
<path d="M1567.8 2276.6C1568.14 2276.88 1568.52 2277.09 1568.91 2277.3C1569.03 2277.37 1569.04 2277.43 1569.14 2277.51C1569.24 2277.6 1569.25 2277.86 1569.41 2277.86" stroke="black" stroke-width="2" stroke-linecap="round"/>
<path d="M1569.5 2278.05C1569.8 2278.17 1570.1 2278.25 1570.38 2278.4C1570.63 2278.54 1570.83 2278.78 1571.09 2278.93C1571.3 2279.05 1571.41 2279.28 1571.59 2279.43C1571.67 2279.5 1571.75 2279.66 1571.79 2279.76C1571.84 2279.87 1571.94 2279.96 1571.99 2280.06C1572.15 2280.41 1572.5 2280.72 1572.91 2280.72C1573.19 2280.72 1573.3 2281 1573.3 2281.24C1573.3 2281.34 1573.32 2281.46 1573.3 2281.55C1573.29 2281.61 1573.18 2281.84 1573.15 2281.85" stroke="black" stroke-width="2" stroke-linecap="round"/>
<path d="M1567.2 2275.69C1567.11 2275.63 1567.01 2275.55 1566.91 2275.53C1566.87 2275.52 1566.75 2275.44 1566.73 2275.41" stroke="black" stroke-width="2" stroke-linecap="round"/>
<path d="M1566.14 2275.13C1566.06 2275.02 1565.96 2274.88 1565.85 2274.81" stroke="black" stroke-width="2" stroke-linecap="round"/>
<path d="M1565.48 2274.53C1565.34 2274.45 1565.19 2274.39 1565.07 2274.31" stroke="black" stroke-width="2" stroke-linecap="round"/>
<path d="M1564.69 2273.52C1564.59 2273.45 1564.51 2273.37 1564.41 2273.3" stroke="black" stroke-width="2" stroke-linecap="round"/>
<path d="M1564.69 2273.81C1564.52 2273.77 1564.42 2273.73 1564.34 2273.59" stroke="black" stroke-width="2" stroke-linecap="round"/>
<path d="M1563.84 2273.3C1563.76 2273.24 1563.74 2273.19 1563.68 2273.11" stroke="black" stroke-width="2" stroke-linecap="round"/>
<path d="M1563.24 2272.77C1563.17 2272.69 1563.11 2272.65 1563.09 2272.55" stroke="black" stroke-width="2" stroke-linecap="round"/>
<path d="M1563.09 2272.55C1562.98 2272.5 1562.85 2272.44 1562.77 2272.36" stroke="black" stroke-width="2" stroke-linecap="round"/>
<path d="M1563.5 2272.8C1563.38 2272.77 1563.27 2272.71 1563.15 2272.71" stroke="black" stroke-width="2" stroke-linecap="round"/>
<path d="M1563.12 2272.58C1563.03 2272.56 1562.95 2272.54 1562.87 2272.49" stroke="black" stroke-width="2" stroke-linecap="round"/>
<path d="M1562.87 2272.49C1562.8 2272.48 1562.74 2272.48 1562.68 2272.45" stroke="black" stroke-width="2" stroke-linecap="round"/>
<path d="M1567.71 2275.79C1567.53 2275.75 1567.3 2275.75 1567.21 2275.94" stroke="black" stroke-width="2" stroke-linecap="round"/>
<path d="M1567.71 2275.75C1567.56 2275.75 1567.31 2275.74 1567.24 2275.6" stroke="black" stroke-width="2" stroke-linecap="round"/>
<path d="M1567.49 2276.41C1567.43 2276.34 1567.2 2276.19 1567.36 2276.19" stroke="black" stroke-width="2" stroke-linecap="round"/>
<path d="M1566.95 2275.85H1567.21" stroke="black" stroke-width="2" stroke-linecap="round"/>
<path d="M1571.64 2279.9H1572.2" stroke="black" stroke-width="2" stroke-linecap="round"/>
<path d="M1571.57 2279.81C1571.45 2279.78 1571.32 2279.79 1571.2 2279.75" stroke="black" stroke-width="2" stroke-linecap="round"/>
<path d="M1570.85 2279.4C1570.71 2279.35 1570.61 2279.34 1570.57 2279.34" stroke="black" stroke-width="2" stroke-linecap="round"/>
<path d="M1570.22 2278.74C1570.18 2278.73 1570.03 2278.68 1569.98 2278.72C1569.96 2278.73 1569.92 2278.77 1569.97 2278.77C1570.06 2278.78 1570.13 2278.67 1570.19 2278.61" stroke="black" stroke-width="2" stroke-linecap="round"/>
<path d="M1573.06 2280.78C1572.92 2280.78 1572.81 2280.78 1572.7 2280.84C1572.65 2280.87 1572.59 2280.92 1572.56 2280.96C1572.53 2281 1572.48 2281.07 1572.43 2281.07" stroke="black" stroke-width="2" stroke-linecap="round"/>
<path d="M1573.71 2281.76C1573.66 2281.79 1573.63 2281.83 1573.58 2281.86C1573.54 2281.89 1573.49 2281.92 1573.46 2281.96C1573.43 2281.99 1573.41 2282.02 1573.39 2282.05C1573.38 2282.06 1573.39 2282.08 1573.36 2282.1C1573.35 2282.1 1573.32 2282.1 1573.3 2282.1" stroke="black" stroke-width="2" stroke-linecap="round"/>
<path d="M1573.12 2281.55C1573.04 2281.59 1572.97 2281.63 1572.91 2281.69" stroke="black" stroke-width="2" stroke-linecap="round"/>
<path d="M1572.22 2280.75C1572.17 2280.75 1572.14 2280.75 1572.1 2280.78" stroke="black" stroke-width="2" stroke-linecap="round"/>
<path d="M1571.78 2280.46C1571.63 2280.49 1571.76 2280.51 1571.8 2280.48C1571.84 2280.45 1571.91 2280.47 1571.96 2280.44" stroke="black" stroke-width="2" stroke-linecap="round"/>
<path d="M1571.89 2279.92C1571.85 2279.95 1571.74 2279.98 1571.72 2280.02C1571.7 2280.07 1571.64 2280.06 1571.6 2280.08C1571.56 2280.09 1571.5 2280.11 1571.47 2280.11C1571.45 2280.11 1571.41 2280.11 1571.41 2280.1C1571.39 2280.07 1571.41 2280.05 1571.44 2280.04" stroke="black" stroke-width="2" stroke-linecap="round"/>
<path d="M1571.11 2279.89H1571.18" stroke="black" stroke-width="2" stroke-linecap="round"/>
<path d="M1572.86 2281.47C1572.82 2281.48 1572.78 2281.49 1572.73 2281.49" stroke="black" stroke-width="2" stroke-linecap="round"/>
<path d="M1573.43 2282.31C1573.4 2282.31 1573.37 2282.31 1573.34 2282.31C1573.32 2282.31 1573.34 2282.31 1573.35 2282.3" stroke="black" stroke-width="2" stroke-linecap="round"/>
<path d="M1573.51 2282.42C1573.51 2282.46 1573.51 2282.48 1573.5 2282.51C1573.49 2282.53 1573.53 2282.52 1573.54 2282.52" stroke="black" stroke-width="2" stroke-linecap="round"/>
<path d="M1574.29 2281.42C1574.37 2281.45 1574.43 2281.51 1574.45 2281.59" stroke="black" stroke-width="2" stroke-linecap="round"/>
<path d="M1574.26 2281.75C1574.29 2281.77 1574.33 2281.78 1574.29 2281.81C1574.28 2281.82 1574.25 2281.83 1574.23 2281.84" stroke="black" stroke-width="2" stroke-linecap="round"/>
<path d="M1573.44 2280.72C1573.49 2280.85 1573.49 2280.98 1573.49 2281.12C1573.49 2281.24 1573.5 2281.39 1573.45 2281.5C1573.4 2281.62 1573.4 2281.75 1573.36 2281.87C1573.34 2281.92 1573.29 2282.01 1573.29 2282.06C1573.29 2282.13 1573.29 2282.19 1573.29 2282.26" stroke="black" stroke-width="0.5" stroke-linecap="round"/>
<path d="M1573.67 2283.64C1573.72 2283.69 1573.74 2283.72 1573.75 2283.79C1573.75 2283.82 1573.78 2283.83 1573.78 2283.86" stroke="black" stroke-width="0.5" stroke-linecap="round"/>
<path d="M1573.44 2283.61C1573.44 2283.6 1573.37 2283.51 1573.37 2283.49C1573.37 2283.46 1573.45 2283.52 1573.46 2283.53" stroke="black" stroke-width="0.5" stroke-linecap="round"/>
<path d="M1574.03 2283.85C1574.02 2283.76 1574.04 2283.75 1574.1 2283.7C1574.11 2283.69 1574.17 2283.65 1574.17 2283.67C1574.19 2283.72 1574.06 2283.77 1574.05 2283.82C1574.02 2283.92 1573.94 2283.75 1573.94 2283.71C1573.94 2283.67 1573.99 2283.65 1574 2283.7C1574.01 2283.73 1574 2283.76 1574.03 2283.79C1574.07 2283.85 1574.17 2283.76 1574.2 2283.71C1574.22 2283.68 1574.23 2283.64 1574.25 2283.6C1574.28 2283.55 1574.29 2283.58 1574.26 2283.63C1574.18 2283.75 1574.04 2283.87 1573.98 2284C1573.96 2284.05 1573.92 2284.18 1573.87 2284.2C1573.83 2284.21 1573.84 2284.26 1573.82 2284.28C1573.8 2284.31 1573.77 2284.21 1573.76 2284.19C1573.75 2284.16 1573.64 2284.05 1573.61 2284.04C1573.56 2284.02 1573.52 2283.93 1573.49 2283.89C1573.47 2283.85 1573.44 2283.82 1573.48 2283.87C1573.51 2283.91 1573.53 2283.94 1573.56 2283.97C1573.62 2284.03 1573.68 2284.09 1573.77 2284.09C1573.78 2284.09 1573.84 2284.12 1573.82 2284.1C1573.78 2284.07 1573.78 2284.02 1573.74 2283.99C1573.69 2283.95 1573.76 2284.13 1573.82 2284.13C1573.91 2284.13 1573.83 2284.03 1573.8 2284C1573.72 2283.94 1573.6 2283.95 1573.52 2283.88C1573.47 2283.83 1573.43 2283.78 1573.41 2283.72C1573.4 2283.69 1573.37 2283.62 1573.35 2283.59C1573.29 2283.53 1573.19 2283.5 1573.12 2283.45C1573.09 2283.43 1573.06 2283.4 1573.06 2283.44C1573.06 2283.47 1573.15 2283.53 1573.12 2283.51C1573.08 2283.5 1573.06 2283.35 1573.04 2283.31C1573.02 2283.26 1573.01 2283.17 1572.98 2283.13C1572.96 2283.1 1572.91 2283.02 1572.9 2282.97C1572.89 2282.91 1572.81 2282.82 1572.78 2282.76C1572.73 2282.68 1572.61 2282.55 1572.52 2282.51C1572.46 2282.48 1572.23 2282.51 1572.31 2282.51C1572.36 2282.51 1572.42 2282.52 1572.48 2282.5C1572.54 2282.47 1572.61 2282.46 1572.67 2282.44C1572.72 2282.43 1572.82 2282.42 1572.86 2282.39C1573 2282.28 1573.16 2282.19 1573.3 2282.08C1573.48 2281.94 1573.66 2281.82 1573.87 2281.72C1574.14 2281.6 1574.43 2281.46 1574.72 2281.38C1574.91 2281.33 1575.1 2281.27 1575.29 2281.21C1575.4 2281.17 1575.52 2281.1 1575.64 2281.08C1575.72 2281.07 1575.81 2281.02 1575.89 2281.06C1575.97 2281.11 1575.78 2281.62 1575.78 2281.18" stroke="black" stroke-width="0.1" stroke-linecap="round"/>
<path d="M1568.33 2278.29C1568.32 2278.18 1568.25 2278.09 1568.14 2278.06C1568.1 2278.05 1567.96 2277.97 1567.93 2277.94C1567.9 2277.88 1567.81 2277.85 1567.76 2277.8C1567.71 2277.75 1567.65 2277.7 1567.59 2277.66C1567.58 2277.65 1567.56 2277.62 1567.54 2277.62C1567.53 2277.62 1567.56 2277.66 1567.56 2277.66C1567.59 2277.68 1567.61 2277.72 1567.63 2277.74C1567.68 2277.78 1567.71 2277.86 1567.75 2277.91C1567.85 2278.03 1568 2278.09 1568.08 2278.24C1568.11 2278.3 1568.22 2278.38 1568.29 2278.38C1568.38 2278.38 1568.23 2278.23 1568.2 2278.22C1568.12 2278.18 1568.07 2278.11 1568 2278.06C1567.94 2278.03 1567.86 2277.99 1567.83 2277.94C1567.79 2277.87 1567.82 2277.97 1567.85 2277.99C1567.9 2278.01 1567.93 2278.06 1567.97 2278.09C1568.04 2278.13 1568.1 2278.19 1568.17 2278.22C1568.23 2278.26 1568.3 2278.36 1568.33 2278.42C1568.34 2278.44 1568.38 2278.48 1568.4 2278.49C1568.43 2278.51 1568.46 2278.57 1568.49 2278.6C1568.54 2278.66 1568.61 2278.68 1568.67 2278.72C1568.74 2278.78 1568.76 2278.84 1568.81 2278.91C1568.85 2278.96 1568.88 2279.07 1568.93 2279.1C1569.02 2279.15 1568.94 2279 1568.92 2278.95C1568.88 2278.89 1568.86 2278.79 1568.81 2278.74C1568.78 2278.71 1568.78 2278.66 1568.75 2278.63C1568.73 2278.62 1568.73 2278.6 1568.72 2278.59C1568.71 2278.58 1568.68 2278.58 1568.66 2278.57C1568.6 2278.51 1568.51 2278.46 1568.45 2278.39C1568.43 2278.36 1568.4 2278.33 1568.38 2278.3C1568.35 2278.27 1568.29 2278.24 1568.27 2278.21C1568.23 2278.12 1568.27 2278.32 1568.3 2278.35C1568.36 2278.4 1568.41 2278.49 1568.46 2278.54C1568.51 2278.58 1568.54 2278.66 1568.6 2278.69C1568.6 2278.69 1568.53 2278.56 1568.51 2278.52C1568.45 2278.39 1568.59 2278.56 1568.61 2278.61C1568.62 2278.64 1568.68 2278.7 1568.67 2278.68C1568.63 2278.63 1568.61 2278.57 1568.57 2278.51C1568.51 2278.44 1568.48 2278.36 1568.42 2278.29C1568.38 2278.24 1568.28 2278.19 1568.26 2278.13" stroke="black" stroke-width="0.1" stroke-linecap="round"/>
<path d="M1565.98 2276.2C1565.97 2276.19 1565.94 2276.18 1565.94 2276.16C1565.94 2276.14 1565.92 2276.13 1565.91 2276.11C1565.9 2276.1 1565.88 2276.09 1565.87 2276.07C1565.85 2276.06 1565.83 2276.04 1565.81 2276.03C1565.79 2276.02 1565.77 2276.01 1565.75 2276C1565.75 2275.99 1565.7 2275.97 1565.71 2276C1565.72 2276.02 1565.74 2276.02 1565.76 2276.04C1565.77 2276.05 1565.79 2276.07 1565.8 2276.09C1565.82 2276.1 1565.84 2276.11 1565.85 2276.13C1565.87 2276.14 1565.89 2276.15 1565.9 2276.16C1565.92 2276.18 1565.93 2276.19 1565.95 2276.21C1565.95 2276.21 1565.96 2276.22 1565.96 2276.23C1565.97 2276.24 1565.98 2276.24 1565.99 2276.25C1565.99 2276.25 1566.01 2276.26 1566.02 2276.27C1566.03 2276.28 1566.03 2276.29 1566.04 2276.3C1566.05 2276.31 1566.05 2276.31 1566.05 2276.33C1566.06 2276.33 1566.07 2276.34 1566.07 2276.34C1566.08 2276.36 1566.09 2276.37 1566.11 2276.38C1566.12 2276.39 1566.15 2276.4 1566.16 2276.42" stroke="black" stroke-width="0.1" stroke-linecap="round"/>
<path d="M1565.24 2275.48C1565.2 2275.46 1565.16 2275.44 1565.12 2275.42C1565.1 2275.41 1565.08 2275.4 1565.06 2275.4C1565.04 2275.39 1565.03 2275.38 1565.02 2275.38C1565.02 2275.37 1565 2275.36 1565.01 2275.36C1565.02 2275.37 1565.03 2275.38 1565.04 2275.39C1565.06 2275.4 1565.08 2275.42 1565.09 2275.45C1565.1 2275.46 1565.12 2275.47 1565.13 2275.48C1565.14 2275.48 1565.16 2275.5 1565.17 2275.5C1565.18 2275.51 1565.2 2275.53 1565.21 2275.54C1565.23 2275.55 1565.23 2275.56 1565.24 2275.57C1565.25 2275.59 1565.27 2275.59 1565.28 2275.61C1565.29 2275.61 1565.3 2275.62 1565.31 2275.63C1565.32 2275.64 1565.3 2275.6 1565.3 2275.6C1565.29 2275.59 1565.28 2275.57 1565.26 2275.56C1565.23 2275.52 1565.17 2275.5 1565.12 2275.47C1565.1 2275.46 1565.07 2275.43 1565.04 2275.43" stroke="black" stroke-width="0.1" stroke-linecap="round"/>
<path d="M1566.5 2276.75C1566.48 2276.74 1566.45 2276.72 1566.44 2276.7C1566.44 2276.69 1566.43 2276.68 1566.43 2276.67C1566.43 2276.66 1566.42 2276.66 1566.42 2276.64" stroke="black" stroke-width="0.1" stroke-linecap="round"/>
<path d="M1566.45 2276.66C1566.45 2276.63 1566.44 2276.62 1566.42 2276.61C1566.41 2276.61 1566.4 2276.62 1566.39 2276.61C1566.38 2276.6 1566.37 2276.6 1566.36 2276.59C1566.35 2276.59 1566.34 2276.58 1566.33 2276.57C1566.32 2276.56 1566.31 2276.54 1566.3 2276.52C1566.29 2276.5 1566.27 2276.48 1566.24 2276.48C1566.23 2276.48 1566.2 2276.46 1566.22 2276.48C1566.22 2276.49 1566.24 2276.5 1566.25 2276.5C1566.26 2276.5 1566.27 2276.51 1566.28 2276.52C1566.3 2276.53 1566.3 2276.54 1566.3 2276.55C1566.32 2276.59 1566.35 2276.64 1566.39 2276.67" stroke="black" stroke-width="0.1" stroke-linecap="round"/>
<path d="M1568.51 2278.13C1568.49 2278.13 1568.48 2278.14 1568.47 2278.14C1568.46 2278.15 1568.45 2278.14 1568.44 2278.15C1568.42 2278.16 1568.4 2278.15 1568.37 2278.15C1568.33 2278.15 1568.29 2278.16 1568.24 2278.16C1568.21 2278.16 1568.18 2278.15 1568.16 2278.12C1568.13 2278.08 1568.08 2278.03 1568.05 2277.99" stroke="black" stroke-width="0.1" stroke-linecap="round"/>
<path d="M1565.78 2275.99C1565.8 2276.01 1565.81 2276.02 1565.81 2276.04C1565.82 2276.06 1565.83 2276.08 1565.84 2276.09C1565.85 2276.11 1565.86 2276.13 1565.87 2276.15C1565.88 2276.16 1565.89 2276.16 1565.9 2276.17C1565.91 2276.18 1565.93 2276.19 1565.94 2276.2C1565.95 2276.21 1565.96 2276.22 1565.97 2276.24C1565.99 2276.26 1566 2276.28 1566.02 2276.31C1566.03 2276.32 1566.05 2276.32 1566.06 2276.34C1566.06 2276.35 1566.07 2276.36 1566.08 2276.37C1566.09 2276.39 1566.11 2276.39 1566.12 2276.4C1566.13 2276.41 1566.14 2276.42 1566.15 2276.43C1566.16 2276.43 1566.19 2276.43 1566.2 2276.44C1566.2 2276.45 1566.22 2276.46 1566.23 2276.47C1566.24 2276.48 1566.25 2276.49 1566.26 2276.51C1566.26 2276.52 1566.27 2276.55 1566.29 2276.55" stroke="black" stroke-width="0.1" stroke-linecap="round"/>
<path d="M1565.77 2276.01C1565.75 2276.03 1565.74 2276.05 1565.75 2276.07C1565.76 2276.09 1565.78 2276.1 1565.79 2276.11C1565.82 2276.13 1565.85 2276.16 1565.87 2276.18C1565.88 2276.19 1565.89 2276.21 1565.9 2276.22C1565.92 2276.23 1565.93 2276.25 1565.95 2276.26C1565.96 2276.27 1565.97 2276.28 1565.99 2276.29C1566 2276.31 1566.03 2276.32 1566.05 2276.34" stroke="black" stroke-width="0.1" stroke-linecap="round"/>
<path d="M1565.59 2275.91C1565.6 2275.92 1565.61 2275.93 1565.62 2275.94C1565.63 2275.95 1565.65 2275.97 1565.66 2275.99C1565.67 2276.01 1565.7 2276.05 1565.73 2276.06" stroke="black" stroke-width="0.1" stroke-linecap="round"/>
<path d="M1575.43 1947C1575.26 1946.88 1575.2 1946.68 1575.06 1946.53C1574.94 1946.4 1574.86 1946.24 1574.75 1946.1C1574.66 1945.99 1574.56 1945.86 1574.49 1945.74C1574.45 1945.68 1574.38 1945.63 1574.36 1945.57C1574.33 1945.46 1574.1 1945.29 1574.01 1945.24" stroke="black" stroke-width="0.1" stroke-linecap="round"/>
<path d="M1560.55 1954.91C1560.68 1954.91 1560.83 1954.92 1560.95 1954.87C1560.98 1954.85 1561.05 1954.83 1561.07 1954.79C1561.08 1954.77 1561.12 1954.76 1561.11 1954.76C1561.06 1954.79 1560.98 1954.79 1560.93 1954.79" stroke="black" stroke-width="0.1" stroke-linecap="round"/>
<path d="M1560.75 1954.87C1560.86 1954.79 1561.02 1954.79 1561.13 1954.69C1561.23 1954.6 1561.37 1954.58 1561.48 1954.52C1561.53 1954.48 1561.6 1954.47 1561.65 1954.43C1561.69 1954.39 1561.74 1954.34 1561.8 1954.34C1561.81 1954.34 1561.87 1954.31 1561.85 1954.3C1561.78 1954.27 1561.7 1954.33 1561.63 1954.34C1561.59 1954.34 1561.55 1954.35 1561.5 1954.36C1561.47 1954.36 1561.46 1954.4 1561.43 1954.42C1561.37 1954.44 1561.33 1954.52 1561.26 1954.55C1561.23 1954.57 1561.13 1954.6 1561.11 1954.63C1561.09 1954.64 1561 1954.68 1560.97 1954.69C1560.93 1954.71 1560.85 1954.8 1560.92 1954.73C1561.01 1954.65 1561.21 1954.6 1561.33 1954.56C1561.4 1954.53 1561.46 1954.5 1561.52 1954.46C1561.55 1954.45 1561.72 1954.34 1561.66 1954.34C1561.54 1954.33 1561.23 1954.56 1561.32 1954.48C1561.43 1954.38 1561.61 1954.4 1561.72 1954.3C1561.94 1954.1 1562.25 1954.03 1562.49 1953.87C1562.69 1953.75 1562.88 1953.62 1563.08 1953.5C1563.31 1953.37 1563.55 1953.25 1563.77 1953.11C1563.94 1953 1564.15 1952.9 1564.33 1952.82C1564.53 1952.73 1564.72 1952.63 1564.91 1952.54C1565.13 1952.45 1565.32 1952.3 1565.52 1952.18C1565.69 1952.09 1565.85 1951.99 1566.01 1951.89C1566.06 1951.87 1566.15 1951.83 1566.18 1951.78" stroke="black" stroke-width="0.1" stroke-linecap="round"/>
<path d="M1561.52 1954.32C1561.56 1954.22 1561.63 1954.18 1561.73 1954.16C1561.8 1954.14 1561.89 1954.09 1561.96 1954.08C1562.04 1954.07 1562.1 1953.99 1562.17 1953.96C1562.26 1953.92 1562.35 1953.85 1562.45 1953.82" stroke="black" stroke-width="0.1" stroke-linecap="round"/>
<path d="M1561.56 1954.42C1561.63 1954.22 1561.75 1954.23 1561.91 1954.14C1562.01 1954.08 1562.12 1954 1562.22 1953.93C1562.32 1953.87 1562.5 1953.73 1562.61 1953.72C1562.76 1953.71 1562.98 1953.55 1563.09 1953.44C1563.22 1953.31 1563.4 1953.17 1563.57 1953.11C1563.7 1953.06 1563.81 1952.97 1563.93 1952.91C1564.02 1952.86 1564.12 1952.82 1564.21 1952.77C1564.4 1952.67 1564.64 1952.56 1564.81 1952.41C1564.92 1952.31 1565.06 1952.23 1565.19 1952.15C1565.32 1952.07 1565.48 1951.96 1565.62 1951.92" stroke="black" stroke-width="0.1" stroke-linecap="round"/>
<path d="M1561.9 1954.16C1561.92 1954.13 1561.98 1954.08 1561.94 1954.06" stroke="black" stroke-width="0.1" stroke-linecap="round"/>
<path d="M1561.8 1954.12C1561.9 1954.08 1561.93 1954.04 1562.01 1953.98C1562.03 1953.96 1562.13 1953.92 1562.17 1953.92C1562.27 1953.92 1562.37 1953.78 1562.45 1953.74C1562.67 1953.63 1562.88 1953.51 1563.09 1953.37C1563.23 1953.29 1563.34 1953.17 1563.48 1953.09C1563.63 1953.02 1563.77 1952.93 1563.91 1952.85C1564.09 1952.75 1564.28 1952.62 1564.46 1952.49C1564.65 1952.36 1564.88 1952.29 1565.07 1952.16" stroke="black" stroke-width="0.1" stroke-linecap="round"/>
<path d="M1562.12 1953.88C1562.39 1953.77 1562.61 1953.58 1562.87 1953.45C1563.1 1953.33 1563.27 1953.11 1563.5 1952.99C1563.62 1952.93 1563.76 1952.83 1563.87 1952.74C1563.97 1952.67 1564.07 1952.62 1564.17 1952.53C1564.27 1952.44 1564.41 1952.39 1564.52 1952.32C1564.64 1952.24 1564.72 1952.14 1564.85 1952.1" stroke="black" stroke-width="0.1" stroke-linecap="round"/>
<path d="M1562.67 1953.53C1562.8 1953.43 1562.93 1953.35 1563.07 1953.28C1563.12 1953.25 1563.15 1953.22 1563.2 1953.19C1563.24 1953.17 1563.37 1953.12 1563.39 1953.09C1563.4 1953.07 1563.52 1953.01 1563.54 1952.99C1563.6 1952.96 1563.69 1952.9 1563.72 1952.84C1563.78 1952.74 1563.95 1952.69 1564.05 1952.63C1564.16 1952.57 1564.28 1952.48 1564.38 1952.4C1564.44 1952.35 1564.53 1952.31 1564.59 1952.28C1564.67 1952.25 1564.75 1952.18 1564.82 1952.13C1564.9 1952.07 1564.99 1951.99 1565.09 1951.96C1565.18 1951.93 1565.25 1951.85 1565.34 1951.82C1565.48 1951.77 1565.6 1951.67 1565.72 1951.6" stroke="black" stroke-width="0.1" stroke-linecap="round"/>
<path d="M1573.91 1945.28C1573.78 1945.44 1573.58 1945.53 1573.44 1945.66C1573.32 1945.77 1573.19 1945.87 1573.08 1945.97C1572.83 1946.21 1572.52 1946.41 1572.25 1946.62C1572.11 1946.73 1571.94 1946.82 1571.8 1946.94C1571.67 1947.03 1571.53 1947.13 1571.4 1947.2C1571.33 1947.24 1571.25 1947.3 1571.2 1947.35C1571.13 1947.4 1571.03 1947.46 1570.98 1947.53C1570.88 1947.64 1570.71 1947.71 1570.6 1947.82C1570.55 1947.88 1570.45 1947.92 1570.38 1947.97C1570.31 1948.01 1570.24 1948.07 1570.16 1948.11C1570 1948.19 1569.85 1948.31 1569.73 1948.43C1569.65 1948.5 1569.57 1948.57 1569.5 1948.64C1569.43 1948.71 1569.34 1948.74 1569.28 1948.79C1569.13 1948.91 1568.94 1949 1568.8 1949.14C1568.69 1949.25 1568.52 1949.34 1568.39 1949.42C1568.26 1949.5 1568.14 1949.64 1567.99 1949.7C1567.68 1949.84 1567.46 1950.14 1567.16 1950.3C1567.03 1950.37 1566.87 1950.44 1566.77 1950.55C1566.67 1950.65 1566.56 1950.78 1566.43 1950.85C1566.28 1950.92 1566.14 1951.03 1566.02 1951.14C1565.96 1951.19 1565.89 1951.23 1565.83 1951.28C1565.77 1951.33 1565.7 1951.37 1565.63 1951.4C1565.56 1951.43 1565.48 1951.47 1565.43 1951.52C1565.37 1951.58 1565.25 1951.62 1565.21 1951.67C1565.17 1951.72 1565.08 1951.76 1565.02 1951.8C1564.94 1951.86 1564.86 1951.94 1564.77 1951.99C1564.6 1952.07 1564.45 1952.23 1564.29 1952.34C1564.15 1952.43 1563.99 1952.5 1563.86 1952.62C1563.75 1952.72 1563.62 1952.8 1563.49 1952.89C1563.42 1952.94 1563.37 1953.01 1563.3 1953.05C1563.2 1953.1 1563.08 1953.15 1563 1953.23C1562.86 1953.36 1562.7 1953.52 1562.53 1953.62C1562.47 1953.66 1562.39 1953.7 1562.34 1953.75C1562.28 1953.81 1562.17 1953.83 1562.11 1953.89C1562 1954 1561.82 1954.08 1561.78 1954.25C1561.76 1954.33 1561.93 1954.31 1561.97 1954.27C1561.98 1954.26 1562.04 1954.18 1562.01 1954.18C1561.95 1954.18 1561.91 1954.25 1561.86 1954.26C1561.82 1954.26 1561.94 1954.26 1561.98 1954.24C1562.03 1954.21 1562.09 1954.18 1562.15 1954.16C1562.24 1954.12 1562.36 1954.04 1562.43 1953.97C1562.48 1953.92 1562.58 1953.86 1562.64 1953.84C1562.73 1953.82 1562.82 1953.75 1562.9 1953.69C1563.07 1953.56 1563.26 1953.42 1563.47 1953.35C1563.58 1953.31 1563.66 1953.23 1563.76 1953.18C1563.84 1953.15 1563.68 1953.25 1563.66 1953.27C1563.58 1953.32 1563.5 1953.4 1563.42 1953.44C1563.39 1953.46 1563.09 1953.67 1563.11 1953.57C1563.14 1953.45 1563.24 1953.38 1563.31 1953.32C1563.41 1953.24 1563.52 1953.2 1563.62 1953.14C1563.67 1953.12 1563.73 1953.1 1563.78 1953.06C1563.8 1953.05 1563.85 1953.04 1563.83 1953.04C1563.81 1953.03 1563.82 1952.91 1563.83 1952.89C1563.96 1952.67 1564.2 1952.69 1564.38 1952.53C1564.47 1952.45 1564.62 1952.39 1564.7 1952.29C1564.72 1952.26 1564.72 1952.2 1564.71 1952.17C1564.71 1952.15 1564.63 1952.19 1564.62 1952.2C1564.48 1952.31 1564.31 1952.41 1564.16 1952.49C1564.08 1952.53 1564 1952.57 1563.93 1952.62C1563.86 1952.68 1563.8 1952.77 1563.73 1952.81C1563.65 1952.86 1563.58 1952.91 1563.5 1952.96C1563.33 1953.05 1563.84 1952.72 1564.03 1952.67C1564.11 1952.65 1564.32 1952.56 1564.37 1952.49C1564.4 1952.46 1564.47 1952.43 1564.51 1952.4C1564.53 1952.39 1564.56 1952.39 1564.53 1952.42C1564.46 1952.5 1564.37 1952.56 1564.3 1952.63C1564.15 1952.77 1564.01 1952.91 1563.84 1953.03C1563.8 1953.06 1563.78 1953.09 1563.73 1953.11C1563.63 1953.15 1563.9 1952.97 1563.99 1952.9C1564.22 1952.73 1564.49 1952.67 1564.73 1952.51C1564.8 1952.47 1564.87 1952.45 1564.94 1952.41C1565.13 1952.32 1564.9 1952.44 1564.84 1952.48C1564.7 1952.56 1564.54 1952.64 1564.39 1952.71C1564.34 1952.73 1564.36 1952.7 1564.38 1952.67C1564.43 1952.56 1564.5 1952.47 1564.57 1952.38C1564.58 1952.37 1564.67 1952.25 1564.67 1952.25C1564.7 1952.31 1564.57 1952.47 1564.53 1952.5C1564.51 1952.53 1564.28 1952.8 1564.4 1952.66C1564.5 1952.54 1564.64 1952.45 1564.78 1952.36C1564.8 1952.34 1564.93 1952.25 1564.85 1952.33C1564.78 1952.39 1564.7 1952.45 1564.61 1952.49C1564.6 1952.5 1564.52 1952.53 1564.56 1952.5C1564.77 1952.32 1564.27 1952.94 1564.09 1953.14C1563.97 1953.27 1563.85 1953.37 1563.7 1953.46C1563.54 1953.56 1563.75 1953.32 1563.78 1953.29C1564 1953.04 1564.29 1952.86 1564.57 1952.7C1564.72 1952.62 1564.57 1952.74 1564.53 1952.78C1564.28 1952.96 1564.01 1953.09 1563.74 1953.24C1563.74 1953.24 1563.63 1953.3 1563.65 1953.27C1563.69 1953.23 1563.78 1953.2 1563.82 1953.18C1563.95 1953.12 1564.08 1953.05 1564.22 1953C1564.44 1952.92 1564.67 1952.87 1564.9 1952.79C1565.04 1952.74 1564.81 1952.91 1564.78 1952.93C1564.67 1952.99 1564.53 1953.05 1564.41 1953.09C1564.31 1953.12 1564.55 1952.79 1564.56 1952.78C1564.76 1952.57 1564.99 1952.4 1565.23 1952.25C1565.27 1952.23 1565.54 1952.02 1565.46 1952.19C1565.31 1952.49 1565 1952.66 1564.74 1952.86C1564.47 1953.07 1565.26 1952.39 1565.55 1952.2C1565.61 1952.15 1565.59 1952.18 1565.53 1952.23C1565.36 1952.4 1565.17 1952.49 1564.96 1952.6C1564.82 1952.67 1564.69 1952.73 1564.56 1952.81C1564.35 1952.92 1564.97 1952.56 1565.17 1952.45C1565.2 1952.43 1565.49 1952.24 1565.52 1952.27C1565.55 1952.28 1565.24 1952.59 1565.21 1952.61C1565.11 1952.68 1564.99 1952.75 1564.87 1952.8C1564.81 1952.83 1564.79 1952.84 1564.85 1952.76C1565.12 1952.38 1565.58 1952.25 1565.98 1952.06C1566.03 1952.04 1566.08 1952.02 1566.13 1951.99C1566.15 1951.98 1565.98 1952.18 1565.95 1952.21C1565.91 1952.24 1565.49 1952.47 1565.47 1952.42C1565.42 1952.28 1565.68 1952.07 1565.77 1952.01C1565.86 1951.96 1565.96 1951.93 1566.05 1951.88C1566.09 1951.86 1566.14 1951.83 1566.09 1951.9C1566 1952.04 1565.87 1952.15 1565.75 1952.26C1565.7 1952.3 1565.66 1952.35 1565.61 1952.39C1565.59 1952.4 1565.56 1952.45 1565.56 1952.43C1565.55 1952.37 1565.78 1952.21 1565.83 1952.18C1565.9 1952.13 1565.97 1952.08 1566.04 1952.02C1566.05 1952.01 1566.14 1951.94 1566.07 1951.96C1565.93 1952.01 1565.79 1952.07 1565.65 1952.13C1565.64 1952.14 1565.59 1952.17 1565.62 1952.12C1565.67 1952.05 1565.75 1951.99 1565.84 1951.94C1565.86 1951.93 1566.02 1951.86 1566.04 1951.87C1566.04 1951.87 1565.86 1951.96 1565.83 1951.97C1565.77 1951.99 1565.71 1952.01 1565.65 1952.04C1565.53 1952.09 1565.42 1952.13 1565.29 1952.18C1565.14 1952.24 1564.98 1952.31 1564.83 1952.38C1564.8 1952.4 1564.78 1952.38 1564.8 1952.34C1564.86 1952.25 1564.97 1952.19 1565.07 1952.14C1565.21 1952.06 1565.36 1951.97 1565.52 1951.92C1565.6 1951.9 1565.7 1951.86 1565.77 1951.81C1565.8 1951.79 1565.97 1951.68 1565.88 1951.78C1565.7 1951.98 1565.42 1952.09 1565.19 1952.2C1565.1 1952.24 1564.98 1952.34 1564.88 1952.34C1564.82 1952.34 1564.68 1952.32 1564.67 1952.24C1564.66 1952.05 1565.11 1951.93 1565.25 1951.88C1565.28 1951.86 1565.33 1951.82 1565.36 1951.8C1565.42 1951.76 1565.52 1951.73 1565.57 1951.68C1565.59 1951.65 1565.52 1951.71 1565.49 1951.72C1565.39 1951.76 1565.3 1951.81 1565.19 1951.83C1565.13 1951.84 1565.02 1951.86 1564.98 1951.91C1564.91 1952 1565.17 1951.81 1565.27 1951.76C1565.36 1951.71 1565.44 1951.63 1565.54 1951.58C1565.57 1951.57 1565.78 1951.42 1565.81 1951.45C1565.9 1951.54 1565.68 1951.74 1565.61 1951.79C1565.47 1951.9 1565.29 1951.98 1565.13 1952.07C1565.05 1952.13 1564.95 1952.18 1564.86 1952.22C1564.84 1952.23 1564.75 1952.27 1564.73 1952.29C1564.68 1952.36 1564.71 1952.23 1564.73 1952.2C1564.81 1952.11 1564.9 1952.06 1565 1952.01C1565.02 1952 1565.23 1951.9 1565.19 1951.97C1565.13 1952.1 1564.95 1952.16 1564.84 1952.23C1564.79 1952.26 1564.8 1952.22 1564.82 1952.19C1564.89 1952.11 1564.97 1952.06 1565.06 1952.01C1565.22 1951.92 1565.4 1951.87 1565.56 1951.79C1565.82 1951.66 1565.3 1952.2 1565.52 1951.84C1565.54 1951.8 1565.67 1951.62 1565.66 1951.65C1565.66 1951.69 1565.64 1951.72 1565.62 1951.75C1565.59 1951.81 1565.7 1951.65 1565.74 1951.61C1565.8 1951.54 1565.86 1951.52 1565.94 1951.48C1566.02 1951.45 1565.92 1951.54 1565.9 1951.55C1565.85 1951.59 1565.78 1951.64 1565.72 1951.66C1565.69 1951.68 1565.45 1951.77 1565.53 1951.64C1565.62 1951.52 1565.82 1951.49 1565.95 1951.45C1566.09 1951.4 1566.26 1951.4 1566.39 1951.34C1566.52 1951.26 1566.74 1951.25 1566.89 1951.21C1567.19 1951.14 1567.53 1951.1 1567.78 1950.93" stroke="black" stroke-width="0.1" stroke-linecap="round"/>
<path d="M1567.89 1950.79C1567.67 1950.83 1567.44 1950.86 1567.25 1950.98C1567.14 1951.06 1567.03 1951.15 1566.92 1951.23C1566.83 1951.29 1566.76 1951.39 1566.67 1951.44C1566.53 1951.53 1566.4 1951.63 1566.28 1951.74C1566.22 1951.79 1566.16 1951.86 1566.11 1951.93C1566.05 1952.01 1565.97 1952.07 1565.89 1952.13C1565.83 1952.18 1565.88 1952.16 1565.94 1952.16C1566.12 1952.13 1566.3 1952.06 1566.47 1952C1566.64 1951.95 1566.8 1951.87 1566.94 1951.77C1566.99 1951.74 1567.03 1951.69 1567.08 1951.65C1567.25 1951.5 1567.44 1951.36 1567.63 1951.23C1567.84 1951.1 1568.05 1950.97 1568.26 1950.85C1568.38 1950.78 1568.2 1950.89 1568.18 1950.9C1567.93 1951.03 1567.66 1951.14 1567.4 1951.23C1567.14 1951.33 1566.85 1951.38 1566.59 1951.48C1566.48 1951.53 1566.38 1951.59 1566.28 1951.65C1566.24 1951.68 1566.19 1951.7 1566.16 1951.73C1566.15 1951.74 1566.16 1951.74 1566.17 1951.74C1566.24 1951.73 1566.31 1951.7 1566.38 1951.68C1566.85 1951.55 1567.32 1951.4 1567.79 1951.25C1567.92 1951.21 1568.05 1951.17 1568.18 1951.12C1568.21 1951.1 1568.3 1951.05 1568.34 1951.06C1568.36 1951.06 1568.31 1951.1 1568.29 1951.11C1568.21 1951.19 1568.11 1951.25 1568.01 1951.29C1567.63 1951.45 1567.22 1951.48 1566.82 1951.59C1566.79 1951.6 1566.82 1951.57 1566.8 1951.58C1566.74 1951.62 1566.71 1951.68 1566.66 1951.72C1566.63 1951.75 1566.63 1951.76 1566.58 1951.76C1566.46 1951.76 1566.34 1951.76 1566.22 1951.76C1566.14 1951.76 1566.02 1951.74 1565.94 1951.76C1565.89 1951.78 1565.84 1951.77 1565.8 1951.79C1565.74 1951.81 1565.81 1951.71 1565.82 1951.7C1565.87 1951.66 1565.94 1951.63 1565.99 1951.6C1566.06 1951.56 1566.12 1951.51 1566.19 1951.46C1566.3 1951.36 1566.43 1951.27 1566.55 1951.18C1566.74 1951.05 1566.92 1950.92 1567.11 1950.79C1567.32 1950.65 1567.55 1950.53 1567.77 1950.41C1568.01 1950.27 1568.24 1950.12 1568.47 1949.98C1568.66 1949.86 1568.86 1949.74 1569.04 1949.6C1569.22 1949.46 1569.4 1949.31 1569.6 1949.19C1569.84 1949.05 1570.07 1948.89 1570.29 1948.73C1570.5 1948.57 1570.72 1948.43 1570.93 1948.29C1571.1 1948.18 1571.28 1948.09 1571.44 1947.98C1571.65 1947.84 1571.86 1947.7 1572.08 1947.57C1572.4 1947.38 1572.71 1947.14 1573.01 1946.92C1573.08 1946.87 1573.3 1946.71 1573.22 1946.75C1573.18 1946.78 1573.14 1946.83 1573.1 1946.86C1572.98 1946.96 1572.82 1947.03 1572.69 1947.11C1572.53 1947.21 1572.37 1947.31 1572.21 1947.4C1571.98 1947.52 1571.76 1947.65 1571.54 1947.77C1571.25 1947.94 1570.95 1948.09 1570.67 1948.27C1570.52 1948.36 1570.39 1948.49 1570.24 1948.59C1570.09 1948.7 1569.96 1948.82 1569.81 1948.92C1569.7 1949 1569.59 1949.07 1569.48 1949.15C1569.37 1949.22 1569.26 1949.28 1569.15 1949.36C1569.02 1949.46 1568.86 1949.55 1568.73 1949.66C1568.63 1949.74 1568.53 1949.82 1568.44 1949.89C1568.36 1949.95 1568.29 1949.99 1568.22 1950.05C1568.14 1950.11 1568.06 1950.16 1567.97 1950.22C1567.86 1950.29 1567.74 1950.35 1567.63 1950.43C1567.49 1950.53 1567.32 1950.57 1567.15 1950.62C1566.95 1950.68 1566.75 1950.74 1566.57 1950.84C1566.48 1950.89 1566.39 1950.98 1566.31 1951.05C1566.27 1951.09 1566.21 1951.12 1566.17 1951.16C1566.14 1951.21 1566.07 1951.22 1566.02 1951.25C1565.98 1951.29 1565.93 1951.32 1565.89 1951.37C1565.86 1951.41 1565.84 1951.46 1565.81 1951.5C1565.78 1951.53 1565.71 1951.6 1565.73 1951.51" stroke="black" stroke-width="0.3" stroke-linecap="round"/>
<path d="M1566.94 1950.71C1567.02 1950.6 1567.13 1950.53 1567.26 1950.47C1567.36 1950.43 1567.49 1950.39 1567.57 1950.31C1567.7 1950.2 1567.87 1950.15 1568 1950.05C1568.22 1949.88 1568.47 1949.77 1568.69 1949.61C1568.93 1949.43 1569.17 1949.25 1569.41 1949.07C1569.56 1948.96 1569.69 1948.82 1569.82 1948.69C1569.91 1948.6 1570.04 1948.58 1570.14 1948.51C1570.25 1948.44 1570.37 1948.38 1570.49 1948.31C1570.68 1948.19 1570.88 1948.08 1571.07 1947.95C1571.19 1947.87 1571.31 1947.8 1571.44 1947.73C1571.52 1947.68 1571.6 1947.63 1571.68 1947.57C1571.83 1947.47 1572 1947.36 1572.15 1947.24C1572.27 1947.15 1572.39 1947.05 1572.51 1946.94C1572.61 1946.86 1572.72 1946.78 1572.82 1946.7C1572.88 1946.65 1572.94 1946.59 1573 1946.54C1573.14 1946.43 1573.28 1946.32 1573.42 1946.2C1573.56 1946.08 1573.67 1945.96 1573.77 1945.8C1573.82 1945.73 1573.87 1945.67 1573.91 1945.59C1573.93 1945.54 1573.98 1945.51 1574.01 1945.46C1574.04 1945.4 1574.06 1945.44 1574.1 1945.48C1574.14 1945.51 1574.18 1945.56 1574.21 1945.6C1574.25 1945.68 1574.32 1945.73 1574.37 1945.8C1574.42 1945.88 1574.47 1945.96 1574.51 1946.05C1574.54 1946.11 1574.58 1946.15 1574.61 1946.2C1574.64 1946.24 1574.67 1946.27 1574.69 1946.31C1574.72 1946.38 1574.79 1946.43 1574.82 1946.5C1574.87 1946.59 1574.97 1946.65 1575.01 1946.75C1575.02 1946.79 1575.07 1946.83 1575.09 1946.87C1575.12 1946.91 1575.15 1946.95 1575.17 1946.99C1575.21 1947.07 1575.31 1947.13 1575.23 1947.21C1575.18 1947.25 1575.12 1947.28 1575.07 1947.31C1575.01 1947.35 1574.92 1947.37 1574.86 1947.4C1574.45 1947.55 1574 1947.61 1573.62 1947.85C1573.46 1947.94 1573.29 1948.02 1573.14 1948.13C1573 1948.21 1572.87 1948.31 1572.74 1948.41C1572.56 1948.53 1572.39 1948.67 1572.21 1948.8C1572.04 1948.92 1571.87 1949.04 1571.71 1949.17C1571.07 1949.67 1570.37 1950.11 1569.61 1950.41C1569.26 1950.55 1568.9 1950.65 1568.54 1950.76C1568.44 1950.79 1568.33 1950.8 1568.22 1950.83C1568.21 1950.83 1568.21 1950.83 1568.22 1950.81C1568.26 1950.75 1568.32 1950.7 1568.39 1950.66C1568.54 1950.57 1568.72 1950.53 1568.88 1950.45C1569.18 1950.31 1569.49 1950.18 1569.79 1950.04C1569.95 1949.97 1570.11 1949.88 1570.27 1949.8C1570.45 1949.71 1570.63 1949.62 1570.79 1949.51C1571.18 1949.25 1571.48 1948.88 1571.87 1948.62C1572.01 1948.53 1572.17 1948.48 1572.32 1948.4C1572.53 1948.29 1572.73 1948.15 1572.94 1948.02C1573.09 1947.94 1573.25 1947.85 1573.4 1947.76C1573.51 1947.7 1573.62 1947.63 1573.74 1947.6C1573.84 1947.57 1573.93 1947.51 1574.04 1947.51C1574.11 1947.51 1574.09 1947.65 1574.09 1947.69C1574.09 1947.71 1574.09 1947.74 1574.09 1947.77C1574.09 1947.8 1574.07 1947.81 1574.06 1947.84C1574.05 1947.87 1574.02 1947.88 1574 1947.91C1573.97 1947.95 1573.94 1948 1573.89 1948.03C1573.84 1948.07 1573.78 1948.07 1573.71 1948.09C1573.49 1948.17 1573.26 1948.22 1573.05 1948.33C1572.58 1948.59 1572.1 1948.85 1571.66 1949.14C1571.55 1949.21 1571.44 1949.28 1571.34 1949.35C1571.32 1949.37 1571.26 1949.42 1571.26 1949.36C1571.24 1949.23 1571.36 1949.11 1571.45 1949.03C1571.55 1948.95 1571.66 1948.9 1571.77 1948.84C1571.86 1948.79 1571.94 1948.76 1572.03 1948.73C1572.11 1948.72 1571.99 1948.81 1571.98 1948.83C1571.85 1948.93 1571.71 1949.02 1571.56 1949.1C1571.43 1949.17 1571.31 1949.28 1571.16 1949.32C1571.1 1949.35 1571.03 1949.35 1570.97 1949.36C1570.78 1949.41 1570.59 1949.44 1570.4 1949.49C1569.95 1949.63 1569.53 1949.84 1569.13 1950.08C1568.85 1950.26 1568.56 1950.49 1568.23 1950.58C1568.07 1950.62 1567.91 1950.68 1567.75 1950.72C1567.68 1950.74 1567.61 1950.78 1567.55 1950.83C1567.54 1950.83 1567.51 1950.86 1567.51 1950.86C1567.58 1950.84 1567.65 1950.82 1567.71 1950.81C1567.75 1950.8 1567.8 1950.8 1567.84 1950.81C1567.96 1950.84 1568.35 1950.91 1568.23 1950.86C1568.09 1950.79 1567.94 1950.76 1567.8 1950.7C1567.76 1950.68 1567.72 1950.67 1567.74 1950.62C1567.77 1950.56 1567.83 1950.51 1567.88 1950.47C1568.04 1950.36 1568.21 1950.27 1568.39 1950.19C1568.87 1949.95 1569.34 1949.66 1569.78 1949.36C1569.79 1949.36 1569.8 1949.35 1569.8 1949.37C1569.79 1949.43 1569.73 1949.48 1569.69 1949.51C1569.56 1949.63 1569.41 1949.74 1569.27 1949.84C1569.17 1949.91 1569.08 1949.96 1568.97 1950.01C1568.93 1950.02 1568.91 1949.99 1568.94 1949.95C1568.97 1949.89 1569.05 1949.85 1569.09 1949.82C1569.24 1949.71 1569.4 1949.61 1569.55 1949.51C1569.75 1949.37 1569.96 1949.22 1570.12 1949.03C1570.36 1948.75 1570.61 1948.47 1570.91 1948.25C1571.12 1948.1 1571.33 1947.95 1571.55 1947.8C1571.7 1947.7 1571.84 1947.58 1572.01 1947.49C1572.04 1947.47 1572.07 1947.45 1572.1 1947.43C1572.15 1947.41 1572.14 1947.46 1572.14 1947.49C1572.14 1947.53 1572.12 1947.57 1572.1 1947.61C1572.06 1947.72 1572 1947.83 1571.93 1947.93C1571.78 1948.16 1571.6 1948.36 1571.42 1948.57C1571.22 1948.8 1571.02 1949 1570.78 1949.19C1570.48 1949.41 1570.21 1949.67 1569.89 1949.84C1569.88 1949.85 1569.76 1949.93 1569.75 1949.9C1569.75 1949.86 1569.79 1949.81 1569.81 1949.78C1569.88 1949.7 1569.96 1949.62 1570.03 1949.54C1570.18 1949.4 1570.33 1949.26 1570.49 1949.13C1570.74 1948.9 1571.03 1948.72 1571.31 1948.53C1571.41 1948.45 1571.52 1948.38 1571.61 1948.29C1571.68 1948.24 1571.73 1948.17 1571.79 1948.12C1571.81 1948.11 1571.8 1948.15 1571.79 1948.16C1571.75 1948.23 1571.68 1948.28 1571.62 1948.33C1571.4 1948.5 1571.14 1948.62 1570.89 1948.77C1570.61 1948.94 1570.32 1949.11 1570.04 1949.3C1569.96 1949.36 1569.87 1949.42 1569.77 1949.47C1569.72 1949.5 1569.66 1949.53 1569.61 1949.56C1569.51 1949.64 1569.61 1949.45 1569.63 1949.43C1569.77 1949.25 1569.97 1949.12 1570.14 1948.98C1570.39 1948.77 1570.63 1948.56 1570.9 1948.37C1571.07 1948.25 1571.24 1948.12 1571.43 1948.03C1571.49 1948.01 1571.52 1948.02 1571.48 1948.09C1571.39 1948.27 1571.21 1948.42 1571.06 1948.55C1570.81 1948.76 1570.53 1948.94 1570.26 1949.13C1570.25 1949.13 1570.08 1949.27 1570.06 1949.26C1570.04 1949.25 1570.04 1949.21 1570.05 1949.2C1570.06 1949.1 1570.18 1949 1570.25 1948.94C1570.5 1948.69 1570.8 1948.5 1571.09 1948.3C1571.13 1948.27 1571.18 1948.22 1571.23 1948.2C1571.25 1948.19 1571.21 1948.28 1571.2 1948.29C1571.1 1948.48 1570.94 1948.64 1570.78 1948.78C1570.37 1949.15 1569.93 1949.47 1569.46 1949.76C1569.12 1949.98 1568.76 1950.17 1568.39 1950.35C1568.33 1950.38 1568.28 1950.41 1568.22 1950.44C1568.21 1950.45 1568.18 1950.46 1568.17 1950.48C1568.17 1950.48 1568.16 1950.49 1568.17 1950.48C1568.28 1950.39 1568.41 1950.31 1568.53 1950.23C1568.8 1950.04 1569.08 1949.86 1569.36 1949.67C1569.71 1949.43 1570.05 1949.16 1570.37 1948.87C1570.59 1948.66 1570.83 1948.46 1571.09 1948.29C1571.23 1948.19 1571.39 1948.11 1571.54 1948.02C1571.7 1947.92 1571.87 1947.83 1572.04 1947.74C1572.18 1947.67 1572.33 1947.6 1572.48 1947.54C1572.53 1947.52 1572.46 1947.73 1572.46 1947.73C1572.39 1947.88 1572.26 1948.01 1572.14 1948.13C1571.97 1948.32 1571.78 1948.48 1571.59 1948.66C1571.52 1948.72 1571.44 1948.79 1571.38 1948.86C1571.37 1948.87 1571.31 1948.95 1571.34 1948.89C1571.38 1948.8 1571.44 1948.73 1571.5 1948.66C1571.68 1948.47 1571.88 1948.3 1572.08 1948.13C1572.47 1947.79 1572.87 1947.46 1573.27 1947.14C1573.31 1947.1 1573.35 1947.06 1573.39 1947.03C1573.41 1947.02 1573.44 1947 1573.46 1947.03C1573.48 1947.07 1573.45 1947.13 1573.44 1947.16C1573.37 1947.3 1573.26 1947.42 1573.14 1947.52C1573 1947.65 1572.84 1947.76 1572.7 1947.89C1572.65 1947.93 1572.64 1947.95 1572.67 1947.86C1572.72 1947.76 1572.8 1947.68 1572.88 1947.6C1573.02 1947.48 1573.17 1947.37 1573.33 1947.27C1573.4 1947.22 1573.48 1947.16 1573.56 1947.12C1573.6 1947.1 1573.57 1947.17 1573.57 1947.18C1573.54 1947.26 1573.48 1947.33 1573.43 1947.4C1573.32 1947.53 1573.19 1947.66 1573.05 1947.77C1572.87 1947.93 1572.68 1948.09 1572.5 1948.25C1572.49 1948.26 1572.45 1948.32 1572.44 1948.29C1572.4 1948.14 1572.53 1947.96 1572.6 1947.84C1572.73 1947.6 1572.9 1947.37 1573.06 1947.14C1573.07 1947.11 1573.08 1947.12 1573.07 1947.15C1573.05 1947.27 1572.95 1947.38 1572.88 1947.47C1572.69 1947.7 1572.47 1947.89 1572.27 1948.09C1572.26 1948.1 1572.19 1948.19 1572.21 1948.14C1572.22 1948.11 1572.25 1948.1 1572.27 1948.09C1572.32 1948.05 1572.38 1948 1572.43 1947.95C1572.59 1947.82 1572.71 1947.65 1572.82 1947.48C1572.88 1947.38 1573.02 1947.06 1572.99 1947.17C1572.89 1947.46 1572.67 1947.69 1572.48 1947.92C1572.36 1948.05 1572.24 1948.18 1572.11 1948.3C1572.03 1948.39 1572.08 1948.34 1572 1948.41C1571.99 1948.43 1571.95 1948.48 1571.95 1948.46C1571.94 1948.39 1571.97 1948.28 1571.99 1948.21C1572.04 1948.04 1572.11 1947.86 1572.2 1947.7C1572.28 1947.54 1572.4 1947.35 1572.53 1947.22C1572.57 1947.18 1572.56 1947.29 1572.56 1947.3C1572.56 1947.49 1572.53 1947.64 1572.48 1947.82C1572.46 1947.87 1572.41 1948.03 1572.43 1947.98C1572.46 1947.92 1572.47 1947.85 1572.5 1947.78C1572.56 1947.66 1572.63 1947.55 1572.69 1947.43C1572.82 1947.18 1572.99 1946.95 1573.16 1946.71C1573.2 1946.65 1573.25 1946.59 1573.28 1946.52C1573.29 1946.51 1573.28 1946.56 1573.28 1946.57C1573.27 1946.65 1573.24 1946.72 1573.21 1946.79C1573.15 1946.93 1573.08 1947.07 1573 1947.2C1572.99 1947.22 1572.93 1947.36 1572.91 1947.35C1572.79 1947.27 1572.99 1947.02 1573.03 1946.96C1573.17 1946.76 1573.35 1946.58 1573.5 1946.38C1573.5 1946.38 1573.59 1946.25 1573.59 1946.26C1573.63 1946.29 1573.46 1946.5 1573.44 1946.53C1573.41 1946.58 1573.37 1946.62 1573.34 1946.66C1573.3 1946.71 1573.25 1946.76 1573.23 1946.81C1573.22 1946.87 1573.35 1946.71 1573.37 1946.7C1573.48 1946.55 1573.61 1946.41 1573.73 1946.26C1573.78 1946.19 1573.84 1946.12 1573.87 1946.04C1573.9 1945.98 1573.92 1945.92 1573.94 1945.87C1573.95 1945.84 1573.97 1945.74 1574.01 1945.74C1574.06 1945.73 1574.13 1945.86 1574.15 1945.9C1574.27 1946.05 1574.37 1946.22 1574.45 1946.39C1574.48 1946.45 1574.53 1946.51 1574.57 1946.57C1574.62 1946.64 1574.65 1946.72 1574.69 1946.79C1574.74 1946.89 1574.81 1946.98 1574.88 1947.08C1574.9 1947.11 1574.92 1947.14 1574.94 1947.17C1574.94 1947.19 1574.95 1947.22 1574.97 1947.23C1574.98 1947.24 1574.95 1947.16 1574.95 1947.15C1574.87 1947.03 1574.76 1946.91 1574.65 1946.81C1574.51 1946.69 1574.36 1946.58 1574.2 1946.49C1574.11 1946.44 1574.01 1946.41 1573.96 1946.31C1573.92 1946.23 1573.91 1945.94 1573.94 1946.03C1574.01 1946.24 1574.08 1946.46 1574.17 1946.67C1574.22 1946.78 1574.28 1946.89 1574.34 1946.99C1574.4 1947.1 1574.45 1947.21 1574.53 1947.31C1574.55 1947.34 1574.59 1947.37 1574.61 1947.4C1574.63 1947.43 1574.65 1947.39 1574.65 1947.38C1574.69 1947.27 1574.68 1947.13 1574.64 1947.03C1574.57 1946.84 1574.49 1946.65 1574.39 1946.47C1574.35 1946.4 1574.33 1946.31 1574.28 1946.26C1574.26 1946.23 1574.23 1946.2 1574.22 1946.18C1574.19 1946.13 1574.16 1946.12 1574.12 1946.09C1574.07 1946.05 1573.98 1946.03 1573.92 1946.04C1573.84 1946.04 1573.77 1946.13 1573.72 1946.18C1573.63 1946.26 1573.53 1946.36 1573.49 1946.47C1573.44 1946.62 1573.53 1946.75 1573.64 1946.85C1573.7 1946.91 1573.78 1946.96 1573.83 1947.03C1573.87 1947.11 1573.92 1947.17 1573.97 1947.24C1574 1947.27 1574.02 1947.33 1574.06 1947.35C1574.12 1947.38 1574.23 1947.55 1574.27 1947.39C1574.29 1947.27 1574.26 1947.13 1574.22 1947.01C1574.17 1946.86 1574.11 1946.71 1574.06 1946.55C1574.01 1946.43 1573.94 1946.32 1573.84 1946.25C1573.8 1946.22 1573.69 1946.16 1573.67 1946.23C1573.61 1946.38 1573.63 1946.6 1573.69 1946.74C1573.75 1946.88 1573.81 1947.01 1573.91 1947.12C1573.91 1947.13 1573.95 1947.2 1573.97 1947.19C1574 1947.18 1574.01 1947.13 1574.01 1947.1C1574.03 1946.99 1574.03 1946.88 1574.02 1946.77C1574 1946.61 1573.93 1946.46 1573.87 1946.31C1573.85 1946.26 1573.84 1946.15 1573.81 1946.27C1573.75 1946.49 1573.73 1946.71 1573.73 1946.94C1573.73 1947.09 1573.69 1947.2 1573.61 1947.33C1573.57 1947.4 1573.53 1947.47 1573.49 1947.53C1573.46 1947.61 1573.53 1947.42 1573.53 1947.41C1573.6 1947.26 1573.72 1947.13 1573.83 1947C1573.85 1946.98 1573.86 1946.98 1573.86 1947.01C1573.83 1947.13 1573.76 1947.24 1573.7 1947.34C1573.63 1947.49 1573.54 1947.63 1573.48 1947.79C1573.47 1947.82 1573.47 1947.83 1573.5 1947.79C1573.58 1947.7 1573.66 1947.61 1573.74 1947.52C1573.77 1947.49 1573.8 1947.46 1573.81 1947.43C1573.83 1947.41 1573.82 1947.41 1573.82 1947.44C1573.82 1947.58 1573.82 1947.72 1573.81 1947.87C1573.81 1947.9 1573.81 1947.94 1573.81 1947.97C1573.81 1947.97 1573.81 1948.02 1573.81 1948.02C1573.79 1948.01 1573.78 1947.9 1573.77 1947.89C1573.76 1947.8 1573.74 1947.72 1573.73 1947.63C1573.7 1947.49 1573.69 1947.35 1573.69 1947.2C1573.69 1947.1 1573.68 1947 1573.7 1946.9C1573.74 1946.73 1573.76 1946.56 1573.79 1946.39C1573.82 1946.18 1573.92 1945.98 1573.92 1945.76C1573.92 1945.72 1573.9 1945.46 1573.84 1945.49C1573.76 1945.54 1573.69 1945.59 1573.61 1945.64C1573.55 1945.69 1573.49 1945.74 1573.44 1945.8C1573.4 1945.85 1573.38 1945.92 1573.34 1945.97C1573.28 1946.06 1573.18 1946.11 1573.11 1946.18C1573.05 1946.24 1573 1946.31 1572.94 1946.37C1572.87 1946.44 1572.77 1946.5 1572.68 1946.56C1572.59 1946.62 1572.5 1946.7 1572.4 1946.76C1572.31 1946.82 1572.22 1946.9 1572.12 1946.96C1572.02 1947.02 1571.91 1947.1 1571.82 1947.18C1571.79 1947.22 1571.75 1947.26 1571.71 1947.28C1571.67 1947.31 1571.64 1947.35 1571.6 1947.37C1571.56 1947.39 1571.54 1947.42 1571.5 1947.43C1571.45 1947.46 1571.38 1947.49 1571.33 1947.51C1571.27 1947.52 1571.21 1947.57 1571.16 1947.61C1571.13 1947.64 1571.09 1947.67 1571.04 1947.69C1570.99 1947.73 1570.95 1947.77 1570.9 1947.81C1570.85 1947.84 1570.81 1947.9 1570.76 1947.92C1570.71 1947.94 1570.64 1948.01 1570.6 1948.05C1570.56 1948.09 1570.5 1948.12 1570.45 1948.17C1570.4 1948.23 1570.3 1948.27 1570.22 1948.29C1570.16 1948.32 1570.09 1948.38 1570.03 1948.41C1569.99 1948.44 1569.95 1948.47 1569.91 1948.49C1569.86 1948.52 1569.77 1948.56 1569.73 1948.62C1569.72 1948.65 1569.7 1948.68 1569.68 1948.7C1569.65 1948.73 1569.64 1948.78 1569.61 1948.8C1569.58 1948.83 1569.54 1948.85 1569.51 1948.88C1569.48 1948.9 1569.43 1948.91 1569.4 1948.93C1569.31 1948.99 1569.23 1949.05 1569.14 1949.11C1568.99 1949.21 1568.84 1949.29 1568.7 1949.39C1568.62 1949.44 1568.55 1949.51 1568.47 1949.55C1568.43 1949.58 1568.37 1949.63 1568.32 1949.66C1568.19 1949.76 1568.05 1949.84 1567.9 1949.93C1567.85 1949.96 1567.8 1950 1567.75 1950.04C1567.68 1950.09 1567.62 1950.15 1567.56 1950.22C1567.51 1950.27 1567.45 1950.31 1567.4 1950.36C1567.34 1950.42 1567.3 1950.49 1567.22 1950.52C1567.2 1950.52 1567.18 1950.56 1567.17 1950.56C1567.13 1950.56 1567.09 1950.59 1567.06 1950.61C1567.04 1950.64 1567 1950.65 1566.98 1950.66C1566.96 1950.67 1566.9 1950.72 1566.94 1950.7C1566.98 1950.68 1567.02 1950.67 1567.06 1950.65C1567.07 1950.64 1567.09 1950.6 1567.1 1950.58C1567.17 1950.52 1567.29 1950.52 1567.38 1950.48C1567.41 1950.47 1567.44 1950.47 1567.48 1950.45C1567.56 1950.43 1567.63 1950.39 1567.71 1950.37C1567.91 1950.31 1568.12 1950.26 1568.33 1950.24C1568.76 1950.19 1569.19 1950.07 1569.6 1949.94C1569.94 1949.83 1570.28 1949.71 1570.59 1949.54C1570.83 1949.4 1571.07 1949.28 1571.3 1949.12C1571.51 1948.96 1571.65 1948.74 1571.77 1948.5C1571.87 1948.31 1571.95 1948.1 1572.03 1947.9C1572.06 1947.83 1572.08 1947.74 1572.12 1947.67C1572.14 1947.63 1572.15 1947.56 1572.15 1947.52" stroke="black" stroke-width="0.3" stroke-linecap="round"/>
<path d="M1571.34 1947.42C1571.38 1947.36 1571.48 1947.32 1571.55 1947.29C1571.63 1947.26 1571.68 1947.21 1571.75 1947.17C1571.83 1947.12 1571.88 1947.03 1571.97 1946.97C1572 1946.95 1572.06 1946.93 1572.09 1946.9C1572.13 1946.87 1572.19 1946.85 1572.23 1946.82C1572.29 1946.76 1572.37 1946.7 1572.45 1946.65C1572.52 1946.6 1572.59 1946.54 1572.67 1946.49C1572.73 1946.46 1572.78 1946.38 1572.84 1946.35C1572.91 1946.31 1572.95 1946.23 1573.02 1946.22" stroke="black" stroke-width="0.3" stroke-linecap="round"/>
<path d="M1567 1950.54C1566.96 1950.55 1566.94 1950.58 1566.91 1950.6C1566.88 1950.61 1566.96 1950.61 1566.98 1950.61" stroke="black" stroke-width="0.3" stroke-linecap="round"/>
<path d="M1565.64 1951.57C1565.6 1951.56 1565.57 1951.56 1565.53 1951.57" stroke="black" stroke-width="0.3" stroke-linecap="round"/>
<path d="M1565.33 1951.68H1565.39" stroke="black" stroke-width="0.3" stroke-linecap="round"/>
<path d="M1570.45 1948.1C1570.42 1948.11 1570.4 1948.12 1570.36 1948.12" stroke="black" stroke-width="0.3" stroke-linecap="round"/>
</svg>
