<?xml version="1.0" encoding="UTF-8"?>
<svg id="Layer_2" data-name="Layer 2" xmlns="http://www.w3.org/2000/svg" xmlns:xlink="http://www.w3.org/1999/xlink" viewBox="0 0 233.38 175.26">
  <defs>
    <style>
      .cls-1 {
        fill-rule: evenodd;
      }

      .cls-1, .cls-2, .cls-3, .cls-4 {
        stroke-width: 0px;
      }

      .cls-1, .cls-4 {
        fill: #8f3b9d;
      }

      .cls-2, .cls-3 {
        fill: none;
      }

      .cls-5 {
        clip-path: url(#clippath-1);
      }

      .cls-3 {
        clip-rule: evenodd;
      }

      .cls-6 {
        clip-path: url(#clippath);
      }
    </style>
    <clipPath id="clippath">
      <rect class="cls-2" y="16.54" width="233.38" height="158.72"/>
    </clipPath>
    <clipPath id="clippath-1">
      <polyline class="cls-3" points="55.86 34.36 55.86 16.54 177.53 16.54 177.53 138.21 55.86 138.21 55.86 34.36"/>
    </clipPath>
  </defs>
  <g id="Layer_1-2" data-name="Layer 1">
    <g>
      <g class="cls-6">
        <path class="cls-1" d="m187.37,158.11s-5.23,8.18-26.88,7.54c-15.25-.51-24.57-7.54-28.93-7.81-5.71-.23-17.83-3.74-38.25,15.81,0,0-3.13,1.34-4.63-1.34,0,0,13.79-11.7,26.88-15.53,14.92-4.48,29.14-5.13,42.34-1.34,2.42.69,22.46,6.84,29.47,2.68"/>
        <path class="cls-1" d="m155.04,151.83s7.22-2.4,11.1-13.73c2.86-8.18,12.98-11.74,16.86-15.95,0,0-6.52,19.97-14.01,25.47,0,0,3.39.28,6.46-.65,3.12-.88,16.54-4.39,20.2-4.67,3.61-.18,7.86-4.35,9.16-4.99,0,0-2.8,12.67-25.7,17.2-3.34.69-10.88.14-14.76-.88-2.37-.6-4.9-1.11-9.32-1.8"/>
        <path class="cls-1" d="m180.36,143.23s2.32-10.45,4.2-18.31c1.83-8.28,9.21-14.05,11.1-19.14,0,0,.48,21.26-9.7,32.5,0,0,2.96,0,4.74-2.36,3.39-4.48,13.58-13.04,18.05-14.88,4.63-1.9,9.75-7.49,10.13-8.74,0,0,.27,24.45-38.52,30.93"/>
        <path class="cls-1" d="m200.35,121.5s0-8.69-2.53-18.44c-2.1-8.28,3.18-13.27,3.18-18.63,0,0,7.76,17.61,1.99,30.97,0,0,1.89-1.71,2.85-4.35,1.24-3.24,7.97-10.68,11.53-13.59,3.72-3,8.62-9.11,9.16-10.31,0,0-.43,3.79-2.8,10.03-.86,1.99-.86,9.48-12.98,17.01-12.12,7.53-10.4,7.3-10.4,7.3"/>
        <path class="cls-1" d="m227.44,61.59s6.03,19.19-16.91,36.89c0,0-.54-7.81-5.66-16.83-2.32-4.16-1.94-11.09-1.99-16.41,0,0,12.77,14.65,9.43,26.58,0,0,.22-2.17,2.1-4.85,1.99-3,2.96-11.19,7.76-15.72,3.39-3.28,4.74-7.86,4.96-9.15l.32-.51"/>
        <path class="cls-1" d="m214.41,36.22s15.08,15.81.86,40.26c0,0-5.12-7.77-12.93-15.21-1.78-1.66-5.28-9.57-7.27-15.21,0,0,15.84,7.12,18.53,22.88,0,0-.38-2.08.43-5.18.75-2.82-1.13-10.68-1.02-16.78,0-4.25,1.62-9.48,1.4-10.77"/>
        <path class="cls-1" d="m198.25,21.33s16,6.33,11.31,32.68c0,0-6.41-5.87-15.03-11-1.94-1.16-6.95-7.49-10.07-12.07,0,0,17.13,6.52,21.76,16.78,0,0-.54-2.5-.59-5.5,0-2.59-1.94-7.21-4.47-12.3-1.72-3.51-2.37-7.49-2.91-8.6"/>
        <path class="cls-1" d="m179.88,16.57s17.56,6.01,23,23.3c0,0-21.71-12.02-23-23.07v-.23"/>
        <path class="cls-1" d="m46.12,158.11s5.23,8.18,26.88,7.54c15.24-.51,24.56-7.54,28.93-7.81,5.76-.23,17.83-3.74,38.25,15.81,0,0,3.13,1.34,4.69-1.34,0,0-13.84-11.7-26.88-15.53-14.98-4.48-29.2-5.13-42.39-1.34-2.42.69-22.46,6.84-29.47,2.68"/>
        <path class="cls-1" d="m78.44,151.83s-7.22-2.4-11.1-13.73c-2.85-8.18-12.98-11.74-16.86-15.95,0,0,6.52,19.97,14.01,25.47,0,0-3.34.28-6.46-.65-3.13-.88-16.54-4.39-20.2-4.67-3.56-.18-7.87-4.35-9.16-4.99,0,0,2.8,12.67,25.7,17.2,3.45.69,10.88.14,14.76-.88,2.37-.6,4.9-1.11,9.32-1.8"/>
        <path class="cls-1" d="m53.12,143.23s-2.32-10.45-4.09-18.31c-1.94-8.28-9.27-14.05-11.2-19.14,0,0-.49,21.26,9.7,32.5,0,0-2.96,0-4.69-2.36-3.45-4.48-13.63-13.04-18.1-14.88-4.63-1.9-9.75-7.49-10.13-8.74,0,0-.27,24.45,38.52,30.93"/>
        <path class="cls-1" d="m33.25,121.5s0-8.69,2.42-18.44c2.1-8.28-3.18-13.27-3.18-18.63,0,0-7.7,17.61-1.94,30.97,0,0-1.94-1.71-2.91-4.35-1.24-3.24-7.97-10.68-11.53-13.59-3.72-3-8.67-9.11-9.16-10.31,0,0,.43,3.79,2.91,10.03.75,1.99.75,9.48,12.87,17.01,12.12,7.53,10.5,7.3,10.5,7.3"/>
        <path class="cls-1" d="m6.04,61.59S.01,80.78,23.01,98.48c0,0,.48-7.81,5.6-16.83,2.37-4.16,1.94-11.09,1.99-16.41,0,0-12.77,14.65-9.37,26.58,0,0-.27-2.17-2.15-4.85-1.99-3-2.91-11.19-7.76-15.72-3.39-3.28-4.74-7.86-4.9-9.15l-.38-.51"/>
        <path class="cls-1" d="m19.13,36.22s-15.19,15.81-.97,40.26c0,0,5.17-7.77,13.04-15.21,1.72-1.66,5.23-9.57,7.22-15.21,0,0-15.84,7.12-18.53,22.88,0,0,.38-2.08-.43-5.18-.75-2.82,1.13-10.68,1.13-16.78,0-4.25-1.72-9.48-1.45-10.77"/>
        <path class="cls-1" d="m35.24,21.33s-16,6.33-11.31,32.68c0,0,6.41-5.87,15.03-11,1.94-1.16,6.95-7.49,10.07-12.07,0,0-17.13,6.52-21.76,16.78,0,0,.54-2.5.59-5.5,0-2.59,1.99-7.21,4.47-12.3,1.72-3.51,2.37-7.49,2.91-8.6"/>
        <path class="cls-1" d="m53.61,16.57s-17.56,6.01-23,23.3c0,0,21.76-12.02,23-23.07v-.23"/>
      </g>
      <g class="cls-5">
        <path class="cls-4" d="m116.74,16.54c-33.57,0-60.89,27.32-60.89,60.89s27.32,60.89,60.89,60.89,60.89-27.31,60.89-60.89-27.31-60.89-60.89-60.89m36.18,42.96c-.12-1.27,1.99-.73,1.99-.73.42-1.39,1.63-.85,1.63-.85.06.66,1.99,2.66,3.56,3.26,1.57.6,2.17,1.59.78,2.27-1.39.67-.18,1.18-.18,1.18.84.66,1.69-1.39,1.63-2.66-.06-1.27-.67-1.51-1.69-2.24-1.03-.73-2.42-3.02-2.42-3.02,5.25,2.6,5.68,6.34,6.46,7.43.78,1.09.54,2.54,1.33.79s-2.3-2.36-.06-3.74c2.23-1.39,1.39-5.37,1.39-5.37.96,1.6,1.54,1.5,1.76,1.36.35.91.68,1.83.99,2.77-.27-.18-.52-.29-.7-.2-.48.24.24.85-1.21,1.15-1.45.3-.67,1.99-.67,1.99.54,3.2,3.87,3.32,3.87,3.32v4.53c-2.84.06-5.37-1.81-5.37-1.81-1.69-.48-1.45,2.17-1.45,2.17-4.83-4.71-6.22.42-5.68-4.22.54-4.64-6.64-.13-9.3,0s-1.39-1.75-1.39-1.75c3.02.48,2.96-4.71,3.26-4.35.3.36,1.57,0,1.45-1.27Zm-92.33,17.93c0-1.53.06-3.05.19-4.56,1.45,3.61,3.74,5.57,3.67,6.92-.12,2.29-.6,3.5,3.87,5.31,4.47,1.81,6.76,4.59,7.73,5.56.96.97,3.02,3.62,4.35,2.66,1.33-.97,4.59,2.9,2.9,4.47-1.69,1.57-.85,3.99-.85,3.99,0,0,2.66,9.06,8.45,10.63,5.8,1.57,4.83,3.62,4.83,3.62-.13,8.55,4.31,13.44,8.31,16.1-24.86-5.77-43.45-28.11-43.45-54.7Zm45.09,55.06c-1.06-.89-1.84-1.97-1.62-3.17.6-3.26,2.78-.24,2.78-2.05s-1.09-2.17-1.09-2.17c1.57-.36,2.42-2.05,3.5-2.9,1.09-.85,1.81-4.47,1.81-4.47,5.07.12,5.56-7,6.76-8.58,1.21-1.57,6.77-3.14,2.66-5.07-4.11-1.93-5.32-1.45-8.7-2.78-3.38-1.33-5.92-1.21-5.92-1.21.48-.36,1.09-4.83-3.26-5.32-4.35-.48-7.73-3.87-7.73-3.87-4.23.36-7-2.05-7-2.05-3.26-.12-4.71,3.26-4.71,3.26-2.05-1.33-3.74,0-3.74,0-1.57-.97-1.69-2.66-1.69-2.66,0-3.99-1.09-3.38-1.09-3.38-3.02,0-2.42-.97-2.42-.97-.12-1.57.85-4.59.85-4.59-1.81,0-2.78,1.45-2.78,1.45-3.99,5.07-5.8-5.68-3.87-8.33,1.93-2.66,4.23-.85,4.23-.85.36-.85,4.59-2.05,4.71,0,.12,2.05,2.05,4.47,2.05,4.47.36-2.32-.09-6.73-.09-6.73,4.89-2.99,4.17-4.89,4.17-4.89,1.54-5.89,5.8-5.16,5.8-5.16-.64-2.63,4.35-3.8,4.35-3.8-1.06,2.35,3.44-.09,3.44-.09,1.36-1.27-.54-.99-.54-.99-2.72.54-1.63-2.81-1.63-2.81-2.86-.22-4.23,1.16-4.65,1.69,1.96-2.79,4.11-3.05,4.11-3.05,4.87.27,6.05-.32,6.34-.63-.71,1.34-2.38,3.08,1.09,3.17,3.62.09,4.26-1.45,1.99-1.72-2.27-.27-1.63-1.27-1.63-1.27,2.35-3.71-2.9-5.25-2.81-5.53.09-.27-.09-5.8-1.09-4.17-1,1.63-3.08,1.63-3.08,1.63,0,0-.27-3.35-3.53-3.62-3.26-.27-2.72.73-2.72,2.81s2.08,1.9-.82,3.35c-2.9,1.45-2.54,2.9-2.99,4.53-.45,1.63-1.09.27-1.09.27.18-5.07-.82-4.53-.82-4.53-5.53-1.72-3.35-3.62-.54-6.7,2.81-3.08,5.53-1.54,5.53-1.54,2.63.36-.72-1.9,0-1.9s2.63-1.63,3.81-2.81c1.18-1.18-.36-1.45-2.27-.27s-.27-2.99-.27-2.99c-.91-.27-1.18,2.9-5.8,3.71-.69.12-1.25.17-1.71.17,9.57-7.57,21.65-12.09,34.77-12.09,11.55,0,22.29,3.51,31.22,9.51-.03.01-.06.02-.09.03-1.24.54-.75,1.15-.75,1.15.6,2.11,1.39,5.74.12,6.64-1.27.9-.6,1.69-.6,1.69,3.38,6.76,2.54,0,4.65,2.42,2.11,2.41.12,3.38,2.35,3.44,2.24.06,3.08-3.5,1.15-4.59-1.93-1.09-2.42-5.44-2.42-5.44.97-.48,1.09.3,1.09.3-.3.66.97,4.05,2.11,4.47,1.15.42,1.57.72,1.99,2.72.42,1.99.91,1.75.91,1.75.66,2.36-2.42,1.39-5.68,2.11-3.26.72-2.35,2.66-2.35,2.66h-1.09l-.6,1.51c-5.44,2.78-1.09,3.14-1.09,3.14,0,0,2.41,3.62-.52,3.74-2.94.12-3.71,1.81-3.95,4.11-.24,2.3,3.26,2.78,3.26,2.78l.69,1.33s-3.1,2.42-3.83,5.08c-.72,2.66-4.59,5.92-5.07,6.64-.48.73,1.21,4.47-.36,6.64-1.57,2.17,0,4.35,0,4.35,1.69.12,4.23,8.34,7.37,6.76.21-.1.42-.2.62-.29,2.82-1.25,4.82-1.04,4.82-1.04,3.87-1.69,4.23,1.45,4.23,1.45,2.54-.85,2.18,1.69,2.18,1.69-3.14,3.5-.24,3.26-1.33,8.09-1.09,4.83-4.23,4.95-4.47,8.7-.24,3.74-4.59,8.94-4.59,8.94,0,0,.22.47,1.09.44-8.9,5.92-19.57,9.38-31.04,9.38-3.79,0-7.49-.38-11.07-1.1Z"/>
        <path class="cls-4" d="m76.76,79.79s1.67-.24,4.34,1.69c2.67,1.93,3.63,0,3.63,0,0,0-5.92-3.7-7.97-1.69"/>
        <path class="cls-4" d="m85.7,82.75s.85,1.27,2.41.97c1.57-.3,2.36-.27,3.2.05,0,0-4.05-2.46-5.62-1.01"/>
        <path class="cls-4" d="m143.37,46.06c0,.95,1.49.91,1.09,2.81-.41,1.9.16,2.75.68,2.67,0,0,2.85-.36,3.4-1.18.54-.82,1.27-1.68-1.09-2.31-2.35-.63-2.44-3.89-2.9-4.39-.45-.5-1.86-.05-1.68-1.04.18-1-2.45.27-1.4,1.36,1.04,1.09,1.9,1.13,1.9,2.08"/>
        <path class="cls-4" d="m141.23,50.36c.38-.23,1.78-.41,1.88-1.99.09-1.59-.56-2.17-.94-2.17s-1.72,0-1.33,2.08l.39,2.08"/>
      </g>
      <g>
        <path class="cls-4" d="m61.97,32.02l-4.87-4.62.54-.57,5.75,1.31-.29.31-1.63-5.65.54-.57,4.87,4.61-.63.67-3.82-3.62.15-.16,1.4,4.98-.3.32-5.06-1.13.16-.17,3.82,3.62-.63.67Z"/>
        <path class="cls-4" d="m68.58,24.27l2.98-2.53.54.64-3.71,3.15-4.35-5.11,3.61-3.07.54.64-2.88,2.45,3.27,3.84Zm-2-2.21l2.63-2.24.53.62-2.63,2.24-.53-.62Z"/>
        <path class="cls-4" d="m73.32,21.41l-3.83-5.51,2.32-1.61c.59-.41,1.19-.65,1.8-.73.61-.08,1.18,0,1.72.24.54.24,1,.64,1.37,1.18.38.55.59,1.11.63,1.7s-.09,1.15-.37,1.7c-.29.54-.73,1.02-1.31,1.43l-2.32,1.61Zm.31-1.23l1.49-1.03c.46-.32.79-.68,1-1.08.21-.4.3-.83.27-1.27-.03-.44-.19-.86-.48-1.27-.29-.41-.63-.71-1.03-.9-.4-.18-.83-.24-1.28-.19-.45.06-.91.24-1.37.56l-1.49,1.03,2.87,4.14Z"/>
        <path class="cls-4" d="m79.96,17.01l-3.4-5.78.83-.49,3.4,5.78-.83.49Z"/>
        <path class="cls-4" d="m82.59,15.47l-3-6,.86-.43,3,6-.86.43Zm.03-1.83l-.56-1.03,1.65-5.21.98-.49-1.25,4.09-.21.77-.61,1.86Zm4.22-.3l-3.89-1.64.26-.92,4.64,2.06-1,.5Z"/>
        <path class="cls-4" d="m87.86,12.84l.43-7.35.89-.34,5.25,5.17-.94.36-4.75-4.79.36-.14-.31,6.73-.92.35Zm.61-2.03l-.03-.81,3.52-1.36.54.62-4.02,1.55Z"/>
        <path class="cls-4" d="m95.39,10.04l-1.8-6.46,2.52-.7c.57-.16,1.07-.2,1.52-.14.45.07.83.24,1.14.52.31.28.53.65.66,1.12.13.47.13.9.01,1.3-.12.39-.36.74-.71,1.03-.35.29-.81.51-1.38.67l-2.01.56.3-.54.67,2.39-.92.26Zm.28-2.56l-.54-.34,1.98-.55c.59-.16,1-.42,1.24-.76.23-.34.29-.74.16-1.2-.13-.46-.38-.78-.76-.94-.37-.17-.86-.17-1.45,0l-1.98.55.29-.58,1.07,3.82Zm4.04,1.35l-2.3-1.89.99-.28,2.32,1.88-1.01.28Z"/>
        <path class="cls-4" d="m102.12,8.25l-1.13-6.61,2.79-.48c.7-.12,1.35-.09,1.94.1.59.19,1.07.5,1.46.95.38.45.63,1,.75,1.65.11.66.06,1.26-.15,1.81-.21.55-.57,1.01-1.06,1.38-.49.37-1.09.61-1.79.74l-2.79.48Zm.8-.98l1.79-.31c.55-.09,1-.28,1.37-.56.36-.28.62-.62.78-1.03.16-.41.19-.86.11-1.36-.09-.5-.27-.91-.55-1.25s-.64-.57-1.08-.71c-.44-.14-.93-.16-1.48-.07l-1.79.31.85,4.97Z"/>
        <path class="cls-4" d="m110,7.07l-.63-6.68.95-.09.63,6.68-.95.09Z"/>
        <path class="cls-4" d="m112.02,6.81L114.88.02l.95-.02,3.22,6.63-1.01.03-2.87-6.1h.38s-2.56,6.23-2.56,6.23l-.99.02Zm1.25-1.71l.24-.77,3.77-.1.3.76-4.31.11Z"/>
        <path class="cls-4" d="m121.91,6.77l3.17-3.49-.08.73-2.24-3.9,1.09.11,1.78,3.07-.43-.04,2.37-2.64,1.04.11-2.98,3.29.07-.69,2.38,4.08-1.1-.11-1.89-3.27.42.04-2.5,2.81-1.1-.11Z"/>
        <path class="cls-4" d="m133.78,8.56l-1.32-7.21,1.01.24,1.21,6.65-.58-.14,4.09-5.39.93.22-4.41,5.85-.92-.22Z"/>
        <path class="cls-4" d="m138.58,9.84l1.99-6.41.92.28-1.99,6.41-.92-.28Z"/>
        <path class="cls-4" d="m141.48,10.73l2.46-6.24.73.29,2.11,6.75-.38-.15,2.02-5.13.89.35-2.46,6.24-.73-.29-2.11-6.75.38.15-2.02,5.13-.89-.35Z"/>
        <path class="cls-4" d="m148.71,13.76l2.92-6.04.86.42-2.92,6.04-.86-.42Z"/>
        <path class="cls-4" d="m151.44,15.03l3.41-5.78.68.4v5.9s-.35-.21-.35-.21l5.14-2.85.68.4-3.4,5.78-.79-.47,2.67-4.54.19.11-4.54,2.48-.38-.22-.03-5.18.21.12-2.68,4.53-.79-.47Z"/>
        <path class="cls-4" d="m158.39,19.2l6.46-3.54.76.57-1.59,7.2-.81-.6,1.54-6.56.31.23-5.87,3.31-.79-.59Zm2.04-.57l.67-.46,3.02,2.27-.24.78-3.45-2.59Z"/>
        <path class="cls-4" d="m165.97,25.21l1.72-1.91-.23.59,1.03-5.45.76.69-.88,4.59-.41-.37,4.49-1.33.7.64-5.31,1.59.55-.3-1.72,1.91-.7-.64Z"/>
        <path class="cls-4" d="m168.64,27.6l6.99-2.32.64.7-2.86,6.79-.68-.74,2.7-6.18.26.28-6.37,2.19-.67-.73Zm2.11-.19l.74-.33,2.56,2.77-.38.72-2.93-3.17Z"/>
        <path class="cls-4" d="m78.27,143.01l2.27-7.4.87.27,1.6,6.61-.47-.14,5-4.59.87.27-2.26,7.4-1.02-.31,1.77-5.81.24.07-4.43,4.01-.49-.15-1.43-5.81.26.08-1.78,5.8-1.01-.31Z"/>
        <path class="cls-4" d="m90.85,146.53l-1.65-8.3,1.17.26,1.51,7.65-.67-.15,4.63-6.29,1.08.24-4.99,6.82-1.07-.24Z"/>
        <path class="cls-4" d="m96.63,147.76l1.07-7.67.9.13,2.63,6.28-.48-.07,4.21-5.32.9.13-1.06,7.67-1.05-.15.83-6.02.25.04-3.73,4.66-.5-.07-2.33-5.51.27.04-.84,6.01-1.05-.15Z"/>
        <path class="cls-4" d="m110.58,149.39c-1.02-.06-1.8-.39-2.35-1.01-.55-.61-.79-1.48-.73-2.6l.25-4.4,1.1.06-.24,4.35c-.05.86.11,1.5.46,1.92.36.42.88.65,1.57.69.7.04,1.25-.13,1.65-.51s.63-1,.67-1.86l.24-4.35,1.07.06-.25,4.4c-.06,1.12-.4,1.95-1.01,2.5s-1.43.79-2.45.74Z"/>
        <path class="cls-4" d="m116.38,149.53l-.16-7.74.91-.02,5.25,6.25h-.48s-.13-6.35-.13-6.35l1.11-.02.16,7.74-.91.02-5.25-6.25h.48s.13,6.35.13,6.35l-1.11.02Z"/>
        <path class="cls-4" d="m128.54,140.7l-.34,2.29-.19-.63c.21-.02.4.03.55.15.15.12.24.29.26.51.02.22-.03.41-.16.56-.13.15-.29.24-.5.26-.21.02-.4-.03-.55-.16-.15-.13-.24-.3-.26-.51,0-.07,0-.14,0-.21,0-.07.02-.15.04-.24.02-.09.05-.21.09-.35l.37-1.59.69-.07Z"/>
        <path class="cls-4" d="m130.44,148.78l-.1-.75,2.72-3.44c.24-.3.42-.56.53-.78.11-.22.17-.42.2-.6.02-.18.03-.35,0-.51-.05-.39-.23-.69-.54-.88s-.73-.25-1.26-.18c-.41.06-.77.17-1.08.35-.31.18-.57.43-.77.75l-.83-.55c.24-.41.6-.75,1.06-1.02.47-.27,1-.44,1.59-.52.53-.07,1.01-.05,1.43.07.42.12.76.32,1.01.62.26.29.42.66.48,1.1.03.25.03.5,0,.75-.03.25-.12.52-.27.82-.15.3-.37.63-.67,1.02l-2.42,3.06-.32-.39,4.64-.63.13.95-5.51.74Z"/>
        <path class="cls-4" d="m140.17,147.35c-.59.12-1.15.07-1.68-.14-.53-.21-.98-.58-1.37-1.11s-.66-1.2-.82-2.03c-.16-.83-.16-1.55,0-2.19.16-.63.44-1.15.85-1.54.41-.4.91-.65,1.5-.77.59-.11,1.14-.07,1.67.15s.99.58,1.37,1.11c.38.53.65,1.2.81,2.03.16.82.16,1.55.01,2.18-.15.63-.44,1.14-.85,1.54-.41.4-.91.65-1.5.77Zm-.19-.97c.4-.08.73-.25.98-.53.26-.28.43-.65.51-1.11.08-.47.06-1.02-.06-1.67-.13-.64-.32-1.17-.57-1.57-.25-.4-.55-.68-.9-.84-.34-.16-.71-.2-1.11-.12-.4.08-.73.26-.99.53-.26.28-.43.65-.52,1.12-.08.47-.06,1.02.06,1.67.13.64.32,1.17.57,1.57s.56.68.9.84c.35.16.72.2,1.12.12Z"/>
        <path class="cls-4" d="m144.35,146.39l-.19-.73,2.29-3.73c.2-.33.35-.61.43-.84.08-.23.12-.43.13-.61,0-.18-.02-.35-.06-.51-.1-.39-.31-.65-.64-.81-.33-.15-.75-.16-1.27-.03-.4.1-.74.26-1.03.48-.29.22-.51.49-.68.83l-.89-.45c.19-.44.5-.82.93-1.14.43-.32.94-.56,1.51-.7.52-.13,1-.17,1.43-.1.43.07.79.23,1.08.49.29.26.49.6.6,1.03.06.24.09.49.09.74,0,.25-.06.53-.17.84s-.29.67-.54,1.09l-2.04,3.33-.37-.35,4.53-1.17.24.93-5.39,1.39Z"/>
        <path class="cls-4" d="m150.12,142.93l-.24-.74,2.22-6.04,1.14-.37-2.18,6.03h-.59s5.88-1.89,5.88-1.89l.29.91-6.52,2.1Zm4.68.49l-.58-1.81-.26-.92-.52-1.6.99-.32,1.39,4.32-1.02.33Z"/>
      </g>
    </g>
  </g>
</svg>