<?xml version="1.0" encoding="UTF-8"?>
<svg id="Layer_2" data-name="Layer 2" xmlns="http://www.w3.org/2000/svg" viewBox="0 0 450 450">
  <defs>
    <style>
      .cls-1 {
        fill: #231f20;
      }

      .cls-1, .cls-2 {
        stroke-width: 0px;
      }

      .cls-2 {
        fill: #a0005f;
      }
    </style>
  </defs>
  <g id="Layer_1-2" data-name="Layer 1">
    <g>
      <circle class="cls-1" cx="225" cy="225" r="225"/>
      <g>
        <path class="cls-2" d="m216.74,95.72c1.51,4.79,2.98,9.6,4.53,14.37,3.25,9.97,8.24,19.08,13.92,27.83,10.46,16.1,22.61,30.99,33.86,46.51,14.15,19.52,25.52,40.45,31.74,63.92.14.52.38,1.01.77,2.04,2.42-9.61,1.93-18.87,1.13-28.02-1.19-13.6-7.05-25.83-12.98-37.82-11.09-22.44-21.3-45.29-33.01-67.44-7.87-14.89-12.97-31.03-16.62-47.54-.19-.85-.17-1.74-.25-2.63,1.17-.07,1.37.84,1.72,1.43,18.36,30.9,39.86,59.76,58.84,90.25,10.66,17.11,19.69,35.17,22.18,55.44,3.53,28.73-1.23,55.83-18.32,80.07-17.32,24.58-41.08,38.1-70.59,42.07-3.78.51-7.54,1.4-12.26,1.2,4.5-4.21,6.99-8.91,9.38-13.77,2.08-4.24,2.55-8.63,3.27-13.1,2.2-13.6-1.32-25.94-8.13-37.52-9.22-15.66-19.53-30.65-28.14-46.69-7.3-13.59-11.11-28.13-13.19-43.27-1.94-14.1.99-27.83,3.02-41.62.69-4.68,1.57-9.32,2.63-13.96,1.32,8.99,2.57,17.88,5.39,26.56,7.17,22.06,19.78,40.73,36.25,56.55,15.99,15.36,28.13,32.95,36.34,53.41.69,1.72,1.37,3.5,2.84,5.05.96-1.12.44-2.28.39-3.39-.83-17.86-7.98-33.62-15.89-49.23-11.25-22.23-22.7-44.38-31.18-67.89-4.01-11.12-5.62-22.76-7.09-34.42-.76-6.05-1.36-12.12-.54-18.4Z"/>
        <path class="cls-2" d="m136.58,188.16c.32,3.79-.91,7.26-1.4,10.8-1.54,11.19-.39,21.92,3.29,32.7,6.62,19.4,19.39,32.93,37.46,41.9,3.17,1.58,6.33,3.18,9.55,4.65,1.02.46,2.31,1.66,3.29.41.74-.93-.32-2.06-.85-2.99-3.57-6.25-7.2-12.47-10.75-18.73-5.39-9.49-8.52-19.75-9.02-30.6-.45-9.58-.09-19.19.09-28.81,1.33,5.69,1.65,11.53,2.96,17.23,4.7,20.53,14.31,38.26,29.36,53.02,4.43,4.34,8.77,8.78,13.23,13.1,5.96,5.76,7.73,13.27,8.74,21.03,1.79,13.65-4.12,23.54-15.65,30.87-.3-.8-.65-1.55-.86-2.33-1.09-3.95-3.46-6.88-7.03-8.82-7.78-4.23-15.82-7.97-23.43-12.53-16.31-9.76-30.42-21.82-40.39-38.22-6.19-10.19-9.81-21-10.08-33.22-.38-17.33,4.94-33.13,10.89-48.92.06-.16.29-.26.61-.52Z"/>
        <path class="cls-2" d="m218.23,355.69c-5.55-1.64-10.38-.62-14.85,1.72-4.8,2.51-9.38,5.45-13.99,8.31-8.84,5.48-18.35,8.87-28.81,9.01-11.51.16-21.7-3.78-30.83-10.63-.83-.62-1.85-1.17-2.23-2.72,5.65,2.3,11.21,3.94,17.13,4.26,8.21.43,16.07-.78,23.73-3.87,10.06-4.05,20.11-8.2,30.96-9.79,7.88-1.15,15.69-.91,23.42,1.03,1.41.35,2.78.8,4.24.38,15.16-4.37,29.79-2.19,44.19,3.42,7.62,2.97,15.13,6.3,23.33,7.52,8.86,1.31,17.45.4,25.78-2.92.6-.24,1.16-.72,1.91-.33.46,1.02-.5,1.31-1.02,1.71-17.33,13.54-35.84,14.15-55.22,4.95-4.82-2.29-9.32-5.15-13.71-8.14-5.83-3.97-12.07-5.35-18.98-3.88.2,1.07,1.26,1.03,1.98,1.36,11.05,5.05,21.23,11.47,30.66,19.13,1.87,1.52,2.43,2.38.2,4.14-4.19,3.32-4.07,3.43-8.08-.25-8.76-8.04-17.95-15.49-28.64-20.93-2.78-1.42-5.19-1.39-7.85-.04-10.97,5.59-20.9,12.62-29.15,21.76-2.48,2.75-3.95,2.79-6.57.53-3.12-2.69-3.3-2.53-.16-5.22,9.16-7.83,19.22-14.24,30.19-19.22.68-.31,1.31-.72,2.38-1.31Z"/>
        <path class="cls-2" d="m322.93,332.31c.68.53,1.09.26,1.41.02,8.03-6.1,17.34-9.76,26.38-13.92,8.75-4.03,16.96-8.74,22.63-16.88.16-.22.55-.28.87-.44.67,1.61-.23,2.89-.78,4.13-6.26,14.11-17.4,23.19-30.94,29.75-9.35,4.53-19.66,5.08-29.59,7.21-2.45.53-4.92,1-8.4,1.7,9.83-8.1,13.54-18.69,17.25-29.24,3.25-9.24,8.19-17.4,14.64-24.71.48-.55.78-1.39,1.72-1.43.13.17.38.36.35.47-2.37,7.98-3.12,16.29-4.95,24.38-1.4,6.2-4.37,11.56-8.61,16.27-.73.81-1.71,1.45-1.98,2.69Zm-1.12,1.52c-.15-.12-.29-.32-.43-.33-.18-.01-.5.1-.54.22-.13.38.16.49.47.42.18-.04.33-.2.51-.31Z"/>
        <path class="cls-2" d="m144.69,344.2c-15.33-2.88-31.41-2.82-45.14-11.93-11.04-7.33-20.06-16.26-24.53-29.08.55-.47,1.09-.27,1.42.21,5.7,8.36,14.26,12.81,23.14,16.69,10.27,4.48,20.59,8.81,29.28,16.15.84-1,.33-1.58-.26-2.07-8.38-6.88-12.06-16.16-13.61-26.56-.92-6.22-2.1-12.39-4.13-18.42,6.98,7.1,12.9,14.85,16.45,24.22,1.49,3.93,3.07,7.83,4.53,11.77,2.74,7.39,7.38,13.49,12.79,19.08l.06-.06Z"/>
        <path class="cls-2" d="m99.61,304.73c-4.89-9.21-5.17-18.81-2.58-28.72,1.37-5.25,2.6-10.55,2.57-16.13,1.93,3.24,2.9,6.82,3.75,10.43,2.25,9.53,2.67,19.31,3.85,28.98.88,7.23,2.33,14.2,6.21,20.47.27.43.41.94.97,2.24-13.94-8.36-28.14-14.83-38.97-26.25-8.59-9.06-12.59-19.87-11.14-32.5.95,3.43,2.46,6.58,4.48,9.49,2.1,3.02,4.52,5.78,7.22,8.24,8.3,7.53,16.55,15.09,22.98,24.38.34.33.67.66,1.01.99.15.35.3.71.45,1.06.47-.49.25-.96-.04-1.43-.26-.42-.52-.83-.78-1.25Z"/>
        <path class="cls-2" d="m336.44,319.59c6.34-11.9,6.85-25.03,7.97-38.03.7-8.05,1.98-15.96,5.96-24.15.15,9.15,2.71,17.06,3.82,25.2.84,6.17.02,12.15-2.6,17.85-.45.97-1.23,1.83-1.14,3.27,1.3-.24,1.71-1.34,2.28-2.11,5.23-7.06,11.12-13.48,17.76-19.27,6.78-5.91,12.73-12.55,15.26-21.64,1.04,6.52.09,12.74-2.34,18.71-4.73,11.65-13.25,20.07-23.61,26.72-7.17,4.6-14.58,8.84-21.89,13.23-.44.27-.92.67-1.48.21h.02Zm13.53-15.5c-.2.12-.48.19-.52.34-.12.37.14.54.48.44.16-.05.34-.24.38-.4.02-.09-.21-.25-.33-.38Z"/>
        <path class="cls-2" d="m349.77,336.25c-1.57,4.09-4.84,6.8-8.06,9.43-13.65,11.15-29.28,14.48-46.49,11.61-10.38-1.73-20.54-4.56-31.19-5.94,1.42-1.26,3.17-1.25,4.7-1.62,8.22-2.03,15.51-5.65,21.83-11.42,7.04-6.42,14.06-12.9,21.91-18.36.94-.66,1.8-1.52,3.75-1.71-6.67,10.58-9.75,23.17-22.39,28.31-2.5,1.02-5.09,1.82-7.8,2.78.4.29.81.82,1.07.75,11.67-2.9,23.68-2.94,35.54-4.16,9.86-1.01,19.04-3.77,27.1-9.71l.02.02Z"/>
        <path class="cls-2" d="m101.03,337.94c8.02,5.97,17.27,8.15,27.01,9.11,11.72,1.15,23.58.84,35.31,3.34-7.17-2.57-13.74-5.79-18.28-12.2-4.3-6.06-7.28-12.9-11.59-19,1.42-.57,2.13.56,2.98,1.12,7.79,5.17,14.88,11.23,21.75,17.51,7.52,6.87,16.26,10.99,26.11,13.06.74.15,1.56.11,2.14,1-11.54,1.5-22.56,5.25-34.05,6.65-18.47,2.26-34.74-2.15-48.09-15.59-1.39-1.4-2.91-2.74-3.62-4.68.12-.1.24-.21.35-.32Z"/>
        <path class="cls-2" d="m359.19,286.75c1.51-8.9.14-16.79-2.92-24.61-4.12-10.54-6.95-21.48-8.05-32.8-.09-.88-.13-1.77-.12-2.65,0-.42.16-.84.44-2.19,3.6,9.55,10.21,16.37,14.49,24.61,2.78,5.34,3.65,11.04,3.02,17.07,1.4-.01,1.28-1.18,1.42-1.83,1.61-7.77,4.78-14.94,8.32-21.99,3.72-7.4,6.51-15.06,6.05-23.61,2.55,4.21,3.48,8.9,3.76,13.64.84,14.53-2.77,27.61-12.86,38.59-4.55,4.95-8.77,10.2-13.54,15.77Z"/>
        <path class="cls-2" d="m90.25,287.94c-5.54-7.82-13.38-13.57-18.35-21.55-8.82-14.16-10.29-29.42-4.98-45.28.17-.5.56-.93,1.08-1.77-1.13,7.03.32,13.28,3.2,19.11,5.27,10.64,10.41,21.28,12.47,33.13.18,1.03.48,2.19,1.75,3.18-4.15-12.25-.1-22.65,6.28-32.56,3.27-5.09,7.29-9.74,9-15.8.86,3.67.11,7.18-.3,10.7-1.22,10.42-4.48,20.32-7.9,30.14-2.36,6.77-3.2,13.54-2.25,20.71Z"/>
        <path class="cls-2" d="m364.42,180.91c2.5.61,3.15,2.43,4.14,3.78,10.34,14.01,12.16,29.1,5.37,45.14-2.49,5.89-4.58,11.9-6.19,18.26-3-10.95-10.68-18.71-17.54-26.97-5.67-6.83-9.85-14.34-11.51-23.26,6.49,7.46,15.51,12,21.88,19.56,2.59,3.08,4.02,6.76,5.37,10.62.24-.3.43-.43.42-.56-.3-10.65.29-21.24,1.34-31.84.49-4.96-.5-9.85-3.29-14.72Z"/>
        <path class="cls-2" d="m109.86,199.38c-1.25,8.14-4.58,15.27-9.58,21.66-3.01,3.84-5.99,7.7-8.95,11.58-3.91,5.11-7.18,10.57-9.2,16.88-2.06-9.39-7.48-17.5-9.68-26.7-3.49-14.55-.09-27.57,10.11-39.33.29,2.51-.89,4.18-1.25,5.99-1.36,6.93.09,13.7.96,20.5.82,6.4,1.43,12.75-.13,19.12-.13.52-.05,1.11,0,1.66.03.29.21.56.3.79.65.1.89-.2.99-.69,1.45-7.19,5.81-12.53,10.92-17.46,5.01-4.83,11.14-8.41,15.52-14Z"/>
        <path class="cls-2" d="m107.81,163.13c-6.52,5.03-8.52,11.57-10.07,18.33-1.39,6.11-2.8,12.22-5.68,17.84,1.15.79,1.55-.07,1.92-.66,3.36-5.29,8.24-8.88,13.39-12.22,6.02-3.91,12.41-7.43,16.14-14.06.53,2.29.3,3.89-1.07,7.07-2.61,6.04-6.81,10.88-11.8,15.02-2.98,2.47-6.16,4.7-9.31,6.96-5.43,3.88-10.38,8.23-14.4,13.82.93-10.88-2.48-21.73.46-32.57,2.35-8.66,12-18.39,20.42-19.53Z"/>
        <path class="cls-2" d="m324.44,171.78c4.99,6.12,11.69,9.99,18.27,14.06,4.71,2.91,8.79,6.57,12.56,10.79-4.92-11.81-3.92-25.98-14.73-35.46,3.96.78,7.25,2.69,10.25,5.17,7.73,6.38,11.71,14.46,11.68,24.61-.02,7.4-1.45,14.79-.23,22.33-6.88-9.73-17.48-14.87-26.35-22.08-5.43-4.42-9.16-9.86-11.12-16.56-.28-.95-.71-1.88-.3-2.89l-.03.03Z"/>
        <path class="cls-2" d="m308.43,147.59c20.25,4.25,34.25,15.1,38.29,36.47-3.71-2.13-7.11-4.81-10.36-7.63-3.42-2.97-6.79-6.05-9.9-9.35-3.03-3.22-5.73-6.74-8.52-10.18-2.8-3.46-6.45-6.06-9.52-9.3Z"/>
        <path class="cls-2" d="m101.52,185.88c2.58-12.66,7.59-23.73,19.75-30.1,4.98-2.6,10.09-4.86,16.55-6.43-12.06,13.18-21.48,27.53-36.35,36.49l.05.04Z"/>
        <path class="cls-2" d="m324.47,171.75c-.45.1-.54-.19-.52-.52,0-.12.18-.23.28-.35.07.3.15.6.22.9,0,0,.03-.03.03-.03Z"/>
        <path class="cls-2" d="m144.64,344.25c.26.09.52.17.79.26-.08.06-.15.17-.23.17-.34.03-.59-.06-.5-.49,0,0-.06.06-.06.06Z"/>
        <path class="cls-2" d="m101.47,185.83c-.08.03-.16.06-.24.08.09-.02.19-.03.28-.04,0,0-.05-.04-.05-.04Z"/>
        <path class="cls-2" d="m336.42,319.58c-.01.17-.02.33-.04.5-.1-.02-.21-.04-.31-.06.12-.14.24-.28.36-.43,0,0-.02-.01-.02-.01Z"/>
        <path class="cls-2" d="m349.75,336.22c.07-.17.15-.34.22-.5.09.1.19.2.28.3-.16.07-.32.15-.48.22,0,0-.02-.02-.02-.02Z"/>
        <path class="cls-2" d="m100.68,338.27c-.15-.12-.31-.25-.46-.37.29-.31.56-.22.81.05-.11.11-.23.21-.35.32Z"/>
        <path class="cls-2" d="m321.81,333.83c-.17.11-.33.27-.51.31-.31.07-.6-.04-.47-.42.04-.13.36-.24.54-.22.15,0,.28.21.43.33Z"/>
        <path class="cls-2" d="m99.61,304.73c.26.42.52.83.78,1.25-.14.12-.28.24-.41.37-.34-.33-.67-.66-1.01-.99.21-.21.43-.42.64-.63Z"/>
        <path class="cls-2" d="m100.38,305.98c.29.47.51.94.04,1.43-.15-.35-.3-.71-.45-1.06.13-.13.27-.25.41-.37Z"/>
        <path class="cls-2" d="m349.97,304.09c.12.13.36.29.33.38-.04.16-.22.35-.38.4-.34.1-.59-.07-.48-.44.05-.15.33-.22.52-.34Z"/>
      </g>
    </g>
  </g>
</svg>