<?xml version="1.0" encoding="UTF-8"?>
<svg id="Layer_2" data-name="Layer 2" xmlns="http://www.w3.org/2000/svg" viewBox="0 0 451 451">
  <defs>
    <style>
      .cls-1 {
        fill: #86298e;
      }

      .cls-1, .cls-2 {
        stroke-width: 0px;
      }

      .cls-2 {
        fill: #231f20;
      }
    </style>
  </defs>
  <g id="Layer_1-2" data-name="Layer 1">
    <g>
      <circle class="cls-2" cx="225.5" cy="225.5" r="225.5"/>
      <g>
        <path class="cls-1" d="m123.87,274.1c-.06-.4-.22-.72-.61-.88-.63-1.25-1.33-2.46-2.34-3.45,0,0,0,0,0,0-2.29-4.03-4.59-8.06-6.88-12.1,0,0-.03-.06-.03-.06-.11-.74-.4-1.38-.93-1.91,0,0-.03-.05-.03-.05-.11-.75-.37-1.43-.93-1.96,0,0,0,0,0,0-.47-1.56-1.03-3.08-1.89-4.48.02-.15-.02-.28-.14-.39-.52-1.67-.98-3.36-1.86-4.89,0,0,0,0,0,0-1.31-4.54-2.61-9.08-3.92-13.62-2.44-11.57-3.29-23.28-2.9-35.09.27-2.78.53-5.56.8-8.34.05-.65.11-1.3.16-1.95.51-.74.44-1.57.38-2.4.04-.33.08-.67.11-1,.61-.9.45-1.93.49-2.92,0,0,0,0,0,0,.59-.91.49-1.93.5-2.94,3.42-15.76,9.8-30.22,18.94-43.48,18.94-27.47,44.69-44.79,77.4-51.51,39.07-8.03,73.7,1.72,104.51,26.46,5.21,4.18,9.7,9.09,14.28,13.92.44.82,1.02,1.51,1.8,2.02,0,0-.02-.01-.02-.01.25.41.45.86.75,1.23,5.74,7.1,10.47,14.83,14.6,22.96,3.83,7.55,6.67,15.46,9.11,23.54,0,0,0,0,0,0,.04,1.38.41,2.68.95,3.94.04.31.09.62.13.93.2,1.17.25,2.37.83,3.45,0,0-.01,0-.01,0,.66,5.36,1.32,10.72,1.98,16.08.13,8.53.16,17.05-1.18,25.5-4.61,28.9-18.08,53.07-39.42,72.88-19.14,17.77-41.8,28.19-67.74,31.37-14.22,1.75-28.33,1.02-42.34-1.9-.47-.1-.97-.08-1.45-.12-1.69-.77-3.52-1.01-5.33-1.33-.32-.06-.64-.13-.96-.19-.75-.5-1.6-.7-2.48-.76-.31-.07-.62-.13-.93-.2-6.26-2.21-12.43-4.68-18.51-7.33,0,0,0,.02,0,.02-4.55-2.78-9.1-5.56-13.65-8.35-.17-.13-.35-.26-.52-.4-3.41-2.61-6.81-5.22-10.22-7.83,0,0,0,.02,0,.02-.17-.16-.35-.32-.52-.48-.38-.63-.88-1.12-1.55-1.42-.61-.87-1.3-1.66-2.32-2.07-.15-.14-.3-.29-.45-.43-5.54-5.75-10.84-11.69-15.64-18.08Zm144.78-43.82c-.5.15-1.14.16-.96.98-1.66,1.36-3.6,2.23-6.13,2.92,3.32,1.26,5.41.06,6.12-2.92.32-.33.63-.67.95-1,.32-.04.63-.07.95-.11-.03-.07-.05-.13-.08-.2-.28.11-.57.22-.85.33Zm-58.95,38.09v.03c1.06.52,2.15.94,3.36.88.12.05.25.1.37.14l-.39-.12c-1.13-.98-2.26-1.96-3.38-2.95-.9-2.41-4.43-4-2.23-7.38,1.53-2.35,1.61-5.65,5.18-6.72-8.23-1.57-14.66-5.49-20.4-10.56-1.3-1.15-1.62-.86-2.52.15-2.26,2.54-4.57,5.05-6.99,7.44-3.32,3.29-3.4,3.27.14,6.18,7.76,6.39,16.66,10.47,26.39,12.84.14.19.29.3.48.06Zm18.48,10.68s-.09-.05-.14-.08c.05.02.11.04.16.05.32,4.69.6,9.38.43,14.09-.03.75-.5,2.02,1.18,1.57,4.07-1.12,8.34-.79,12.73-1.66-1.22-.75-2.15-1.43-3.28-1.91-2.79-1.19-4.56-5.15-3.59-7.67,1.02-2.66.53-3.32-2.44-3.35-1.75-.01-3.59.4-5.05-1.03Zm-6.36-93.61c-.26,2.03-1.76,3.03-3.38,3.82-2.17,1.06-4.06,2.24-5.98,3.91-3.43,2.97-3.54,6.29-3.72,9.98,1.01.32,2.23-.86,2.59.22.41,1.25,1.43,2.65.21,4.09-.86,1-1.33,2.2-1.56,3.51-.12.72-.37,1.42-1.21,1.67-.34.1-.93-.1-.89.52.02.26.29.58.53.74.58.39.87-.12,1.16-.49.64-.84,1.08-2.03,1.92-2.46,1.62-.82,2.24-1.85,2.05-3.63-.12-1.18.75-1.97,1.83-1.73,2.02.46,4.03.04,6.04.23,1.21.11,1.69.52,2.06,1.82.91,3.18-1.66,5.24-2.17,7.95-.4,2.13-2.29,2.74-4.28,2.92-1.06.09-2.23-.22-3.31.7,3.52,2.6,7.37,3.5,11.51,3.68,2.39.1,3.49-.79,3.93-3.18.69-3.76,1.45-4.22,5.24-4.11,2.47.07,5.56-3.6,4.38-5.71-1.04-1.86-1.18-3.78-1.77-5.65-.31-.99-.49-2.28-1.42-2.76-2.19-1.13-1.29-2.43-.4-3.71,1.35-1.95.19-4.54-.62-5.14-1.67-1.24-2.72-2.94-4.25-4.21-.59-.49-1.25-1.05-1.91-.93-2.53.47-4.07-1.01-5.61-2.57-.58-.75-1.46-1.4-1-2.53.62-1.54,2.09-.53,3.27-.93-1.33-1.19-2.73-1.11-3.91-.4-1.19.71.12,1.69.15,2.56.02.6-.07,1.32.5,1.81Zm-.47,109.2c.01.06.01.13.04.18.02.03.09.02.14.03-.06-.07-.13-.14-.19-.21-.02-5.1-.03-10.21-.08-15.31,0-.8.33-1.72-1.24-1.73-11.29-.08-21.66-3.46-31.37-9.02-2.53-1.45-4.97-3.06-7.73-4.76,1.37,3.2.85,4.87-1.8,4.8-4.32-.12-8.03,1.63-11.96,2.79-2.43.33-3.76-2.15-6.31-2.64,1.32,1.59,2.59,2.55,3.93,3.43,10.84,8.9,22.94,15.35,36.48,19.13,6.59,1.84,13.36,2.41,20.08,3.31Zm75.12-112.07c-.73,2.04-1.75,3.98-2.67,5.92-1.06,2.26-2.06,5.06-5.39,5.24-.92.05-1.11.77-1.04,1.6.24,2.76.72,3.2,3.66,3.22.88,0,1.76,0,2.93,0-1.46-3.8-.66-7.12,1.11-10.38.79-1.47,1.17-3.16,1.73-4.75.66-.5,1.03-1.7,2.09-1.28,1.1.44.42,1.56.56,2.37.3,1.7-1.12,3.32-.41,5,1.01,2.37,1.37,4.84,1.27,7.37-.05,1.41.47,1.8,1.84,1.74,3.49-.16,6.98-.14,10.47-.25,1.76-.05,4.01.61,5.12-.5.87-.87-.02-3.05-.37-4.62-.05-.23.01-.49,0-.73-.9-8.86-3.06-17.39-6.72-25.53-.55-1.23-1.1-1.83-2.55-1.21-1.22.52-2.22.27-2.98-1.15-2.82-5.22-7.87-7.89-12.77-10.64-1.38-.77-2.43-1.47-2.82-3.03-.21-.8-.67-1.4-1.63-1.59-3.9-.78-4.82-1.87-5.11-5.77-.16-2.14-.76-4.13-2.14-5.85-.95-1.18-2.1-1.68-3.35-.68-.98.78-2.57.64-2.15,3.22.79,4.77,4.95,7.64,5.84,12.16.05.25.71.33.98.59,1.5,1.46,3.12,2.91,3.72,4.96.71,2.43.9,2.63,3.23,1.62.72-.31,1.48-.89,2.25-.17.82.77.43,1.61.05,2.45-.19.42-.54.82-.32,1.35,3.05.24,3.08.26,1.37,3.09-.43.71-.56,1.35.32,1.46,1.85.24,2.67,1.14,3.27,2.95.54,1.63.96,3.16.4,4.7-.89,2.44-.6,4.75.21,7.1Zm-156.51-61.4c-4.77,5.26-9.02,10.79-12.81,16.67-11.74,18.21-18.28,38.07-19.12,59.78-.06,1.63.63,1.49,1.65,1.48,4.47-.03,8.94-.15,13.4-.03,2.26.06,3.45.38,3.47-2.99.05-7.94,1.76-15.74,4.14-23.36,4.26-13.68,11.04-25.96,20.68-36.58,1.22-1.34,1.5-2.08.03-3.18-.52-.39-.97-.87-1.42-1.33-3.33-3.42-6.87-6.64-10.02-10.45Zm193.46,77.42c0-.14,0-.29,0-.43,2.59,0,5.19.01,7.78,0,.79,0,1.63.14,1.51-1.22-.59-6.7-1.23-13.39-2.68-19.98-4.56-20.69-14.59-38.52-28.23-54.52-1.45-1.7-2.15-1.93-3.72-.06-3.43,4.08-6.91,8.16-11.3,11.29-.49.35-.47.51-.19.87.54.7,1.02,1.47,1.64,2.1,7.27,7.35,14.1,14.82,17.82,24.94,4.32,11.73,8.12,23.43,8.58,36.01.02.67-.11,1.13.99,1.06,2.58-.17,5.19-.05,7.78-.05Zm-8.96,6.82c.06.77.18,1.42.14,2.05-.47,6.55-1.42,13.03-3.14,19.36-4.23,15.6-11.32,29.66-22.63,41.39-.67.69-.75,1.07.01,1.7,4.53,3.71,8.41,8.09,12.5,12.25,5.94-6.14,14.11-17.97,18.28-26.05,7.99-15.45,12.33-31.83,13.17-49.19.07-1.43-.24-1.53-1.42-1.52-5.59.05-11.19.02-16.91.02Zm-103.18,114.01c0-4.5,0-9.09,0-13.69,0-1.38.52-3.09-.11-4.05-.72-1.1-2.61-.42-3.97-.55-22.37-2.07-42.12-10.1-58.65-25.55-.88-.82-1.39-.99-2.33,0-3.54,3.69-7.15,7.32-10.82,10.87-1.12,1.08-.76,1.68.21,2.45,2.23,1.75,4.4,3.6,6.67,5.3,20.53,15.4,43.46,24.24,69.01,25.22Zm-8.02-216.1c2.31.54,4.18-.66,6.19-.7,1.28-.02,1.33-.58,1.26-1.68-.31-5.02-.49-10.05-.06-15.07.12-1.37-.47-1.3-1.37-1.21-2.5.25-5.01.44-7.5.75-25.44,3.12-47.52,13.54-66.61,30.53-.8.71-.73.97.04,1.58,4.14,3.3,7.86,7.03,11.35,11,.75.85,1.22,1.13,2.25.16,9.38-8.71,20.05-15.38,32.03-19.91,7.31-2.77,14.82-4.7,22.41-5.44Zm80.81,169.64c-4.08,4.69-8.06,7.81-12.25,10.54-3.9,2.54-7.72,4.83-10.11,9.14-2.22,4-5.99,6.6-9.7,9.29-3.92,2.84-5.22,3.59-10.19-.46-.75-.61-1.57-1.15-2.37-1.7-.99-.67-2.08-.85-3.25-.64-5.5,1.01-10.98,2.15-16.62,1.89-.87-.04-1.1.22-1.05,1.09.27,5.44.24,10.88.04,16.32-.02.7-.07,1.11,1.01,1.01,6.7-.63,13.41-1.22,20.01-2.63,21.13-4.5,39.51-14.37,55.67-28.58,1.27-1.12,1.4-1.65.15-2.94-3.83-3.96-7.48-8.1-11.35-12.34Zm10.84-156.71c-.24-.7-.97-1.13-1.55-1.66-9.62-8.78-20.43-15.7-32.42-20.78-13.29-5.62-27.22-8.36-41.55-9.41-1.35-.1-1.25.43-1.23,1.32.07,3.25.09,6.49.15,9.74.04,1.8-.73,3.89,1.74,4.88.32.13.58.83.58,1.27,0,1.08.43,1.23,1.46,1.28,11.83.6,22.98,3.83,33.63,8.91,2.62,1.25,5.06,3.4,8.24,1.41.18-.11.48,0,.72-.02,6.98-.62,11.25,3.78,15.43,8.33.42.46.73,1.12.85,1.73.38,1.86,1.56,3.12,3.01,4.32,3.02-4.39,6.69-8.1,10.95-11.32Zm-147.38,22.51c-.68.92-1.16,1.65-1.73,2.31-14.08,16.21-20.96,35.34-22.94,56.47-.12,1.31.35,1.53,1.44,1.51,3.81-.08,7.63-.05,11.44-.21,1.54-.06,3.61.51,4.46-.17,1.07-.86.26-3.02.44-4.61.08-.71.35-1.4.45-2.12,2.11-14.92,7.94-28.15,18.02-39.42.72-.8.98-1.26.02-2.1-4.07-3.61-7.95-7.4-11.61-11.65Zm-28.12,89.13c-1.47-7.34-2.93-14.07-2.81-20.99.01-.86-.4-1.03-1.22-1.02-5.28.05-10.55.05-15.83,0-1.3-.01-1.69.46-1.6,1.73.75,10.56,2.73,20.87,5.88,30.99,5.04,16.16,13.83,30.14,24.52,43.07.94,1.14,1.41,1.08,2.38.07,3.7-3.87,7.48-7.66,11.26-11.45.37-.37.85-.66.28-1.12-2.08-1.68-3.23-4.37-5.7-5.57-2.52-1.23-4.44-2.83-4.98-5.78-.96.64-1.9,1.25-2.81.56-1.46-1.11-3.13-2.08-3.77-3.99-.26-.77-.43-1.67-1.27-1.97-2.58-.94-4.95-2.15-6.49-4.54-.38-.59-.78-.41-1.19-.08-1.54,1.23-2.45.19-3.44-.88-.63-.68-1.06-1.98-2.14-1.71-1.52.38-1.98-.66-2.39-1.5-1.79-3.66-3.22-7.39-2.06-11.63.92-3.35,2.3-4.2,5.84-3.37.75.18,1.44.16,1.99-.83,1.24-2.26,3.44-2.38,5.55,0Zm45.33-81.28c.19-.13.4-.24.58-.4,12.66-11.5,27.55-17.74,44.59-18.86,1.38-.09,1.42-.75,1.3-1.7-.56-4.53-.52-9.08-.28-13.62.11-2.02-.64-2.32-2.35-2.13-5.32.59-10.61,1.34-15.82,2.6-15.07,3.66-28.08,11.2-39.92,20.99-1.1.91-.42,1.23.24,1.74,4.29,3.37,7.85,7.48,11.67,11.37Zm143.29,58.74c-5.58,0-11.17.04-16.76-.03-1.15-.01-.9.69-.89,1.26.04,2.45-.33,4.85-.77,7.24-.29,1.6-.34,3.01,1.31,4.01.82.5,1.07,1.4.7,2.37-.43,1.09-1.31,1.51-2.35,1.19-1.02-.31-1.28.14-1.5.95-.21.78-.51,1.54-.76,2.31-3.27,9.97-7.87,19.19-15.29,26.78-.54.55-.62.82-.04,1.31,1.52,1.27,2.84,2.78,4.65,3.8.37-1.03.19-2.29,1.58-2.29,1.16,0,1.92.71,2.56,1.61,1.78,2.48,2.01,5.52,3.11,8.54,15.54-16.69,22.92-36.52,24.45-59.05Zm-51.47-65.7c-1.33-2.33.26-4.68-1.79-6.27-.55-.43-.98-1.32-.26-1.92.77-.65,1.34.13,1.81.66,1.35,1.52,2.69,3.04,3.96,4.63.74.93,1.88,1.03,2.62.7.68-.3.19-1.46.07-2.21-.17-1.03-1.65-1.86-1.13-2.81,1.3-2.37-.11-3.62-1.58-4.98-.43-.39-.76-.87-.75-1.48.07-4.18-2.93-6.38-6-7.79-10.79-4.93-22.13-7.92-34.06-8.38-1.04-.04-1.16.09-1.16,1.04.02,4.96,0,9.91-.08,14.87-.02,1.09.2,1.5,1.44,1.59,13.11.91,25.3,4.7,36.91,12.36Zm-8.29,23.85c4.01-4.14,7.73-8.65,12.56-12.13-1.1-.86-2.24-1.73-3.37-2.63-11.07-8.8-23.88-13.17-37.76-14.8-.55-.06-1.5-.48-1.38.67.53,5.19-.26,10.37,0,15.55.04.74,0,1.26,1.15,1.34,6.37.47,12.43,2.21,18.21,4.9,3.88,1.81,7.64,3.85,10.58,7.1Zm-36.9-29.6c-3.1.47-5.91.81-8.68,1.32-12.1,2.25-22.62,7.82-32.17,15.4-.51.41-1.44.8-.37,1.62,4.09,3.12,7.4,7.06,11.11,10.58.57.54.99.84,1.81.1,3.03-2.73,6.6-4.68,10.1-6.73,5.18-3.02,10.92-3.91,16.73-4.5,1.26-.13,1.51-.57,1.38-1.64-.61-5.26-.56-10.52.1-16.15Zm-44.94,68.02c-.15-1.01-.25-2.4-.59-3.72-.48-1.88-2.51-2.52-4.86-1.68-1.94.7-2.11,2-1.31,3.68.41.88.84,1.77,1.11,2.69.58,1.94-.07,2.91-2.02,2.7-1.41-.14-2,.24-2,1.62,0,2.13-1.06,3.09-3.18,3.05-.92-.02-1.88.58-1.57,1.42.91,2.49.11,5.55,2.62,7.51,2.07,1.61,2.62,4.05,2.98,6.45.63,4.17,2.03,8.21,1.96,12.51-.02,1.5.77,2.94,1.72,4.22,1.81,2.46,1.58,4.99-.58,7.21-.51.52-.85,1-.2,1.64.68.66.98-.05,1.35-.39,1.32-1.19,2.12-2.79,3.43-4.03,3.54-3.34,6.75-7.01,10.49-10.14.7-.58.76-1.05.1-1.79-5.15-5.84-8.13-12.8-10.38-20.14-.34-1.1-.19-2.93-1.7-2.82-1.3.1-.92,1.92-1.35,2.96-.35.85.22,2.26-.99,2.51-1.19.25-2.11-.81-2.84-1.61-.73-.81-1.13-2.02.64-2.17,1.02-.08,1.16-.67,1.29-1.41.19-1.06.04-2.09-.28-3.12-.19-.6-.34-1.35.46-1.68.66-.27,1.08.29,1.39.73.69.96,1.38,1.47,2.63.83,1.15-.58,2.05-1.5,1.71-2.63-.43-1.42-.05-2.7-.05-4.41Zm11.61-33.36c-4.42-3.55-8.21-7.33-11.92-11.19-1.07-1.12-1.61-1.04-2.56.16-8.76,11.06-14.58,23.35-15.96,37.55-.12,1.21-.83,2.72-.33,3.53.67,1.1,2.22-.2,3.39.05.31.07.66.01.97.1,2.42.75,2.42-.72,1.98-2.3-.56-1.97-.26-3.62.58-5.55.85-1.96,2.33-3.54,2.92-5.56.42-1.45,1.32-1.91,2.69-1.93,1.56-.02,3.01-.18,2.76-2.38-.08-.75.57-1.25,1.17-1.4,2.53-.64,4.06-2.5,5.67-4.33.52-.59,1.24-1.2,1.97-1.35,1.69-.36,2.7-1.46,3.57-2.74.75-1.11,1.68-1.96,3.11-2.66Zm34.31,63.39c-.11-2.36-.11-2.39-1.09-2.42-4.98-.18-9.26-2.11-12.96-5.35-.62-.54-.81-.56-1.25.05-2.67,3.72-6.21,6.62-9.45,9.8-1.11,1.09-.87,1.55.2,2.36,5.51,4.19,11.6,7.07,18.34,8.68,2.09.5,2.85.09,2.65-2.1-.22-2.36.53-4.03,3.35-3.85.64.04,1.76-.38,1.2-.92-2.02-1.92-.78-4.17-.99-6.25Zm44.91-60.73c2.53-.11,4.75.45,6.98.84,2.69.48,2.85,3.56,4.7,4.98.94.72.03,1.58-.26,2.4-.13.36.12.97.38,1.32.37.49.86.15,1.29-.08,3.83-2.08,6.26-1.38,8.74,2.44.43.67.44,1.29-.2,1.69-1.56.98-1.32,2.87-2.23,4.17-.33.47-.39,1.14.2,1.52.51.33,1.09.22,1.63-.04,1.08-.52,3.49-4.53,3.3-5.73-.86-5.19-3.05-9.58-8.08-11.84-2.17-.97-2.47-2.07-1.21-3.89.85-1.23,1.14-2.45.24-3.83-1.99-3.07-4.36-5.85-6.71-8.64-.51-.6-.86-.8-1.52-.11-5.45,5.68-10.93,11.32-16.41,16.98-.42.44-.77.9-.2,1.45.27.27.64.64.95.63.61-.02.51-.72.73-1.12.19-.35.32-.75.4-1.15.45-2.44,2.04-2.91,4.15-2.38,1.11.28,2.21.52,3.13.39Zm3.87,58.33c2.16.95,3.62,4.05,2.68,6.46-.83,2.13-1.13,4.36-1.73,6.53-1.38,5.05-2.83,5.92-7.78,4.41-3.73-1.14-7.52-2.02-11.4-2.43-.75-.08-1.88-.41-2.01.67-.11.84,1.01.9,1.67,1.06,3.16.76,6.31,1.52,8.98,3.53.67.5,1.57.63,2.34.34,1.35-.5,2.72-.4,4.09-.38,1.93.03,3.35-.16,3.71-2.72.24-1.68,1.38-4,3.01-4.29,1.55-.27,1.23,2.24,1.85,3.46.06.11.23.16.52.36,5.51-6.46,10.02-13.5,12.57-21.69.77-2.48.42-2.79-2.22-2.34-2.44.42-4.86,1.44-7.37.32-.69-.31-.78.33-1.04.68-1.67,2.21-2.1,2.24-3.94.27-1.48,1.81-2.23,4.12-3.95,5.76Zm-18.49-62.06c-7.21-4.86-14.91-8-23.43-9.08-.64-.08-1.01.03-.88.67.72,3.46.04,6.97.44,10.43.19,1.68,3.67,3.14,5.02,2.15,1.5-1.1,2.96-2.25,4.4-3.42.57-.47,1.02-1.04,1.89-.6.79.4.91,1.07.92,1.83.03,3.06-.97,5.47-3.82,7.07-1.44.81-3.25,1.22-4.25,3.23,3.06-2.27,4.98-.58,7.08,1.32,1.07.97,2.62.39,3.18-.98.87-2.14,2.49-3.35,4.42-4.28,1.41-.68,2.7-1.5,3.65-2.75.3-.39,1.12-1.02-.25-1.3-2.26-.46-1.59-1.52-.4-2.58.6-.54,1.23-1.04,2.02-1.71Zm-36.31,1.99c.38,2.44.54,2.54,2.77,2.09.63-.13,1.28-.32,1.9-.25.75.08.87-.24.74-.79-.86-3.52-.45-7.1-.48-10.65,0-.98-.39-1.28-1.33-1.14-8.75,1.33-16.71,4.4-23.35,10.47-1.08.99-.91,1.47.27,2.2,1.3.8,2.83,1.06,4.03,2.15,1.2,1.09-1.08,1.84,0,2.74,1.3,1.08,1.92-1.54,2.9-.63,1.28,1.18,2.69.86,4.15,1.04,4.03.5,4.72.17,5.9-3.68.42-1.38.71-2.84,2.5-3.54Zm-83.38,36.38c.86,6.88,1.3,13.66,3.28,20.17.27.87-.16,2.48.77,2.5,1.36.03,1.37-1.72,1.95-2.72.31-.54-.03-1.12.03-1.65.36-3.06.65-6.29,3.67-8.02,1.23-.7,2.32-1.42,3.18-2.5,1.34-1.7,2.89-2.68,5.17-1.23-.59-1.97-.41-3.67-.43-5.36,0-.55.4-1.25-.83-1.23-5.57.08-11.15.04-16.8.04Zm109.75,33.91c.21,1.06,1.02,1.88-.11,2.74-.91.69-1.66.28-2.49-.07-.63-.27-1.6-1.23-1.87-.6-.9,2.07-1.71.51-2.5.12-4.57-2.29-6.18-2.25-8.61,1-1.19,1.59-2.68,2.41-4.3,3.3-.66.36-2.15.43-1.73,1.56.4,1.07,1.77.98,2.82.89.44-.04.9-.34,1.27-.62,2.27-1.79,4.89-.38,7.31-.78.45-.07.53.5.71.86.48.97,5.24,2.76,6.28,2.4.49-.17.85-.5.97-1.01.41-1.72,1.78-2.1,3.25-2.5,3.12-.85,5.57-2.61,6.93-5.63.38-.85.92-1.97-.07-2.66-.84-.58-1.82.08-2.38.71-1.69,1.89-3.36,2.47-5.46.31Zm33.02,17.84c.15-.25.3-.49.45-.74-.53.61-1.06,1.22-1.6,1.83-1.8,2.04-1.48,3.53,1.05,4.59,1.13.48,2.19,1.06,3.12,1.85,2.1,1.8,2.18,3.03.45,5.12-.82.99-1.67,2-2.3,3.12-.77,1.38.25,2.42.95,3.5.59.91,1.23.18,1.58-.07,3-2.15,5.96-4.39,8.74-7.4-1.97.04-3.3-.5-3.55-2.22-.28-1.91-1.36-3.23-2.73-4.41-2.03-1.75-4.1-3.45-6.16-5.17Zm-92.72-43.98c2.19,5.69,4.14,11.02,7.76,15.52.34.43.44,1.76,1.48.65,1.44-1.54,2.9-3.06,4.25-4.68.67-.8-.32-4.39-1.1-4.44-3.16-.21-3.3-.33-4.49-3.46-.29-.76-.87-1.15-1.69-1.05-.48.06-.99.3-1.22-.35-.85-2.36-2.94-1.79-4.99-2.2Zm100.84-8.3c1.62,1.2,2.03,2.91,2.38,4.65.12.59.43,1.06.91,1.39,1.64,1.13,2.92,2.52,3.55,4.46.12.37.44.71.91.66.58-.07.36-.59.49-.93,1.08-2.74.87-5.71,1.57-8.5.38-1.5-.24-1.65-1.42-1.61-2.73.1-5.46.2-8.38-.12Zm-75.08-.12c-1.23.15-2.51.72-3.01-.8-.57-1.73-.82-3.09-3.52-3.14-1.96-.03-2.73.33-3.57,1.75-.81,1.37-.47,3.32-3.01,4.33,3.6,0,6.31-.46,8.99-1.07.76-.17,1.46-.72,2.24.06,1.64,1.64,1.52.05,1.89-1.13Zm-47.6.81h-3.94c.48,3.76.95,7.41,1.48,11.58.44-1.43,2.1-1.99,1.49-3.16-1.63-3.12.15-5.64.97-8.42Zm82.29,29.28c1.21-.57,2.34-1.09,3.47-1.62.21-.1.46-.22.59-.4.23-.3.48-.65.54-1.01.07-.4-.36-.45-.67-.49-1.43-.2-3.6,1.67-3.93,3.52Z"/>
        <path class="cls-1" d="m217.98,339.34c-5.15-1.59-9.82-.7-14.36,1.42-4.3,2-8.05,4.86-11.86,7.62-8.49,6.13-17.37,11.41-27.9,13.25-16.44,2.88-30.38-2.31-42.57-13.15-.29-.25-.52-.57-.88-.98,1.24-.49,2.16-.16,3.13.25,12.69,5.37,25.47,5.32,38.13.14,10.28-4.21,20.24-9.23,31.12-11.88,10.47-2.55,20.88-2.74,31.23.61,1.71.55,3.21.41,4.9-.39,3.35-1.57,7.06-1.82,10.69-2.06,13.35-.91,25.84,1.98,38,7.62,8.85,4.11,17.85,8.19,27.96,8.7,8.51.43,16.57-.9,24.2-4.73.67-.34,1.25-1.12,2.43-.59-2.55,3.3-5.72,5.78-9.08,7.96-17.45,11.3-35.18,10.57-53.08,1.09-6.13-3.24-11.59-7.48-17.23-11.44-5.76-4.04-11.93-4.5-18.68-3.28.72,1.18,1.83,1.39,2.73,1.84,12.52,6.24,23.74,14.31,33.98,23.82,1.42,1.31,1.35,2.08-.04,3.19-1.46,1.16-2.87,2.4-4.19,3.71-1.1,1.09-1.68.81-2.69-.26-9.1-9.65-18.61-18.84-29.96-25.87-.69-.43-1.46-.75-2.08-1.27-3.99-3.38-7.83-2.64-11.97-.07-11.97,7.42-22.72,16.22-31.47,27.32-1.06,1.34-1.76,1.65-2.95.37-.38-.41-.88-.72-1.31-1.09q-4.66-3.88-.13-8.1c9.66-8.92,20.29-16.47,32.08-22.33.51-.25,1.01-.52,1.5-.81.12-.07.17-.25.38-.61Z"/>
        <path class="cls-1" d="m337.2,307.8c6.24-4.26,13.01-7.57,19.74-10.93,7.7-3.85,15.36-7.76,21.67-13.81,3.77-3.61,6.85-7.72,9.29-12.36-1.12,7.66-4.16,14.49-8.62,20.7-9.11,12.69-20.9,21.92-35.77,26.93-6.23,2.1-12.82,2.77-19.24,4.11-3.1.65-6.17,1.39-9.25,2.1-.85.2-1.67.65-2.78.1,2.96-3.07,5.69-6.24,7.85-9.85,4.63-7.74,7.38-16.24,9.93-24.79,3.88-13.02,11.09-24.05,19.71-34.36-4.32,9.67-4.53,20.18-6.41,30.34-1.16,6.3-3.08,12.27-6.59,17.66-.71,1.1-.96,2.52-2.21,3.25-2.62,3.26-5.47,6.32-8.32,9.41,4.2-2.19,7.3-5.73,10.99-8.52Z"/>
        <path class="cls-1" d="m104.36,268.72c-.07-.47-.13-.94-.2-1.42-.09-.2-.18-.39-.27-.59.04-.14,0-.26-.09-.37.06-.57.03-1.12-.39-1.58.04-.13.01-.25-.08-.36-.26-1.83-1-3.5-1.7-5.18-.38-.91-.02-.94.68-.62,0,0,.01,0,.01,0,1.15,1.74,2.28,3.5,3.87,4.89,0,0,0,0,0,0,2.31,3.39,4.61,6.78,6.92,10.16.11.18.22.36.33.54,4.64,7.81,7.23,16.45,10.14,24.97,2.81,8.25,6.17,16.25,12.09,22.86,1.21,1.35,2.51,2.63,4.27,4.48-9.5-2.84-18.65-3.63-27.61-5.47-7.9-1.63-15.15-4.62-21.74-9.31-3.3-2.35-6.32-5.05-9.59-7.44,0,0,.02.02.02.02-1.08-1.66-2.54-2.96-4.02-4.25,0,0-.03-.05-.03-.05-1.93-2.44-3.86-4.87-5.8-7.31,0,0-.02-.03-.02-.03-.14-.2-.28-.39-.42-.59,0-.16-.06-.28-.18-.37-.43-.65-.86-1.31-1.3-1.96,0,0-.01-.02-.01-.02-.96-1.81-1.93-3.62-2.89-5.43.02-.16-.02-.3-.12-.42-.12-.2-.23-.41-.35-.61.01-.14-.03-.27-.13-.37.03-.39-.08-.71-.42-.93,0,0,0-.02,0-.02-.44-1.38-.89-2.75-1.3-4.14-.17-.57-.6-1.35.24-1.65.67-.24.87.55,1.16,1,2.38,3.68,5.18,6.99,8.71,9.64,5.33,4.76,11.68,7.86,18.03,10.93,9.06,4.38,18.24,8.52,25.88,15.32,1.87,1.67,3.91,3.13,6.3,4,.17.12.34.24.52.36.03-.1.06-.2.09-.31-.21-.01-.42-.02-.62-.03-.3-1.82-2.07-2.28-3.14-3.39-7.22-7.46-11.9-16.18-13.57-26.53-.86-5.33-1.37-10.72-2.75-15.96-.05-.33-.09-.66-.14-.98.1-.55.04-1.07-.35-1.51Z"/>
        <path class="cls-1" d="m364.38,266.81c-.06.34-.11.67-.17,1.01-.55.73-.7,1.59-.8,2.46-.43.56-.63,1.2-.66,1.91-1.47,2.99-2.78,6.06-4.44,8.99,2.15-2.53,4.37-4.97,5.83-7.98.62-.92,1.39-1.75,1.65-2.87.16-.16.32-.32.48-.49,5.15-6.78,10.8-13.11,16.88-19.08,6.9-6.77,12.88-14.22,15.24-23.93.07-.28.31-.54.52-.77.09-.1.29-.1.66-.2.66,6.98-.15,13.73-2.31,20.31-4.5,13.7-13.27,24.26-24.67,32.74-8.79,6.53-18.53,11.66-27.11,18.38-.7-.43-.37-.81-.19-1.12,5.07-8.71,6.67-18.38,7.72-28.19,1.25-11.61,1.2-23.37,3.86-34.82.97-4.17,2.36-8.18,4.23-12.07-.64,9.81,2.39,19.1,3.76,28.6.76,5.28.69,10.51-.15,15.75-.39.39-.43.87-.35,1.37Z"/>
        <path class="cls-1" d="m311.09,329.49c.36-.04.72-.07,1.08-.11.14-.03.27-.06.41-.1.46.01.93.02,1.39.03,1.64.01,3.27-.09,4.85-.55,11.11-.67,22.21-1.43,32.39-6.66,3.93-2.02,7.31-4.73,10.36-7.95-1.02,3.23-2.95,5.91-5.13,8.35-11.22,12.59-25.03,19.95-42.15,20.14-8.33.09-16.43-1.71-24.49-3.61-7.26-1.71-14.44-3.78-21.88-4.6-.29-.03-.57-.21-1.22-.46,4.21-1.26,8.11-2.2,11.9-3.53,8.65-3.03,15.04-9.06,21.25-15.44,6.85-7.03,13.88-13.9,21.72-19.86,1.07-.82,2.18-1.6,3.46-2.25-5,7.45-7.52,16.11-12.1,23.74-3.32,5.54-8.08,9.43-13.66,12.47-3.24,1.05-6.49,2.11-9.73,3.16.05.2.1.4.14.6,7.13-1.13,14.26-2.25,21.4-3.38Z"/>
        <path class="cls-1" d="m52.19,230.13c.11.1.23.16.38.17.55,1.68.79,3.47,1.9,4.93l.02-.02c1.34,3.9,3.66,7.19,6.4,10.21.15.16.3.32.45.48,1.05,1.71,2.4,3.14,3.92,4.43.14.15.28.31.43.46.62.85,1.2,1.76,2.29,2.1v.03c2.63,3.52,5.9,6.42,9.05,9.44,0,0,.05.07.05.07.42.86,1.08,1.5,1.85,2.04.2.41.44.76.98.65v.02c-.12.03-.17.11-.12.23,3.82,5.49,7.64,10.98,11.54,16.6.62-1.2-.1-1.77-.43-2.48-1.63-3.53-3.82-6.78-4.36-10.84-.36-2.71-.56-5.47-1.24-8.15.01-1.61.03-3.23.04-4.84.6-1.74.39-3.56.5-5.35h-.02c.49-.59.43-1.28.37-1.96.04-.32.09-.65.13-.97.83-2.72,1.46-5.48,1.79-8.3.06-.32.11-.64.17-.95,1.31-4.16,1.52-8.45,1.46-12.77-.01-.75-.47-1.61.38-2.22-.02.13.02.24.12.33-.02.39.03.75.4.98,0,0,0,0,0,0,.64,1.81,1.29,3.62,1.93,5.44-.04.15,0,.28.1.39.77,3.26,1.55,6.53,2.32,9.79.05.32.09.63.14.95.05,1.99.24,3.95.87,5.86.03.33.07.65.1.98.57,4.57-.02,9.26,1.34,13.76.05,1.09.1,2.19.15,3.28.57,6.44.99,12.9,2.77,19.17.04.27.08.55.12.82.72,5.03,3.83,9.13,5.61,14.07-6.62-4.17-12.96-8.16-19.3-12.15,0,0,0,0,0,0-.35-.53-.81-.89-1.46-.97h0c-.17-.12-.33-.24-.5-.36l-.12-.11c-.11-.1-.22-.19-.32-.29-.17-.07-.33-.14-.5-.22-.83-.87-1.79-1.56-2.91-1.99h0c-1.15-1.16-2.46-2.13-3.92-2.9h0c-1.12-1.21-2.32-2.31-3.85-2.99v-.03c-4.9-4.68-9.77-9.41-13.65-15.02-.08-.14-.15-.28-.23-.42-2.27-3.74-3.76-7.86-5.67-11.78,0,0,.02,0,.02,0-.51-1.94-1.01-3.88-1.52-5.82-.05-.34-.09-.67-.14-1.01.08-.68.14-1.35-.33-1.94,0,0,.01,0,.01,0-.17-2.76-.33-5.51-.5-8.27.01-.8.03-1.59.04-2.39.32-.06.64-.13.95-.19Z"/>
        <path class="cls-1" d="m139.38,304.53c7.04,6.59,13.67,13.63,21.1,19.78,4.17,3.45,9.06,5.69,14.17,7.38,2.41.79,4.68,2.1,7.33,2.14.45,0,1.28.07,1.21.87-.05.61-.72.56-1.16.62-10.24,1.33-19.94,5.03-30.07,6.87-12.28,2.23-24.36,2.36-36.06-2.7-8.09-3.5-15.05-8.56-20.85-15.2-.42-.48-.88-.94-1.32-1.41-1.13-1.71-2.27-3.42-3.45-5.2,1.15-.27,1.62.51,2.2,1.01,1.92,1.64,3.96,3.1,6.17,4.32,9,4.97,18.91,6.02,28.9,6.77,8.81.66,17.67.85,26.37,2.71,2.74.59,5.5,1.66,8.55,1.06-.7-.78-1.53-.9-2.29-1.04-11.62-2.1-19.13-9.3-24.31-19.46-2.58-5.06-5.23-10.08-7.84-15.12-.34-.66-1.43-1.35-.6-2.07.75-.65,1.45.36,2.04.81,3.32,2.59,6.6,5.24,9.89,7.87Z"/>
        <path class="cls-1" d="m370.64,256.1c.12-1.4.22-2.82.36-4.24.82-8.25-.75-16.08-3.44-23.88-4.46-12.91-7.63-26.16-8.97-39.79-.22-2.25-.03-4.54-.03-7.15,1.18,2.81,2.15,5.43,3.34,7.94,2.86,6.03,6.71,11.49,10.09,17.22,5.82,9.85,7.58,20.25,4.76,31.37-.18.69-.48,1.38-.1,2.44,1.12-2.24,1.47-4.44,1.88-6.59,2.04-10.57,5.37-20.68,9.96-30.45,4.39-9.34,7.37-19.11,6.05-29.75,2.08,3.72,3.13,7.75,3.77,11.85,2.42,15.31.1,29.94-6.92,43.74-2.17,4.27-5.53,7.81-8.46,11.59-3.89,5-7.89,9.9-11.38,15.2-.17.26-.31.59-.91.5Z"/>
        <path class="cls-1" d="m54.57,177.61c.09-.1.12-.21.07-.34,1.36-.89.94.32.9.83-.68,8.78,1.96,16.81,5.5,24.66,2.66,5.91,5.58,11.72,7.59,17.91,1.79,5.53,2.53,11.31,3.97,16.92.44,1.71.72,3.52,2.1,4.92-3.94-12.02-1.48-23.23,3.89-34.14,4.2-8.54,10.5-16,13.03-25.4.03.16.07.32.1.49.02.49.04.98.06,1.47,0,.5.01,1,.01,1.51-.07,2.25-.15,4.49-.22,6.74,0,0,.03,0,.03,0-.61,3.91-1.22,7.83-1.82,11.74-.04.46-.08.93-.12,1.39-2.37,10.85-5.73,21.43-8.78,32.09-1.36,4.74-1.65,9.56-1.11,14.46.2,1.84.27,3.7.39,5.55-4.43-6.68-9.5-12.66-14.72-18.51-4.64-6.07-8.91-12.34-10.86-19.88-.03-.16-.07-.32-.1-.48.03-.38.03-.75-.32-1.01-.08-.33-.16-.66-.24-.99-.1-.34-.19-.68-.29-1.02-.04-.3-.08-.6-.12-.9.04-.39.05-.78-.36-1.01,0,0,.02,0,.02,0-.5-2.94-1-5.87-1.5-8.81-.02-.3-.04-.6-.06-.9-.05-.8-.1-1.61-.15-2.41-.01-.35-.02-.71-.03-1.06.1-.82.23-1.64-.21-2.41,0-.31-.02-.63-.03-.94.42-4.06.42-8.17,1.34-12.18.02-.17.05-.33.07-.5.27-1.14.54-2.28.82-3.43.07-.45.15-.89.22-1.34.51-.95.84-1.96.91-3.04Z"/>
        <path class="cls-1" d="m389.05,151.9c1.32,6.46,2.07,12.96,1.51,19.55-.49,5.85-1.8,11.5-4.17,16.91-2.97,6.78-5,13.86-6.16,21.18-.09.55-.26,1.08-.53,2.23-1.03-3.57-1.61-6.68-2.82-9.6-2.8-6.75-7.07-12.56-11.49-18.26-5.77-7.44-11.32-14.99-14.73-23.87-.67-2.68-1.39-5.35-2.46-7.91-.03-.28-.07-.56-.1-.84.19-1.61,1.02-1.29,1.68-.42,4.46,5.88,10.33,10.29,15.75,15.16,6.82,6.14,11.32,13.48,12.57,22.7.14,1.03-.06,2.31,1.12,3.28,0-.55.04-.94,0-1.31-1.68-12.38-1.38-24.76.03-37.13.94-8.25.91-16.34-2.86-24.03-.62-1.26.6-.5.99-.65,0,0,0,0,0,0,.34.48.67.96,1.01,1.44.1.17.2.35.31.52.23.31.45.63.68.94,0,0,.15.1.15.09,4.27,6.15,7.54,12.78,9.55,20.02Z"/>
        <path class="cls-1" d="m59.56,175.64c-.32-8.16-.69-16.32,1.86-24.27,1.26-3.94,3.04-7.64,4.84-11.34,2.09-2.64,3.36-5.89,5.95-8.18.05.74-.04,1.37-.28,1.94-3.45,8.15-2.48,16.67-1.46,24.97.97,7.9,2.09,15.7,1.42,23.69-.34,4.01-.94,8.03-.65,12.24,1.25-2.31,1.12-4.79,1.66-7.11,1.79-7.61,6.21-13.6,11.41-19.21,5.49-5.92,12.5-10.35,17.01-17.78.32,2.41-.64,4.18-.79,6.06-1.01,1.25-.13,3-1.14,4.25-.92,2.32-1.84,4.64-2.76,6.96-.12.12-.17.26-.15.43-.44.83-.88,1.67-1.32,2.5-.11.09-.16.21-.15.36-.13.21-.27.41-.4.62,0,0-.03.05-.03.05-.86,1-1.55,2.1-1.99,3.35-.47.38-.84.83-.97,1.43-7.9,11.48-17.36,22.05-20.62,36.22-.57-4.16-1.64-8.06-3-11.88-2.98-8.38-6.69-16.51-8.45-25.3Z"/>
        <path class="cls-1" d="m351.13,107.26c-.14-.14-.27-.27-.41-.41-.19-.16-.38-.33-.57-.49,0,0,0,.01,0,.01-.96-1.42.44-.83.89-1.05,8.34,3.18,14.11,9.23,18.59,16.71.13.73.42,1.38.96,1.91,0,0,.02.03.02.03.1.76.37,1.44.91,1.99,0,0-.01,0-.01,0,.15,1.03.45,2,1.02,2.88,0,0,0,.02,0,.02.18.95.35,1.9.53,2.86,1.14,6.03,1.07,12.08.65,18.18-.42,6.2-.61,12.43.36,19.35-1.38-2.01-2.32-3.49-3.37-4.89-4.5-5.97-10.39-10.44-16.2-15.01-5.67-4.46-11.5-8.75-15.69-14.81-2.66-3.86-4.06-8.25-5.75-12.53-.06-.32-.13-.63-.19-.95.14-.61-.2-1.42.42-1.8.55-.34.81.29,1.07.68,3.05,4.54,7.34,7.75,11.75,10.81,4,2.77,8.13,5.37,11.78,8.61,4.27,3.8,7.68,8.28,10.24,13.39.16.33.32.66.47.98.04.03.09.05.13.08-.05-.02-.1-.03-.16-.05-.02-.39.02-.82-.47-.99.05-.84-.27-1.58-.57-2.34-.93-2.31-2.04-4.58-2.67-6.97-2.11-7.99-3.94-16.05-6.1-24.03-1.29-4.77-3.74-8.96-7.65-12.16Z"/>
        <path class="cls-1" d="m93.6,109.35c.18-.07.35-.13.52-.2.13-.09.26-.19.38-.28,0,0,.08-.06.08-.06,1.69-.24,3.04-1.69,4.89-1.39l-.03-.02c-1.39,1.36-2.9,2.56-4.13,4.1-3.93,4.9-5.63,10.72-6.94,16.69-1.52,6.96-2.67,13.99-5.39,20.66-.89,2.18-1.81,4.46-2.07,7.48,1.33-2.59,2.19-4.8,3.49-6.7,3.81-5.54,8.63-10.06,14.23-13.81,4.65-3.11,9.2-6.37,13.03-10.53,1.87-2.03,3.19-4.45,4.82-6.92.39,1.96-.37,3.51-.37,5.12-.05.29-.1.58-.14.87-.39.45-.46,1-.47,1.57,0,0,0-.01,0-.01-1.72,4.53-4.09,8.72-6.87,12.67-.14.18-.27.36-.41.54-1.6,1.79-3.2,3.57-4.8,5.36,0,0-.06.05-.06.05-1.7,1.5-3.38,3.01-5.1,4.48-5.3,4.51-11.22,8.29-15.8,13.67-2.29,2.7-4.34,5.54-6.29,8.9-.27-2.27-.13-4.11.07-5.95.29-2.75.26-5.49,0-8.25-1.21-12.44-1.8-24.82,4.76-36.25,0,0-.01,0-.01,0,1.35-1.12,2.3-2.58,3.34-3.97.16-.18.32-.36.47-.54,1.09-.83,2.04-1.8,2.86-2.9,0,0,.06-.05.06-.05,1.96-1.43,3.92-2.86,5.88-4.3Z"/>
        <path class="cls-1" d="m319.92,94.08c-.13-.13-.26-.26-.39-.38-.2-.2-.4-.4-.6-.59-.13-.14-.26-.27-.39-.41-.71-.81-1.42-1.62-2.48-2.82h2.8s0,0,0,0c.24.34.59.42.98.39.1.11.22.15.36.12.2.11.41.21.61.32.32.08.64.17.96.25,2.94,1.22,5.88,2.44,8.82,3.67.12.1.25.15.41.13,1.65.93,3.3,1.86,4.95,2.79.1.11.22.16.37.15.2.13.39.26.59.39,0,0,.08.06.08.06.13.11.27.23.4.34.1.12.22.19.38.19.73.81,1.56,1.47,2.55,1.92,0,0,0,0,0,0,1.62,1.63,3.24,3.27,4.87,4.9,0,0,0,0,0,0,6.59,8.28,9.77,18.05,12.48,28.5-2.99-2.43-5.73-4.57-8.39-6.81-8.25-6.93-15.11-15.13-21.59-23.68,0,0,0,0,0,0-.15-.2-.3-.4-.45-.6,0-.15-.07-.27-.19-.36-1.69-3.39-4.33-5.97-7.1-8.45Z"/>
        <path class="cls-1" d="m116.46,97.17c.18-.07.35-.14.53-.21,2.28-1.07,4.57-2.14,6.85-3.21,0,0,0,0,0,0,1.68-.49,3.32-1.06,4.84-1.97,0,0,.03-.02.03-.02,1.14-.32,2.28-.63,3.42-.95l.05.08c-.32,1.63-2.29,2.02-2.69,3.59,0,0-.03.04-.03.05-3.19,2.42-5.44,5.65-7.65,8.91,0,0,.01,0,.01,0-.74.44-1.2,1.1-1.47,1.91-.15.18-.3.36-.45.54-.64.82-1.39,1.59-1.92,2.48-6.39,10.95-15.9,18.86-25.73,26.45-.11-.11-.22-.22-.34-.32,2.66-8.24,3.98-17,9.34-24.2.12-.1.19-.22.19-.38.79-.73,1.48-1.53,1.92-2.53,0,0,0,0,0,0,.15-.17.3-.34.45-.5.16-.19.32-.38.49-.58.3-.31.6-.61.9-.92,0,0,.07-.06.07-.06,1-.93,2.01-1.87,3.01-2.8,2.59-1.69,5.18-3.37,7.77-5.06.14-.11.28-.22.41-.33Z"/>
        <path class="cls-1" d="m99.47,107.42c.05-.08.1-.17.15-.25,0,.04,0,.09-.02.12-.04.05-.11.08-.16.11,0,0,.03.02.03.02Z"/>
        <path class="cls-1" d="m92.26,134.84l-.46.21c.04-.18.08-.36.12-.54.12.1.23.21.34.32Z"/>
        <path class="cls-1" d="m132.13,90.83c.17-.11.35-.23.53-.33,0,0,.08.11.13.17-.2.08-.4.16-.6.24,0,0-.05-.08-.05-.08Z"/>
        <path class="cls-1" d="m245.67,100.59c-2.49-.86-5,.5-7.61.81-2.58.31-5.06.24-6.95-1.9-.69-.78-.97-1.97.39-1.92,3.47.11,6.1-1.95,9.09-3.04,2.81-1.02,8.37.02,10.45,2.17.79.81.92,1.37-.17,2.07-1.53.97-3.07,1.82-5.19,1.81Z"/>
        <path class="cls-1" d="m281.4,109.21c3.92.19,4.46.6,5.33,4.09.15.61.57,1.3-.1,1.76-.62.43-1.49.49-2.05.01-1.51-1.3-2.94-2.71-4.35-4.12-.34-.34-.38-.9-.11-1.35.29-.48.79-.48,1.28-.39Z"/>
      </g>
    </g>
  </g>
</svg>