<?xml version="1.0" encoding="UTF-8"?>
<svg id="Layer_2" data-name="Layer 2" xmlns="http://www.w3.org/2000/svg" viewBox="0 0 132.61 59.4">
  <defs>
    <style>
      .cls-1 {
        fill: black;
        stroke-width: 0px;
        

        
      }
    </style>
  </defs>
  <g id="Layer_1-2" data-name="Layer 1">
    <g>
      <path class="cls-1" d="m21.11,34.52c-1.04.61-2.13,1.55-3.39,1.89-1.33.36-2.5-.59-2.53-1.94-.09-3.87-.19-7.77.21-11.61.26-2.53,1.64-2.93,4.07-1.95-.2,4.16-.4,8.29-.6,12.42.22.09.45.18.67.26.62-1.45,1.5-2.84,1.81-4.35.59-2.97.81-6.02,1.32-9.02.1-.57,1.05-1.52,1.27-1.43.8.32,2,.94,2.06,1.56.25,2.26.1,4.56.1,6.6,1.53-1.67,3.28-3.69,5.15-5.58,1.18-1.19,2.53-2.66,4.41-1.6,1.83,1.04,1.7,2.96,1.33,4.76-.48,2.35-1.08,4.68-1.55,7.03-.14.71-.02,1.47-.02,2.64,2.37-1.84,4.19-3.34,3.83-6.4-.19-1.64.02-3.4.39-5.02.57-2.48,1.78-2.89,4.09-1.83-.2,4.17-.39,8.28-.61,12.95,1.58-2,3.04-3.27,3.01-5.64-.03-2.38.56-4.77.8-7.16.15-1.52,1.23-1.39,2.18-1.29,1.18.12,2.77-.18,2.81,1.77.04,1.97,0,3.94,0,6.2,1.36-1.5,2.65-2.93,3.96-4.35.53-.57.99-1.38,1.65-1.61,1.08-.39,2.33-.63,3.43-.44.4.07.79,1.52.8,2.35.02,2.04-.19,4.08-.34,6.67,2.01-2.32,3.69-4.38,5.51-6.3.79-.84,1.78-1.66,2.84-2.04,1.6-.57,2.25.13,1.96,1.8-.42,2.44-.89,4.87-1.26,7.32-.13.85-.02,1.74-.02,2.62.25.1.5.19.75.29.93-1.49,2.01-2.92,2.76-4.5,1.09-2.29,1.96-4.68,2.92-7.04.57-1.41,1.52-2.13,3.12-1.93,1.19.15,2.42.04,3.6.24.74.13,1.41.64,2.04.94-1.58.92-3.31,1.42-4.24,2.57-1.84,2.3-3,7.41-2.91,10.94.62-.95,1.02-1.56,1.41-2.17,1.45-2.26,2.82-4.59,4.41-6.75.49-.66,1.61-1.19,2.43-1.19,2.49.02,2.78.6,2.17,3-.46,1.84-.8,3.71-.95,5.69,1.38-1.62,3.7-2.4,3.77-5.04.03-1.11.51-2.21.65-3.32.25-1.88,1.25-2.57,3.08-2.18,2.09.45,2.56,1.35,2.23,3.51-.51,3.41-.85,6.85-1.27,10.27.21.14.43.29.64.43.74-.58,1.78-1.01,2.18-1.77,1.7-3.24,3.36-6.51,4.75-9.89,1.01-2.47,2-3.48,3.84-2.97,1.77.49,2.55,2.35,2.06,4.71-.29,1.38-1.31,3.32.66,3.85,1.82.49,2.38-1.38,2.9-2.95.67-2,1.57-3.94,2.5-5.85,1.3-2.7,6.81-3.01,8.61-.74-1.31.71-3.12,1.12-3.89,2.24-2.15,3.12-2.88,6.82-2.73,10.78.44-.75.87-1.5,1.34-2.23,1.37-2.14,2.66-4.36,4.21-6.37.52-.68,1.75-1.17,2.64-1.14,2.32.08,2.52.56,1.98,2.77-.47,1.91-.83,3.84-1.36,6.38,2.04-1.91,3.64-3.4,5.23-4.89.22.16.44.32.66.47-1.6,2.59-3.02,5.31-4.87,7.71-1.21,1.58-3.6,1.01-4.65-.81-.42-.73-.69-1.54-1.17-2.64-1.49,2.62-2.52,5.74-6.5,4.44-2.27-.74-2.75-2.37-2.7-4.47-.2-.01-.41-.03-.61-.04-.23,1.08-.66,2.16-.67,3.24-.05,3.95.19,7.92,0,11.86-.11,2.22-.65,4.48-1.35,6.61-.83,2.5-2.76,3.66-5,3.49-2.32-.17-4.27-1.67-4.48-4.35-.28-3.49-.23-7.06.17-10.53.42-3.69,1.4-7.33,2.21-11.37-.96,1.68-1.68,3.07-2.52,4.39-1.01,1.59-2.39,2.63-4.41,2.35-1.91-.27-2.93-1.59-3.65-3.21-.37-.83-.63-1.72-.86-2.34-1.46,1.37-2.76,3.12-4.49,4.07-1.54.84-2.77-.51-4.28-4.12-1.49,2.63-2.55,5.8-6.52,4.4-1.75-.61-2.38-1.37-2.68-3.31-1.72.14-3.42.52-5.06.35-1.97-.2-2.67-1.69-2.29-3.57.38-1.86.88-3.69,1.14-5.71-.51.74-1,1.49-1.55,2.2-1.2,1.57-2.33,3.22-3.7,4.63-.62.63-2.07,1.28-2.59.98-1.02-.6-2.22-1.8-2.33-2.86-.26-2.36.1-4.78.23-7.81-2.71,3.98-5.13,7.53-7.75,11.36-1.23-.65-2.42-1.29-3.71-1.98-.83,1.06-1.58,2.8-2.86,3.4-.97.45-2.62-.58-4.4-1.06-1.81,1.53-3.33,1.74-5.29.36-1.79-1.26-2.51-4.34-1.53-6.77.58-1.44,1.32-2.82,1.86-4.27.28-.74.28-1.59.49-2.91-.77.66-1.22.9-1.45,1.27-2.18,3.55-4.31,7.15-6.51,10.69-.56.9-1.33,2.36-1.99,2.35-1.13-.02-2.25-.99-3.19-1.47Zm88.38-1.17c-.2-.04-.4-.08-.6-.12-.16.2-.41.38-.45.59-1.1,6.24-2.33,12.47-3.17,18.75-.21,1.53.85,3.23,1.33,4.86l.81-.14c2.81-7.82,2.7-15.86,2.08-23.95Z"/>
      <path class="cls-1" d="m16.87,9.09c-.8,1.93-1.79,3.8-2.37,5.79-2.32,7.88-3.95,15.91-4.76,24.1-.08.79-.66,1.92-1.3,2.18-1.27.52-2.36-.12-2.63-1.6-.52-2.89-1.5-5.81-1.38-8.69C4.8,21.59,2.98,12.73.28,3.96-.5,1.44.32.59,2.94,1.26c2.04.52,3.26,2,3.76,3.96.96,3.76,1.79,7.56,2.68,11.34.09.38.26.75.57,1.65,1.75-5.9,4.64-10.64,8.04-15.04.99-1.28,2.51-2.2,3.93-3.06.5-.3,1.41.1,2.14.17.04.21.08.41.13.62-1.79,1.47-3.58,2.94-5.37,4.4.25.16.49.32.74.49.78.64,1.94,1.14,2.25,1.96.35.93.12,2.2-.18,3.22-.51,1.76-1.22,3.47-1.97,5.14-.26.58-.86,1-1.3,1.5-.57-.62-1.6-1.23-1.62-1.86-.05-2.15.26-4.3.43-6.46-.1-.07-.2-.14-.3-.21Z"/>
      <path class="cls-1" d="m40.57,13.85c.57-1.95.98-3.97,1.78-5.82.33-.77,1.5-1.17,2.28-1.74.59.87,1.62,1.71,1.67,2.61.07,1.17-.62,2.4-1.02,3.59-.41,1.2-.81,2.41-1.34,3.56-.27.59-.82,1.05-1.25,1.57-.59-.59-1.32-1.11-1.72-1.81-.28-.49-.12-1.24-.15-1.87-.08-.03-.16-.06-.24-.09Z"/>
    </g>
  </g>
</svg>